<?xml version="1.0" encoding="UTF-8"?>
<svg xmlns="http://www.w3.org/2000/svg" xmlns:xlink="http://www.w3.org/1999/xlink" width="135.21pt" height="195.639pt" viewBox="0 0 135.21 195.639" version="1.1">
<g id="surface1">
<path style=" stroke:none;fill-rule:nonzero;fill:rgb(100%,100%,100%);fill-opacity:1;" d="M 1 189.097656 C 1 192.121094 3.472656 194.589844 6.492188 194.589844 L 128.722656 194.589844 C 131.738281 194.589844 134.210938 192.121094 134.210938 189.097656 L 134.210938 6.445313 C 134.210938 3.421875 131.738281 0.949219 128.722656 0.949219 L 6.492188 0.949219 C 3.472656 0.949219 1 3.421875 1 6.445313 Z M 1 189.097656 "/>
<path style="fill:none;stroke-width:1.999;stroke-linecap:butt;stroke-linejoin:miter;stroke:rgb(0%,0%,0%);stroke-opacity:1;stroke-miterlimit:10;" d="M 1 6.541344 C 1 3.517906 3.472656 1.049156 6.492188 1.049156 L 128.722656 1.049156 C 131.738281 1.049156 134.210938 3.517906 134.210938 6.541344 L 134.210938 189.193687 C 134.210938 192.217125 131.738281 194.689781 128.722656 194.689781 L 6.492188 194.689781 C 3.472656 194.689781 1 192.217125 1 189.193687 Z M 1 6.541344 " transform="matrix(1,0,0,-1,0,195.639)"/>
<path style=" stroke:none;fill-rule:nonzero;fill:rgb(86.29303%,23.658752%,16.767883%);fill-opacity:1;" d="M 4.046875 29.863281 L 4.046875 27.714844 L 5.203125 27.714844 L 10.53125 3.355469 L 12.796875 3.355469 L 18.132813 27.714844 L 19.480469 27.714844 L 19.480469 29.863281 L 12.851563 29.863281 L 12.851563 27.714844 L 14.238281 27.714844 L 13.070313 22.300781 L 7.753906 22.300781 L 6.566406 27.714844 L 8.257813 27.714844 L 8.257813 29.863281 L 4.046875 29.863281 M 8.21875 20.152344 L 12.605469 20.152344 L 10.425781 10.011719 L 8.21875 20.152344 "/>
<path style=" stroke:none;fill-rule:nonzero;fill:rgb(86.29303%,23.658752%,16.767883%);fill-opacity:1;" d="M 131.964844 164.882813 L 131.964844 167.03125 L 130.808594 167.03125 L 125.480469 191.390625 L 123.214844 191.390625 L 117.878906 167.03125 L 116.53125 167.03125 L 116.53125 164.882813 L 123.15625 164.882813 L 123.15625 167.03125 L 121.773438 167.03125 L 122.9375 172.445313 L 128.257813 172.445313 L 129.441406 167.03125 L 127.753906 167.03125 L 127.753906 164.882813 L 131.964844 164.882813 M 127.792969 174.59375 L 123.402344 174.59375 L 125.585938 184.730469 L 127.792969 174.59375 "/>
<path style=" stroke:none;fill-rule:nonzero;fill:rgb(86.29303%,23.658752%,16.767883%);fill-opacity:1;" d="M 11.914063 41.058594 C 13.964844 41.058594 16.011719 41.058594 18.058594 41.058594 C 17.359375 41.027344 16.761719 40.574219 16.199219 40.199219 C 14.9375 39.246094 13.753906 38.15625 12.820313 36.878906 C 12.386719 36.234375 11.925781 35.511719 11.914063 34.710938 M 18.058594 41.058594 C 17.171875 41.085938 16.410156 41.652344 15.734375 42.171875 C 14.539063 43.175781 13.503906 44.371094 12.632813 45.660156 C 12.3125 46.195313 11.933594 46.765625 11.914063 47.40625 C 11.914063 45.289063 11.914063 43.175781 11.914063 41.058594 M 11.914063 47.40625 C 11.886719 46.464844 11.308594 45.644531 10.765625 44.914063 C 9.796875 43.703125 8.648438 42.636719 7.386719 41.742188 C 6.894531 41.4375 6.371094 41.074219 5.773438 41.058594 C 7.820313 41.058594 9.867188 41.058594 11.914063 41.058594 M 5.773438 41.058594 C 6.660156 41.03125 7.421875 40.464844 8.097656 39.945313 C 9.292969 38.941406 10.328125 37.746094 11.199219 36.453125 C 11.519531 35.921875 11.898438 35.351563 11.914063 34.710938 C 11.914063 36.824219 11.914063 38.941406 11.914063 41.058594 "/>
<path style=" stroke:none;fill-rule:nonzero;fill:rgb(86.29303%,23.658752%,16.767883%);fill-opacity:1;" d="M 124.09375 153.6875 C 122.046875 153.6875 120 153.6875 117.953125 153.6875 C 118.652344 153.71875 119.246094 154.171875 119.808594 154.542969 C 121.070313 155.496094 122.253906 156.589844 123.1875 157.867188 C 123.625 158.511719 124.082031 159.234375 124.09375 160.035156 M 117.953125 153.6875 C 118.839844 153.65625 119.597656 153.09375 120.273438 152.570313 C 121.46875 151.566406 122.503906 150.375 123.378906 149.082031 C 123.699219 148.546875 124.078125 147.980469 124.09375 147.335938 C 124.09375 149.453125 124.09375 151.570313 124.09375 153.6875 M 124.09375 147.335938 C 124.125 148.28125 124.699219 149.101563 125.242188 149.832031 C 126.214844 151.039063 127.363281 152.105469 128.625 153 C 129.117188 153.308594 129.636719 153.671875 130.234375 153.6875 C 128.1875 153.6875 126.140625 153.6875 124.09375 153.6875 M 130.234375 153.6875 C 129.347656 153.714844 128.589844 154.277344 127.914063 154.800781 C 126.71875 155.804688 125.683594 156.996094 124.808594 158.289063 C 124.488281 158.824219 124.113281 159.390625 124.09375 160.035156 C 124.09375 157.917969 124.09375 155.804688 124.09375 153.6875 "/>
<path style=" stroke:none;fill-rule:nonzero;fill:rgb(86.29303%,23.658752%,16.767883%);fill-opacity:1;" d="M 68.003906 91.878906 C 72.917969 91.878906 77.832031 91.878906 82.746094 91.878906 C 81.066406 91.804688 79.636719 90.71875 78.289063 89.820313 C 75.257813 87.53125 72.417969 84.910156 70.179688 81.84375 C 69.132813 80.300781 68.03125 78.566406 68.003906 76.640625 M 82.746094 91.878906 C 80.613281 91.945313 78.796875 93.300781 77.171875 94.550781 C 74.300781 96.960938 71.820313 99.824219 69.722656 102.929688 C 68.953125 104.210938 68.046875 105.574219 68.003906 107.117188 C 68.003906 102.035156 68.003906 96.960938 68.003906 91.878906 M 68.003906 107.117188 C 67.933594 104.847656 66.550781 102.882813 65.246094 101.128906 C 62.917969 98.230469 60.164063 95.667969 57.128906 93.523438 C 55.953125 92.789063 54.699219 91.914063 53.265625 91.878906 C 58.179688 91.878906 63.09375 91.878906 68.003906 91.878906 M 53.265625 91.878906 C 55.394531 91.8125 57.214844 90.457031 58.839844 89.207031 C 61.707031 86.796875 64.191406 83.929688 66.285156 80.828125 C 67.058594 79.546875 67.960938 78.183594 68.003906 76.640625 C 68.003906 81.71875 68.003906 86.796875 68.003906 91.878906 "/>
</g>
</svg>
