<?xml version="1.0" encoding="UTF-8"?>
<svg xmlns="http://www.w3.org/2000/svg" xmlns:xlink="http://www.w3.org/1999/xlink" width="135.21pt" height="195.639pt" viewBox="0 0 135.21 195.639" version="1.1">
<g id="surface1">
<path style=" stroke:none;fill-rule:nonzero;fill:rgb(100%,100%,100%);fill-opacity:1;" d="M 1 189.097656 C 1 192.121094 3.472656 194.589844 6.492188 194.589844 L 128.726563 194.589844 C 131.738281 194.589844 134.210938 192.121094 134.210938 189.097656 L 134.210938 6.445313 C 134.210938 3.421875 131.738281 0.949219 128.726563 0.949219 L 6.492188 0.949219 C 3.472656 0.949219 1 3.421875 1 6.445313 Z M 1 189.097656 "/>
<path style="fill:none;stroke-width:1.999;stroke-linecap:butt;stroke-linejoin:miter;stroke:rgb(0%,0%,0%);stroke-opacity:1;stroke-miterlimit:10;" d="M 1 6.541344 C 1 3.517906 3.472656 1.049156 6.492188 1.049156 L 128.726563 1.049156 C 131.738281 1.049156 134.210938 3.517906 134.210938 6.541344 L 134.210938 189.193687 C 134.210938 192.217125 131.738281 194.689781 128.726563 194.689781 L 6.492188 194.689781 C 3.472656 194.689781 1 192.217125 1 189.193687 Z M 1 6.541344 " transform="matrix(1,0,0,-1,0,195.639)"/>
<path style=" stroke:none;fill-rule:nonzero;fill:rgb(86.29303%,23.658752%,16.767883%);fill-opacity:1;" d="M 6.757813 9.90625 L 5.621094 9.90625 L 5.621094 4.1875 C 6.390625 3.75 7.152344 3.425781 7.90625 3.210938 C 8.664063 2.988281 9.429688 2.875 10.199219 2.875 C 12 2.875 13.402344 3.566406 14.40625 4.953125 C 15.417969 6.324219 15.925781 8.242188 15.925781 10.703125 C 15.925781 12.457031 15.644531 14.03125 15.089844 15.425781 C 14.535156 16.8125 13.472656 18.457031 11.90625 20.363281 L 7.960938 25.210938 L 14.664063 25.210938 L 14.664063 22.085938 L 15.960938 22.085938 L 15.960938 29.863281 L 5.496094 29.863281 L 5.496094 25.53125 L 7.59375 22.8125 C 9.382813 20.503906 10.570313 18.539063 11.164063 16.917969 C 11.761719 15.296875 12.058594 13.402344 12.058594 11.238281 C 12.058594 9.191406 11.828125 7.632813 11.375 6.566406 C 10.925781 5.492188 10.269531 4.953125 9.402344 4.953125 C 8.65625 4.953125 8.058594 5.378906 7.609375 6.230469 C 7.164063 7.070313 6.878906 8.296875 6.757813 9.90625 "/>
<path style=" stroke:none;fill-rule:nonzero;fill:rgb(86.29303%,23.658752%,16.767883%);fill-opacity:1;" d="M 129.253906 184.839844 L 130.390625 184.839844 L 130.390625 190.554688 C 129.617188 190.992188 128.855469 191.320313 128.105469 191.53125 C 127.347656 191.757813 126.582031 191.867188 125.8125 191.867188 C 124.011719 191.867188 122.609375 191.175781 121.601563 189.792969 C 120.59375 188.417969 120.085938 186.5 120.085938 184.039063 C 120.085938 182.285156 120.363281 180.714844 120.921875 179.316406 C 121.476563 177.933594 122.539063 176.285156 124.105469 174.382813 L 128.046875 169.535156 L 121.347656 169.535156 L 121.347656 172.660156 L 120.046875 172.660156 L 120.046875 164.882813 L 130.511719 164.882813 L 130.511719 169.214844 L 128.417969 171.929688 C 126.628906 174.238281 125.4375 176.203125 124.84375 177.824219 C 124.25 179.445313 123.953125 181.339844 123.953125 183.507813 C 123.953125 185.554688 124.179688 187.109375 124.636719 188.175781 C 125.085938 189.253906 125.742188 189.792969 126.609375 189.792969 C 127.351563 189.792969 127.949219 189.367188 128.398438 188.511719 C 128.847656 187.671875 129.132813 186.449219 129.253906 184.839844 "/>
<path style=" stroke:none;fill-rule:nonzero;fill:rgb(86.29303%,23.658752%,16.767883%);fill-opacity:1;" d="M 18.050781 37.914063 C 18.042969 41.683594 13.324219 44.425781 11.941406 47.40625 C 10.539063 44.433594 5.8125 41.714844 5.78125 37.945313 C 5.773438 36.171875 7.148438 34.722656 8.835938 34.722656 C 10.53125 34.722656 11.914063 36.15625 11.914063 37.929688 C 11.914063 36.148438 13.285156 34.707031 14.972656 34.707031 C 16.664063 34.699219 18.042969 36.140625 18.050781 37.914063 Z M 18.050781 37.914063 "/>
<path style=" stroke:none;fill-rule:nonzero;fill:rgb(86.29303%,23.658752%,16.767883%);fill-opacity:1;" d="M 117.960938 156.828125 C 117.96875 153.0625 122.6875 150.320313 124.070313 147.335938 C 125.46875 150.3125 130.195313 153.03125 130.226563 156.796875 C 130.234375 158.570313 128.859375 160.019531 127.171875 160.019531 C 125.476563 160.019531 124.09375 158.589844 124.09375 156.8125 C 124.09375 158.597656 122.726563 160.035156 121.039063 160.035156 C 119.34375 160.042969 117.96875 158.605469 117.960938 156.828125 Z M 117.960938 156.828125 "/>
<path style=" stroke:none;fill-rule:nonzero;fill:rgb(86.29303%,23.658752%,16.767883%);fill-opacity:1;" d="M 53.285156 168.621094 C 53.304688 159.582031 64.628906 152.996094 67.945313 145.839844 C 71.304688 152.980469 82.648438 159.503906 82.726563 168.542969 C 82.746094 172.804688 79.441406 176.277344 75.394531 176.277344 C 71.324219 176.277344 68.003906 172.84375 68.003906 168.582031 C 68.003906 172.863281 64.722656 176.316406 60.671875 176.316406 C 56.605469 176.335938 53.304688 172.882813 53.285156 168.621094 Z M 53.285156 168.621094 "/>
<path style=" stroke:none;fill-rule:nonzero;fill:rgb(86.29303%,23.658752%,16.767883%);fill-opacity:1;" d="M 82.726563 22.804688 C 82.707031 31.84375 71.382813 38.429688 68.0625 45.585938 C 64.703125 38.445313 53.359375 31.921875 53.285156 22.882813 C 53.265625 18.621094 56.566406 15.148438 60.613281 15.148438 C 64.683594 15.148438 68.003906 18.582031 68.003906 22.84375 C 68.003906 18.5625 71.285156 15.109375 75.335938 15.109375 C 79.40625 15.089844 82.707031 18.542969 82.726563 22.804688 Z M 82.726563 22.804688 "/>
</g>
</svg>
