<?xml version="1.0" encoding="UTF-8"?>
<svg xmlns="http://www.w3.org/2000/svg" xmlns:xlink="http://www.w3.org/1999/xlink" width="135.21pt" height="195.639pt" viewBox="0 0 135.21 195.639" version="1.1">
<g id="surface1">
<path style=" stroke:none;fill-rule:nonzero;fill:rgb(100%,100%,100%);fill-opacity:1;" d="M 1 189.097656 C 1 192.121094 3.472656 194.59375 6.492188 194.59375 L 128.726563 194.59375 C 131.738281 194.59375 134.210938 192.121094 134.210938 189.097656 L 134.210938 6.445313 C 134.210938 3.421875 131.738281 0.953125 128.726563 0.953125 L 6.492188 0.953125 C 3.472656 0.953125 1 3.421875 1 6.445313 Z M 1 189.097656 "/>
<path style="fill:none;stroke-width:1.999;stroke-linecap:butt;stroke-linejoin:miter;stroke:rgb(0%,0%,0%);stroke-opacity:1;stroke-miterlimit:10;" d="M 1 6.541344 C 1 3.517906 3.472656 1.04525 6.492188 1.04525 L 128.726563 1.04525 C 131.738281 1.04525 134.210938 3.517906 134.210938 6.541344 L 134.210938 189.193687 C 134.210938 192.217125 131.738281 194.685875 128.726563 194.685875 L 6.492188 194.685875 C 3.472656 194.685875 1 192.217125 1 189.193687 Z M 1 6.541344 " transform="matrix(1,0,0,-1,0,195.639)"/>
<path style=" stroke:none;fill-rule:nonzero;fill:rgb(0%,0%,0%);fill-opacity:1;" d="M 6.757813 9.90625 L 5.621094 9.90625 L 5.621094 4.191406 C 6.390625 3.753906 7.152344 3.425781 7.90625 3.214844 C 8.664063 2.988281 9.429688 2.875 10.199219 2.875 C 12 2.875 13.402344 3.570313 14.40625 4.953125 C 15.417969 6.328125 15.925781 8.242188 15.925781 10.707031 C 15.925781 12.457031 15.644531 14.03125 15.089844 15.429688 C 14.535156 16.8125 13.472656 18.460938 11.90625 20.363281 L 7.960938 25.210938 L 14.664063 25.210938 L 14.664063 22.085938 L 15.960938 22.085938 L 15.960938 29.863281 L 5.496094 29.863281 L 5.496094 25.53125 L 7.59375 22.816406 C 9.382813 20.507813 10.570313 18.542969 11.164063 16.921875 C 11.761719 15.300781 12.058594 13.40625 12.058594 11.238281 C 12.058594 9.191406 11.828125 7.636719 11.375 6.570313 C 10.925781 5.492188 10.269531 4.953125 9.402344 4.953125 C 8.65625 4.953125 8.058594 5.378906 7.609375 6.230469 C 7.164063 7.070313 6.878906 8.296875 6.757813 9.90625 "/>
<path style=" stroke:none;fill-rule:nonzero;fill:rgb(0%,0%,0%);fill-opacity:1;" d="M 129.253906 184.839844 L 130.390625 184.839844 L 130.390625 190.554688 C 129.617188 190.992188 128.855469 191.320313 128.105469 191.53125 C 127.347656 191.757813 126.582031 191.871094 125.8125 191.871094 C 124.011719 191.871094 122.609375 191.175781 121.601563 189.792969 C 120.59375 188.417969 120.085938 186.503906 120.085938 184.039063 C 120.085938 182.289063 120.363281 180.714844 120.921875 179.316406 C 121.476563 177.933594 122.539063 176.285156 124.105469 174.382813 L 128.046875 169.535156 L 121.347656 169.535156 L 121.347656 172.660156 L 120.046875 172.660156 L 120.046875 164.882813 L 130.511719 164.882813 L 130.511719 169.214844 L 128.417969 171.929688 C 126.628906 174.238281 125.4375 176.203125 124.84375 177.824219 C 124.25 179.445313 123.953125 181.339844 123.953125 183.507813 C 123.953125 185.554688 124.179688 187.109375 124.636719 188.175781 C 125.085938 189.253906 125.742188 189.792969 126.609375 189.792969 C 127.351563 189.792969 127.949219 189.367188 128.398438 188.515625 C 128.847656 187.675781 129.132813 186.449219 129.253906 184.839844 "/>
<path style=" stroke:none;fill-rule:nonzero;fill:rgb(0%,0%,0%);fill-opacity:1;" d="M 9.238281 37.332031 C 9.238281 38.78125 10.445313 39.953125 11.941406 39.953125 C 13.433594 39.953125 14.644531 38.78125 14.644531 37.332031 C 14.644531 35.886719 13.433594 34.710938 11.941406 34.710938 C 10.445313 34.710938 9.238281 35.886719 9.238281 37.332031 Z M 9.238281 37.332031 "/>
<path style=" stroke:none;fill-rule:nonzero;fill:rgb(0%,0%,0%);fill-opacity:1;" d="M 5.75 42.300781 C 5.75 43.746094 6.957031 44.921875 8.453125 44.921875 C 9.949219 44.921875 11.15625 43.746094 11.15625 42.300781 C 11.15625 40.851563 9.949219 39.675781 8.453125 39.675781 C 6.957031 39.675781 5.75 40.851563 5.75 42.300781 Z M 5.75 42.300781 "/>
<path style=" stroke:none;fill-rule:nonzero;fill:rgb(0%,0%,0%);fill-opacity:1;" d="M 12.675781 42.316406 C 12.675781 42.84375 12.835938 43.339844 13.117188 43.753906 C 13.59375 44.464844 14.433594 44.9375 15.378906 44.9375 C 16.875 44.9375 18.082031 43.761719 18.082031 42.316406 C 18.082031 40.867188 16.875 39.691406 15.378906 39.691406 C 13.882813 39.691406 12.675781 40.867188 12.675781 42.316406 Z M 12.675781 42.316406 "/>
<path style=" stroke:none;fill-rule:nonzero;fill:rgb(0%,0%,0%);fill-opacity:1;" d="M 8.765625 47.410156 C 10.101563 47.410156 10.804688 46.320313 11.171875 45.234375 C 11.539063 44.144531 11.570313 43.058594 11.570313 43.058594 L 12.261719 43.058594 C 12.261719 43.058594 12.386719 47.402344 15.058594 47.410156 Z M 8.765625 47.410156 "/>
<path style=" stroke:none;fill-rule:nonzero;fill:rgb(0%,0%,0%);fill-opacity:1;" d="M 13.769531 39.261719 C 12.253906 40.777344 12.253906 43.058594 12.253906 43.058594 L 11.570313 43.066406 C 11.570313 43.066406 11.570313 40.738281 10.09375 39.261719 "/>
<path style=" stroke:none;fill-rule:nonzero;fill:rgb(0%,0%,0%);fill-opacity:1;" d="M 13.46875 44.136719 C 11.949219 42.617188 9.667969 42.617188 9.667969 42.617188 L 9.667969 41.9375 C 9.667969 41.9375 11.996094 41.9375 13.476563 40.460938 "/>
<path style=" stroke:none;fill-rule:nonzero;fill:rgb(0%,0%,0%);fill-opacity:1;" d="M 10.421875 44.144531 C 11.941406 42.628906 14.21875 42.628906 14.21875 42.628906 L 14.21875 41.945313 C 14.21875 41.945313 11.890625 41.945313 10.414063 40.46875 "/>
<path style=" stroke:none;fill-rule:nonzero;fill:rgb(0%,0%,0%);fill-opacity:1;" d="M 126.773438 157.414063 C 126.773438 155.964844 125.566406 154.789063 124.070313 154.789063 C 122.574219 154.789063 121.367188 155.964844 121.367188 157.414063 C 121.367188 158.859375 122.574219 160.035156 124.070313 160.035156 C 125.566406 160.035156 126.773438 158.859375 126.773438 157.414063 Z M 126.773438 157.414063 "/>
<path style=" stroke:none;fill-rule:nonzero;fill:rgb(0%,0%,0%);fill-opacity:1;" d="M 130.261719 152.445313 C 130.261719 151 129.050781 149.824219 127.558594 149.824219 C 126.0625 149.824219 124.855469 151 124.855469 152.445313 C 124.855469 153.894531 126.0625 155.070313 127.558594 155.070313 C 129.050781 155.070313 130.261719 153.894531 130.261719 152.445313 Z M 130.261719 152.445313 "/>
<path style=" stroke:none;fill-rule:nonzero;fill:rgb(0%,0%,0%);fill-opacity:1;" d="M 123.335938 152.429688 C 123.335938 151.902344 123.175781 151.40625 122.894531 150.992188 C 122.414063 150.28125 121.574219 149.808594 120.632813 149.808594 C 119.136719 149.808594 117.929688 150.984375 117.929688 152.429688 C 117.929688 153.878906 119.136719 155.054688 120.632813 155.054688 C 122.128906 155.054688 123.335938 153.878906 123.335938 152.429688 Z M 123.335938 152.429688 "/>
<path style=" stroke:none;fill-rule:nonzero;fill:rgb(0%,0%,0%);fill-opacity:1;" d="M 127.246094 147.335938 C 125.910156 147.335938 125.207031 148.425781 124.839844 149.511719 C 124.46875 150.601563 124.4375 151.6875 124.4375 151.6875 L 123.75 151.6875 C 123.75 151.6875 123.621094 147.34375 120.953125 147.335938 Z M 127.246094 147.335938 "/>
<path style=" stroke:none;fill-rule:nonzero;fill:rgb(0%,0%,0%);fill-opacity:1;" d="M 122.238281 155.484375 C 123.757813 153.96875 123.757813 151.6875 123.757813 151.6875 L 124.4375 151.679688 C 124.4375 151.679688 124.4375 154.007813 125.917969 155.484375 "/>
<path style=" stroke:none;fill-rule:nonzero;fill:rgb(0%,0%,0%);fill-opacity:1;" d="M 122.542969 150.609375 C 124.0625 152.128906 126.339844 152.128906 126.339844 152.128906 L 126.339844 152.808594 C 126.339844 152.808594 124.015625 152.808594 122.535156 154.285156 "/>
<path style=" stroke:none;fill-rule:nonzero;fill:rgb(0%,0%,0%);fill-opacity:1;" d="M 125.589844 150.601563 C 124.070313 152.117188 121.789063 152.117188 121.789063 152.117188 L 121.789063 152.800781 C 121.789063 152.800781 124.117188 152.800781 125.597656 154.277344 "/>
<path style=" stroke:none;fill-rule:nonzero;fill:rgb(0%,0%,0%);fill-opacity:1;" d="M 74.433594 170.023438 C 74.433594 166.546875 71.535156 163.726563 67.945313 163.726563 C 64.359375 163.726563 61.460938 166.546875 61.460938 170.023438 C 61.460938 173.496094 64.359375 176.316406 67.945313 176.316406 C 71.535156 176.316406 74.433594 173.496094 74.433594 170.023438 Z M 74.433594 170.023438 "/>
<path style=" stroke:none;fill-rule:nonzero;fill:rgb(0%,0%,0%);fill-opacity:1;" d="M 82.800781 158.101563 C 82.800781 154.628906 79.902344 151.808594 76.316406 151.808594 C 72.726563 151.808594 69.828125 154.628906 69.828125 158.101563 C 69.828125 161.578125 72.726563 164.398438 76.316406 164.398438 C 79.902344 164.398438 82.800781 161.578125 82.800781 158.101563 Z M 82.800781 158.101563 "/>
<path style=" stroke:none;fill-rule:nonzero;fill:rgb(0%,0%,0%);fill-opacity:1;" d="M 66.179688 158.066406 C 66.179688 156.796875 65.796875 155.609375 65.125 154.609375 C 63.972656 152.902344 61.960938 151.769531 59.695313 151.769531 C 56.105469 151.769531 53.207031 154.589844 53.207031 158.066406 C 53.207031 161.539063 56.105469 164.359375 59.695313 164.359375 C 63.28125 164.359375 66.179688 161.539063 66.179688 158.066406 Z M 66.179688 158.066406 "/>
<path style=" stroke:none;fill-rule:nonzero;fill:rgb(0%,0%,0%);fill-opacity:1;" d="M 75.566406 145.839844 C 72.359375 145.839844 70.671875 148.449219 69.789063 151.058594 C 68.90625 153.671875 68.828125 156.28125 68.828125 156.28125 L 67.179688 156.28125 C 67.179688 156.28125 66.871094 145.859375 60.460938 145.839844 Z M 75.566406 145.839844 "/>
<path style=" stroke:none;fill-rule:nonzero;fill:rgb(0%,0%,0%);fill-opacity:1;" d="M 63.550781 165.394531 C 67.199219 161.75 67.199219 156.28125 67.199219 156.28125 L 68.828125 156.261719 C 68.828125 156.261719 68.828125 161.847656 72.378906 165.394531 "/>
<path style=" stroke:none;fill-rule:nonzero;fill:rgb(0%,0%,0%);fill-opacity:1;" d="M 64.28125 153.6875 C 67.929688 157.335938 73.398438 157.335938 73.398438 157.335938 L 73.398438 158.96875 C 73.398438 158.96875 67.8125 158.96875 64.261719 162.515625 "/>
<path style=" stroke:none;fill-rule:nonzero;fill:rgb(0%,0%,0%);fill-opacity:1;" d="M 71.59375 153.671875 C 67.945313 157.316406 62.476563 157.316406 62.476563 157.316406 L 62.476563 158.949219 C 62.476563 158.949219 68.0625 158.949219 71.613281 162.496094 "/>
<path style=" stroke:none;fill-rule:nonzero;fill:rgb(0%,0%,0%);fill-opacity:1;" d="M 61.574219 21.40625 C 61.574219 24.878906 64.472656 27.699219 68.0625 27.699219 C 71.652344 27.699219 74.550781 24.878906 74.550781 21.40625 C 74.550781 17.929688 71.652344 15.109375 68.0625 15.109375 C 64.472656 15.109375 61.574219 17.929688 61.574219 21.40625 Z M 61.574219 21.40625 "/>
<path style=" stroke:none;fill-rule:nonzero;fill:rgb(0%,0%,0%);fill-opacity:1;" d="M 53.207031 33.324219 C 53.207031 36.796875 56.105469 39.617188 59.695313 39.617188 C 63.28125 39.617188 66.179688 36.796875 66.179688 33.324219 C 66.179688 29.851563 63.28125 27.027344 59.695313 27.027344 C 56.105469 27.027344 53.207031 29.851563 53.207031 33.324219 Z M 53.207031 33.324219 "/>
<path style=" stroke:none;fill-rule:nonzero;fill:rgb(0%,0%,0%);fill-opacity:1;" d="M 69.828125 33.363281 C 69.828125 34.628906 70.210938 35.820313 70.882813 36.816406 C 72.035156 38.523438 74.050781 39.65625 76.316406 39.65625 C 79.902344 39.65625 82.800781 36.835938 82.800781 33.363281 C 82.800781 29.886719 79.902344 27.066406 76.316406 27.066406 C 72.726563 27.066406 69.828125 29.886719 69.828125 33.363281 Z M 69.828125 33.363281 "/>
<path style=" stroke:none;fill-rule:nonzero;fill:rgb(0%,0%,0%);fill-opacity:1;" d="M 60.441406 45.589844 C 63.648438 45.589844 65.335938 42.976563 66.21875 40.367188 C 67.101563 37.757813 67.179688 35.148438 67.179688 35.148438 L 68.828125 35.148438 C 68.828125 35.148438 69.136719 45.570313 75.546875 45.589844 Z M 60.441406 45.589844 "/>
<path style=" stroke:none;fill-rule:nonzero;fill:rgb(0%,0%,0%);fill-opacity:1;" d="M 72.457031 26.03125 C 68.8125 29.675781 68.8125 35.148438 68.8125 35.148438 L 67.179688 35.164063 C 67.179688 35.164063 67.179688 29.582031 63.628906 26.03125 "/>
<path style=" stroke:none;fill-rule:nonzero;fill:rgb(0%,0%,0%);fill-opacity:1;" d="M 71.726563 37.738281 C 68.082031 34.089844 62.609375 34.089844 62.609375 34.089844 L 62.609375 32.460938 C 62.609375 32.460938 68.195313 32.460938 71.746094 28.910156 "/>
<path style=" stroke:none;fill-rule:nonzero;fill:rgb(0%,0%,0%);fill-opacity:1;" d="M 64.414063 37.757813 C 68.0625 34.109375 73.53125 34.109375 73.53125 34.109375 L 73.53125 32.480469 C 73.53125 32.480469 67.945313 32.480469 64.394531 28.929688 "/>
</g>
</svg>
