<?xml version="1.0" encoding="UTF-8"?>
<svg xmlns="http://www.w3.org/2000/svg" xmlns:xlink="http://www.w3.org/1999/xlink" width="135.21pt" height="195.639pt" viewBox="0 0 135.21 195.639" version="1.1">
<g id="surface1">
<path style=" stroke:none;fill-rule:nonzero;fill:rgb(100%,100%,100%);fill-opacity:1;" d="M 1 189.097656 C 1 192.121094 3.46875 194.589844 6.492188 194.589844 L 128.722656 194.589844 C 131.738281 194.589844 134.210938 192.121094 134.210938 189.097656 L 134.210938 6.445313 C 134.210938 3.421875 131.738281 0.949219 128.722656 0.949219 L 6.492188 0.949219 C 3.46875 0.949219 1 3.421875 1 6.445313 Z M 1 189.097656 "/>
<path style="fill:none;stroke-width:1.999;stroke-linecap:butt;stroke-linejoin:miter;stroke:rgb(0%,0%,0%);stroke-opacity:1;stroke-miterlimit:10;" d="M 1 6.541344 C 1 3.517906 3.46875 1.049156 6.492188 1.049156 L 128.722656 1.049156 C 131.738281 1.049156 134.210938 3.517906 134.210938 6.541344 L 134.210938 189.193687 C 134.210938 192.217125 131.738281 194.689781 128.722656 194.689781 L 6.492188 194.689781 C 3.46875 194.689781 1 192.217125 1 189.193687 Z M 1 6.541344 " transform="matrix(1,0,0,-1,0,195.639)"/>
<path style=" stroke:none;fill-rule:nonzero;fill:rgb(86.29303%,23.658752%,16.767883%);fill-opacity:1;" d="M 5.867188 4.117188 C 6.699219 3.703125 7.507813 3.394531 8.292969 3.195313 C 9.074219 2.980469 9.839844 2.875 10.585938 2.875 C 12.292969 2.875 13.601563 3.449219 14.511719 4.597656 C 15.425781 5.734375 15.886719 7.367188 15.886719 9.496094 C 15.886719 11.097656 15.621094 12.390625 15.097656 13.386719 C 14.574219 14.382813 13.804688 15.050781 12.796875 15.394531 C 14.027344 15.761719 14.945313 16.546875 15.554688 17.753906 C 16.160156 18.960938 16.464844 20.613281 16.464844 22.707031 C 16.464844 25.179688 15.9375 27.082031 14.890625 28.40625 C 13.847656 29.722656 12.335938 30.378906 10.351563 30.378906 C 9.605469 30.378906 8.832031 30.257813 8.035156 30.023438 C 7.246094 29.785156 6.417969 29.429688 5.554688 28.957031 L 5.554688 23.132813 L 6.699219 23.132813 C 6.769531 24.8125 7.050781 26.097656 7.542969 26.984375 C 8.035156 27.863281 8.71875 28.300781 9.59375 28.300781 C 10.550781 28.300781 11.296875 27.804688 11.820313 26.808594 C 12.34375 25.804688 12.605469 24.382813 12.605469 22.546875 C 12.605469 20.628906 12.332031 19.152344 11.78125 18.109375 C 11.238281 17.066406 10.464844 16.546875 9.460938 16.546875 L 8.832031 16.546875 L 8.832031 14.414063 L 9.324219 14.414063 C 10.253906 14.414063 10.953125 14.015625 11.421875 13.210938 C 11.890625 12.402344 12.121094 11.203125 12.121094 9.605469 C 12.121094 8.101563 11.902344 6.953125 11.460938 6.160156 C 11.023438 5.355469 10.394531 4.953125 9.574219 4.953125 C 8.828125 4.953125 8.234375 5.339844 7.800781 6.105469 C 7.363281 6.863281 7.101563 7.972656 7.011719 9.425781 L 5.867188 9.425781 L 5.867188 4.117188 "/>
<path style=" stroke:none;fill-rule:nonzero;fill:rgb(86.29303%,23.658752%,16.767883%);fill-opacity:1;" d="M 130.140625 190.625 C 129.308594 191.039063 128.5 191.347656 127.714844 191.550781 C 126.933594 191.761719 126.167969 191.867188 125.421875 191.867188 C 123.714844 191.867188 122.40625 191.296875 121.496094 190.148438 C 120.582031 189.011719 120.121094 187.378906 120.121094 185.246094 C 120.121094 183.648438 120.386719 182.351563 120.910156 181.359375 C 121.433594 180.363281 122.203125 179.695313 123.214844 179.351563 C 121.980469 178.984375 121.0625 178.199219 120.453125 176.992188 C 119.847656 175.78125 119.546875 174.132813 119.546875 172.035156 C 119.546875 169.5625 120.070313 167.664063 121.117188 166.339844 C 122.160156 165.023438 123.675781 164.367188 125.660156 164.367188 C 126.40625 164.367188 127.175781 164.484375 127.972656 164.722656 C 128.761719 164.960938 129.589844 165.3125 130.453125 165.789063 L 130.453125 171.609375 L 129.308594 171.609375 C 129.238281 169.929688 128.957031 168.644531 128.464844 167.757813 C 127.972656 166.882813 127.289063 166.445313 126.417969 166.445313 C 125.457031 166.445313 124.714844 166.941406 124.191406 167.9375 C 123.664063 168.941406 123.402344 170.363281 123.402344 172.195313 C 123.402344 174.113281 123.679688 175.59375 124.226563 176.636719 C 124.769531 177.675781 125.546875 178.199219 126.550781 178.199219 L 127.175781 178.199219 L 127.175781 180.328125 L 126.683594 180.328125 C 125.753906 180.328125 125.054688 180.730469 124.589844 181.535156 C 124.121094 182.339844 123.886719 183.542969 123.886719 185.140625 C 123.886719 186.644531 124.109375 187.789063 124.550781 188.585938 C 124.984375 189.390625 125.613281 189.792969 126.4375 189.792969 C 127.183594 189.792969 127.773438 189.40625 128.210938 188.636719 C 128.644531 187.878906 128.90625 186.773438 128.996094 185.316406 L 130.140625 185.316406 L 130.140625 190.625 "/>
<path style=" stroke:none;fill-rule:nonzero;fill:rgb(86.29303%,23.658752%,16.767883%);fill-opacity:1;" d="M 11.914063 41.058594 C 13.960938 41.058594 16.011719 41.058594 18.058594 41.058594 C 17.355469 41.027344 16.761719 40.574219 16.199219 40.199219 C 14.9375 39.246094 13.753906 38.15625 12.820313 36.878906 C 12.386719 36.234375 11.925781 35.511719 11.914063 34.710938 M 18.058594 41.058594 C 17.167969 41.085938 16.410156 41.652344 15.734375 42.171875 C 14.539063 43.175781 13.503906 44.371094 12.632813 45.660156 C 12.308594 46.195313 11.933594 46.765625 11.914063 47.40625 C 11.914063 45.289063 11.914063 43.175781 11.914063 41.058594 M 11.914063 47.40625 C 11.886719 46.464844 11.308594 45.644531 10.765625 44.914063 C 9.796875 43.703125 8.648438 42.636719 7.382813 41.742188 C 6.894531 41.4375 6.371094 41.074219 5.773438 41.058594 C 7.820313 41.058594 9.867188 41.058594 11.914063 41.058594 M 5.773438 41.058594 C 6.660156 41.03125 7.417969 40.464844 8.097656 39.945313 C 9.289063 38.941406 10.324219 37.746094 11.199219 36.453125 C 11.519531 35.921875 11.898438 35.351563 11.914063 34.710938 C 11.914063 36.824219 11.914063 38.941406 11.914063 41.058594 "/>
<path style=" stroke:none;fill-rule:nonzero;fill:rgb(86.29303%,23.658752%,16.767883%);fill-opacity:1;" d="M 124.09375 153.6875 C 122.046875 153.6875 120 153.6875 117.953125 153.6875 C 118.652344 153.71875 119.246094 154.171875 119.808594 154.542969 C 121.070313 155.496094 122.253906 156.589844 123.1875 157.867188 C 123.625 158.511719 124.082031 159.234375 124.09375 160.035156 M 117.953125 153.6875 C 118.839844 153.65625 119.597656 153.09375 120.273438 152.570313 C 121.46875 151.566406 122.503906 150.375 123.378906 149.082031 C 123.699219 148.546875 124.074219 147.980469 124.09375 147.335938 C 124.09375 149.453125 124.09375 151.570313 124.09375 153.6875 M 124.09375 147.335938 C 124.125 148.28125 124.699219 149.101563 125.242188 149.832031 C 126.214844 151.039063 127.359375 152.105469 128.625 153 C 129.117188 153.308594 129.636719 153.671875 130.234375 153.6875 C 128.1875 153.6875 126.140625 153.6875 124.09375 153.6875 M 130.234375 153.6875 C 129.347656 153.714844 128.589844 154.277344 127.914063 154.800781 C 126.71875 155.804688 125.683594 156.996094 124.808594 158.289063 C 124.488281 158.824219 124.109375 159.390625 124.09375 160.035156 C 124.09375 157.917969 124.09375 155.804688 124.09375 153.6875 "/>
<path style=" stroke:none;fill-rule:nonzero;fill:rgb(86.29303%,23.658752%,16.767883%);fill-opacity:1;" d="M 68.003906 161.078125 C 63.089844 161.078125 58.175781 161.078125 53.265625 161.078125 C 54.941406 161.152344 56.371094 162.238281 57.71875 163.136719 C 60.75 165.421875 63.589844 168.046875 65.832031 171.113281 C 66.878906 172.65625 67.976563 174.390625 68.003906 176.316406 M 53.265625 161.078125 C 55.394531 161.011719 57.214844 159.65625 58.835938 158.402344 C 61.707031 155.996094 64.191406 153.128906 66.285156 150.027344 C 67.054688 148.742188 67.960938 147.382813 68.003906 145.839844 C 68.003906 150.917969 68.003906 155.996094 68.003906 161.078125 M 68.003906 145.839844 C 68.078125 148.105469 69.460938 150.074219 70.765625 151.828125 C 73.089844 154.726563 75.847656 157.289063 78.878906 159.433594 C 80.058594 160.167969 81.308594 161.042969 82.742188 161.078125 C 77.832031 161.078125 72.917969 161.078125 68.003906 161.078125 M 82.742188 161.078125 C 80.613281 161.144531 78.792969 162.5 77.171875 163.75 C 74.300781 166.160156 71.816406 169.023438 69.722656 172.128906 C 68.953125 173.410156 68.046875 174.773438 68.003906 176.316406 C 68.003906 171.238281 68.003906 166.15625 68.003906 161.078125 "/>
<path style=" stroke:none;fill-rule:nonzero;fill:rgb(86.29303%,23.658752%,16.767883%);fill-opacity:1;" d="M 68.003906 91.878906 C 72.917969 91.878906 77.828125 91.878906 82.742188 91.878906 C 81.066406 91.804688 79.636719 90.71875 78.285156 89.820313 C 75.257813 87.53125 72.417969 84.910156 70.175781 81.84375 C 69.128906 80.300781 68.03125 78.566406 68.003906 76.640625 M 82.742188 91.878906 C 80.613281 91.945313 78.792969 93.300781 77.171875 94.550781 C 74.300781 96.960938 71.816406 99.824219 69.722656 102.929688 C 68.953125 104.210938 68.046875 105.574219 68.003906 107.117188 C 68.003906 102.035156 68.003906 96.960938 68.003906 91.878906 M 68.003906 107.117188 C 67.929688 104.847656 66.550781 102.882813 65.242188 101.128906 C 62.917969 98.230469 60.160156 95.667969 57.128906 93.523438 C 55.949219 92.789063 54.699219 91.914063 53.265625 91.878906 C 58.175781 91.878906 63.089844 91.878906 68.003906 91.878906 M 53.265625 91.878906 C 55.394531 91.8125 57.214844 90.457031 58.835938 89.207031 C 61.707031 86.796875 64.191406 83.929688 66.285156 80.828125 C 67.054688 79.546875 67.960938 78.183594 68.003906 76.640625 C 68.003906 81.71875 68.003906 86.796875 68.003906 91.878906 "/>
<path style=" stroke:none;fill-rule:nonzero;fill:rgb(86.29303%,23.658752%,16.767883%);fill-opacity:1;" d="M 68.003906 30.347656 C 72.917969 30.347656 77.828125 30.347656 82.742188 30.347656 C 81.066406 30.273438 79.636719 29.1875 78.285156 28.289063 C 75.257813 26.003906 72.417969 23.382813 70.175781 20.3125 C 69.128906 18.769531 68.03125 17.035156 68.003906 15.109375 M 82.742188 30.347656 C 80.613281 30.414063 78.792969 31.769531 77.171875 33.023438 C 74.300781 35.429688 71.816406 38.296875 69.722656 41.398438 C 68.953125 42.683594 68.046875 44.042969 68.003906 45.589844 C 68.003906 40.507813 68.003906 35.429688 68.003906 30.347656 M 68.003906 45.589844 C 67.929688 43.320313 66.550781 41.355469 65.242188 39.597656 C 62.917969 36.699219 60.160156 34.136719 57.128906 31.992188 C 55.949219 31.257813 54.699219 30.382813 53.265625 30.347656 C 58.175781 30.347656 63.089844 30.347656 68.003906 30.347656 M 53.265625 30.347656 C 55.394531 30.28125 57.214844 28.925781 58.835938 27.675781 C 61.707031 25.265625 64.191406 22.402344 66.285156 19.300781 C 67.054688 18.015625 67.960938 16.652344 68.003906 15.109375 C 68.003906 20.191406 68.003906 25.269531 68.003906 30.347656 "/>
</g>
</svg>
