<?xml version="1.0" encoding="UTF-8"?>
<svg xmlns="http://www.w3.org/2000/svg" xmlns:xlink="http://www.w3.org/1999/xlink" width="135.21pt" height="195.639pt" viewBox="0 0 135.21 195.639" version="1.1">
<g id="surface1">
<path style=" stroke:none;fill-rule:nonzero;fill:rgb(100%,100%,100%);fill-opacity:1;" d="M 1 189.097656 C 1 192.121094 3.472656 194.589844 6.492188 194.589844 L 128.722656 194.589844 C 131.738281 194.589844 134.210938 192.121094 134.210938 189.097656 L 134.210938 6.445313 C 134.210938 3.421875 131.738281 0.949219 128.722656 0.949219 L 6.492188 0.949219 C 3.472656 0.949219 1 3.421875 1 6.445313 Z M 1 189.097656 "/>
<path style="fill:none;stroke-width:1.999;stroke-linecap:butt;stroke-linejoin:miter;stroke:rgb(0%,0%,0%);stroke-opacity:1;stroke-miterlimit:10;" d="M 1 6.541344 C 1 3.517906 3.472656 1.049156 6.492188 1.049156 L 128.722656 1.049156 C 131.738281 1.049156 134.210938 3.517906 134.210938 6.541344 L 134.210938 189.193687 C 134.210938 192.217125 131.738281 194.689781 128.722656 194.689781 L 6.492188 194.689781 C 3.472656 194.689781 1 192.217125 1 189.193687 Z M 1 6.541344 " transform="matrix(1,0,0,-1,0,195.639)"/>
<path style=" stroke:none;fill-rule:nonzero;fill:rgb(86.29303%,23.658752%,16.767883%);fill-opacity:1;" d="M 16.585938 29.863281 L 8.796875 29.863281 L 8.796875 27.714844 L 10.898438 27.714844 L 10.898438 22.882813 L 4.992188 22.882813 L 4.992188 20.84375 L 10.917969 2.875 L 14.484375 2.875 L 14.484375 20.59375 L 16.910156 20.59375 L 16.910156 22.882813 L 14.484375 22.882813 L 14.484375 27.714844 L 16.585938 27.714844 L 16.585938 29.863281 M 10.898438 20.59375 L 10.898438 7.722656 L 6.683594 20.59375 L 10.898438 20.59375 "/>
<path style=" stroke:none;fill-rule:nonzero;fill:rgb(86.29303%,23.658752%,16.767883%);fill-opacity:1;" d="M 119.421875 164.882813 L 127.214844 164.882813 L 127.214844 167.03125 L 125.109375 167.03125 L 125.109375 171.859375 L 131.015625 171.859375 L 131.015625 173.902344 L 125.089844 191.867188 L 121.527344 191.867188 L 121.527344 174.148438 L 119.101563 174.148438 L 119.101563 171.859375 L 121.527344 171.859375 L 121.527344 167.03125 L 119.421875 167.03125 L 119.421875 164.882813 M 125.109375 174.148438 L 125.109375 187.023438 L 129.328125 174.148438 L 125.109375 174.148438 "/>
<path style=" stroke:none;fill-rule:nonzero;fill:rgb(86.29303%,23.658752%,16.767883%);fill-opacity:1;" d="M 18.050781 37.914063 C 18.039063 41.683594 13.324219 44.425781 11.9375 47.40625 C 10.539063 44.433594 5.8125 41.714844 5.78125 37.945313 C 5.773438 36.171875 7.148438 34.722656 8.835938 34.722656 C 10.53125 34.722656 11.914063 36.15625 11.914063 37.929688 C 11.914063 36.148438 13.28125 34.707031 14.96875 34.707031 C 16.664063 34.699219 18.039063 36.140625 18.050781 37.914063 Z M 18.050781 37.914063 "/>
<path style=" stroke:none;fill-rule:nonzero;fill:rgb(86.29303%,23.658752%,16.767883%);fill-opacity:1;" d="M 117.960938 156.828125 C 117.96875 153.0625 122.6875 150.320313 124.070313 147.335938 C 125.46875 150.3125 130.195313 153.03125 130.226563 156.796875 C 130.234375 158.570313 128.859375 160.019531 127.171875 160.019531 C 125.476563 160.019531 124.09375 158.589844 124.09375 156.8125 C 124.09375 158.597656 122.726563 160.035156 121.039063 160.035156 C 119.34375 160.042969 117.96875 158.605469 117.960938 156.828125 Z M 117.960938 156.828125 "/>
<path style=" stroke:none;fill-rule:nonzero;fill:rgb(86.29303%,23.658752%,16.767883%);fill-opacity:1;" d="M 50.792969 22.804688 C 50.773438 31.84375 39.449219 38.429688 36.128906 45.585938 C 32.769531 38.445313 21.429688 31.921875 21.351563 22.882813 C 21.332031 18.621094 24.632813 15.148438 28.683594 15.148438 C 32.753906 15.148438 36.074219 18.582031 36.074219 22.84375 C 36.074219 18.5625 39.355469 15.109375 43.402344 15.109375 C 47.472656 15.089844 50.773438 18.542969 50.792969 22.804688 Z M 50.792969 22.804688 "/>
<path style=" stroke:none;fill-rule:nonzero;fill:rgb(86.29303%,23.658752%,16.767883%);fill-opacity:1;" d="M 21.351563 168.621094 C 21.371094 159.582031 32.695313 152.996094 36.015625 145.839844 C 39.375 152.980469 50.71875 159.503906 50.792969 168.542969 C 50.8125 172.804688 47.511719 176.277344 43.460938 176.277344 C 39.394531 176.277344 36.074219 172.84375 36.074219 168.582031 C 36.074219 172.863281 32.789063 176.316406 28.742188 176.316406 C 24.671875 176.335938 21.371094 172.882813 21.351563 168.621094 Z M 21.351563 168.621094 "/>
<path style=" stroke:none;fill-rule:nonzero;fill:rgb(86.29303%,23.658752%,16.767883%);fill-opacity:1;" d="M 114.65625 22.804688 C 114.636719 31.84375 103.3125 38.429688 99.992188 45.585938 C 96.632813 38.445313 85.289063 31.921875 85.214844 22.882813 C 85.195313 18.621094 88.496094 15.148438 92.546875 15.148438 C 96.613281 15.148438 99.9375 18.582031 99.9375 22.84375 C 99.9375 18.5625 103.21875 15.109375 107.265625 15.109375 C 111.335938 15.089844 114.636719 18.542969 114.65625 22.804688 Z M 114.65625 22.804688 "/>
<path style=" stroke:none;fill-rule:nonzero;fill:rgb(86.29303%,23.658752%,16.767883%);fill-opacity:1;" d="M 85.214844 168.621094 C 85.234375 159.582031 96.558594 152.996094 99.878906 145.839844 C 103.234375 152.980469 114.578125 159.503906 114.65625 168.542969 C 114.675781 172.804688 111.375 176.277344 107.324219 176.277344 C 103.257813 176.277344 99.933594 172.84375 99.933594 168.582031 C 99.933594 172.863281 96.652344 176.316406 92.605469 176.316406 C 88.535156 176.335938 85.234375 172.882813 85.214844 168.621094 Z M 85.214844 168.621094 "/>
</g>
</svg>
