<?xml version="1.0" encoding="UTF-8"?>
<svg xmlns="http://www.w3.org/2000/svg" xmlns:xlink="http://www.w3.org/1999/xlink" width="135.21pt" height="195.639pt" viewBox="0 0 135.21 195.639" version="1.1">
<g id="surface1">
<path style=" stroke:none;fill-rule:nonzero;fill:rgb(100%,100%,100%);fill-opacity:1;" d="M 1 189.097656 C 1 192.121094 3.472656 194.589844 6.492188 194.589844 L 128.722656 194.589844 C 131.738281 194.589844 134.210938 192.121094 134.210938 189.097656 L 134.210938 6.445313 C 134.210938 3.421875 131.738281 0.949219 128.722656 0.949219 L 6.492188 0.949219 C 3.472656 0.949219 1 3.421875 1 6.445313 Z M 1 189.097656 "/>
<path style="fill:none;stroke-width:1.999;stroke-linecap:butt;stroke-linejoin:miter;stroke:rgb(0%,0%,0%);stroke-opacity:1;stroke-miterlimit:10;" d="M 1 6.541344 C 1 3.517906 3.472656 1.049156 6.492188 1.049156 L 128.722656 1.049156 C 131.738281 1.049156 134.210938 3.517906 134.210938 6.541344 L 134.210938 189.193687 C 134.210938 192.217125 131.738281 194.689781 128.722656 194.689781 L 6.492188 194.689781 C 3.472656 194.689781 1 192.217125 1 189.193687 Z M 1 6.541344 " transform="matrix(1,0,0,-1,0,195.639)"/>
<path style=" stroke:none;fill-rule:nonzero;fill:rgb(86.29303%,23.658752%,16.767883%);fill-opacity:1;" d="M 16.585938 29.863281 L 8.796875 29.863281 L 8.796875 27.714844 L 10.898438 27.714844 L 10.898438 22.886719 L 4.992188 22.886719 L 4.992188 20.84375 L 10.917969 2.875 L 14.484375 2.875 L 14.484375 20.59375 L 16.910156 20.59375 L 16.910156 22.886719 L 14.484375 22.886719 L 14.484375 27.714844 L 16.585938 27.714844 L 16.585938 29.863281 M 10.898438 20.59375 L 10.898438 7.722656 L 6.683594 20.59375 L 10.898438 20.59375 "/>
<path style=" stroke:none;fill-rule:nonzero;fill:rgb(86.29303%,23.658752%,16.767883%);fill-opacity:1;" d="M 119.421875 164.882813 L 127.214844 164.882813 L 127.214844 167.03125 L 125.109375 167.03125 L 125.109375 171.859375 L 131.015625 171.859375 L 131.015625 173.902344 L 125.089844 191.867188 L 121.527344 191.867188 L 121.527344 174.148438 L 119.101563 174.148438 L 119.101563 171.859375 L 121.527344 171.859375 L 121.527344 167.03125 L 119.421875 167.03125 L 119.421875 164.882813 M 125.109375 174.148438 L 125.109375 187.023438 L 129.328125 174.148438 L 125.109375 174.148438 "/>
<path style=" stroke:none;fill-rule:nonzero;fill:rgb(86.29303%,23.658752%,16.767883%);fill-opacity:1;" d="M 11.914063 41.058594 C 13.964844 41.058594 16.011719 41.058594 18.058594 41.058594 C 17.359375 41.027344 16.761719 40.574219 16.199219 40.199219 C 14.9375 39.246094 13.753906 38.15625 12.820313 36.878906 C 12.386719 36.234375 11.925781 35.511719 11.914063 34.710938 M 18.058594 41.058594 C 17.167969 41.085938 16.410156 41.652344 15.734375 42.171875 C 14.539063 43.175781 13.503906 44.371094 12.632813 45.660156 C 12.308594 46.195313 11.933594 46.765625 11.914063 47.40625 C 11.914063 45.289063 11.914063 43.175781 11.914063 41.058594 M 11.914063 47.40625 C 11.886719 46.464844 11.308594 45.644531 10.765625 44.914063 C 9.796875 43.703125 8.648438 42.636719 7.382813 41.742188 C 6.894531 41.4375 6.371094 41.074219 5.773438 41.058594 C 7.820313 41.058594 9.867188 41.058594 11.914063 41.058594 M 5.773438 41.058594 C 6.660156 41.03125 7.417969 40.464844 8.097656 39.945313 C 9.292969 38.941406 10.324219 37.746094 11.199219 36.453125 C 11.519531 35.921875 11.898438 35.351563 11.914063 34.710938 C 11.914063 36.824219 11.914063 38.941406 11.914063 41.058594 "/>
<path style=" stroke:none;fill-rule:nonzero;fill:rgb(86.29303%,23.658752%,16.767883%);fill-opacity:1;" d="M 124.09375 153.6875 C 122.046875 153.6875 120 153.6875 117.953125 153.6875 C 118.652344 153.71875 119.246094 154.171875 119.808594 154.542969 C 121.070313 155.496094 122.253906 156.589844 123.1875 157.867188 C 123.625 158.511719 124.082031 159.234375 124.09375 160.035156 M 117.953125 153.6875 C 118.839844 153.65625 119.597656 153.09375 120.273438 152.570313 C 121.46875 151.566406 122.503906 150.375 123.378906 149.082031 C 123.699219 148.546875 124.074219 147.980469 124.09375 147.335938 C 124.09375 149.453125 124.09375 151.570313 124.09375 153.6875 M 124.09375 147.335938 C 124.125 148.28125 124.699219 149.101563 125.242188 149.832031 C 126.214844 151.039063 127.359375 152.105469 128.625 153 C 129.117188 153.308594 129.636719 153.671875 130.234375 153.6875 C 128.1875 153.6875 126.140625 153.6875 124.09375 153.6875 M 130.234375 153.6875 C 129.347656 153.714844 128.589844 154.277344 127.914063 154.800781 C 126.71875 155.804688 125.683594 156.996094 124.808594 158.289063 C 124.488281 158.824219 124.113281 159.390625 124.09375 160.035156 C 124.09375 157.917969 124.09375 155.804688 124.09375 153.6875 "/>
<path style=" stroke:none;fill-rule:nonzero;fill:rgb(86.29303%,23.658752%,16.767883%);fill-opacity:1;" d="M 36.074219 30.347656 C 40.984375 30.347656 45.898438 30.347656 50.8125 30.347656 C 49.132813 30.273438 47.703125 29.1875 46.355469 28.289063 C 43.324219 26.003906 40.488281 23.382813 38.246094 20.3125 C 37.199219 18.769531 36.101563 17.035156 36.074219 15.109375 M 50.8125 30.347656 C 48.683594 30.414063 46.863281 31.769531 45.238281 33.023438 C 42.371094 35.429688 39.886719 38.296875 37.789063 41.398438 C 37.019531 42.683594 36.113281 44.042969 36.074219 45.589844 C 36.074219 40.507813 36.074219 35.429688 36.074219 30.347656 M 36.074219 45.589844 C 36 43.320313 34.617188 41.355469 33.3125 39.597656 C 30.988281 36.699219 28.230469 34.136719 25.199219 31.992188 C 24.019531 31.257813 22.769531 30.382813 21.332031 30.347656 C 26.246094 30.347656 31.160156 30.347656 36.074219 30.347656 M 21.332031 30.347656 C 23.464844 30.28125 25.28125 28.925781 26.90625 27.675781 C 29.773438 25.265625 32.257813 22.402344 34.355469 19.300781 C 35.125 18.015625 36.027344 16.652344 36.074219 15.109375 C 36.074219 20.191406 36.074219 25.269531 36.074219 30.347656 "/>
<path style=" stroke:none;fill-rule:nonzero;fill:rgb(86.29303%,23.658752%,16.767883%);fill-opacity:1;" d="M 36.074219 161.078125 C 31.160156 161.078125 26.246094 161.078125 21.332031 161.078125 C 23.011719 161.152344 24.441406 162.238281 25.789063 163.136719 C 28.820313 165.421875 31.660156 168.046875 33.898438 171.113281 C 34.945313 172.65625 36.046875 174.390625 36.074219 176.316406 M 21.332031 161.078125 C 23.464844 161.011719 25.28125 159.65625 26.90625 158.402344 C 29.777344 155.996094 32.257813 153.128906 34.355469 150.027344 C 35.125 148.742188 36.03125 147.382813 36.074219 145.839844 C 36.074219 150.917969 36.074219 155.996094 36.074219 161.078125 M 36.074219 145.839844 C 36.144531 148.105469 37.527344 150.074219 38.832031 151.828125 C 41.160156 154.726563 43.914063 157.289063 46.949219 159.433594 C 48.125 160.167969 49.378906 161.042969 50.8125 161.078125 C 45.898438 161.078125 40.984375 161.078125 36.074219 161.078125 M 50.8125 161.078125 C 48.683594 161.144531 46.863281 162.5 45.238281 163.75 C 42.371094 166.160156 39.886719 169.023438 37.789063 172.128906 C 37.019531 173.410156 36.117188 174.773438 36.074219 176.316406 C 36.074219 171.238281 36.074219 166.15625 36.074219 161.078125 "/>
<path style=" stroke:none;fill-rule:nonzero;fill:rgb(86.29303%,23.658752%,16.767883%);fill-opacity:1;" d="M 99.9375 30.347656 C 104.847656 30.347656 109.761719 30.347656 114.675781 30.347656 C 112.996094 30.273438 111.566406 29.1875 110.21875 28.289063 C 107.1875 26.003906 104.351563 23.382813 102.109375 20.3125 C 101.0625 18.769531 99.964844 17.035156 99.9375 15.109375 M 114.675781 30.347656 C 112.546875 30.414063 110.726563 31.769531 109.101563 33.023438 C 106.234375 35.429688 103.75 38.296875 101.652344 41.398438 C 100.882813 42.683594 99.976563 44.042969 99.9375 45.589844 C 99.9375 40.507813 99.9375 35.429688 99.9375 30.347656 M 99.9375 45.589844 C 99.863281 43.320313 98.480469 41.355469 97.175781 39.597656 C 94.847656 36.699219 92.09375 34.136719 89.0625 31.992188 C 87.882813 31.257813 86.632813 30.382813 85.195313 30.347656 C 90.109375 30.347656 95.023438 30.347656 99.9375 30.347656 M 85.195313 30.347656 C 87.324219 30.28125 89.144531 28.925781 90.769531 27.675781 C 93.636719 25.265625 96.121094 22.402344 98.21875 19.300781 C 98.988281 18.015625 99.890625 16.652344 99.9375 15.109375 C 99.9375 20.191406 99.9375 25.269531 99.9375 30.347656 "/>
<path style=" stroke:none;fill-rule:nonzero;fill:rgb(86.29303%,23.658752%,16.767883%);fill-opacity:1;" d="M 99.933594 161.078125 C 95.023438 161.078125 90.109375 161.078125 85.195313 161.078125 C 86.875 161.152344 88.304688 162.238281 89.652344 163.136719 C 92.683594 165.421875 95.519531 168.046875 97.761719 171.113281 C 98.808594 172.65625 99.90625 174.390625 99.933594 176.316406 M 85.195313 161.078125 C 87.324219 161.011719 89.144531 159.65625 90.769531 158.402344 C 93.636719 155.996094 96.121094 153.128906 98.21875 150.027344 C 98.988281 148.742188 99.894531 147.382813 99.933594 145.839844 C 99.933594 150.917969 99.933594 155.996094 99.933594 161.078125 M 99.933594 145.839844 C 100.007813 148.105469 101.390625 150.074219 102.695313 151.828125 C 105.019531 154.726563 107.777344 157.289063 110.808594 159.433594 C 111.988281 160.167969 113.238281 161.042969 114.675781 161.078125 C 109.761719 161.078125 104.847656 161.078125 99.933594 161.078125 M 114.675781 161.078125 C 112.546875 161.144531 110.726563 162.5 109.101563 163.75 C 106.230469 166.160156 103.75 169.023438 101.652344 172.128906 C 100.882813 173.410156 99.976563 174.773438 99.933594 176.316406 C 99.933594 171.238281 99.933594 166.15625 99.933594 161.078125 "/>
</g>
</svg>
