<?xml version="1.0" encoding="UTF-8"?>
<svg xmlns="http://www.w3.org/2000/svg" xmlns:xlink="http://www.w3.org/1999/xlink" width="135.21pt" height="195.639pt" viewBox="0 0 135.21 195.639" version="1.1">
<g id="surface1">
<path style=" stroke:none;fill-rule:nonzero;fill:rgb(100%,100%,100%);fill-opacity:1;" d="M 1 189.097656 C 1 192.121094 3.472656 194.589844 6.492188 194.589844 L 128.722656 194.589844 C 131.738281 194.589844 134.210938 192.121094 134.210938 189.097656 L 134.210938 6.445313 C 134.210938 3.421875 131.738281 0.949219 128.722656 0.949219 L 6.492188 0.949219 C 3.472656 0.949219 1 3.421875 1 6.445313 Z M 1 189.097656 "/>
<path style="fill:none;stroke-width:1.999;stroke-linecap:butt;stroke-linejoin:miter;stroke:rgb(0%,0%,0%);stroke-opacity:1;stroke-miterlimit:10;" d="M 1 6.541344 C 1 3.517906 3.472656 1.049156 6.492188 1.049156 L 128.722656 1.049156 C 131.738281 1.049156 134.210938 3.517906 134.210938 6.541344 L 134.210938 189.193687 C 134.210938 192.217125 131.738281 194.689781 128.722656 194.689781 L 6.492188 194.689781 C 3.472656 194.689781 1 192.217125 1 189.193687 Z M 1 6.541344 " transform="matrix(1,0,0,-1,0,195.639)"/>
<path style=" stroke:none;fill-rule:nonzero;fill:rgb(0%,0%,0%);fill-opacity:1;" d="M 16.585938 29.863281 L 8.796875 29.863281 L 8.796875 27.714844 L 10.898438 27.714844 L 10.898438 22.886719 L 4.992188 22.886719 L 4.992188 20.84375 L 10.917969 2.875 L 14.484375 2.875 L 14.484375 20.59375 L 16.910156 20.59375 L 16.910156 22.886719 L 14.484375 22.886719 L 14.484375 27.714844 L 16.585938 27.714844 L 16.585938 29.863281 M 10.898438 20.59375 L 10.898438 7.722656 L 6.683594 20.59375 L 10.898438 20.59375 "/>
<path style=" stroke:none;fill-rule:nonzero;fill:rgb(0%,0%,0%);fill-opacity:1;" d="M 119.421875 164.882813 L 127.214844 164.882813 L 127.214844 167.03125 L 125.109375 167.03125 L 125.109375 171.859375 L 131.015625 171.859375 L 131.015625 173.902344 L 125.089844 191.867188 L 121.527344 191.867188 L 121.527344 174.148438 L 119.101563 174.148438 L 119.101563 171.859375 L 121.527344 171.859375 L 121.527344 167.03125 L 119.421875 167.03125 L 119.421875 164.882813 M 125.109375 174.148438 L 125.109375 187.023438 L 129.328125 174.148438 L 125.109375 174.148438 "/>
<path style=" stroke:none;fill-rule:nonzero;fill:rgb(0%,0%,0%);fill-opacity:1;" d="M 8.78125 47.402344 C 10.117188 47.402344 10.820313 45.976563 11.1875 44.554688 C 11.554688 43.128906 11.585938 41.707031 11.585938 41.707031 L 12.265625 41.699219 C 12.265625 41.699219 12.394531 47.402344 15.066406 47.402344 Z M 8.78125 47.402344 "/>
<path style=" stroke:none;fill-rule:nonzero;fill:rgb(0%,0%,0%);fill-opacity:1;" d="M 6.515625 41.699219 C 6.523438 38.925781 10.691406 36.90625 11.914063 34.71875 C 13.140625 36.914063 17.304688 38.933594 17.3125 41.699219 C 17.3125 43.011719 16.105469 44.074219 14.609375 44.074219 C 13.121094 44.074219 11.914063 43.011719 11.914063 41.699219 C 11.914063 43.011719 10.707031 44.074219 9.210938 44.074219 C 7.71875 44.074219 6.515625 43.011719 6.515625 41.699219 Z M 6.515625 41.699219 "/>
<path style=" stroke:none;fill-rule:nonzero;fill:rgb(0%,0%,0%);fill-opacity:1;" d="M 127.230469 147.34375 C 125.894531 147.34375 125.1875 148.769531 124.820313 150.191406 C 124.453125 151.613281 124.421875 153.039063 124.421875 153.039063 L 123.742188 153.046875 C 123.742188 153.046875 123.613281 147.34375 120.941406 147.34375 Z M 127.230469 147.34375 "/>
<path style=" stroke:none;fill-rule:nonzero;fill:rgb(0%,0%,0%);fill-opacity:1;" d="M 129.492188 153.046875 C 129.484375 155.820313 125.316406 157.835938 124.09375 160.027344 C 122.871094 157.828125 118.703125 155.8125 118.695313 153.046875 C 118.695313 151.734375 119.902344 150.671875 121.398438 150.671875 C 122.886719 150.671875 124.09375 151.734375 124.09375 153.046875 C 124.09375 151.734375 125.300781 150.671875 126.796875 150.671875 C 128.292969 150.671875 129.492188 151.734375 129.492188 153.046875 Z M 129.492188 153.046875 "/>
<path style=" stroke:none;fill-rule:nonzero;fill:rgb(0%,0%,0%);fill-opacity:1;" d="M 28.550781 45.566406 C 31.753906 45.566406 33.441406 42.152344 34.324219 38.734375 C 35.210938 35.320313 35.285156 31.902344 35.285156 31.902344 L 36.917969 31.882813 C 36.917969 31.882813 37.222656 45.566406 43.636719 45.566406 Z M 28.550781 45.566406 "/>
<path style=" stroke:none;fill-rule:nonzero;fill:rgb(0%,0%,0%);fill-opacity:1;" d="M 23.117188 31.882813 C 23.136719 25.222656 33.136719 20.386719 36.074219 15.128906 C 39.007813 20.40625 49.007813 25.242188 49.027344 31.882813 C 49.027344 35.03125 46.128906 37.585938 42.539063 37.585938 C 38.972656 37.585938 36.074219 35.03125 36.074219 31.882813 C 36.074219 35.03125 33.175781 37.585938 29.585938 37.585938 C 25.996094 37.585938 23.117188 35.03125 23.117188 31.882813 Z M 23.117188 31.882813 "/>
<path style=" stroke:none;fill-rule:nonzero;fill:rgb(0%,0%,0%);fill-opacity:1;" d="M 43.597656 145.859375 C 40.390625 145.859375 38.703125 149.273438 37.820313 152.691406 C 36.9375 156.105469 36.859375 159.523438 36.859375 159.523438 L 35.226563 159.542969 C 35.226563 159.542969 34.921875 145.859375 28.511719 145.859375 Z M 43.597656 145.859375 "/>
<path style=" stroke:none;fill-rule:nonzero;fill:rgb(0%,0%,0%);fill-opacity:1;" d="M 49.027344 159.542969 C 49.007813 166.203125 39.007813 171.039063 36.074219 176.296875 C 33.136719 171.019531 23.136719 166.183594 23.117188 159.542969 C 23.117188 156.394531 26.015625 153.84375 29.605469 153.84375 C 33.175781 153.84375 36.074219 156.394531 36.074219 159.542969 C 36.074219 156.394531 38.972656 153.84375 42.558594 153.84375 C 46.148438 153.84375 49.027344 156.394531 49.027344 159.542969 Z M 49.027344 159.542969 "/>
<path style=" stroke:none;fill-rule:nonzero;fill:rgb(0%,0%,0%);fill-opacity:1;" d="M 92.410156 45.566406 C 95.617188 45.566406 97.304688 42.152344 98.1875 38.734375 C 99.070313 35.320313 99.148438 31.902344 99.148438 31.902344 L 100.78125 31.882813 C 100.78125 31.882813 101.085938 45.566406 107.496094 45.566406 Z M 92.410156 45.566406 "/>
<path style=" stroke:none;fill-rule:nonzero;fill:rgb(0%,0%,0%);fill-opacity:1;" d="M 86.980469 31.882813 C 87 25.222656 97 20.386719 99.9375 15.128906 C 102.871094 20.40625 112.871094 25.242188 112.890625 31.882813 C 112.890625 35.03125 109.992188 37.585938 106.402344 37.585938 C 102.835938 37.585938 99.9375 35.03125 99.9375 31.882813 C 99.9375 35.03125 97.035156 37.585938 93.449219 37.585938 C 89.859375 37.585938 86.980469 35.03125 86.980469 31.882813 Z M 86.980469 31.882813 "/>
<path style=" stroke:none;fill-rule:nonzero;fill:rgb(0%,0%,0%);fill-opacity:1;" d="M 107.460938 145.859375 C 104.253906 145.859375 102.566406 149.273438 101.683594 152.691406 C 100.800781 156.105469 100.722656 159.523438 100.722656 159.523438 L 99.089844 159.542969 C 99.089844 159.542969 98.785156 145.859375 92.371094 145.859375 Z M 107.460938 145.859375 "/>
<path style=" stroke:none;fill-rule:nonzero;fill:rgb(0%,0%,0%);fill-opacity:1;" d="M 112.890625 159.542969 C 112.871094 166.203125 102.871094 171.039063 99.933594 176.296875 C 97 171.019531 87 166.183594 86.980469 159.542969 C 86.980469 156.394531 89.878906 153.84375 93.46875 153.84375 C 97.035156 153.84375 99.933594 156.394531 99.933594 159.542969 C 99.933594 156.394531 102.832031 153.84375 106.421875 153.84375 C 110.011719 153.84375 112.890625 156.394531 112.890625 159.542969 Z M 112.890625 159.542969 "/>
</g>
</svg>
