<?xml version="1.0" encoding="UTF-8"?>
<svg xmlns="http://www.w3.org/2000/svg" xmlns:xlink="http://www.w3.org/1999/xlink" width="135.21pt" height="195.639pt" viewBox="0 0 135.21 195.639" version="1.1">
<g id="surface1">
<path style=" stroke:none;fill-rule:nonzero;fill:rgb(100%,100%,100%);fill-opacity:1;" d="M 1 189.097656 C 1 192.121094 3.472656 194.589844 6.492188 194.589844 L 128.722656 194.589844 C 131.738281 194.589844 134.210938 192.121094 134.210938 189.097656 L 134.210938 6.445313 C 134.210938 3.421875 131.738281 0.949219 128.722656 0.949219 L 6.492188 0.949219 C 3.472656 0.949219 1 3.421875 1 6.445313 Z M 1 189.097656 "/>
<path style="fill:none;stroke-width:1.999;stroke-linecap:butt;stroke-linejoin:miter;stroke:rgb(0%,0%,0%);stroke-opacity:1;stroke-miterlimit:10;" d="M 1 6.541344 C 1 3.517906 3.472656 1.049156 6.492188 1.049156 L 128.722656 1.049156 C 131.738281 1.049156 134.210938 3.517906 134.210938 6.541344 L 134.210938 189.193687 C 134.210938 192.217125 131.738281 194.689781 128.722656 194.689781 L 6.492188 194.689781 C 3.472656 194.689781 1 192.217125 1 189.193687 Z M 1 6.541344 " transform="matrix(1,0,0,-1,0,195.639)"/>
<path style=" stroke:none;fill-rule:nonzero;fill:rgb(86.29303%,23.658752%,16.767883%);fill-opacity:1;" d="M 15.144531 3.355469 L 15.144531 8.007813 L 7.574219 8.007813 L 7.574219 13.828125 C 7.988281 13.226563 8.453125 12.769531 8.964844 12.460938 C 9.476563 12.15625 10.019531 12 10.585938 12 C 12.332031 12 13.710938 12.828125 14.71875 14.484375 C 15.730469 16.132813 16.234375 18.375 16.238281 21.214844 C 16.234375 24.105469 15.730469 26.351563 14.71875 27.960938 C 13.710938 29.570313 12.292969 30.378906 10.472656 30.378906 C 9.703125 30.378906 8.933594 30.257813 8.171875 30.023438 C 7.410156 29.785156 6.617188 29.417969 5.789063 28.921875 L 5.789063 23.132813 L 6.929688 23.132813 C 6.964844 24.871094 7.207031 26.167969 7.648438 27.019531 C 8.097656 27.871094 8.757813 28.300781 9.628906 28.300781 C 10.558594 28.300781 11.246094 27.71875 11.695313 26.558594 C 12.144531 25.386719 12.367188 23.605469 12.367188 21.214844 C 12.367188 18.859375 12.148438 17.101563 11.707031 15.941406 C 11.269531 14.769531 10.605469 14.183594 9.714844 14.183594 C 9.234375 14.183594 8.804688 14.375 8.425781 14.753906 C 8.054688 15.121094 7.707031 15.695313 7.382813 16.476563 L 6.433594 16.476563 L 6.433594 3.355469 L 15.144531 3.355469 "/>
<path style=" stroke:none;fill-rule:nonzero;fill:rgb(86.29303%,23.658752%,16.767883%);fill-opacity:1;" d="M 120.863281 191.390625 L 120.863281 186.738281 L 128.4375 186.738281 L 128.4375 180.914063 C 128.019531 181.519531 127.554688 181.972656 127.042969 182.28125 C 126.53125 182.589844 125.992188 182.742188 125.421875 182.742188 C 123.679688 182.742188 122.300781 181.914063 121.289063 180.257813 C 120.277344 178.613281 119.773438 176.367188 119.773438 173.527344 C 119.773438 170.640625 120.277344 168.390625 121.289063 166.78125 C 122.300781 165.171875 123.714844 164.367188 125.535156 164.367188 C 126.308594 164.367188 127.074219 164.484375 127.839844 164.722656 C 128.597656 164.960938 129.390625 165.324219 130.21875 165.824219 L 130.21875 171.609375 L 129.082031 171.609375 C 129.042969 169.871094 128.804688 168.574219 128.359375 167.722656 C 127.910156 166.871094 127.253906 166.445313 126.378906 166.445313 C 125.449219 166.445313 124.761719 167.023438 124.3125 168.183594 C 123.863281 169.355469 123.640625 171.136719 123.640625 173.527344 C 123.640625 175.882813 123.859375 177.640625 124.304688 178.800781 C 124.738281 179.972656 125.402344 180.558594 126.292969 180.558594 C 126.773438 180.558594 127.203125 180.371094 127.582031 179.992188 C 127.957031 179.625 128.304688 179.050781 128.625 178.269531 L 129.574219 178.269531 L 129.574219 191.390625 L 120.863281 191.390625 "/>
<path style=" stroke:none;fill-rule:nonzero;fill:rgb(86.29303%,23.658752%,16.767883%);fill-opacity:1;" d="M 18.050781 37.914063 C 18.039063 41.683594 13.324219 44.425781 11.941406 47.40625 C 10.539063 44.433594 5.8125 41.714844 5.78125 37.945313 C 5.773438 36.171875 7.148438 34.722656 8.835938 34.722656 C 10.53125 34.722656 11.914063 36.15625 11.914063 37.929688 C 11.914063 36.148438 13.28125 34.707031 14.96875 34.707031 C 16.664063 34.699219 18.039063 36.140625 18.050781 37.914063 Z M 18.050781 37.914063 "/>
<path style=" stroke:none;fill-rule:nonzero;fill:rgb(86.29303%,23.658752%,16.767883%);fill-opacity:1;" d="M 117.960938 156.828125 C 117.96875 153.0625 122.6875 150.320313 124.070313 147.335938 C 125.46875 150.3125 130.195313 153.03125 130.226563 156.796875 C 130.234375 158.570313 128.859375 160.019531 127.171875 160.019531 C 125.476563 160.019531 124.09375 158.589844 124.09375 156.8125 C 124.09375 158.597656 122.726563 160.035156 121.039063 160.035156 C 119.34375 160.042969 117.96875 158.605469 117.960938 156.828125 Z M 117.960938 156.828125 "/>
<path style=" stroke:none;fill-rule:nonzero;fill:rgb(86.29303%,23.658752%,16.767883%);fill-opacity:1;" d="M 50.792969 22.804688 C 50.773438 31.84375 39.449219 38.429688 36.132813 45.585938 C 32.773438 38.445313 21.429688 31.921875 21.351563 22.882813 C 21.332031 18.621094 24.632813 15.148438 28.683594 15.148438 C 32.753906 15.148438 36.074219 18.582031 36.074219 22.84375 C 36.074219 18.5625 39.355469 15.109375 43.40625 15.109375 C 47.472656 15.089844 50.773438 18.542969 50.792969 22.804688 Z M 50.792969 22.804688 "/>
<path style=" stroke:none;fill-rule:nonzero;fill:rgb(86.29303%,23.658752%,16.767883%);fill-opacity:1;" d="M 21.351563 168.621094 C 21.371094 159.582031 32.695313 152.996094 36.015625 145.839844 C 39.375 152.980469 50.71875 159.503906 50.792969 168.542969 C 50.8125 172.804688 47.511719 176.277344 43.464844 176.277344 C 39.394531 176.277344 36.074219 172.84375 36.074219 168.582031 C 36.074219 172.863281 32.789063 176.316406 28.742188 176.316406 C 24.671875 176.335938 21.371094 172.882813 21.351563 168.621094 Z M 21.351563 168.621094 "/>
<path style=" stroke:none;fill-rule:nonzero;fill:rgb(86.29303%,23.658752%,16.767883%);fill-opacity:1;" d="M 114.65625 22.804688 C 114.636719 31.84375 103.3125 38.429688 99.992188 45.585938 C 96.632813 38.445313 85.289063 31.921875 85.214844 22.882813 C 85.195313 18.621094 88.496094 15.148438 92.546875 15.148438 C 96.613281 15.148438 99.9375 18.582031 99.9375 22.84375 C 99.9375 18.5625 103.21875 15.109375 107.265625 15.109375 C 111.335938 15.089844 114.636719 18.542969 114.65625 22.804688 Z M 114.65625 22.804688 "/>
<path style=" stroke:none;fill-rule:nonzero;fill:rgb(86.29303%,23.658752%,16.767883%);fill-opacity:1;" d="M 85.214844 168.621094 C 85.234375 159.582031 96.558594 152.996094 99.878906 145.839844 C 103.238281 152.980469 114.578125 159.503906 114.65625 168.542969 C 114.675781 172.804688 111.375 176.277344 107.324219 176.277344 C 103.257813 176.277344 99.9375 172.84375 99.9375 168.582031 C 99.9375 172.863281 96.652344 176.316406 92.605469 176.316406 C 88.535156 176.335938 85.234375 172.882813 85.214844 168.621094 Z M 85.214844 168.621094 "/>
<path style=" stroke:none;fill-rule:nonzero;fill:rgb(86.29303%,23.658752%,16.767883%);fill-opacity:1;" d="M 82.726563 84.335938 C 82.707031 93.375 71.382813 99.960938 68.0625 107.117188 C 64.703125 99.976563 53.359375 93.453125 53.28125 84.410156 C 53.265625 80.152344 56.566406 76.679688 60.613281 76.679688 C 64.683594 76.679688 68.003906 80.113281 68.003906 84.375 C 68.003906 80.09375 71.285156 76.640625 75.335938 76.640625 C 79.40625 76.621094 82.707031 80.074219 82.726563 84.335938 Z M 82.726563 84.335938 "/>
</g>
</svg>
