<?xml version="1.0" encoding="UTF-8"?>
<svg xmlns="http://www.w3.org/2000/svg" xmlns:xlink="http://www.w3.org/1999/xlink" width="135.21pt" height="195.639pt" viewBox="0 0 135.21 195.639" version="1.1">
<g id="surface1">
<path style=" stroke:none;fill-rule:nonzero;fill:rgb(100%,100%,100%);fill-opacity:1;" d="M 1 189.097656 C 1 192.121094 3.472656 194.589844 6.492188 194.589844 L 128.722656 194.589844 C 131.738281 194.589844 134.210938 192.121094 134.210938 189.097656 L 134.210938 6.445313 C 134.210938 3.421875 131.738281 0.949219 128.722656 0.949219 L 6.492188 0.949219 C 3.472656 0.949219 1 3.421875 1 6.445313 Z M 1 189.097656 "/>
<path style="fill:none;stroke-width:1.999;stroke-linecap:butt;stroke-linejoin:miter;stroke:rgb(0%,0%,0%);stroke-opacity:1;stroke-miterlimit:10;" d="M 1 6.541344 C 1 3.517906 3.472656 1.049156 6.492188 1.049156 L 128.722656 1.049156 C 131.738281 1.049156 134.210938 3.517906 134.210938 6.541344 L 134.210938 189.193687 C 134.210938 192.217125 131.738281 194.689781 128.722656 194.689781 L 6.492188 194.689781 C 3.472656 194.689781 1 192.217125 1 189.193687 Z M 1 6.541344 " transform="matrix(1,0,0,-1,0,195.639)"/>
<path style=" stroke:none;fill-rule:nonzero;fill:rgb(86.29303%,23.658752%,16.767883%);fill-opacity:1;" d="M 15.144531 3.355469 L 15.144531 8.007813 L 7.574219 8.007813 L 7.574219 13.828125 C 7.988281 13.226563 8.453125 12.769531 8.964844 12.464844 C 9.476563 12.15625 10.019531 12.003906 10.585938 12 C 12.332031 12.003906 13.710938 12.828125 14.71875 14.488281 C 15.730469 16.132813 16.234375 18.375 16.238281 21.214844 C 16.234375 24.105469 15.730469 26.351563 14.71875 27.964844 C 13.710938 29.574219 12.292969 30.378906 10.472656 30.378906 C 9.703125 30.378906 8.933594 30.257813 8.171875 30.023438 C 7.410156 29.785156 6.617188 29.417969 5.789063 28.921875 L 5.789063 23.132813 L 6.929688 23.132813 C 6.964844 24.875 7.207031 26.171875 7.648438 27.023438 C 8.097656 27.875 8.757813 28.300781 9.628906 28.300781 C 10.558594 28.300781 11.246094 27.71875 11.695313 26.558594 C 12.144531 25.386719 12.367188 23.605469 12.367188 21.214844 C 12.367188 18.859375 12.148438 17.101563 11.707031 15.941406 C 11.269531 14.769531 10.605469 14.183594 9.714844 14.183594 C 9.234375 14.183594 8.804688 14.375 8.425781 14.753906 C 8.054688 15.121094 7.707031 15.695313 7.382813 16.476563 L 6.433594 16.476563 L 6.433594 3.355469 L 15.144531 3.355469 "/>
<path style=" stroke:none;fill-rule:nonzero;fill:rgb(86.29303%,23.658752%,16.767883%);fill-opacity:1;" d="M 120.863281 191.390625 L 120.863281 186.738281 L 128.4375 186.738281 L 128.4375 180.914063 C 128.019531 181.519531 127.554688 181.972656 127.042969 182.28125 C 126.53125 182.589844 125.992188 182.742188 125.421875 182.742188 C 123.679688 182.742188 122.300781 181.914063 121.289063 180.257813 C 120.277344 178.613281 119.773438 176.367188 119.773438 173.527344 C 119.773438 170.640625 120.277344 168.390625 121.289063 166.78125 C 122.300781 165.171875 123.714844 164.367188 125.535156 164.367188 C 126.308594 164.367188 127.074219 164.484375 127.839844 164.722656 C 128.597656 164.960938 129.390625 165.324219 130.21875 165.824219 L 130.21875 171.609375 L 129.082031 171.609375 C 129.042969 169.871094 128.804688 168.574219 128.359375 167.722656 C 127.910156 166.871094 127.253906 166.445313 126.378906 166.445313 C 125.449219 166.445313 124.761719 167.023438 124.3125 168.183594 C 123.863281 169.355469 123.640625 171.136719 123.640625 173.527344 C 123.640625 175.882813 123.859375 177.640625 124.304688 178.800781 C 124.738281 179.972656 125.402344 180.558594 126.292969 180.558594 C 126.773438 180.558594 127.203125 180.371094 127.582031 179.992188 C 127.957031 179.625 128.304688 179.050781 128.625 178.269531 L 129.574219 178.269531 L 129.574219 191.390625 L 120.863281 191.390625 "/>
<path style=" stroke:none;fill-rule:nonzero;fill:rgb(86.29303%,23.658752%,16.767883%);fill-opacity:1;" d="M 11.914063 41.058594 C 13.964844 41.058594 16.011719 41.058594 18.058594 41.058594 C 17.359375 41.027344 16.761719 40.574219 16.199219 40.199219 C 14.9375 39.246094 13.753906 38.15625 12.820313 36.878906 C 12.386719 36.234375 11.925781 35.511719 11.914063 34.710938 M 18.058594 41.058594 C 17.171875 41.085938 16.410156 41.652344 15.734375 42.171875 C 14.539063 43.175781 13.503906 44.371094 12.632813 45.660156 C 12.3125 46.195313 11.933594 46.765625 11.914063 47.40625 C 11.914063 45.289063 11.914063 43.175781 11.914063 41.058594 M 11.914063 47.40625 C 11.886719 46.464844 11.308594 45.644531 10.765625 44.914063 C 9.796875 43.703125 8.648438 42.636719 7.382813 41.742188 C 6.894531 41.4375 6.371094 41.074219 5.773438 41.058594 C 7.820313 41.058594 9.867188 41.058594 11.914063 41.058594 M 5.773438 41.058594 C 6.660156 41.03125 7.421875 40.464844 8.097656 39.945313 C 9.292969 38.941406 10.328125 37.746094 11.199219 36.453125 C 11.519531 35.921875 11.898438 35.351563 11.914063 34.710938 C 11.914063 36.824219 11.914063 38.941406 11.914063 41.058594 "/>
<path style=" stroke:none;fill-rule:nonzero;fill:rgb(86.29303%,23.658752%,16.767883%);fill-opacity:1;" d="M 124.09375 153.6875 C 122.046875 153.6875 120 153.6875 117.953125 153.6875 C 118.652344 153.71875 119.246094 154.171875 119.808594 154.542969 C 121.070313 155.496094 122.253906 156.589844 123.1875 157.867188 C 123.625 158.511719 124.082031 159.234375 124.09375 160.035156 M 117.953125 153.6875 C 118.839844 153.65625 119.597656 153.09375 120.273438 152.570313 C 121.46875 151.566406 122.503906 150.375 123.378906 149.082031 C 123.699219 148.546875 124.074219 147.980469 124.09375 147.335938 C 124.09375 149.453125 124.09375 151.570313 124.09375 153.6875 M 124.09375 147.335938 C 124.125 148.28125 124.699219 149.101563 125.242188 149.832031 C 126.214844 151.039063 127.359375 152.105469 128.625 153 C 129.117188 153.308594 129.636719 153.671875 130.234375 153.6875 C 128.1875 153.6875 126.140625 153.6875 124.09375 153.6875 M 130.234375 153.6875 C 129.347656 153.714844 128.589844 154.277344 127.914063 154.800781 C 126.71875 155.804688 125.683594 156.996094 124.808594 158.289063 C 124.488281 158.824219 124.113281 159.390625 124.09375 160.035156 C 124.09375 157.917969 124.09375 155.804688 124.09375 153.6875 "/>
<path style=" stroke:none;fill-rule:nonzero;fill:rgb(86.29303%,23.658752%,16.767883%);fill-opacity:1;" d="M 36.074219 30.347656 C 40.988281 30.347656 45.898438 30.347656 50.8125 30.347656 C 49.136719 30.273438 47.707031 29.1875 46.355469 28.289063 C 43.324219 26.003906 40.488281 23.382813 38.246094 20.3125 C 37.199219 18.769531 36.101563 17.035156 36.074219 15.109375 M 50.8125 30.347656 C 48.683594 30.414063 46.863281 31.769531 45.238281 33.023438 C 42.371094 35.429688 39.886719 38.296875 37.789063 41.398438 C 37.019531 42.683594 36.117188 44.042969 36.074219 45.589844 C 36.074219 40.507813 36.074219 35.429688 36.074219 30.347656 M 36.074219 45.589844 C 36 43.320313 34.617188 41.355469 33.3125 39.597656 C 30.988281 36.699219 28.230469 34.136719 25.199219 31.992188 C 24.019531 31.257813 22.769531 30.382813 21.332031 30.347656 C 26.246094 30.347656 31.160156 30.347656 36.074219 30.347656 M 21.332031 30.347656 C 23.464844 30.28125 25.28125 28.925781 26.90625 27.675781 C 29.777344 25.265625 32.261719 22.402344 34.355469 19.300781 C 35.125 18.015625 36.03125 16.652344 36.074219 15.109375 C 36.074219 20.191406 36.074219 25.269531 36.074219 30.347656 "/>
<path style=" stroke:none;fill-rule:nonzero;fill:rgb(86.29303%,23.658752%,16.767883%);fill-opacity:1;" d="M 36.074219 161.078125 C 31.160156 161.078125 26.246094 161.078125 21.332031 161.078125 C 23.011719 161.152344 24.441406 162.238281 25.789063 163.136719 C 28.820313 165.421875 31.660156 168.046875 33.902344 171.113281 C 34.945313 172.65625 36.046875 174.390625 36.074219 176.316406 M 21.332031 161.078125 C 23.464844 161.011719 25.28125 159.65625 26.90625 158.402344 C 29.777344 155.996094 32.261719 153.128906 34.355469 150.027344 C 35.125 148.742188 36.03125 147.382813 36.074219 145.839844 C 36.074219 150.917969 36.074219 155.996094 36.074219 161.078125 M 36.074219 145.839844 C 36.144531 148.105469 37.527344 150.074219 38.832031 151.828125 C 41.160156 154.726563 43.914063 157.289063 46.949219 159.433594 C 48.125 160.167969 49.378906 161.042969 50.8125 161.078125 C 45.898438 161.078125 40.988281 161.078125 36.074219 161.078125 M 50.8125 161.078125 C 48.683594 161.144531 46.863281 162.5 45.238281 163.75 C 42.371094 166.160156 39.886719 169.023438 37.789063 172.128906 C 37.019531 173.410156 36.117188 174.773438 36.074219 176.316406 C 36.074219 171.238281 36.074219 166.15625 36.074219 161.078125 "/>
<path style=" stroke:none;fill-rule:nonzero;fill:rgb(86.29303%,23.658752%,16.767883%);fill-opacity:1;" d="M 99.9375 30.347656 C 104.847656 30.347656 109.761719 30.347656 114.675781 30.347656 C 112.996094 30.273438 111.566406 29.1875 110.21875 28.289063 C 107.1875 26.003906 104.351563 23.382813 102.109375 20.3125 C 101.0625 18.769531 99.964844 17.035156 99.9375 15.109375 M 114.675781 30.347656 C 112.546875 30.414063 110.726563 31.769531 109.101563 33.023438 C 106.234375 35.429688 103.75 38.296875 101.652344 41.398438 C 100.882813 42.683594 99.976563 44.042969 99.9375 45.589844 C 99.9375 40.507813 99.9375 35.429688 99.9375 30.347656 M 99.9375 45.589844 C 99.863281 43.320313 98.480469 41.355469 97.175781 39.597656 C 94.851563 36.699219 92.09375 34.136719 89.0625 31.992188 C 87.882813 31.257813 86.632813 30.382813 85.195313 30.347656 C 90.109375 30.347656 95.023438 30.347656 99.9375 30.347656 M 85.195313 30.347656 C 87.324219 30.28125 89.144531 28.925781 90.769531 27.675781 C 93.636719 25.265625 96.121094 22.402344 98.21875 19.300781 C 98.988281 18.015625 99.890625 16.652344 99.9375 15.109375 C 99.9375 20.191406 99.9375 25.269531 99.9375 30.347656 "/>
<path style=" stroke:none;fill-rule:nonzero;fill:rgb(86.29303%,23.658752%,16.767883%);fill-opacity:1;" d="M 99.9375 161.078125 C 95.023438 161.078125 90.109375 161.078125 85.195313 161.078125 C 86.875 161.152344 88.304688 162.238281 89.652344 163.136719 C 92.683594 165.421875 95.519531 168.046875 97.761719 171.113281 C 98.808594 172.65625 99.90625 174.390625 99.9375 176.316406 M 85.195313 161.078125 C 87.324219 161.011719 89.144531 159.65625 90.769531 158.402344 C 93.636719 155.996094 96.121094 153.128906 98.21875 150.027344 C 98.988281 148.742188 99.894531 147.382813 99.9375 145.839844 C 99.9375 150.917969 99.9375 155.996094 99.9375 161.078125 M 99.9375 145.839844 C 100.007813 148.105469 101.390625 150.074219 102.695313 151.828125 C 105.023438 154.726563 107.777344 157.289063 110.808594 159.433594 C 111.988281 160.167969 113.238281 161.042969 114.675781 161.078125 C 109.761719 161.078125 104.847656 161.078125 99.9375 161.078125 M 114.675781 161.078125 C 112.546875 161.144531 110.726563 162.5 109.101563 163.75 C 106.234375 166.160156 103.75 169.023438 101.652344 172.128906 C 100.882813 173.410156 99.980469 174.773438 99.9375 176.316406 C 99.9375 171.238281 99.9375 166.15625 99.9375 161.078125 "/>
<path style=" stroke:none;fill-rule:nonzero;fill:rgb(86.29303%,23.658752%,16.767883%);fill-opacity:1;" d="M 68.003906 91.878906 C 72.917969 91.878906 77.832031 91.878906 82.742188 91.878906 C 81.066406 91.804688 79.636719 90.71875 78.289063 89.820313 C 75.257813 87.53125 72.417969 84.910156 70.175781 81.84375 C 69.132813 80.300781 68.03125 78.566406 68.003906 76.640625 M 82.742188 91.878906 C 80.613281 91.945313 78.792969 93.300781 77.171875 94.550781 C 74.300781 96.960938 71.816406 99.824219 69.722656 102.929688 C 68.953125 104.210938 68.046875 105.574219 68.003906 107.117188 C 68.003906 102.035156 68.003906 96.960938 68.003906 91.878906 M 68.003906 107.117188 C 67.929688 104.847656 66.550781 102.882813 65.242188 101.128906 C 62.917969 98.230469 60.160156 95.667969 57.128906 93.523438 C 55.949219 92.789063 54.699219 91.914063 53.265625 91.878906 C 58.175781 91.878906 63.089844 91.878906 68.003906 91.878906 M 53.265625 91.878906 C 55.394531 91.8125 57.214844 90.457031 58.839844 89.207031 C 61.707031 86.796875 64.191406 83.929688 66.285156 80.828125 C 67.054688 79.546875 67.960938 78.183594 68.003906 76.640625 C 68.003906 81.71875 68.003906 86.796875 68.003906 91.878906 "/>
</g>
</svg>
