<?xml version="1.0" encoding="UTF-8"?>
<svg xmlns="http://www.w3.org/2000/svg" xmlns:xlink="http://www.w3.org/1999/xlink" width="135.21pt" height="195.639pt" viewBox="0 0 135.21 195.639" version="1.1">
<g id="surface1">
<path style=" stroke:none;fill-rule:nonzero;fill:rgb(100%,100%,100%);fill-opacity:1;" d="M 1 189.097656 C 1 192.121094 3.472656 194.589844 6.492188 194.589844 L 128.722656 194.589844 C 131.738281 194.589844 134.210938 192.121094 134.210938 189.097656 L 134.210938 6.445313 C 134.210938 3.421875 131.738281 0.949219 128.722656 0.949219 L 6.492188 0.949219 C 3.472656 0.949219 1 3.421875 1 6.445313 Z M 1 189.097656 "/>
<path style="fill:none;stroke-width:1.999;stroke-linecap:butt;stroke-linejoin:miter;stroke:rgb(0%,0%,0%);stroke-opacity:1;stroke-miterlimit:10;" d="M 1 6.541344 C 1 3.517906 3.472656 1.049156 6.492188 1.049156 L 128.722656 1.049156 C 131.738281 1.049156 134.210938 3.517906 134.210938 6.541344 L 134.210938 189.193687 C 134.210938 192.217125 131.738281 194.689781 128.722656 194.689781 L 6.492188 194.689781 C 3.472656 194.689781 1 192.217125 1 189.193687 Z M 1 6.541344 " transform="matrix(1,0,0,-1,0,195.639)"/>
<path style=" stroke:none;fill-rule:nonzero;fill:rgb(0%,0%,0%);fill-opacity:1;" d="M 15.144531 3.355469 L 15.144531 8.007813 L 7.574219 8.007813 L 7.574219 13.832031 C 7.988281 13.226563 8.453125 12.769531 8.964844 12.464844 C 9.476563 12.15625 10.019531 12.003906 10.585938 12.003906 C 12.332031 12.003906 13.710938 12.828125 14.71875 14.488281 C 15.730469 16.132813 16.234375 18.375 16.238281 21.214844 C 16.234375 24.105469 15.730469 26.355469 14.71875 27.964844 C 13.710938 29.574219 12.292969 30.378906 10.472656 30.378906 C 9.703125 30.378906 8.933594 30.257813 8.171875 30.023438 C 7.410156 29.785156 6.617188 29.417969 5.789063 28.921875 L 5.789063 23.132813 L 6.929688 23.132813 C 6.964844 24.875 7.207031 26.171875 7.648438 27.023438 C 8.097656 27.875 8.757813 28.300781 9.628906 28.300781 C 10.558594 28.300781 11.246094 27.722656 11.695313 26.5625 C 12.144531 25.390625 12.367188 23.605469 12.367188 21.214844 C 12.367188 18.859375 12.148438 17.101563 11.707031 15.941406 C 11.269531 14.773438 10.605469 14.1875 9.714844 14.1875 C 9.234375 14.1875 8.804688 14.375 8.425781 14.753906 C 8.054688 15.121094 7.707031 15.695313 7.382813 16.476563 L 6.433594 16.476563 L 6.433594 3.355469 L 15.144531 3.355469 "/>
<path style=" stroke:none;fill-rule:nonzero;fill:rgb(0%,0%,0%);fill-opacity:1;" d="M 120.863281 191.390625 L 120.863281 186.738281 L 128.4375 186.738281 L 128.4375 180.914063 C 128.019531 181.519531 127.554688 181.972656 127.042969 182.28125 C 126.53125 182.589844 125.992188 182.742188 125.421875 182.742188 C 123.679688 182.742188 122.300781 181.914063 121.289063 180.257813 C 120.277344 178.613281 119.773438 176.371094 119.773438 173.527344 C 119.773438 170.640625 120.277344 168.390625 121.289063 166.78125 C 122.300781 165.171875 123.714844 164.367188 125.535156 164.367188 C 126.308594 164.367188 127.074219 164.484375 127.839844 164.722656 C 128.597656 164.960938 129.390625 165.324219 130.21875 165.824219 L 130.21875 171.609375 L 129.082031 171.609375 C 129.042969 169.871094 128.804688 168.574219 128.359375 167.722656 C 127.910156 166.871094 127.253906 166.445313 126.378906 166.445313 C 125.449219 166.445313 124.761719 167.023438 124.3125 168.183594 C 123.863281 169.355469 123.640625 171.136719 123.640625 173.527344 C 123.640625 175.882813 123.859375 177.640625 124.304688 178.800781 C 124.738281 179.972656 125.402344 180.558594 126.292969 180.558594 C 126.773438 180.558594 127.203125 180.371094 127.582031 179.992188 C 127.957031 179.625 128.304688 179.050781 128.625 178.269531 L 129.574219 178.269531 L 129.574219 191.390625 L 120.863281 191.390625 "/>
<path style=" stroke:none;fill-rule:nonzero;fill:rgb(0%,0%,0%);fill-opacity:1;" d="M 8.78125 47.402344 C 10.117188 47.402344 10.820313 45.976563 11.1875 44.554688 C 11.554688 43.128906 11.589844 41.707031 11.589844 41.707031 L 12.265625 41.699219 C 12.265625 41.699219 12.394531 47.402344 15.066406 47.402344 Z M 8.78125 47.402344 "/>
<path style=" stroke:none;fill-rule:nonzero;fill:rgb(0%,0%,0%);fill-opacity:1;" d="M 6.519531 41.699219 C 6.527344 38.925781 10.691406 36.90625 11.914063 34.71875 C 13.140625 36.914063 17.304688 38.933594 17.3125 41.699219 C 17.3125 43.011719 16.105469 44.074219 14.609375 44.074219 C 13.121094 44.074219 11.914063 43.011719 11.914063 41.699219 C 11.914063 43.011719 10.707031 44.074219 9.214844 44.074219 C 7.71875 44.074219 6.519531 43.011719 6.519531 41.699219 Z M 6.519531 41.699219 "/>
<path style=" stroke:none;fill-rule:nonzero;fill:rgb(0%,0%,0%);fill-opacity:1;" d="M 127.230469 147.34375 C 125.894531 147.34375 125.1875 148.769531 124.820313 150.191406 C 124.453125 151.613281 124.421875 153.039063 124.421875 153.039063 L 123.742188 153.046875 C 123.742188 153.046875 123.613281 147.34375 120.941406 147.34375 Z M 127.230469 147.34375 "/>
<path style=" stroke:none;fill-rule:nonzero;fill:rgb(0%,0%,0%);fill-opacity:1;" d="M 129.492188 153.046875 C 129.484375 155.820313 125.316406 157.835938 124.09375 160.027344 C 122.871094 157.828125 118.703125 155.8125 118.695313 153.046875 C 118.695313 151.734375 119.902344 150.671875 121.398438 150.671875 C 122.886719 150.671875 124.09375 151.734375 124.09375 153.046875 C 124.09375 151.734375 125.300781 150.671875 126.796875 150.671875 C 128.292969 150.671875 129.492188 151.734375 129.492188 153.046875 Z M 129.492188 153.046875 "/>
<path style=" stroke:none;fill-rule:nonzero;fill:rgb(0%,0%,0%);fill-opacity:1;" d="M 28.550781 45.566406 C 31.753906 45.566406 33.445313 42.152344 34.328125 38.734375 C 35.210938 35.320313 35.285156 31.902344 35.285156 31.902344 L 36.917969 31.882813 C 36.917969 31.882813 37.226563 45.566406 43.636719 45.566406 Z M 28.550781 45.566406 "/>
<path style=" stroke:none;fill-rule:nonzero;fill:rgb(0%,0%,0%);fill-opacity:1;" d="M 23.117188 31.882813 C 23.136719 25.222656 33.136719 20.386719 36.074219 15.128906 C 39.011719 20.40625 49.007813 25.242188 49.027344 31.882813 C 49.027344 35.03125 46.128906 37.585938 42.539063 37.585938 C 38.972656 37.585938 36.074219 35.03125 36.074219 31.882813 C 36.074219 35.03125 33.175781 37.585938 29.585938 37.585938 C 25.996094 37.585938 23.117188 35.03125 23.117188 31.882813 Z M 23.117188 31.882813 "/>
<path style=" stroke:none;fill-rule:nonzero;fill:rgb(0%,0%,0%);fill-opacity:1;" d="M 43.597656 145.859375 C 40.390625 145.859375 38.703125 149.273438 37.820313 152.691406 C 36.9375 156.105469 36.859375 159.523438 36.859375 159.523438 L 35.230469 159.542969 C 35.230469 159.542969 34.921875 145.859375 28.511719 145.859375 Z M 43.597656 145.859375 "/>
<path style=" stroke:none;fill-rule:nonzero;fill:rgb(0%,0%,0%);fill-opacity:1;" d="M 49.027344 159.542969 C 49.007813 166.203125 39.011719 171.039063 36.074219 176.296875 C 33.136719 171.019531 23.136719 166.183594 23.117188 159.542969 C 23.117188 156.394531 26.015625 153.84375 29.605469 153.84375 C 33.175781 153.84375 36.074219 156.394531 36.074219 159.542969 C 36.074219 156.394531 38.972656 153.84375 42.5625 153.84375 C 46.148438 153.84375 49.027344 156.394531 49.027344 159.542969 Z M 49.027344 159.542969 "/>
<path style=" stroke:none;fill-rule:nonzero;fill:rgb(0%,0%,0%);fill-opacity:1;" d="M 92.410156 45.566406 C 95.617188 45.566406 97.304688 42.152344 98.1875 38.734375 C 99.070313 35.320313 99.148438 31.902344 99.148438 31.902344 L 100.78125 31.882813 C 100.78125 31.882813 101.085938 45.566406 107.496094 45.566406 Z M 92.410156 45.566406 "/>
<path style=" stroke:none;fill-rule:nonzero;fill:rgb(0%,0%,0%);fill-opacity:1;" d="M 86.980469 31.882813 C 87 25.222656 97 20.386719 99.9375 15.128906 C 102.871094 20.40625 112.871094 25.242188 112.890625 31.882813 C 112.890625 35.03125 109.992188 37.585938 106.402344 37.585938 C 102.835938 37.585938 99.9375 35.03125 99.9375 31.882813 C 99.9375 35.03125 97.039063 37.585938 93.449219 37.585938 C 89.859375 37.585938 86.980469 35.03125 86.980469 31.882813 Z M 86.980469 31.882813 "/>
<path style=" stroke:none;fill-rule:nonzero;fill:rgb(0%,0%,0%);fill-opacity:1;" d="M 107.460938 145.859375 C 104.253906 145.859375 102.566406 149.273438 101.683594 152.691406 C 100.800781 156.105469 100.722656 159.523438 100.722656 159.523438 L 99.089844 159.542969 C 99.089844 159.542969 98.785156 145.859375 92.375 145.859375 Z M 107.460938 145.859375 "/>
<path style=" stroke:none;fill-rule:nonzero;fill:rgb(0%,0%,0%);fill-opacity:1;" d="M 112.890625 159.542969 C 112.871094 166.203125 102.871094 171.039063 99.9375 176.296875 C 97 171.019531 87 166.183594 86.980469 159.542969 C 86.980469 156.394531 89.878906 153.84375 93.46875 153.84375 C 97.039063 153.84375 99.9375 156.394531 99.9375 159.542969 C 99.9375 156.394531 102.835938 153.84375 106.421875 153.84375 C 110.011719 153.84375 112.890625 156.394531 112.890625 159.542969 Z M 112.890625 159.542969 "/>
<path style=" stroke:none;fill-rule:nonzero;fill:rgb(0%,0%,0%);fill-opacity:1;" d="M 60.480469 107.097656 C 63.6875 107.097656 65.375 103.683594 66.257813 100.265625 C 67.140625 96.847656 67.21875 93.433594 67.21875 93.433594 L 68.847656 93.414063 C 68.847656 93.414063 69.15625 107.097656 75.566406 107.097656 Z M 60.480469 107.097656 "/>
<path style=" stroke:none;fill-rule:nonzero;fill:rgb(0%,0%,0%);fill-opacity:1;" d="M 55.050781 93.414063 C 55.066406 86.753906 65.066406 81.917969 68.003906 76.65625 C 70.941406 81.9375 80.941406 86.773438 80.960938 93.414063 C 80.960938 96.5625 78.0625 99.113281 74.472656 99.113281 C 70.902344 99.113281 68.003906 96.5625 68.003906 93.414063 C 68.003906 96.5625 65.105469 99.113281 61.515625 99.113281 C 57.929688 99.113281 55.050781 96.5625 55.050781 93.414063 Z M 55.050781 93.414063 "/>
</g>
</svg>
