<?xml version="1.0" encoding="UTF-8"?>
<svg xmlns="http://www.w3.org/2000/svg" xmlns:xlink="http://www.w3.org/1999/xlink" width="135.21pt" height="195.639pt" viewBox="0 0 135.21 195.639" version="1.1">
<g id="surface1">
<path style=" stroke:none;fill-rule:nonzero;fill:rgb(100%,100%,100%);fill-opacity:1;" d="M 1 189.097656 C 1 192.121094 3.472656 194.589844 6.492188 194.589844 L 128.722656 194.589844 C 131.738281 194.589844 134.210938 192.121094 134.210938 189.097656 L 134.210938 6.445313 C 134.210938 3.421875 131.738281 0.949219 128.722656 0.949219 L 6.492188 0.949219 C 3.472656 0.949219 1 3.421875 1 6.445313 Z M 1 189.097656 "/>
<path style="fill:none;stroke-width:1.999;stroke-linecap:butt;stroke-linejoin:miter;stroke:rgb(0%,0%,0%);stroke-opacity:1;stroke-miterlimit:10;" d="M 1 6.541344 C 1 3.517906 3.472656 1.049156 6.492188 1.049156 L 128.722656 1.049156 C 131.738281 1.049156 134.210938 3.517906 134.210938 6.541344 L 134.210938 189.193687 C 134.210938 192.217125 131.738281 194.689781 128.722656 194.689781 L 6.492188 194.689781 C 3.472656 194.689781 1 192.217125 1 189.193687 Z M 1 6.541344 " transform="matrix(1,0,0,-1,0,195.639)"/>
<path style=" stroke:none;fill-rule:nonzero;fill:rgb(0%,0%,0%);fill-opacity:1;" d="M 8.976563 14.148438 C 9.386719 13.535156 9.84375 13.074219 10.351563 12.765625 C 10.863281 12.457031 11.417969 12.304688 12.019531 12.304688 C 13.464844 12.304688 14.601563 13.097656 15.421875 14.683594 C 16.25 16.269531 16.664063 18.445313 16.664063 21.214844 C 16.664063 24.140625 16.199219 26.402344 15.269531 28 C 14.339844 29.585938 13.019531 30.378906 11.308594 30.378906 C 9.375 30.378906 7.90625 29.289063 6.910156 27.109375 C 5.917969 24.921875 5.421875 21.707031 5.421875 17.46875 C 5.421875 12.652344 5.972656 9.019531 7.078125 6.570313 C 8.1875 4.105469 9.824219 2.875 12 2.875 C 12.566406 2.875 13.179688 2.964844 13.828125 3.140625 C 14.480469 3.320313 15.179688 3.585938 15.925781 3.941406 L 15.925781 8.628906 L 14.777344 8.628906 C 14.617188 7.421875 14.320313 6.511719 13.875 5.894531 C 13.441406 5.265625 12.875 4.953125 12.179688 4.953125 C 11.054688 4.953125 10.238281 5.675781 9.734375 7.117188 C 9.234375 8.5625 8.980469 10.90625 8.976563 14.148438 M 11.089844 28.300781 C 11.742188 28.300781 12.203125 27.785156 12.484375 26.757813 C 12.761719 25.714844 12.898438 23.914063 12.898438 21.359375 C 12.898438 18.800781 12.761719 17.007813 12.484375 15.980469 C 12.203125 14.9375 11.742188 14.417969 11.089844 14.417969 C 10.4375 14.417969 9.972656 14.9375 9.695313 15.980469 C 9.425781 17.007813 9.289063 18.800781 9.289063 21.359375 C 9.289063 23.914063 9.425781 25.714844 9.695313 26.757813 C 9.972656 27.785156 10.4375 28.300781 11.089844 28.300781 "/>
<path style=" stroke:none;fill-rule:nonzero;fill:rgb(0%,0%,0%);fill-opacity:1;" d="M 127.035156 180.59375 C 126.621094 181.210938 126.164063 181.671875 125.660156 181.980469 C 125.148438 182.289063 124.589844 182.441406 123.992188 182.441406 C 122.542969 182.441406 121.410156 181.648438 120.589844 180.0625 C 119.761719 178.476563 119.347656 176.296875 119.347656 173.527344 C 119.347656 170.605469 119.8125 168.34375 120.738281 166.746094 C 121.667969 165.160156 122.988281 164.367188 124.703125 164.367188 C 126.636719 164.367188 128.101563 165.457031 129.101563 167.632813 C 130.09375 169.824219 130.589844 173.039063 130.589844 177.273438 C 130.589844 182.09375 130.035156 185.726563 128.929688 188.175781 C 127.824219 190.636719 126.183594 191.867188 124.011719 191.867188 C 123.441406 191.867188 122.832031 191.78125 122.179688 191.601563 C 121.53125 191.425781 120.832031 191.160156 120.085938 190.804688 L 120.085938 186.117188 L 121.234375 186.117188 C 121.390625 187.324219 121.691406 188.234375 122.132813 188.851563 C 122.570313 189.476563 123.136719 189.792969 123.828125 189.792969 C 124.953125 189.792969 125.769531 189.070313 126.277344 187.625 C 126.773438 186.183594 127.027344 183.839844 127.035156 180.59375 M 124.921875 166.445313 C 124.269531 166.445313 123.804688 166.960938 123.527344 167.988281 C 123.25 169.03125 123.109375 170.828125 123.109375 173.386719 C 123.109375 175.941406 123.25 177.738281 123.527344 178.765625 C 123.804688 179.808594 124.269531 180.328125 124.921875 180.328125 C 125.570313 180.328125 126.035156 179.808594 126.3125 178.765625 C 126.585938 177.738281 126.722656 175.941406 126.722656 173.386719 C 126.722656 170.828125 126.585938 169.03125 126.3125 167.988281 C 126.035156 166.960938 125.570313 166.445313 124.921875 166.445313 "/>
<path style=" stroke:none;fill-rule:nonzero;fill:rgb(0%,0%,0%);fill-opacity:1;" d="M 8.78125 47.402344 C 10.117188 47.402344 10.820313 45.976563 11.1875 44.554688 C 11.554688 43.128906 11.589844 41.707031 11.589844 41.707031 L 12.269531 41.699219 C 12.269531 41.699219 12.394531 47.402344 15.066406 47.402344 Z M 8.78125 47.402344 "/>
<path style=" stroke:none;fill-rule:nonzero;fill:rgb(0%,0%,0%);fill-opacity:1;" d="M 6.519531 41.699219 C 6.527344 38.925781 10.691406 36.90625 11.914063 34.71875 C 13.140625 36.914063 17.304688 38.933594 17.3125 41.699219 C 17.3125 43.011719 16.105469 44.074219 14.609375 44.074219 C 13.121094 44.074219 11.914063 43.011719 11.914063 41.699219 C 11.914063 43.011719 10.707031 44.074219 9.214844 44.074219 C 7.71875 44.074219 6.519531 43.011719 6.519531 41.699219 Z M 6.519531 41.699219 "/>
<path style=" stroke:none;fill-rule:nonzero;fill:rgb(0%,0%,0%);fill-opacity:1;" d="M 127.230469 147.34375 C 125.894531 147.34375 125.191406 148.769531 124.820313 150.191406 C 124.453125 151.613281 124.421875 153.039063 124.421875 153.039063 L 123.742188 153.046875 C 123.742188 153.046875 123.613281 147.34375 120.941406 147.34375 Z M 127.230469 147.34375 "/>
<path style=" stroke:none;fill-rule:nonzero;fill:rgb(0%,0%,0%);fill-opacity:1;" d="M 129.492188 153.046875 C 129.484375 155.820313 125.316406 157.835938 124.09375 160.027344 C 122.871094 157.828125 118.703125 155.8125 118.695313 153.046875 C 118.695313 151.734375 119.902344 150.671875 121.398438 150.671875 C 122.886719 150.671875 124.09375 151.734375 124.09375 153.046875 C 124.09375 151.734375 125.300781 150.671875 126.796875 150.671875 C 128.292969 150.671875 129.492188 151.734375 129.492188 153.046875 Z M 129.492188 153.046875 "/>
<path style=" stroke:none;fill-rule:nonzero;fill:rgb(0%,0%,0%);fill-opacity:1;" d="M 28.550781 45.566406 C 31.753906 45.566406 33.445313 42.152344 34.328125 38.734375 C 35.210938 35.320313 35.285156 31.902344 35.285156 31.902344 L 36.917969 31.882813 C 36.917969 31.882813 37.226563 45.566406 43.636719 45.566406 Z M 28.550781 45.566406 "/>
<path style=" stroke:none;fill-rule:nonzero;fill:rgb(0%,0%,0%);fill-opacity:1;" d="M 23.117188 31.882813 C 23.136719 25.222656 33.136719 20.386719 36.074219 15.128906 C 39.011719 20.40625 49.007813 25.242188 49.027344 31.882813 C 49.027344 35.03125 46.128906 37.585938 42.539063 37.585938 C 38.972656 37.585938 36.074219 35.03125 36.074219 31.882813 C 36.074219 35.03125 33.175781 37.585938 29.585938 37.585938 C 25.996094 37.585938 23.117188 35.03125 23.117188 31.882813 Z M 23.117188 31.882813 "/>
<path style=" stroke:none;fill-rule:nonzero;fill:rgb(0%,0%,0%);fill-opacity:1;" d="M 28.550781 107.097656 C 31.753906 107.097656 33.445313 103.683594 34.328125 100.265625 C 35.210938 96.847656 35.285156 93.433594 35.285156 93.433594 L 36.917969 93.414063 C 36.917969 93.414063 37.226563 107.097656 43.636719 107.097656 Z M 28.550781 107.097656 "/>
<path style=" stroke:none;fill-rule:nonzero;fill:rgb(0%,0%,0%);fill-opacity:1;" d="M 23.117188 93.414063 C 23.136719 86.753906 33.136719 81.917969 36.074219 76.65625 C 39.011719 81.9375 49.007813 86.773438 49.027344 93.414063 C 49.027344 96.5625 46.128906 99.113281 42.539063 99.113281 C 38.972656 99.113281 36.074219 96.5625 36.074219 93.414063 C 36.074219 96.5625 33.175781 99.113281 29.585938 99.113281 C 25.996094 99.113281 23.117188 96.5625 23.117188 93.414063 Z M 23.117188 93.414063 "/>
<path style=" stroke:none;fill-rule:nonzero;fill:rgb(0%,0%,0%);fill-opacity:1;" d="M 43.597656 145.859375 C 40.390625 145.859375 38.703125 149.273438 37.820313 152.691406 C 36.9375 156.105469 36.859375 159.523438 36.859375 159.523438 L 35.230469 159.542969 C 35.230469 159.542969 34.921875 145.859375 28.511719 145.859375 Z M 43.597656 145.859375 "/>
<path style=" stroke:none;fill-rule:nonzero;fill:rgb(0%,0%,0%);fill-opacity:1;" d="M 49.027344 159.542969 C 49.011719 166.203125 39.011719 171.039063 36.074219 176.296875 C 33.136719 171.019531 23.136719 166.183594 23.117188 159.542969 C 23.117188 156.394531 26.015625 153.84375 29.605469 153.84375 C 33.175781 153.84375 36.074219 156.394531 36.074219 159.542969 C 36.074219 156.394531 38.972656 153.84375 42.5625 153.84375 C 46.148438 153.84375 49.027344 156.394531 49.027344 159.542969 Z M 49.027344 159.542969 "/>
<path style=" stroke:none;fill-rule:nonzero;fill:rgb(0%,0%,0%);fill-opacity:1;" d="M 92.410156 45.566406 C 95.617188 45.566406 97.304688 42.152344 98.1875 38.734375 C 99.070313 35.320313 99.148438 31.902344 99.148438 31.902344 L 100.78125 31.882813 C 100.78125 31.882813 101.085938 45.566406 107.496094 45.566406 Z M 92.410156 45.566406 "/>
<path style=" stroke:none;fill-rule:nonzero;fill:rgb(0%,0%,0%);fill-opacity:1;" d="M 86.980469 31.882813 C 87 25.222656 97 20.386719 99.9375 15.128906 C 102.871094 20.40625 112.871094 25.242188 112.890625 31.882813 C 112.890625 35.03125 109.992188 37.585938 106.402344 37.585938 C 102.835938 37.585938 99.9375 35.03125 99.9375 31.882813 C 99.9375 35.03125 97.039063 37.585938 93.449219 37.585938 C 89.859375 37.585938 86.980469 35.03125 86.980469 31.882813 Z M 86.980469 31.882813 "/>
<path style=" stroke:none;fill-rule:nonzero;fill:rgb(0%,0%,0%);fill-opacity:1;" d="M 92.410156 107.097656 C 95.617188 107.097656 97.304688 103.683594 98.1875 100.265625 C 99.070313 96.847656 99.148438 93.433594 99.148438 93.433594 L 100.78125 93.414063 C 100.78125 93.414063 101.085938 107.097656 107.496094 107.097656 Z M 92.410156 107.097656 "/>
<path style=" stroke:none;fill-rule:nonzero;fill:rgb(0%,0%,0%);fill-opacity:1;" d="M 86.980469 93.414063 C 87 86.753906 97 81.917969 99.9375 76.65625 C 102.871094 81.9375 112.871094 86.773438 112.890625 93.414063 C 112.890625 96.5625 109.992188 99.113281 106.402344 99.113281 C 102.835938 99.113281 99.9375 96.5625 99.9375 93.414063 C 99.9375 96.5625 97.039063 99.113281 93.449219 99.113281 C 89.859375 99.113281 86.980469 96.5625 86.980469 93.414063 Z M 86.980469 93.414063 "/>
<path style=" stroke:none;fill-rule:nonzero;fill:rgb(0%,0%,0%);fill-opacity:1;" d="M 107.460938 145.859375 C 104.253906 145.859375 102.566406 149.273438 101.683594 152.691406 C 100.800781 156.105469 100.722656 159.523438 100.722656 159.523438 L 99.089844 159.542969 C 99.089844 159.542969 98.785156 145.859375 92.375 145.859375 Z M 107.460938 145.859375 "/>
<path style=" stroke:none;fill-rule:nonzero;fill:rgb(0%,0%,0%);fill-opacity:1;" d="M 112.890625 159.542969 C 112.871094 166.203125 102.871094 171.039063 99.9375 176.296875 C 97 171.019531 87 166.183594 86.980469 159.542969 C 86.980469 156.394531 89.878906 153.84375 93.46875 153.84375 C 97.039063 153.84375 99.9375 156.394531 99.9375 159.542969 C 99.9375 156.394531 102.835938 153.84375 106.421875 153.84375 C 110.011719 153.84375 112.890625 156.394531 112.890625 159.542969 Z M 112.890625 159.542969 "/>
</g>
</svg>
