<?xml version="1.0" encoding="UTF-8"?>
<svg xmlns="http://www.w3.org/2000/svg" xmlns:xlink="http://www.w3.org/1999/xlink" width="135.21pt" height="195.639pt" viewBox="0 0 135.21 195.639" version="1.1">
<g id="surface1">
<path style=" stroke:none;fill-rule:nonzero;fill:rgb(100%,100%,100%);fill-opacity:1;" d="M 1 189.097656 C 1 192.121094 3.472656 194.59375 6.492188 194.59375 L 128.722656 194.59375 C 131.738281 194.59375 134.210938 192.121094 134.210938 189.097656 L 134.210938 6.445313 C 134.210938 3.421875 131.738281 0.953125 128.722656 0.953125 L 6.492188 0.953125 C 3.472656 0.953125 1 3.421875 1 6.445313 Z M 1 189.097656 "/>
<path style="fill:none;stroke-width:1.999;stroke-linecap:butt;stroke-linejoin:miter;stroke:rgb(0%,0%,0%);stroke-opacity:1;stroke-miterlimit:10;" d="M 1 6.541344 C 1 3.517906 3.472656 1.04525 6.492188 1.04525 L 128.722656 1.04525 C 131.738281 1.04525 134.210938 3.517906 134.210938 6.541344 L 134.210938 189.193687 C 134.210938 192.217125 131.738281 194.685875 128.722656 194.685875 L 6.492188 194.685875 C 3.472656 194.685875 1 192.217125 1 189.193687 Z M 1 6.541344 " transform="matrix(1,0,0,-1,0,195.639)"/>
<path style=" stroke:none;fill-rule:nonzero;fill:rgb(0%,0%,0%);fill-opacity:1;" d="M 16.09375 7.863281 L 10.257813 29.863281 L 8.332031 29.863281 L 14.019531 8.378906 L 7.03125 8.378906 L 7.03125 11.96875 L 5.734375 11.96875 L 5.734375 3.355469 L 16.09375 3.355469 L 16.09375 7.863281 "/>
<path style=" stroke:none;fill-rule:nonzero;fill:rgb(0%,0%,0%);fill-opacity:1;" d="M 119.910156 186.882813 L 125.75 164.882813 L 127.675781 164.882813 L 121.988281 186.367188 L 128.972656 186.367188 L 128.972656 182.777344 L 130.273438 182.777344 L 130.273438 191.390625 L 119.910156 191.390625 L 119.910156 186.882813 "/>
<path style=" stroke:none;fill-rule:nonzero;fill:rgb(0%,0%,0%);fill-opacity:1;" d="M 9.238281 37.332031 C 9.238281 38.78125 10.445313 39.953125 11.941406 39.953125 C 13.433594 39.953125 14.644531 38.78125 14.644531 37.332031 C 14.644531 35.886719 13.433594 34.710938 11.941406 34.710938 C 10.445313 34.710938 9.238281 35.886719 9.238281 37.332031 Z M 9.238281 37.332031 "/>
<path style=" stroke:none;fill-rule:nonzero;fill:rgb(0%,0%,0%);fill-opacity:1;" d="M 5.75 42.300781 C 5.75 43.746094 6.957031 44.921875 8.453125 44.921875 C 9.949219 44.921875 11.15625 43.746094 11.15625 42.300781 C 11.15625 40.851563 9.949219 39.675781 8.453125 39.675781 C 6.957031 39.675781 5.75 40.851563 5.75 42.300781 Z M 5.75 42.300781 "/>
<path style=" stroke:none;fill-rule:nonzero;fill:rgb(0%,0%,0%);fill-opacity:1;" d="M 12.675781 42.316406 C 12.675781 42.84375 12.835938 43.339844 13.113281 43.753906 C 13.59375 44.464844 14.433594 44.9375 15.378906 44.9375 C 16.875 44.9375 18.082031 43.761719 18.082031 42.316406 C 18.082031 40.867188 16.875 39.691406 15.378906 39.691406 C 13.882813 39.691406 12.675781 40.867188 12.675781 42.316406 Z M 12.675781 42.316406 "/>
<path style=" stroke:none;fill-rule:nonzero;fill:rgb(0%,0%,0%);fill-opacity:1;" d="M 8.765625 47.410156 C 10.101563 47.410156 10.804688 46.320313 11.171875 45.234375 C 11.539063 44.144531 11.570313 43.058594 11.570313 43.058594 L 12.261719 43.058594 C 12.261719 43.058594 12.386719 47.402344 15.058594 47.410156 Z M 8.765625 47.410156 "/>
<path style=" stroke:none;fill-rule:nonzero;fill:rgb(0%,0%,0%);fill-opacity:1;" d="M 13.769531 39.261719 C 12.253906 40.777344 12.253906 43.058594 12.253906 43.058594 L 11.570313 43.066406 C 11.570313 43.066406 11.570313 40.738281 10.09375 39.261719 "/>
<path style=" stroke:none;fill-rule:nonzero;fill:rgb(0%,0%,0%);fill-opacity:1;" d="M 13.46875 44.136719 C 11.949219 42.617188 9.667969 42.617188 9.667969 42.617188 L 9.667969 41.9375 C 9.667969 41.9375 11.996094 41.9375 13.476563 40.460938 "/>
<path style=" stroke:none;fill-rule:nonzero;fill:rgb(0%,0%,0%);fill-opacity:1;" d="M 10.421875 44.144531 C 11.941406 42.628906 14.21875 42.628906 14.21875 42.628906 L 14.21875 41.945313 C 14.21875 41.945313 11.890625 41.945313 10.410156 40.46875 "/>
<path style=" stroke:none;fill-rule:nonzero;fill:rgb(0%,0%,0%);fill-opacity:1;" d="M 126.769531 157.414063 C 126.769531 155.964844 125.5625 154.789063 124.066406 154.789063 C 122.570313 154.789063 121.363281 155.964844 121.363281 157.414063 C 121.363281 158.859375 122.570313 160.035156 124.066406 160.035156 C 125.5625 160.035156 126.769531 158.859375 126.769531 157.414063 Z M 126.769531 157.414063 "/>
<path style=" stroke:none;fill-rule:nonzero;fill:rgb(0%,0%,0%);fill-opacity:1;" d="M 130.257813 152.445313 C 130.257813 151 129.046875 149.824219 127.554688 149.824219 C 126.058594 149.824219 124.851563 151 124.851563 152.445313 C 124.851563 153.894531 126.058594 155.070313 127.554688 155.070313 C 129.046875 155.070313 130.257813 153.894531 130.257813 152.445313 Z M 130.257813 152.445313 "/>
<path style=" stroke:none;fill-rule:nonzero;fill:rgb(0%,0%,0%);fill-opacity:1;" d="M 123.328125 152.429688 C 123.328125 151.902344 123.171875 151.40625 122.890625 150.992188 C 122.410156 150.28125 121.570313 149.808594 120.628906 149.808594 C 119.132813 149.808594 117.925781 150.984375 117.925781 152.429688 C 117.925781 153.878906 119.132813 155.054688 120.628906 155.054688 C 122.121094 155.054688 123.328125 153.878906 123.328125 152.429688 Z M 123.328125 152.429688 "/>
<path style=" stroke:none;fill-rule:nonzero;fill:rgb(0%,0%,0%);fill-opacity:1;" d="M 127.242188 147.335938 C 125.90625 147.335938 125.203125 148.425781 124.835938 149.511719 C 124.464844 150.601563 124.433594 151.6875 124.433594 151.6875 L 123.746094 151.6875 C 123.746094 151.6875 123.617188 147.34375 120.945313 147.335938 Z M 127.242188 147.335938 "/>
<path style=" stroke:none;fill-rule:nonzero;fill:rgb(0%,0%,0%);fill-opacity:1;" d="M 122.234375 155.484375 C 123.753906 153.96875 123.753906 151.6875 123.753906 151.6875 L 124.433594 151.679688 C 124.433594 151.679688 124.433594 154.007813 125.914063 155.484375 "/>
<path style=" stroke:none;fill-rule:nonzero;fill:rgb(0%,0%,0%);fill-opacity:1;" d="M 122.539063 150.609375 C 124.058594 152.128906 126.335938 152.128906 126.335938 152.128906 L 126.335938 152.808594 C 126.335938 152.808594 124.011719 152.808594 122.53125 154.285156 "/>
<path style=" stroke:none;fill-rule:nonzero;fill:rgb(0%,0%,0%);fill-opacity:1;" d="M 125.585938 150.601563 C 124.066406 152.117188 121.785156 152.117188 121.785156 152.117188 L 121.785156 152.800781 C 121.785156 152.800781 124.113281 152.800781 125.59375 154.277344 "/>
<path style=" stroke:none;fill-rule:nonzero;fill:rgb(0%,0%,0%);fill-opacity:1;" d="M 29.644531 21.40625 C 29.644531 24.878906 32.542969 27.699219 36.132813 27.699219 C 39.722656 27.699219 42.617188 24.878906 42.617188 21.40625 C 42.617188 17.929688 39.722656 15.109375 36.132813 15.109375 C 32.542969 15.109375 29.644531 17.929688 29.644531 21.40625 Z M 29.644531 21.40625 "/>
<path style=" stroke:none;fill-rule:nonzero;fill:rgb(0%,0%,0%);fill-opacity:1;" d="M 21.277344 33.324219 C 21.277344 36.796875 24.175781 39.617188 27.765625 39.617188 C 31.351563 39.617188 34.25 36.796875 34.25 33.324219 C 34.25 29.851563 31.351563 27.027344 27.765625 27.027344 C 24.175781 27.027344 21.277344 29.851563 21.277344 33.324219 Z M 21.277344 33.324219 "/>
<path style=" stroke:none;fill-rule:nonzero;fill:rgb(0%,0%,0%);fill-opacity:1;" d="M 37.898438 33.363281 C 37.898438 34.628906 38.28125 35.820313 38.953125 36.816406 C 40.105469 38.523438 42.121094 39.65625 44.386719 39.65625 C 47.972656 39.65625 50.871094 36.835938 50.871094 33.363281 C 50.871094 29.886719 47.972656 27.066406 44.386719 27.066406 C 40.796875 27.066406 37.898438 29.886719 37.898438 33.363281 Z M 37.898438 33.363281 "/>
<path style=" stroke:none;fill-rule:nonzero;fill:rgb(0%,0%,0%);fill-opacity:1;" d="M 28.511719 45.589844 C 31.71875 45.589844 33.40625 42.976563 34.289063 40.367188 C 35.171875 37.757813 35.25 35.148438 35.25 35.148438 L 36.898438 35.148438 C 36.898438 35.148438 37.207031 45.570313 43.617188 45.589844 Z M 28.511719 45.589844 "/>
<path style=" stroke:none;fill-rule:nonzero;fill:rgb(0%,0%,0%);fill-opacity:1;" d="M 40.527344 26.03125 C 36.878906 29.675781 36.878906 35.148438 36.878906 35.148438 L 35.25 35.164063 C 35.25 35.164063 35.25 29.582031 31.699219 26.03125 "/>
<path style=" stroke:none;fill-rule:nonzero;fill:rgb(0%,0%,0%);fill-opacity:1;" d="M 39.796875 37.738281 C 36.152344 34.089844 30.679688 34.089844 30.679688 34.089844 L 30.679688 32.460938 C 30.679688 32.460938 36.265625 32.460938 39.816406 28.910156 "/>
<path style=" stroke:none;fill-rule:nonzero;fill:rgb(0%,0%,0%);fill-opacity:1;" d="M 32.484375 37.757813 C 36.132813 34.109375 41.601563 34.109375 41.601563 34.109375 L 41.601563 32.480469 C 41.601563 32.480469 36.015625 32.480469 32.464844 28.929688 "/>
<path style=" stroke:none;fill-rule:nonzero;fill:rgb(0%,0%,0%);fill-opacity:1;" d="M 29.644531 82.933594 C 29.644531 86.410156 32.542969 89.230469 36.132813 89.230469 C 39.722656 89.230469 42.617188 86.410156 42.617188 82.933594 C 42.617188 79.460938 39.722656 76.640625 36.132813 76.640625 C 32.542969 76.640625 29.644531 79.460938 29.644531 82.933594 Z M 29.644531 82.933594 "/>
<path style=" stroke:none;fill-rule:nonzero;fill:rgb(0%,0%,0%);fill-opacity:1;" d="M 21.277344 94.855469 C 21.277344 98.328125 24.175781 101.148438 27.765625 101.148438 C 31.351563 101.148438 34.25 98.328125 34.25 94.855469 C 34.25 91.378906 31.351563 88.558594 27.765625 88.558594 C 24.175781 88.558594 21.277344 91.378906 21.277344 94.855469 Z M 21.277344 94.855469 "/>
<path style=" stroke:none;fill-rule:nonzero;fill:rgb(0%,0%,0%);fill-opacity:1;" d="M 37.898438 94.890625 C 37.898438 96.160156 38.28125 97.347656 38.953125 98.347656 C 40.105469 100.054688 42.121094 101.1875 44.386719 101.1875 C 47.972656 101.1875 50.871094 98.367188 50.871094 94.890625 C 50.871094 91.417969 47.972656 88.597656 44.386719 88.597656 C 40.796875 88.597656 37.898438 91.417969 37.898438 94.890625 Z M 37.898438 94.890625 "/>
<path style=" stroke:none;fill-rule:nonzero;fill:rgb(0%,0%,0%);fill-opacity:1;" d="M 28.511719 107.117188 C 31.71875 107.117188 33.40625 104.507813 34.289063 101.898438 C 35.171875 99.285156 35.25 96.675781 35.25 96.675781 L 36.898438 96.675781 C 36.898438 96.675781 37.207031 107.097656 43.617188 107.117188 Z M 28.511719 107.117188 "/>
<path style=" stroke:none;fill-rule:nonzero;fill:rgb(0%,0%,0%);fill-opacity:1;" d="M 40.527344 87.558594 C 36.878906 91.207031 36.878906 96.675781 36.878906 96.675781 L 35.25 96.695313 C 35.25 96.695313 35.25 91.109375 31.699219 87.558594 "/>
<path style=" stroke:none;fill-rule:nonzero;fill:rgb(0%,0%,0%);fill-opacity:1;" d="M 39.796875 99.269531 C 36.152344 95.621094 30.679688 95.621094 30.679688 95.621094 L 30.679688 93.988281 C 30.679688 93.988281 36.265625 93.988281 39.816406 90.4375 "/>
<path style=" stroke:none;fill-rule:nonzero;fill:rgb(0%,0%,0%);fill-opacity:1;" d="M 32.484375 99.285156 C 36.132813 95.640625 41.601563 95.640625 41.601563 95.640625 L 41.601563 94.007813 C 41.601563 94.007813 36.015625 94.007813 32.464844 90.460938 "/>
<path style=" stroke:none;fill-rule:nonzero;fill:rgb(0%,0%,0%);fill-opacity:1;" d="M 42.503906 170.023438 C 42.503906 166.546875 39.605469 163.726563 36.015625 163.726563 C 32.425781 163.726563 29.527344 166.546875 29.527344 170.023438 C 29.527344 173.496094 32.425781 176.316406 36.015625 176.316406 C 39.605469 176.316406 42.503906 173.496094 42.503906 170.023438 Z M 42.503906 170.023438 "/>
<path style=" stroke:none;fill-rule:nonzero;fill:rgb(0%,0%,0%);fill-opacity:1;" d="M 50.871094 158.101563 C 50.871094 154.628906 47.972656 151.808594 44.386719 151.808594 C 40.796875 151.808594 37.898438 154.628906 37.898438 158.101563 C 37.898438 161.578125 40.796875 164.398438 44.386719 164.398438 C 47.972656 164.398438 50.871094 161.578125 50.871094 158.101563 Z M 50.871094 158.101563 "/>
<path style=" stroke:none;fill-rule:nonzero;fill:rgb(0%,0%,0%);fill-opacity:1;" d="M 34.25 158.066406 C 34.25 156.796875 33.867188 155.609375 33.195313 154.609375 C 32.042969 152.902344 30.027344 151.769531 27.761719 151.769531 C 24.175781 151.769531 21.277344 154.589844 21.277344 158.066406 C 21.277344 161.539063 24.175781 164.359375 27.761719 164.359375 C 31.351563 164.359375 34.25 161.539063 34.25 158.066406 Z M 34.25 158.066406 "/>
<path style=" stroke:none;fill-rule:nonzero;fill:rgb(0%,0%,0%);fill-opacity:1;" d="M 43.636719 145.839844 C 40.429688 145.839844 38.742188 148.449219 37.859375 151.058594 C 36.976563 153.671875 36.898438 156.28125 36.898438 156.28125 L 35.25 156.28125 C 35.25 156.28125 34.941406 145.859375 28.53125 145.839844 Z M 43.636719 145.839844 "/>
<path style=" stroke:none;fill-rule:nonzero;fill:rgb(0%,0%,0%);fill-opacity:1;" d="M 31.621094 165.394531 C 35.269531 161.75 35.269531 156.28125 35.269531 156.28125 L 36.898438 156.261719 C 36.898438 156.261719 36.898438 161.847656 40.449219 165.394531 "/>
<path style=" stroke:none;fill-rule:nonzero;fill:rgb(0%,0%,0%);fill-opacity:1;" d="M 32.351563 153.6875 C 35.996094 157.335938 41.46875 157.335938 41.46875 157.335938 L 41.46875 158.96875 C 41.46875 158.96875 35.882813 158.96875 32.332031 162.515625 "/>
<path style=" stroke:none;fill-rule:nonzero;fill:rgb(0%,0%,0%);fill-opacity:1;" d="M 39.664063 153.671875 C 36.015625 157.316406 30.546875 157.316406 30.546875 157.316406 L 30.546875 158.949219 C 30.546875 158.949219 36.132813 158.949219 39.683594 162.496094 "/>
<path style=" stroke:none;fill-rule:nonzero;fill:rgb(0%,0%,0%);fill-opacity:1;" d="M 93.507813 21.40625 C 93.507813 24.878906 96.40625 27.699219 99.992188 27.699219 C 103.582031 27.699219 106.480469 24.878906 106.480469 21.40625 C 106.480469 17.929688 103.582031 15.109375 99.992188 15.109375 C 96.40625 15.109375 93.507813 17.929688 93.507813 21.40625 Z M 93.507813 21.40625 "/>
<path style=" stroke:none;fill-rule:nonzero;fill:rgb(0%,0%,0%);fill-opacity:1;" d="M 85.140625 33.324219 C 85.140625 36.796875 88.035156 39.617188 91.625 39.617188 C 95.214844 39.617188 98.113281 36.796875 98.113281 33.324219 C 98.113281 29.851563 95.214844 27.027344 91.625 27.027344 C 88.035156 27.027344 85.140625 29.851563 85.140625 33.324219 Z M 85.140625 33.324219 "/>
<path style=" stroke:none;fill-rule:nonzero;fill:rgb(0%,0%,0%);fill-opacity:1;" d="M 101.761719 33.363281 C 101.761719 34.628906 102.144531 35.820313 102.816406 36.816406 C 103.96875 38.523438 105.980469 39.65625 108.246094 39.65625 C 111.835938 39.65625 114.734375 36.835938 114.734375 33.363281 C 114.734375 29.886719 111.835938 27.066406 108.246094 27.066406 C 104.65625 27.066406 101.761719 29.886719 101.761719 33.363281 Z M 101.761719 33.363281 "/>
<path style=" stroke:none;fill-rule:nonzero;fill:rgb(0%,0%,0%);fill-opacity:1;" d="M 92.375 45.589844 C 95.578125 45.589844 97.269531 42.976563 98.152344 40.367188 C 99.035156 37.757813 99.109375 35.148438 99.109375 35.148438 L 100.761719 35.148438 C 100.761719 35.148438 101.070313 45.570313 107.480469 45.589844 Z M 92.375 45.589844 "/>
<path style=" stroke:none;fill-rule:nonzero;fill:rgb(0%,0%,0%);fill-opacity:1;" d="M 104.390625 26.03125 C 100.742188 29.675781 100.742188 35.148438 100.742188 35.148438 L 99.109375 35.164063 C 99.109375 35.164063 99.109375 29.582031 95.558594 26.03125 "/>
<path style=" stroke:none;fill-rule:nonzero;fill:rgb(0%,0%,0%);fill-opacity:1;" d="M 103.660156 37.738281 C 100.011719 34.089844 94.542969 34.089844 94.542969 34.089844 L 94.542969 32.460938 C 94.542969 32.460938 100.128906 32.460938 103.679688 28.910156 "/>
<path style=" stroke:none;fill-rule:nonzero;fill:rgb(0%,0%,0%);fill-opacity:1;" d="M 96.347656 37.757813 C 99.992188 34.109375 105.464844 34.109375 105.464844 34.109375 L 105.464844 32.480469 C 105.464844 32.480469 99.878906 32.480469 96.328125 28.929688 "/>
<path style=" stroke:none;fill-rule:nonzero;fill:rgb(0%,0%,0%);fill-opacity:1;" d="M 93.507813 82.933594 C 93.507813 86.410156 96.40625 89.230469 99.992188 89.230469 C 103.582031 89.230469 106.480469 86.410156 106.480469 82.933594 C 106.480469 79.460938 103.582031 76.640625 99.992188 76.640625 C 96.40625 76.640625 93.507813 79.460938 93.507813 82.933594 Z M 93.507813 82.933594 "/>
<path style=" stroke:none;fill-rule:nonzero;fill:rgb(0%,0%,0%);fill-opacity:1;" d="M 85.140625 94.855469 C 85.140625 98.328125 88.035156 101.148438 91.625 101.148438 C 95.214844 101.148438 98.113281 98.328125 98.113281 94.855469 C 98.113281 91.378906 95.214844 88.558594 91.625 88.558594 C 88.035156 88.558594 85.140625 91.378906 85.140625 94.855469 Z M 85.140625 94.855469 "/>
<path style=" stroke:none;fill-rule:nonzero;fill:rgb(0%,0%,0%);fill-opacity:1;" d="M 101.761719 94.890625 C 101.761719 96.160156 102.144531 97.347656 102.816406 98.347656 C 103.96875 100.054688 105.980469 101.1875 108.246094 101.1875 C 111.835938 101.1875 114.734375 98.367188 114.734375 94.890625 C 114.734375 91.417969 111.835938 88.597656 108.246094 88.597656 C 104.65625 88.597656 101.761719 91.417969 101.761719 94.890625 Z M 101.761719 94.890625 "/>
<path style=" stroke:none;fill-rule:nonzero;fill:rgb(0%,0%,0%);fill-opacity:1;" d="M 92.375 107.117188 C 95.578125 107.117188 97.269531 104.507813 98.152344 101.898438 C 99.035156 99.285156 99.109375 96.675781 99.109375 96.675781 L 100.761719 96.675781 C 100.761719 96.675781 101.070313 107.097656 107.480469 107.117188 Z M 92.375 107.117188 "/>
<path style=" stroke:none;fill-rule:nonzero;fill:rgb(0%,0%,0%);fill-opacity:1;" d="M 104.390625 87.558594 C 100.742188 91.207031 100.742188 96.675781 100.742188 96.675781 L 99.109375 96.695313 C 99.109375 96.695313 99.109375 91.109375 95.558594 87.558594 "/>
<path style=" stroke:none;fill-rule:nonzero;fill:rgb(0%,0%,0%);fill-opacity:1;" d="M 103.660156 99.269531 C 100.011719 95.621094 94.542969 95.621094 94.542969 95.621094 L 94.542969 93.988281 C 94.542969 93.988281 100.128906 93.988281 103.679688 90.4375 "/>
<path style=" stroke:none;fill-rule:nonzero;fill:rgb(0%,0%,0%);fill-opacity:1;" d="M 96.347656 99.285156 C 99.992188 95.640625 105.464844 95.640625 105.464844 95.640625 L 105.464844 94.007813 C 105.464844 94.007813 99.878906 94.007813 96.328125 90.460938 "/>
<path style=" stroke:none;fill-rule:nonzero;fill:rgb(0%,0%,0%);fill-opacity:1;" d="M 106.367188 170.023438 C 106.367188 166.546875 103.46875 163.726563 99.878906 163.726563 C 96.289063 163.726563 93.390625 166.546875 93.390625 170.023438 C 93.390625 173.496094 96.289063 176.316406 99.878906 176.316406 C 103.46875 176.316406 106.367188 173.496094 106.367188 170.023438 Z M 106.367188 170.023438 "/>
<path style=" stroke:none;fill-rule:nonzero;fill:rgb(0%,0%,0%);fill-opacity:1;" d="M 114.734375 158.101563 C 114.734375 154.628906 111.835938 151.808594 108.246094 151.808594 C 104.65625 151.808594 101.761719 154.628906 101.761719 158.101563 C 101.761719 161.578125 104.65625 164.398438 108.246094 164.398438 C 111.835938 164.398438 114.734375 161.578125 114.734375 158.101563 Z M 114.734375 158.101563 "/>
<path style=" stroke:none;fill-rule:nonzero;fill:rgb(0%,0%,0%);fill-opacity:1;" d="M 98.113281 158.066406 C 98.113281 156.796875 97.730469 155.609375 97.058594 154.609375 C 95.90625 152.902344 93.890625 151.769531 91.625 151.769531 C 88.035156 151.769531 85.140625 154.589844 85.140625 158.066406 C 85.140625 161.539063 88.035156 164.359375 91.625 164.359375 C 95.214844 164.359375 98.113281 161.539063 98.113281 158.066406 Z M 98.113281 158.066406 "/>
<path style=" stroke:none;fill-rule:nonzero;fill:rgb(0%,0%,0%);fill-opacity:1;" d="M 107.496094 145.839844 C 104.292969 145.839844 102.605469 148.449219 101.722656 151.058594 C 100.839844 153.671875 100.761719 156.28125 100.761719 156.28125 L 99.109375 156.28125 C 99.109375 156.28125 98.804688 145.859375 92.394531 145.839844 Z M 107.496094 145.839844 "/>
<path style=" stroke:none;fill-rule:nonzero;fill:rgb(0%,0%,0%);fill-opacity:1;" d="M 95.484375 165.394531 C 99.128906 161.75 99.128906 156.28125 99.128906 156.28125 L 100.761719 156.261719 C 100.761719 156.261719 100.761719 161.847656 104.3125 165.394531 "/>
<path style=" stroke:none;fill-rule:nonzero;fill:rgb(0%,0%,0%);fill-opacity:1;" d="M 96.214844 153.6875 C 99.859375 157.335938 105.328125 157.335938 105.328125 157.335938 L 105.328125 158.96875 C 105.328125 158.96875 99.742188 158.96875 96.195313 162.515625 "/>
<path style=" stroke:none;fill-rule:nonzero;fill:rgb(0%,0%,0%);fill-opacity:1;" d="M 103.523438 153.671875 C 99.878906 157.316406 94.410156 157.316406 94.410156 157.316406 L 94.410156 158.949219 C 94.410156 158.949219 99.992188 158.949219 103.546875 162.496094 "/>
<path style=" stroke:none;fill-rule:nonzero;fill:rgb(0%,0%,0%);fill-opacity:1;" d="M 61.574219 64.714844 C 61.574219 68.1875 64.472656 71.007813 68.0625 71.007813 C 71.652344 71.007813 74.550781 68.1875 74.550781 64.714844 C 74.550781 61.238281 71.652344 58.417969 68.0625 58.417969 C 64.472656 58.417969 61.574219 61.238281 61.574219 64.714844 Z M 61.574219 64.714844 "/>
<path style=" stroke:none;fill-rule:nonzero;fill:rgb(0%,0%,0%);fill-opacity:1;" d="M 53.207031 76.632813 C 53.207031 80.105469 56.105469 82.929688 59.695313 82.929688 C 63.285156 82.929688 66.183594 80.105469 66.183594 76.632813 C 66.183594 73.160156 63.285156 70.335938 59.695313 70.335938 C 56.105469 70.335938 53.207031 73.160156 53.207031 76.632813 Z M 53.207031 76.632813 "/>
<path style=" stroke:none;fill-rule:nonzero;fill:rgb(0%,0%,0%);fill-opacity:1;" d="M 69.828125 76.671875 C 69.828125 77.9375 70.210938 79.128906 70.882813 80.125 C 72.035156 81.835938 74.050781 82.964844 76.316406 82.964844 C 79.90625 82.964844 82.804688 80.144531 82.804688 76.671875 C 82.804688 73.195313 79.90625 70.375 76.316406 70.375 C 72.726563 70.375 69.828125 73.195313 69.828125 76.671875 Z M 69.828125 76.671875 "/>
<path style=" stroke:none;fill-rule:nonzero;fill:rgb(0%,0%,0%);fill-opacity:1;" d="M 60.441406 88.898438 C 63.648438 88.898438 65.335938 86.285156 66.21875 83.675781 C 67.101563 81.066406 67.179688 78.457031 67.179688 78.457031 L 68.828125 78.457031 C 68.828125 78.457031 69.136719 88.878906 75.546875 88.898438 Z M 60.441406 88.898438 "/>
<path style=" stroke:none;fill-rule:nonzero;fill:rgb(0%,0%,0%);fill-opacity:1;" d="M 72.457031 69.339844 C 68.8125 72.984375 68.8125 78.457031 68.8125 78.457031 L 67.179688 78.476563 C 67.179688 78.476563 67.179688 72.890625 63.628906 69.339844 "/>
<path style=" stroke:none;fill-rule:nonzero;fill:rgb(0%,0%,0%);fill-opacity:1;" d="M 71.726563 81.046875 C 68.082031 77.398438 62.613281 77.398438 62.613281 77.398438 L 62.613281 75.769531 C 62.613281 75.769531 68.195313 75.769531 71.746094 72.21875 "/>
<path style=" stroke:none;fill-rule:nonzero;fill:rgb(0%,0%,0%);fill-opacity:1;" d="M 64.414063 81.066406 C 68.0625 77.417969 73.53125 77.417969 73.53125 77.417969 L 73.53125 75.789063 C 73.53125 75.789063 67.945313 75.789063 64.398438 72.238281 "/>
</g>
</svg>
