<?xml version="1.0" encoding="UTF-8"?>
<svg xmlns="http://www.w3.org/2000/svg" xmlns:xlink="http://www.w3.org/1999/xlink" width="135.21pt" height="195.639pt" viewBox="0 0 135.21 195.639" version="1.1">
<g id="surface1">
<path style=" stroke:none;fill-rule:nonzero;fill:rgb(100%,100%,100%);fill-opacity:1;" d="M 1 189.097656 C 1 192.121094 3.472656 194.589844 6.492188 194.589844 L 128.726563 194.589844 C 131.738281 194.589844 134.210938 192.121094 134.210938 189.097656 L 134.210938 6.445313 C 134.210938 3.421875 131.738281 0.949219 128.726563 0.949219 L 6.492188 0.949219 C 3.472656 0.949219 1 3.421875 1 6.445313 Z M 1 189.097656 "/>
<path style="fill:none;stroke-width:1.999;stroke-linecap:butt;stroke-linejoin:miter;stroke:rgb(0%,0%,0%);stroke-opacity:1;stroke-miterlimit:10;" d="M 1 6.541344 C 1 3.517906 3.472656 1.049156 6.492188 1.049156 L 128.726563 1.049156 C 131.738281 1.049156 134.210938 3.517906 134.210938 6.541344 L 134.210938 189.193687 C 134.210938 192.217125 131.738281 194.689781 128.726563 194.689781 L 6.492188 194.689781 C 3.472656 194.689781 1 192.217125 1 189.193687 Z M 1 6.541344 " transform="matrix(1,0,0,-1,0,195.639)"/>
<path style=" stroke:none;fill-rule:nonzero;fill:rgb(86.29303%,23.658752%,16.767883%);fill-opacity:1;" d="M 13.222656 15.746094 C 14.347656 16.089844 15.199219 16.867188 15.78125 18.074219 C 16.371094 19.28125 16.664063 20.859375 16.664063 22.8125 C 16.664063 25.253906 16.171875 27.121094 15.183594 28.425781 C 14.203125 29.726563 12.789063 30.378906 10.9375 30.378906 C 9.085938 30.378906 7.667969 29.726563 6.683594 28.425781 C 5.695313 27.121094 5.203125 25.253906 5.203125 22.8125 C 5.203125 20.859375 5.496094 19.28125 6.085938 18.074219 C 6.671875 16.867188 7.527344 16.089844 8.644531 15.746094 C 7.652344 15.320313 6.910156 14.609375 6.417969 13.617188 C 5.925781 12.609375 5.679688 11.339844 5.679688 9.800781 C 5.679688 7.550781 6.125 5.835938 7.023438 4.652344 C 7.921875 3.46875 9.226563 2.875 10.9375 2.875 C 12.644531 2.875 13.945313 3.46875 14.84375 4.652344 C 15.746094 5.835938 16.199219 7.550781 16.199219 9.800781 C 16.199219 11.339844 15.949219 12.609375 15.449219 13.617188 C 14.957031 14.609375 14.214844 15.320313 13.222656 15.746094 M 12.53125 9.871094 C 12.53125 8 12.410156 6.71875 12.171875 6.019531 C 11.929688 5.308594 11.519531 4.953125 10.9375 4.953125 C 10.351563 4.953125 9.9375 5.308594 9.695313 6.019531 C 9.464844 6.71875 9.347656 8 9.347656 9.871094 C 9.347656 11.730469 9.464844 13.007813 9.695313 13.707031 C 9.9375 14.390625 10.351563 14.734375 10.9375 14.734375 C 11.527344 14.734375 11.9375 14.390625 12.171875 13.707031 C 12.410156 13.007813 12.53125 11.730469 12.53125 9.871094 M 12.902344 22.511719 C 12.902344 20.347656 12.753906 18.855469 12.453125 18.039063 C 12.164063 17.222656 11.660156 16.8125 10.9375 16.8125 C 10.210938 16.8125 9.703125 17.222656 9.410156 18.039063 C 9.121094 18.855469 8.976563 20.347656 8.976563 22.511719 C 8.976563 24.703125 9.121094 26.21875 9.410156 27.058594 C 9.710938 27.886719 10.21875 28.300781 10.9375 28.300781 C 11.652344 28.300781 12.15625 27.886719 12.453125 27.058594 C 12.753906 26.21875 12.902344 24.703125 12.902344 22.511719 "/>
<path style=" stroke:none;fill-rule:nonzero;fill:rgb(86.29303%,23.658752%,16.767883%);fill-opacity:1;" d="M 122.792969 178.996094 C 121.667969 178.652344 120.8125 177.878906 120.230469 176.671875 C 119.644531 175.464844 119.351563 173.882813 119.351563 171.929688 C 119.351563 169.492188 119.84375 167.621094 120.828125 166.320313 C 121.808594 165.019531 123.226563 164.367188 125.074219 164.367188 C 126.929688 164.367188 128.347656 165.019531 129.332031 166.320313 C 130.316406 167.621094 130.8125 169.492188 130.8125 171.929688 C 130.8125 173.882813 130.515625 175.464844 129.929688 176.671875 C 129.34375 177.878906 128.488281 178.652344 127.371094 178.996094 C 128.363281 179.421875 129.105469 180.132813 129.597656 181.128906 C 130.089844 182.132813 130.335938 183.40625 130.335938 184.945313 C 130.335938 187.195313 129.886719 188.910156 128.992188 190.09375 C 128.09375 191.277344 126.789063 191.867188 125.074219 191.867188 C 123.371094 191.867188 122.066406 191.277344 121.171875 190.09375 C 120.265625 188.910156 119.816406 187.195313 119.816406 184.945313 C 119.816406 183.40625 120.066406 182.132813 120.5625 181.128906 C 121.058594 180.132813 121.800781 179.421875 122.792969 178.996094 M 123.484375 184.875 C 123.484375 186.742188 123.605469 188.027344 123.84375 188.726563 C 124.085938 189.4375 124.496094 189.792969 125.074219 189.792969 C 125.664063 189.792969 126.078125 189.4375 126.316406 188.726563 C 126.550781 188.027344 126.667969 186.742188 126.667969 184.875 C 126.667969 183.015625 126.550781 181.738281 126.316406 181.039063 C 126.078125 180.351563 125.664063 180.007813 125.074219 180.007813 C 124.488281 180.007813 124.078125 180.351563 123.84375 181.039063 C 123.605469 181.738281 123.484375 183.015625 123.484375 184.875 M 123.113281 172.230469 C 123.113281 174.398438 123.261719 175.890625 123.558594 176.707031 C 123.851563 177.523438 124.355469 177.933594 125.074219 177.933594 C 125.804688 177.933594 126.3125 177.523438 126.601563 176.707031 C 126.894531 175.890625 127.039063 174.398438 127.039063 172.230469 C 127.039063 170.042969 126.894531 168.527344 126.601563 167.6875 C 126.304688 166.859375 125.796875 166.445313 125.074219 166.445313 C 124.363281 166.445313 123.855469 166.859375 123.558594 167.6875 C 123.261719 168.527344 123.113281 170.042969 123.113281 172.230469 "/>
<path style=" stroke:none;fill-rule:nonzero;fill:rgb(86.29303%,23.658752%,16.767883%);fill-opacity:1;" d="M 11.914063 41.058594 C 13.964844 41.058594 16.011719 41.058594 18.058594 41.058594 C 17.359375 41.027344 16.761719 40.574219 16.199219 40.199219 C 14.9375 39.246094 13.753906 38.15625 12.820313 36.878906 C 12.386719 36.234375 11.929688 35.511719 11.914063 34.710938 M 18.058594 41.058594 C 17.171875 41.085938 16.410156 41.652344 15.734375 42.171875 C 14.539063 43.175781 13.503906 44.371094 12.632813 45.660156 C 12.3125 46.195313 11.933594 46.765625 11.914063 47.40625 C 11.914063 45.289063 11.914063 43.175781 11.914063 41.058594 M 11.914063 47.40625 C 11.886719 46.464844 11.308594 45.644531 10.765625 44.914063 C 9.796875 43.703125 8.648438 42.636719 7.386719 41.742188 C 6.894531 41.4375 6.371094 41.074219 5.773438 41.058594 C 7.820313 41.058594 9.867188 41.058594 11.914063 41.058594 M 5.773438 41.058594 C 6.660156 41.03125 7.421875 40.464844 8.097656 39.945313 C 9.292969 38.941406 10.328125 37.746094 11.199219 36.453125 C 11.519531 35.921875 11.898438 35.351563 11.914063 34.710938 C 11.914063 36.824219 11.914063 38.941406 11.914063 41.058594 "/>
<path style=" stroke:none;fill-rule:nonzero;fill:rgb(86.29303%,23.658752%,16.767883%);fill-opacity:1;" d="M 124.097656 153.6875 C 122.050781 153.6875 120.003906 153.6875 117.957031 153.6875 C 118.65625 153.71875 119.25 154.171875 119.8125 154.542969 C 121.074219 155.496094 122.257813 156.589844 123.191406 157.867188 C 123.628906 158.511719 124.085938 159.234375 124.097656 160.035156 M 117.957031 153.6875 C 118.84375 153.65625 119.601563 153.09375 120.277344 152.570313 C 121.476563 151.566406 122.507813 150.375 123.382813 149.082031 C 123.703125 148.546875 124.082031 147.980469 124.097656 147.335938 C 124.097656 149.453125 124.097656 151.570313 124.097656 153.6875 M 124.097656 147.335938 C 124.128906 148.28125 124.703125 149.101563 125.246094 149.832031 C 126.21875 151.039063 127.367188 152.105469 128.628906 153 C 129.121094 153.308594 129.640625 153.671875 130.238281 153.6875 C 128.191406 153.6875 126.144531 153.6875 124.097656 153.6875 M 130.238281 153.6875 C 129.351563 153.714844 128.59375 154.277344 127.917969 154.800781 C 126.722656 155.804688 125.6875 156.996094 124.8125 158.289063 C 124.492188 158.824219 124.117188 159.390625 124.097656 160.035156 C 124.097656 157.917969 124.097656 155.804688 124.097656 153.6875 "/>
<path style=" stroke:none;fill-rule:nonzero;fill:rgb(86.29303%,23.658752%,16.767883%);fill-opacity:1;" d="M 36.078125 30.347656 C 40.992188 30.347656 45.90625 30.347656 50.816406 30.347656 C 49.140625 30.273438 47.710938 29.1875 46.363281 28.289063 C 43.332031 26.003906 40.492188 23.382813 38.25 20.3125 C 37.203125 18.769531 36.105469 17.035156 36.078125 15.109375 M 50.816406 30.347656 C 48.6875 30.414063 46.867188 31.769531 45.246094 33.023438 C 42.375 35.429688 39.890625 38.296875 37.796875 41.398438 C 37.027344 42.683594 36.121094 44.042969 36.078125 45.589844 C 36.078125 40.507813 36.078125 35.429688 36.078125 30.347656 M 36.078125 45.589844 C 36.003906 43.320313 34.625 41.355469 33.316406 39.597656 C 30.992188 36.699219 28.234375 34.136719 25.203125 31.992188 C 24.023438 31.257813 22.773438 30.382813 21.339844 30.347656 C 26.253906 30.347656 31.164063 30.347656 36.078125 30.347656 M 21.339844 30.347656 C 23.46875 30.28125 25.289063 28.925781 26.910156 27.675781 C 29.78125 25.265625 32.265625 22.402344 34.359375 19.300781 C 35.128906 18.015625 36.035156 16.652344 36.078125 15.109375 C 36.078125 20.191406 36.078125 25.269531 36.078125 30.347656 "/>
<path style=" stroke:none;fill-rule:nonzero;fill:rgb(86.29303%,23.658752%,16.767883%);fill-opacity:1;" d="M 36.078125 73.65625 C 40.992188 73.65625 45.90625 73.65625 50.816406 73.65625 C 49.140625 73.582031 47.710938 72.496094 46.363281 71.597656 C 43.332031 69.3125 40.492188 66.691406 38.25 63.621094 C 37.203125 62.078125 36.105469 60.34375 36.078125 58.417969 M 50.816406 73.65625 C 48.6875 73.722656 46.867188 75.078125 45.246094 76.332031 C 42.375 78.738281 39.890625 81.605469 37.796875 84.707031 C 37.027344 85.992188 36.121094 87.351563 36.078125 88.894531 C 36.078125 83.816406 36.078125 78.738281 36.078125 73.65625 M 36.078125 88.894531 C 36.003906 86.628906 34.625 84.660156 33.316406 82.90625 C 30.992188 80.011719 28.234375 77.445313 25.203125 75.300781 C 24.023438 74.566406 22.773438 73.691406 21.339844 73.65625 C 26.253906 73.65625 31.164063 73.65625 36.078125 73.65625 M 21.339844 73.65625 C 23.46875 73.589844 25.289063 72.234375 26.910156 70.984375 C 29.78125 68.574219 32.265625 65.710938 34.359375 62.609375 C 35.128906 61.324219 36.035156 59.964844 36.078125 58.417969 C 36.078125 63.496094 36.078125 68.578125 36.078125 73.65625 "/>
<path style=" stroke:none;fill-rule:nonzero;fill:rgb(86.29303%,23.658752%,16.767883%);fill-opacity:1;" d="M 36.078125 117.769531 C 31.164063 117.769531 26.253906 117.769531 21.339844 117.769531 C 23.015625 117.84375 24.445313 118.929688 25.796875 119.828125 C 28.824219 122.113281 31.664063 124.734375 33.90625 127.804688 C 34.953125 129.347656 36.050781 131.082031 36.078125 133.007813 M 21.339844 117.769531 C 23.46875 117.703125 25.289063 116.347656 26.910156 115.09375 C 29.78125 112.6875 32.265625 109.820313 34.359375 106.71875 C 35.128906 105.4375 36.035156 104.074219 36.078125 102.53125 C 36.078125 107.609375 36.078125 112.6875 36.078125 117.769531 M 36.078125 102.53125 C 36.152344 104.796875 37.53125 106.765625 38.839844 108.519531 C 41.164063 111.414063 43.921875 113.980469 46.953125 116.125 C 48.132813 116.859375 49.382813 117.734375 50.816406 117.769531 C 45.90625 117.769531 40.992188 117.769531 36.078125 117.769531 M 50.816406 117.769531 C 48.6875 117.835938 46.867188 119.191406 45.246094 120.441406 C 42.375 122.851563 39.890625 125.71875 37.796875 128.816406 C 37.027344 130.101563 36.121094 131.464844 36.078125 133.007813 C 36.078125 127.929688 36.078125 122.847656 36.078125 117.769531 "/>
<path style=" stroke:none;fill-rule:nonzero;fill:rgb(86.29303%,23.658752%,16.767883%);fill-opacity:1;" d="M 36.078125 161.078125 C 31.164063 161.078125 26.253906 161.078125 21.339844 161.078125 C 23.015625 161.152344 24.445313 162.238281 25.796875 163.136719 C 28.824219 165.421875 31.664063 168.046875 33.90625 171.113281 C 34.953125 172.65625 36.050781 174.390625 36.078125 176.316406 M 21.339844 161.078125 C 23.46875 161.011719 25.289063 159.65625 26.910156 158.402344 C 29.78125 155.996094 32.265625 153.128906 34.359375 150.027344 C 35.128906 148.742188 36.035156 147.382813 36.078125 145.839844 C 36.078125 150.917969 36.078125 155.996094 36.078125 161.078125 M 36.078125 145.839844 C 36.152344 148.105469 37.53125 150.074219 38.839844 151.828125 C 41.164063 154.726563 43.921875 157.289063 46.953125 159.433594 C 48.132813 160.167969 49.382813 161.042969 50.816406 161.078125 C 45.90625 161.078125 40.992188 161.078125 36.078125 161.078125 M 50.816406 161.078125 C 48.6875 161.144531 46.867188 162.5 45.246094 163.75 C 42.375 166.160156 39.890625 169.023438 37.796875 172.128906 C 37.027344 173.410156 36.121094 174.773438 36.078125 176.316406 C 36.078125 171.238281 36.078125 166.15625 36.078125 161.078125 "/>
<path style=" stroke:none;fill-rule:nonzero;fill:rgb(86.29303%,23.658752%,16.767883%);fill-opacity:1;" d="M 99.941406 30.347656 C 104.855469 30.347656 109.765625 30.347656 114.679688 30.347656 C 113.003906 30.273438 111.574219 29.1875 110.222656 28.289063 C 107.191406 26.003906 104.355469 23.382813 102.113281 20.3125 C 101.066406 18.769531 99.96875 17.035156 99.941406 15.109375 M 114.679688 30.347656 C 112.550781 30.414063 110.730469 31.769531 109.105469 33.023438 C 106.238281 35.429688 103.753906 38.296875 101.65625 41.398438 C 100.886719 42.683594 99.984375 44.042969 99.941406 45.589844 C 99.941406 40.507813 99.941406 35.429688 99.941406 30.347656 M 99.941406 45.589844 C 99.867188 43.320313 98.484375 41.355469 97.179688 39.597656 C 94.855469 36.699219 92.097656 34.136719 89.066406 31.992188 C 87.886719 31.257813 86.636719 30.382813 85.199219 30.347656 C 90.113281 30.347656 95.027344 30.347656 99.941406 30.347656 M 85.199219 30.347656 C 87.332031 30.28125 89.148438 28.925781 90.773438 27.675781 C 93.644531 25.265625 96.128906 22.402344 98.222656 19.300781 C 98.992188 18.015625 99.898438 16.652344 99.941406 15.109375 C 99.941406 20.191406 99.941406 25.269531 99.941406 30.347656 "/>
<path style=" stroke:none;fill-rule:nonzero;fill:rgb(86.29303%,23.658752%,16.767883%);fill-opacity:1;" d="M 99.941406 73.65625 C 104.855469 73.65625 109.765625 73.65625 114.679688 73.65625 C 113.003906 73.582031 111.574219 72.496094 110.222656 71.597656 C 107.191406 69.3125 104.355469 66.691406 102.113281 63.621094 C 101.066406 62.078125 99.96875 60.34375 99.941406 58.417969 M 114.679688 73.65625 C 112.550781 73.722656 110.730469 75.078125 109.105469 76.332031 C 106.238281 78.738281 103.753906 81.605469 101.65625 84.707031 C 100.886719 85.992188 99.984375 87.351563 99.941406 88.894531 C 99.941406 83.816406 99.941406 78.738281 99.941406 73.65625 M 99.941406 88.894531 C 99.867188 86.628906 98.484375 84.660156 97.179688 82.90625 C 94.855469 80.011719 92.097656 77.445313 89.066406 75.300781 C 87.886719 74.566406 86.636719 73.691406 85.199219 73.65625 C 90.113281 73.65625 95.027344 73.65625 99.941406 73.65625 M 85.199219 73.65625 C 87.332031 73.589844 89.148438 72.234375 90.773438 70.984375 C 93.644531 68.574219 96.128906 65.710938 98.222656 62.609375 C 98.992188 61.324219 99.898438 59.964844 99.941406 58.417969 C 99.941406 63.496094 99.941406 68.578125 99.941406 73.65625 "/>
<path style=" stroke:none;fill-rule:nonzero;fill:rgb(86.29303%,23.658752%,16.767883%);fill-opacity:1;" d="M 99.941406 117.769531 C 95.027344 117.769531 90.113281 117.769531 85.199219 117.769531 C 86.878906 117.84375 88.308594 118.929688 89.65625 119.828125 C 92.6875 122.113281 95.527344 124.734375 97.769531 127.804688 C 98.8125 129.347656 99.914063 131.082031 99.941406 133.007813 M 85.199219 117.769531 C 87.332031 117.703125 89.152344 116.347656 90.773438 115.09375 C 93.644531 112.6875 96.128906 109.820313 98.222656 106.71875 C 98.992188 105.4375 99.898438 104.074219 99.941406 102.53125 C 99.941406 107.609375 99.941406 112.6875 99.941406 117.769531 M 99.941406 102.53125 C 100.015625 104.796875 101.394531 106.765625 102.699219 108.519531 C 105.027344 111.414063 107.78125 113.980469 110.816406 116.125 C 111.992188 116.859375 113.246094 117.734375 114.679688 117.769531 C 109.769531 117.769531 104.855469 117.769531 99.941406 117.769531 M 114.679688 117.769531 C 112.550781 117.835938 110.730469 119.191406 109.105469 120.441406 C 106.238281 122.851563 103.753906 125.71875 101.660156 128.816406 C 100.890625 130.101563 99.984375 131.464844 99.941406 133.007813 C 99.941406 127.929688 99.941406 122.847656 99.941406 117.769531 "/>
<path style=" stroke:none;fill-rule:nonzero;fill:rgb(86.29303%,23.658752%,16.767883%);fill-opacity:1;" d="M 99.941406 161.078125 C 95.027344 161.078125 90.113281 161.078125 85.199219 161.078125 C 86.878906 161.152344 88.308594 162.238281 89.65625 163.136719 C 92.6875 165.421875 95.527344 168.046875 97.769531 171.113281 C 98.8125 172.65625 99.914063 174.390625 99.941406 176.316406 M 85.199219 161.078125 C 87.332031 161.011719 89.152344 159.65625 90.773438 158.402344 C 93.644531 155.996094 96.128906 153.128906 98.222656 150.027344 C 98.992188 148.742188 99.898438 147.382813 99.941406 145.839844 C 99.941406 150.917969 99.941406 155.996094 99.941406 161.078125 M 99.941406 145.839844 C 100.015625 148.105469 101.394531 150.074219 102.699219 151.828125 C 105.027344 154.726563 107.78125 157.289063 110.816406 159.433594 C 111.992188 160.167969 113.246094 161.042969 114.679688 161.078125 C 109.769531 161.078125 104.855469 161.078125 99.941406 161.078125 M 114.679688 161.078125 C 112.550781 161.144531 110.730469 162.5 109.105469 163.75 C 106.238281 166.160156 103.753906 169.023438 101.660156 172.128906 C 100.890625 173.410156 99.984375 174.773438 99.941406 176.316406 C 99.941406 171.238281 99.941406 166.15625 99.941406 161.078125 "/>
</g>
</svg>
