<?xml version="1.0" encoding="UTF-8"?>
<svg xmlns="http://www.w3.org/2000/svg" xmlns:xlink="http://www.w3.org/1999/xlink" width="135.21pt" height="195.639pt" viewBox="0 0 135.21 195.639" version="1.1">
<g id="surface1">
<path style=" stroke:none;fill-rule:nonzero;fill:rgb(100%,100%,100%);fill-opacity:1;" d="M 1 189.097656 C 1 192.121094 3.46875 194.59375 6.492188 194.59375 L 128.722656 194.59375 C 131.738281 194.59375 134.210938 192.121094 134.210938 189.097656 L 134.210938 6.445313 C 134.210938 3.421875 131.738281 0.953125 128.722656 0.953125 L 6.492188 0.953125 C 3.46875 0.953125 1 3.421875 1 6.445313 Z M 1 189.097656 "/>
<path style="fill:none;stroke-width:1.999;stroke-linecap:butt;stroke-linejoin:miter;stroke:rgb(0%,0%,0%);stroke-opacity:1;stroke-miterlimit:10;" d="M 1 6.541344 C 1 3.517906 3.46875 1.04525 6.492188 1.04525 L 128.722656 1.04525 C 131.738281 1.04525 134.210938 3.517906 134.210938 6.541344 L 134.210938 189.193687 C 134.210938 192.217125 131.738281 194.685875 128.722656 194.685875 L 6.492188 194.685875 C 3.46875 194.685875 1 192.217125 1 189.193687 Z M 1 6.541344 " transform="matrix(1,0,0,-1,0,195.639)"/>
<path style=" stroke:none;fill-rule:nonzero;fill:rgb(0%,0%,0%);fill-opacity:1;" d="M 10.8125 4.953125 C 10.164063 4.953125 9.699219 5.472656 9.421875 6.515625 C 9.148438 7.546875 9.011719 9.339844 9.011719 11.894531 C 9.011719 14.453125 9.148438 16.25 9.421875 17.292969 C 9.699219 18.324219 10.164063 18.839844 10.8125 18.839844 C 11.464844 18.839844 11.929688 18.324219 12.207031 17.292969 C 12.484375 16.25 12.625 14.453125 12.625 11.894531 C 12.625 9.339844 12.484375 7.546875 12.207031 6.515625 C 11.929688 5.472656 11.464844 4.953125 10.8125 4.953125 M 12.929688 19.066406 C 12.511719 19.695313 12.046875 20.167969 11.535156 20.488281 C 11.027344 20.796875 10.480469 20.949219 9.886719 20.949219 C 8.445313 20.949219 7.308594 20.164063 6.484375 18.589844 C 5.660156 17.003906 5.25 14.820313 5.25 12.039063 C 5.25 9.101563 5.710938 6.839844 6.632813 5.253906 C 7.558594 3.667969 8.875 2.875 10.585938 2.875 C 12.519531 2.875 13.988281 3.972656 14.984375 6.160156 C 15.984375 8.351563 16.484375 11.558594 16.484375 15.785156 C 16.484375 20.601563 15.929688 24.242188 14.824219 26.703125 C 13.71875 29.152344 12.078125 30.378906 9.902344 30.378906 C 9.335938 30.378906 8.726563 30.289063 8.074219 30.113281 C 7.425781 29.933594 6.726563 29.667969 5.980469 29.3125 L 5.980469 24.625 L 7.128906 24.625 C 7.285156 25.832031 7.582031 26.75 8.019531 27.378906 C 8.460938 27.992188 9.03125 28.300781 9.734375 28.300781 C 10.847656 28.300781 11.65625 27.578125 12.160156 26.136719 C 12.664063 24.679688 12.921875 22.324219 12.929688 19.066406 "/>
<path style=" stroke:none;fill-rule:nonzero;fill:rgb(0%,0%,0%);fill-opacity:1;" d="M 125.191406 189.792969 C 125.839844 189.792969 126.304688 189.269531 126.585938 188.230469 C 126.855469 187.199219 126.992188 185.40625 126.992188 182.851563 C 126.992188 180.292969 126.855469 178.492188 126.585938 177.453125 C 126.304688 176.421875 125.839844 175.90625 125.191406 175.90625 C 124.539063 175.90625 124.074219 176.421875 123.796875 177.453125 C 123.519531 178.492188 123.378906 180.292969 123.378906 182.851563 C 123.378906 185.40625 123.519531 187.199219 123.796875 188.230469 C 124.074219 189.269531 124.539063 189.792969 125.191406 189.792969 M 123.078125 175.675781 C 123.492188 175.050781 123.957031 174.578125 124.46875 174.257813 C 124.976563 173.949219 125.523438 173.796875 126.117188 173.796875 C 127.558594 173.796875 128.695313 174.582031 129.523438 176.15625 C 130.34375 177.742188 130.753906 179.925781 130.753906 182.707031 C 130.753906 185.644531 130.292969 187.902344 129.371094 189.488281 C 128.449219 191.078125 127.132813 191.871094 125.417969 191.871094 C 123.484375 191.871094 122.019531 190.773438 121.019531 188.585938 C 120.019531 186.394531 119.523438 183.1875 119.523438 178.960938 C 119.523438 174.144531 120.074219 170.503906 121.179688 168.042969 C 122.285156 165.59375 123.925781 164.367188 126.101563 164.367188 C 126.667969 164.367188 127.277344 164.457031 127.929688 164.632813 C 128.582031 164.8125 129.277344 165.078125 130.023438 165.433594 L 130.023438 170.121094 L 128.878906 170.121094 C 128.71875 168.914063 128.421875 167.996094 127.988281 167.367188 C 127.542969 166.753906 126.972656 166.445313 126.269531 166.445313 C 125.160156 166.445313 124.351563 167.167969 123.84375 168.609375 C 123.339844 170.066406 123.082031 172.421875 123.078125 175.675781 "/>
<path style=" stroke:none;fill-rule:nonzero;fill:rgb(0%,0%,0%);fill-opacity:1;" d="M 9.234375 37.332031 C 9.234375 38.78125 10.445313 39.953125 11.9375 39.953125 C 13.433594 39.953125 14.640625 38.78125 14.640625 37.332031 C 14.640625 35.886719 13.433594 34.710938 11.9375 34.710938 C 10.445313 34.710938 9.234375 35.886719 9.234375 37.332031 Z M 9.234375 37.332031 "/>
<path style=" stroke:none;fill-rule:nonzero;fill:rgb(0%,0%,0%);fill-opacity:1;" d="M 5.75 42.300781 C 5.75 43.746094 6.957031 44.921875 8.453125 44.921875 C 9.949219 44.921875 11.15625 43.746094 11.15625 42.300781 C 11.15625 40.851563 9.949219 39.675781 8.453125 39.675781 C 6.957031 39.675781 5.75 40.851563 5.75 42.300781 Z M 5.75 42.300781 "/>
<path style=" stroke:none;fill-rule:nonzero;fill:rgb(0%,0%,0%);fill-opacity:1;" d="M 12.675781 42.316406 C 12.675781 42.84375 12.835938 43.339844 13.113281 43.753906 C 13.59375 44.464844 14.433594 44.9375 15.378906 44.9375 C 16.875 44.9375 18.082031 43.761719 18.082031 42.316406 C 18.082031 40.867188 16.875 39.691406 15.378906 39.691406 C 13.882813 39.691406 12.675781 40.867188 12.675781 42.316406 Z M 12.675781 42.316406 "/>
<path style=" stroke:none;fill-rule:nonzero;fill:rgb(0%,0%,0%);fill-opacity:1;" d="M 8.765625 47.410156 C 10.101563 47.410156 10.804688 46.320313 11.171875 45.234375 C 11.539063 44.144531 11.570313 43.058594 11.570313 43.058594 L 12.257813 43.058594 C 12.257813 43.058594 12.386719 47.402344 15.058594 47.410156 Z M 8.765625 47.410156 "/>
<path style=" stroke:none;fill-rule:nonzero;fill:rgb(0%,0%,0%);fill-opacity:1;" d="M 13.769531 39.261719 C 12.25 40.777344 12.25 43.058594 12.25 43.058594 L 11.570313 43.066406 C 11.570313 43.066406 11.570313 40.738281 10.09375 39.261719 "/>
<path style=" stroke:none;fill-rule:nonzero;fill:rgb(0%,0%,0%);fill-opacity:1;" d="M 13.46875 44.136719 C 11.945313 42.617188 9.667969 42.617188 9.667969 42.617188 L 9.667969 41.9375 C 9.667969 41.9375 11.996094 41.9375 13.476563 40.460938 "/>
<path style=" stroke:none;fill-rule:nonzero;fill:rgb(0%,0%,0%);fill-opacity:1;" d="M 10.421875 44.144531 C 11.9375 42.628906 14.21875 42.628906 14.21875 42.628906 L 14.21875 41.945313 C 14.21875 41.945313 11.890625 41.945313 10.410156 40.46875 "/>
<path style=" stroke:none;fill-rule:nonzero;fill:rgb(0%,0%,0%);fill-opacity:1;" d="M 126.769531 157.414063 C 126.769531 155.964844 125.5625 154.789063 124.066406 154.789063 C 122.570313 154.789063 121.363281 155.964844 121.363281 157.414063 C 121.363281 158.859375 122.570313 160.035156 124.066406 160.035156 C 125.5625 160.035156 126.769531 158.859375 126.769531 157.414063 Z M 126.769531 157.414063 "/>
<path style=" stroke:none;fill-rule:nonzero;fill:rgb(0%,0%,0%);fill-opacity:1;" d="M 130.253906 152.445313 C 130.253906 151 129.046875 149.824219 127.550781 149.824219 C 126.058594 149.824219 124.847656 151 124.847656 152.445313 C 124.847656 153.894531 126.058594 155.070313 127.550781 155.070313 C 129.046875 155.070313 130.253906 153.894531 130.253906 152.445313 Z M 130.253906 152.445313 "/>
<path style=" stroke:none;fill-rule:nonzero;fill:rgb(0%,0%,0%);fill-opacity:1;" d="M 123.328125 152.429688 C 123.328125 151.902344 123.171875 151.40625 122.890625 150.992188 C 122.410156 150.28125 121.570313 149.808594 120.628906 149.808594 C 119.132813 149.808594 117.925781 150.984375 117.925781 152.429688 C 117.925781 153.878906 119.132813 155.054688 120.628906 155.054688 C 122.121094 155.054688 123.328125 153.878906 123.328125 152.429688 Z M 123.328125 152.429688 "/>
<path style=" stroke:none;fill-rule:nonzero;fill:rgb(0%,0%,0%);fill-opacity:1;" d="M 127.238281 147.335938 C 125.90625 147.335938 125.199219 148.425781 124.832031 149.511719 C 124.464844 150.601563 124.433594 151.6875 124.433594 151.6875 L 123.746094 151.6875 C 123.746094 151.6875 123.617188 147.34375 120.945313 147.335938 Z M 127.238281 147.335938 "/>
<path style=" stroke:none;fill-rule:nonzero;fill:rgb(0%,0%,0%);fill-opacity:1;" d="M 122.234375 155.484375 C 123.753906 153.96875 123.753906 151.6875 123.753906 151.6875 L 124.433594 151.679688 C 124.433594 151.679688 124.433594 154.007813 125.914063 155.484375 "/>
<path style=" stroke:none;fill-rule:nonzero;fill:rgb(0%,0%,0%);fill-opacity:1;" d="M 122.539063 150.609375 C 124.058594 152.128906 126.335938 152.128906 126.335938 152.128906 L 126.335938 152.808594 C 126.335938 152.808594 124.011719 152.808594 122.53125 154.285156 "/>
<path style=" stroke:none;fill-rule:nonzero;fill:rgb(0%,0%,0%);fill-opacity:1;" d="M 125.585938 150.601563 C 124.066406 152.117188 121.785156 152.117188 121.785156 152.117188 L 121.785156 152.800781 C 121.785156 152.800781 124.113281 152.800781 125.59375 154.277344 "/>
<path style=" stroke:none;fill-rule:nonzero;fill:rgb(0%,0%,0%);fill-opacity:1;" d="M 29.644531 21.40625 C 29.644531 24.878906 32.542969 27.699219 36.132813 27.699219 C 39.71875 27.699219 42.617188 24.878906 42.617188 21.40625 C 42.617188 17.929688 39.71875 15.109375 36.132813 15.109375 C 32.542969 15.109375 29.644531 17.929688 29.644531 21.40625 Z M 29.644531 21.40625 "/>
<path style=" stroke:none;fill-rule:nonzero;fill:rgb(0%,0%,0%);fill-opacity:1;" d="M 21.277344 33.324219 C 21.277344 36.796875 24.175781 39.617188 27.761719 39.617188 C 31.351563 39.617188 34.25 36.796875 34.25 33.324219 C 34.25 29.851563 31.351563 27.027344 27.761719 27.027344 C 24.175781 27.027344 21.277344 29.851563 21.277344 33.324219 Z M 21.277344 33.324219 "/>
<path style=" stroke:none;fill-rule:nonzero;fill:rgb(0%,0%,0%);fill-opacity:1;" d="M 37.898438 33.363281 C 37.898438 34.628906 38.28125 35.820313 38.953125 36.816406 C 40.105469 38.523438 42.117188 39.65625 44.382813 39.65625 C 47.972656 39.65625 50.871094 36.835938 50.871094 33.363281 C 50.871094 29.886719 47.972656 27.066406 44.382813 27.066406 C 40.796875 27.066406 37.898438 29.886719 37.898438 33.363281 Z M 37.898438 33.363281 "/>
<path style=" stroke:none;fill-rule:nonzero;fill:rgb(0%,0%,0%);fill-opacity:1;" d="M 28.511719 45.589844 C 31.71875 45.589844 33.40625 42.976563 34.289063 40.367188 C 35.171875 37.757813 35.246094 35.148438 35.246094 35.148438 L 36.898438 35.148438 C 36.898438 35.148438 37.207031 45.570313 43.617188 45.589844 Z M 28.511719 45.589844 "/>
<path style=" stroke:none;fill-rule:nonzero;fill:rgb(0%,0%,0%);fill-opacity:1;" d="M 40.527344 26.03125 C 36.878906 29.675781 36.878906 35.148438 36.878906 35.148438 L 35.246094 35.164063 C 35.246094 35.164063 35.246094 29.582031 31.699219 26.03125 "/>
<path style=" stroke:none;fill-rule:nonzero;fill:rgb(0%,0%,0%);fill-opacity:1;" d="M 39.796875 37.738281 C 36.148438 34.089844 30.679688 34.089844 30.679688 34.089844 L 30.679688 32.460938 C 30.679688 32.460938 36.265625 32.460938 39.816406 28.910156 "/>
<path style=" stroke:none;fill-rule:nonzero;fill:rgb(0%,0%,0%);fill-opacity:1;" d="M 32.484375 37.757813 C 36.132813 34.109375 41.601563 34.109375 41.601563 34.109375 L 41.601563 32.480469 C 41.601563 32.480469 36.015625 32.480469 32.464844 28.929688 "/>
<path style=" stroke:none;fill-rule:nonzero;fill:rgb(0%,0%,0%);fill-opacity:1;" d="M 29.644531 64.714844 C 29.644531 68.1875 32.542969 71.007813 36.132813 71.007813 C 39.71875 71.007813 42.617188 68.1875 42.617188 64.714844 C 42.617188 61.238281 39.71875 58.417969 36.132813 58.417969 C 32.542969 58.417969 29.644531 61.238281 29.644531 64.714844 Z M 29.644531 64.714844 "/>
<path style=" stroke:none;fill-rule:nonzero;fill:rgb(0%,0%,0%);fill-opacity:1;" d="M 21.277344 76.632813 C 21.277344 80.105469 24.175781 82.929688 27.761719 82.929688 C 31.351563 82.929688 34.25 80.105469 34.25 76.632813 C 34.25 73.160156 31.351563 70.335938 27.761719 70.335938 C 24.175781 70.335938 21.277344 73.160156 21.277344 76.632813 Z M 21.277344 76.632813 "/>
<path style=" stroke:none;fill-rule:nonzero;fill:rgb(0%,0%,0%);fill-opacity:1;" d="M 37.898438 76.671875 C 37.898438 77.9375 38.28125 79.128906 38.953125 80.125 C 40.105469 81.835938 42.117188 82.964844 44.382813 82.964844 C 47.972656 82.964844 50.871094 80.144531 50.871094 76.671875 C 50.871094 73.195313 47.972656 70.375 44.382813 70.375 C 40.796875 70.375 37.898438 73.195313 37.898438 76.671875 Z M 37.898438 76.671875 "/>
<path style=" stroke:none;fill-rule:nonzero;fill:rgb(0%,0%,0%);fill-opacity:1;" d="M 28.511719 88.898438 C 31.71875 88.898438 33.40625 86.285156 34.289063 83.675781 C 35.171875 81.066406 35.246094 78.457031 35.246094 78.457031 L 36.898438 78.457031 C 36.898438 78.457031 37.207031 88.878906 43.617188 88.898438 Z M 28.511719 88.898438 "/>
<path style=" stroke:none;fill-rule:nonzero;fill:rgb(0%,0%,0%);fill-opacity:1;" d="M 40.527344 69.339844 C 36.878906 72.984375 36.878906 78.457031 36.878906 78.457031 L 35.246094 78.476563 C 35.246094 78.476563 35.246094 72.890625 31.699219 69.339844 "/>
<path style=" stroke:none;fill-rule:nonzero;fill:rgb(0%,0%,0%);fill-opacity:1;" d="M 39.796875 81.046875 C 36.148438 77.398438 30.679688 77.398438 30.679688 77.398438 L 30.679688 75.769531 C 30.679688 75.769531 36.265625 75.769531 39.816406 72.21875 "/>
<path style=" stroke:none;fill-rule:nonzero;fill:rgb(0%,0%,0%);fill-opacity:1;" d="M 32.484375 81.066406 C 36.132813 77.417969 41.601563 77.417969 41.601563 77.417969 L 41.601563 75.789063 C 41.601563 75.789063 36.015625 75.789063 32.464844 72.238281 "/>
<path style=" stroke:none;fill-rule:nonzero;fill:rgb(0%,0%,0%);fill-opacity:1;" d="M 42.503906 126.714844 C 42.503906 123.238281 39.605469 120.417969 36.015625 120.417969 C 32.425781 120.417969 29.527344 123.238281 29.527344 126.714844 C 29.527344 130.1875 32.425781 133.007813 36.015625 133.007813 C 39.605469 133.007813 42.503906 130.1875 42.503906 126.714844 Z M 42.503906 126.714844 "/>
<path style=" stroke:none;fill-rule:nonzero;fill:rgb(0%,0%,0%);fill-opacity:1;" d="M 50.871094 114.792969 C 50.871094 111.320313 47.972656 108.5 44.382813 108.5 C 40.796875 108.5 37.898438 111.320313 37.898438 114.792969 C 37.898438 118.269531 40.796875 121.089844 44.382813 121.089844 C 47.972656 121.089844 50.871094 118.269531 50.871094 114.792969 Z M 50.871094 114.792969 "/>
<path style=" stroke:none;fill-rule:nonzero;fill:rgb(0%,0%,0%);fill-opacity:1;" d="M 34.25 114.757813 C 34.25 113.488281 33.867188 112.300781 33.195313 111.300781 C 32.042969 109.59375 30.027344 108.460938 27.761719 108.460938 C 24.175781 108.460938 21.277344 111.28125 21.277344 114.757813 C 21.277344 118.230469 24.175781 121.050781 27.761719 121.050781 C 31.351563 121.050781 34.25 118.230469 34.25 114.757813 Z M 34.25 114.757813 "/>
<path style=" stroke:none;fill-rule:nonzero;fill:rgb(0%,0%,0%);fill-opacity:1;" d="M 43.636719 102.53125 C 40.429688 102.53125 38.742188 105.140625 37.859375 107.75 C 36.976563 110.359375 36.898438 112.972656 36.898438 112.972656 L 35.246094 112.972656 C 35.246094 112.972656 34.941406 102.550781 28.53125 102.53125 Z M 43.636719 102.53125 "/>
<path style=" stroke:none;fill-rule:nonzero;fill:rgb(0%,0%,0%);fill-opacity:1;" d="M 31.621094 122.085938 C 35.269531 118.441406 35.269531 112.972656 35.269531 112.972656 L 36.898438 112.953125 C 36.898438 112.953125 36.898438 118.535156 40.449219 122.085938 "/>
<path style=" stroke:none;fill-rule:nonzero;fill:rgb(0%,0%,0%);fill-opacity:1;" d="M 32.351563 110.378906 C 35.996094 114.027344 41.46875 114.027344 41.46875 114.027344 L 41.46875 115.65625 C 41.46875 115.65625 35.882813 115.65625 32.332031 119.210938 "/>
<path style=" stroke:none;fill-rule:nonzero;fill:rgb(0%,0%,0%);fill-opacity:1;" d="M 39.664063 110.359375 C 36.015625 114.007813 30.546875 114.007813 30.546875 114.007813 L 30.546875 115.640625 C 30.546875 115.640625 36.132813 115.640625 39.683594 119.1875 "/>
<path style=" stroke:none;fill-rule:nonzero;fill:rgb(0%,0%,0%);fill-opacity:1;" d="M 42.503906 170.023438 C 42.503906 166.546875 39.605469 163.726563 36.015625 163.726563 C 32.425781 163.726563 29.527344 166.546875 29.527344 170.023438 C 29.527344 173.496094 32.425781 176.316406 36.015625 176.316406 C 39.605469 176.316406 42.503906 173.496094 42.503906 170.023438 Z M 42.503906 170.023438 "/>
<path style=" stroke:none;fill-rule:nonzero;fill:rgb(0%,0%,0%);fill-opacity:1;" d="M 50.871094 158.101563 C 50.871094 154.628906 47.972656 151.808594 44.382813 151.808594 C 40.796875 151.808594 37.898438 154.628906 37.898438 158.101563 C 37.898438 161.578125 40.796875 164.398438 44.382813 164.398438 C 47.972656 164.398438 50.871094 161.578125 50.871094 158.101563 Z M 50.871094 158.101563 "/>
<path style=" stroke:none;fill-rule:nonzero;fill:rgb(0%,0%,0%);fill-opacity:1;" d="M 34.25 158.066406 C 34.25 156.796875 33.867188 155.609375 33.195313 154.609375 C 32.042969 152.902344 30.027344 151.769531 27.761719 151.769531 C 24.175781 151.769531 21.277344 154.589844 21.277344 158.066406 C 21.277344 161.539063 24.175781 164.359375 27.761719 164.359375 C 31.351563 164.359375 34.25 161.539063 34.25 158.066406 Z M 34.25 158.066406 "/>
<path style=" stroke:none;fill-rule:nonzero;fill:rgb(0%,0%,0%);fill-opacity:1;" d="M 43.636719 145.839844 C 40.429688 145.839844 38.742188 148.449219 37.859375 151.058594 C 36.976563 153.671875 36.898438 156.28125 36.898438 156.28125 L 35.246094 156.28125 C 35.246094 156.28125 34.941406 145.859375 28.53125 145.839844 Z M 43.636719 145.839844 "/>
<path style=" stroke:none;fill-rule:nonzero;fill:rgb(0%,0%,0%);fill-opacity:1;" d="M 31.621094 165.394531 C 35.269531 161.75 35.269531 156.28125 35.269531 156.28125 L 36.898438 156.261719 C 36.898438 156.261719 36.898438 161.847656 40.449219 165.394531 "/>
<path style=" stroke:none;fill-rule:nonzero;fill:rgb(0%,0%,0%);fill-opacity:1;" d="M 32.351563 153.6875 C 35.996094 157.335938 41.46875 157.335938 41.46875 157.335938 L 41.46875 158.96875 C 41.46875 158.96875 35.882813 158.96875 32.332031 162.515625 "/>
<path style=" stroke:none;fill-rule:nonzero;fill:rgb(0%,0%,0%);fill-opacity:1;" d="M 39.664063 153.671875 C 36.015625 157.316406 30.546875 157.316406 30.546875 157.316406 L 30.546875 158.949219 C 30.546875 158.949219 36.132813 158.949219 39.683594 162.496094 "/>
<path style=" stroke:none;fill-rule:nonzero;fill:rgb(0%,0%,0%);fill-opacity:1;" d="M 93.507813 21.40625 C 93.507813 24.878906 96.40625 27.699219 99.992188 27.699219 C 103.582031 27.699219 106.480469 24.878906 106.480469 21.40625 C 106.480469 17.929688 103.582031 15.109375 99.992188 15.109375 C 96.40625 15.109375 93.507813 17.929688 93.507813 21.40625 Z M 93.507813 21.40625 "/>
<path style=" stroke:none;fill-rule:nonzero;fill:rgb(0%,0%,0%);fill-opacity:1;" d="M 85.140625 33.324219 C 85.140625 36.796875 88.035156 39.617188 91.625 39.617188 C 95.214844 39.617188 98.113281 36.796875 98.113281 33.324219 C 98.113281 29.851563 95.214844 27.027344 91.625 27.027344 C 88.035156 27.027344 85.140625 29.851563 85.140625 33.324219 Z M 85.140625 33.324219 "/>
<path style=" stroke:none;fill-rule:nonzero;fill:rgb(0%,0%,0%);fill-opacity:1;" d="M 101.761719 33.363281 C 101.761719 34.628906 102.144531 35.820313 102.816406 36.816406 C 103.96875 38.523438 105.980469 39.65625 108.246094 39.65625 C 111.835938 39.65625 114.734375 36.835938 114.734375 33.363281 C 114.734375 29.886719 111.835938 27.066406 108.246094 27.066406 C 104.65625 27.066406 101.761719 29.886719 101.761719 33.363281 Z M 101.761719 33.363281 "/>
<path style=" stroke:none;fill-rule:nonzero;fill:rgb(0%,0%,0%);fill-opacity:1;" d="M 92.375 45.589844 C 95.578125 45.589844 97.269531 42.976563 98.152344 40.367188 C 99.035156 37.757813 99.109375 35.148438 99.109375 35.148438 L 100.761719 35.148438 C 100.761719 35.148438 101.070313 45.570313 107.480469 45.589844 Z M 92.375 45.589844 "/>
<path style=" stroke:none;fill-rule:nonzero;fill:rgb(0%,0%,0%);fill-opacity:1;" d="M 104.390625 26.03125 C 100.742188 29.675781 100.742188 35.148438 100.742188 35.148438 L 99.109375 35.164063 C 99.109375 35.164063 99.109375 29.582031 95.558594 26.03125 "/>
<path style=" stroke:none;fill-rule:nonzero;fill:rgb(0%,0%,0%);fill-opacity:1;" d="M 103.660156 37.738281 C 100.011719 34.089844 94.542969 34.089844 94.542969 34.089844 L 94.542969 32.460938 C 94.542969 32.460938 100.128906 32.460938 103.679688 28.910156 "/>
<path style=" stroke:none;fill-rule:nonzero;fill:rgb(0%,0%,0%);fill-opacity:1;" d="M 96.347656 37.757813 C 99.992188 34.109375 105.464844 34.109375 105.464844 34.109375 L 105.464844 32.480469 C 105.464844 32.480469 99.878906 32.480469 96.328125 28.929688 "/>
<path style=" stroke:none;fill-rule:nonzero;fill:rgb(0%,0%,0%);fill-opacity:1;" d="M 93.507813 64.714844 C 93.507813 68.1875 96.40625 71.007813 99.992188 71.007813 C 103.582031 71.007813 106.480469 68.1875 106.480469 64.714844 C 106.480469 61.238281 103.582031 58.417969 99.992188 58.417969 C 96.40625 58.417969 93.507813 61.238281 93.507813 64.714844 Z M 93.507813 64.714844 "/>
<path style=" stroke:none;fill-rule:nonzero;fill:rgb(0%,0%,0%);fill-opacity:1;" d="M 85.140625 76.632813 C 85.140625 80.105469 88.035156 82.929688 91.625 82.929688 C 95.214844 82.929688 98.113281 80.105469 98.113281 76.632813 C 98.113281 73.160156 95.214844 70.335938 91.625 70.335938 C 88.035156 70.335938 85.140625 73.160156 85.140625 76.632813 Z M 85.140625 76.632813 "/>
<path style=" stroke:none;fill-rule:nonzero;fill:rgb(0%,0%,0%);fill-opacity:1;" d="M 101.761719 76.671875 C 101.761719 77.9375 102.144531 79.128906 102.816406 80.125 C 103.96875 81.835938 105.980469 82.964844 108.246094 82.964844 C 111.835938 82.964844 114.734375 80.144531 114.734375 76.671875 C 114.734375 73.195313 111.835938 70.375 108.246094 70.375 C 104.65625 70.375 101.761719 73.195313 101.761719 76.671875 Z M 101.761719 76.671875 "/>
<path style=" stroke:none;fill-rule:nonzero;fill:rgb(0%,0%,0%);fill-opacity:1;" d="M 92.375 88.898438 C 95.578125 88.898438 97.269531 86.285156 98.152344 83.675781 C 99.035156 81.066406 99.109375 78.457031 99.109375 78.457031 L 100.761719 78.457031 C 100.761719 78.457031 101.070313 88.878906 107.480469 88.898438 Z M 92.375 88.898438 "/>
<path style=" stroke:none;fill-rule:nonzero;fill:rgb(0%,0%,0%);fill-opacity:1;" d="M 104.390625 69.339844 C 100.742188 72.984375 100.742188 78.457031 100.742188 78.457031 L 99.109375 78.476563 C 99.109375 78.476563 99.109375 72.890625 95.558594 69.339844 "/>
<path style=" stroke:none;fill-rule:nonzero;fill:rgb(0%,0%,0%);fill-opacity:1;" d="M 103.660156 81.046875 C 100.011719 77.398438 94.542969 77.398438 94.542969 77.398438 L 94.542969 75.769531 C 94.542969 75.769531 100.128906 75.769531 103.679688 72.21875 "/>
<path style=" stroke:none;fill-rule:nonzero;fill:rgb(0%,0%,0%);fill-opacity:1;" d="M 96.347656 81.066406 C 99.992188 77.417969 105.464844 77.417969 105.464844 77.417969 L 105.464844 75.789063 C 105.464844 75.789063 99.878906 75.789063 96.328125 72.238281 "/>
<path style=" stroke:none;fill-rule:nonzero;fill:rgb(0%,0%,0%);fill-opacity:1;" d="M 106.367188 126.714844 C 106.367188 123.238281 103.46875 120.417969 99.878906 120.417969 C 96.289063 120.417969 93.390625 123.238281 93.390625 126.714844 C 93.390625 130.1875 96.289063 133.007813 99.878906 133.007813 C 103.46875 133.007813 106.367188 130.1875 106.367188 126.714844 Z M 106.367188 126.714844 "/>
<path style=" stroke:none;fill-rule:nonzero;fill:rgb(0%,0%,0%);fill-opacity:1;" d="M 114.734375 114.792969 C 114.734375 111.320313 111.835938 108.5 108.246094 108.5 C 104.65625 108.5 101.757813 111.320313 101.757813 114.792969 C 101.757813 118.269531 104.65625 121.089844 108.246094 121.089844 C 111.835938 121.089844 114.734375 118.269531 114.734375 114.792969 Z M 114.734375 114.792969 "/>
<path style=" stroke:none;fill-rule:nonzero;fill:rgb(0%,0%,0%);fill-opacity:1;" d="M 98.113281 114.757813 C 98.113281 113.488281 97.730469 112.300781 97.058594 111.300781 C 95.90625 109.59375 93.890625 108.460938 91.625 108.460938 C 88.035156 108.460938 85.136719 111.28125 85.136719 114.757813 C 85.136719 118.230469 88.035156 121.050781 91.625 121.050781 C 95.214844 121.050781 98.113281 118.230469 98.113281 114.757813 Z M 98.113281 114.757813 "/>
<path style=" stroke:none;fill-rule:nonzero;fill:rgb(0%,0%,0%);fill-opacity:1;" d="M 107.496094 102.53125 C 104.292969 102.53125 102.605469 105.140625 101.722656 107.75 C 100.839844 110.359375 100.761719 112.972656 100.761719 112.972656 L 99.109375 112.972656 C 99.109375 112.972656 98.804688 102.550781 92.394531 102.53125 Z M 107.496094 102.53125 "/>
<path style=" stroke:none;fill-rule:nonzero;fill:rgb(0%,0%,0%);fill-opacity:1;" d="M 95.484375 122.085938 C 99.128906 118.441406 99.128906 112.972656 99.128906 112.972656 L 100.761719 112.953125 C 100.761719 112.953125 100.761719 118.535156 104.3125 122.085938 "/>
<path style=" stroke:none;fill-rule:nonzero;fill:rgb(0%,0%,0%);fill-opacity:1;" d="M 96.214844 110.378906 C 99.859375 114.027344 105.328125 114.027344 105.328125 114.027344 L 105.328125 115.65625 C 105.328125 115.65625 99.742188 115.65625 96.191406 119.210938 "/>
<path style=" stroke:none;fill-rule:nonzero;fill:rgb(0%,0%,0%);fill-opacity:1;" d="M 103.523438 110.359375 C 99.878906 114.007813 94.410156 114.007813 94.410156 114.007813 L 94.410156 115.640625 C 94.410156 115.640625 99.992188 115.640625 103.542969 119.1875 "/>
<path style=" stroke:none;fill-rule:nonzero;fill:rgb(0%,0%,0%);fill-opacity:1;" d="M 106.367188 170.023438 C 106.367188 166.546875 103.46875 163.726563 99.878906 163.726563 C 96.289063 163.726563 93.390625 166.546875 93.390625 170.023438 C 93.390625 173.496094 96.289063 176.316406 99.878906 176.316406 C 103.46875 176.316406 106.367188 173.496094 106.367188 170.023438 Z M 106.367188 170.023438 "/>
<path style=" stroke:none;fill-rule:nonzero;fill:rgb(0%,0%,0%);fill-opacity:1;" d="M 114.734375 158.101563 C 114.734375 154.628906 111.835938 151.808594 108.246094 151.808594 C 104.65625 151.808594 101.757813 154.628906 101.757813 158.101563 C 101.757813 161.578125 104.65625 164.398438 108.246094 164.398438 C 111.835938 164.398438 114.734375 161.578125 114.734375 158.101563 Z M 114.734375 158.101563 "/>
<path style=" stroke:none;fill-rule:nonzero;fill:rgb(0%,0%,0%);fill-opacity:1;" d="M 98.113281 158.066406 C 98.113281 156.796875 97.730469 155.609375 97.058594 154.609375 C 95.90625 152.902344 93.890625 151.769531 91.625 151.769531 C 88.035156 151.769531 85.136719 154.589844 85.136719 158.066406 C 85.136719 161.539063 88.035156 164.359375 91.625 164.359375 C 95.214844 164.359375 98.113281 161.539063 98.113281 158.066406 Z M 98.113281 158.066406 "/>
<path style=" stroke:none;fill-rule:nonzero;fill:rgb(0%,0%,0%);fill-opacity:1;" d="M 107.496094 145.839844 C 104.292969 145.839844 102.605469 148.449219 101.722656 151.058594 C 100.839844 153.671875 100.761719 156.28125 100.761719 156.28125 L 99.109375 156.28125 C 99.109375 156.28125 98.804688 145.859375 92.394531 145.839844 Z M 107.496094 145.839844 "/>
<path style=" stroke:none;fill-rule:nonzero;fill:rgb(0%,0%,0%);fill-opacity:1;" d="M 95.484375 165.394531 C 99.128906 161.75 99.128906 156.28125 99.128906 156.28125 L 100.761719 156.261719 C 100.761719 156.261719 100.761719 161.847656 104.3125 165.394531 "/>
<path style=" stroke:none;fill-rule:nonzero;fill:rgb(0%,0%,0%);fill-opacity:1;" d="M 96.214844 153.6875 C 99.859375 157.335938 105.328125 157.335938 105.328125 157.335938 L 105.328125 158.96875 C 105.328125 158.96875 99.742188 158.96875 96.191406 162.515625 "/>
<path style=" stroke:none;fill-rule:nonzero;fill:rgb(0%,0%,0%);fill-opacity:1;" d="M 103.523438 153.671875 C 99.878906 157.316406 94.410156 157.316406 94.410156 157.316406 L 94.410156 158.949219 C 94.410156 158.949219 99.992188 158.949219 103.542969 162.496094 "/>
<path style=" stroke:none;fill-rule:nonzero;fill:rgb(0%,0%,0%);fill-opacity:1;" d="M 61.574219 43.058594 C 61.574219 46.53125 64.472656 49.355469 68.0625 49.355469 C 71.652344 49.355469 74.550781 46.53125 74.550781 43.058594 C 74.550781 39.585938 71.652344 36.765625 68.0625 36.765625 C 64.472656 36.765625 61.574219 39.585938 61.574219 43.058594 Z M 61.574219 43.058594 "/>
<path style=" stroke:none;fill-rule:nonzero;fill:rgb(0%,0%,0%);fill-opacity:1;" d="M 53.207031 54.976563 C 53.207031 58.453125 56.105469 61.273438 59.695313 61.273438 C 63.28125 61.273438 66.179688 58.453125 66.179688 54.976563 C 66.179688 51.503906 63.28125 48.683594 59.695313 48.683594 C 56.105469 48.683594 53.207031 51.503906 53.207031 54.976563 Z M 53.207031 54.976563 "/>
<path style=" stroke:none;fill-rule:nonzero;fill:rgb(0%,0%,0%);fill-opacity:1;" d="M 69.828125 55.015625 C 69.828125 56.28125 70.210938 57.472656 70.882813 58.472656 C 72.035156 60.179688 74.050781 61.3125 76.316406 61.3125 C 79.902344 61.3125 82.800781 58.488281 82.800781 55.015625 C 82.800781 51.542969 79.902344 48.722656 76.316406 48.722656 C 72.726563 48.722656 69.828125 51.542969 69.828125 55.015625 Z M 69.828125 55.015625 "/>
<path style=" stroke:none;fill-rule:nonzero;fill:rgb(0%,0%,0%);fill-opacity:1;" d="M 60.441406 67.242188 C 63.648438 67.242188 65.335938 64.632813 66.21875 62.023438 C 67.101563 59.410156 67.179688 56.800781 67.179688 56.800781 L 68.828125 56.800781 C 68.828125 56.800781 69.136719 67.222656 75.546875 67.242188 Z M 60.441406 67.242188 "/>
<path style=" stroke:none;fill-rule:nonzero;fill:rgb(0%,0%,0%);fill-opacity:1;" d="M 72.457031 47.683594 C 68.8125 51.332031 68.8125 56.800781 68.8125 56.800781 L 67.179688 56.820313 C 67.179688 56.820313 67.179688 51.234375 63.628906 47.683594 "/>
<path style=" stroke:none;fill-rule:nonzero;fill:rgb(0%,0%,0%);fill-opacity:1;" d="M 71.726563 59.394531 C 68.082031 55.746094 62.613281 55.746094 62.613281 55.746094 L 62.613281 54.113281 C 62.613281 54.113281 68.195313 54.113281 71.746094 50.5625 "/>
<path style=" stroke:none;fill-rule:nonzero;fill:rgb(0%,0%,0%);fill-opacity:1;" d="M 64.414063 59.410156 C 68.0625 55.765625 73.53125 55.765625 73.53125 55.765625 L 73.53125 54.132813 C 73.53125 54.132813 67.945313 54.132813 64.394531 50.582031 "/>
</g>
</svg>
