<?xml version="1.0" encoding="UTF-8"?>
<svg xmlns="http://www.w3.org/2000/svg" xmlns:xlink="http://www.w3.org/1999/xlink" width="135.21pt" height="195.639pt" viewBox="0 0 135.21 195.639" version="1.1">
<g id="surface1">
<path style=" stroke:none;fill-rule:nonzero;fill:rgb(100%,100%,100%);fill-opacity:1;" d="M 1 189.097656 C 1 192.121094 3.472656 194.589844 6.492188 194.589844 L 128.722656 194.589844 C 131.738281 194.589844 134.210938 192.121094 134.210938 189.097656 L 134.210938 6.445313 C 134.210938 3.421875 131.738281 0.949219 128.722656 0.949219 L 6.492188 0.949219 C 3.472656 0.949219 1 3.421875 1 6.445313 Z M 1 189.097656 "/>
<path style="fill:none;stroke-width:1.999;stroke-linecap:butt;stroke-linejoin:miter;stroke:rgb(0%,0%,0%);stroke-opacity:1;stroke-miterlimit:10;" d="M 1 6.541344 C 1 3.517906 3.472656 1.049156 6.492188 1.049156 L 128.722656 1.049156 C 131.738281 1.049156 134.210938 3.517906 134.210938 6.541344 L 134.210938 189.193687 C 134.210938 192.217125 131.738281 194.689781 128.722656 194.689781 L 6.492188 194.689781 C 3.472656 194.689781 1 192.217125 1 189.193687 Z M 1 6.541344 " transform="matrix(1,0,0,-1,0,195.639)"/>
<path style=" stroke:none;fill-rule:nonzero;fill:rgb(86.29303%,23.658752%,16.767883%);fill-opacity:1;" d="M 5.71875 29.863281 L 5.71875 27.714844 L 7.238281 27.714844 L 7.238281 6.265625 L 5.550781 9.53125 L 5.550781 6.886719 L 7.582031 2.875 L 9.289063 2.875 L 9.289063 27.714844 L 10.8125 27.714844 L 10.8125 29.863281 L 5.71875 29.863281 "/>
<path style=" stroke:none;fill-rule:nonzero;fill:rgb(86.29303%,23.658752%,16.767883%);fill-opacity:1;" d="M 15.773438 28.300781 C 16.207031 28.300781 16.503906 27.652344 16.660156 26.363281 C 16.824219 25.074219 16.90625 21.832031 16.90625 16.636719 C 16.90625 11.472656 16.824219 8.238281 16.660156 6.921875 C 16.503906 5.609375 16.207031 4.953125 15.773438 4.953125 C 15.339844 4.953125 15.042969 5.597656 14.878906 6.886719 C 14.71875 8.179688 14.640625 11.425781 14.640625 16.636719 C 14.640625 21.832031 14.71875 25.074219 14.878906 26.363281 C 15.042969 27.652344 15.339844 28.300781 15.773438 28.300781 M 15.773438 30.378906 C 14.691406 30.378906 13.867188 29.199219 13.292969 26.84375 C 12.71875 24.476563 12.429688 21.074219 12.429688 16.636719 C 12.429688 12.195313 12.71875 8.792969 13.292969 6.425781 C 13.867188 4.058594 14.691406 2.875 15.773438 2.875 C 16.847656 2.875 17.675781 4.058594 18.246094 6.425781 C 18.820313 8.792969 19.109375 12.195313 19.109375 16.636719 C 19.109375 21.074219 18.820313 24.476563 18.246094 26.84375 C 17.675781 29.199219 16.847656 30.378906 15.773438 30.378906 "/>
<path style=" stroke:none;fill-rule:nonzero;fill:rgb(86.29303%,23.658752%,16.767883%);fill-opacity:1;" d="M 130.292969 164.882813 L 130.292969 167.03125 L 128.777344 167.03125 L 128.777344 188.476563 L 130.460938 185.210938 L 130.460938 187.855469 L 128.429688 191.867188 L 126.722656 191.867188 L 126.722656 167.03125 L 125.199219 167.03125 L 125.199219 164.882813 L 130.292969 164.882813 "/>
<path style=" stroke:none;fill-rule:nonzero;fill:rgb(86.29303%,23.658752%,16.767883%);fill-opacity:1;" d="M 120.238281 166.445313 C 119.808594 166.445313 119.511719 167.089844 119.351563 168.378906 C 119.1875 169.671875 119.109375 172.914063 119.109375 178.109375 C 119.109375 183.269531 119.1875 186.507813 119.351563 187.820313 C 119.511719 189.136719 119.808594 189.792969 120.238281 189.792969 C 120.671875 189.792969 120.972656 189.148438 121.132813 187.855469 C 121.292969 186.566406 121.371094 183.316406 121.371094 178.109375 C 121.371094 172.914063 121.292969 169.671875 121.132813 168.378906 C 120.972656 167.089844 120.671875 166.445313 120.238281 166.445313 M 120.238281 164.367188 C 121.320313 164.367188 122.148438 165.546875 122.722656 167.898438 C 123.296875 170.269531 123.582031 173.671875 123.582031 178.109375 C 123.582031 182.546875 123.296875 185.949219 122.722656 188.316406 C 122.148438 190.683594 121.320313 191.867188 120.238281 191.867188 C 119.164063 191.867188 118.339844 190.683594 117.765625 188.316406 C 117.191406 185.949219 116.902344 182.546875 116.902344 178.109375 C 116.902344 173.671875 117.191406 170.269531 117.765625 167.898438 C 118.339844 165.546875 119.164063 164.367188 120.238281 164.367188 "/>
<path style=" stroke:none;fill-rule:nonzero;fill:rgb(86.29303%,23.658752%,16.767883%);fill-opacity:1;" d="M 18.058594 37.914063 C 18.050781 41.683594 13.332031 44.425781 11.945313 47.40625 C 10.546875 44.433594 5.820313 41.714844 5.789063 37.945313 C 5.78125 36.171875 7.15625 34.722656 8.84375 34.722656 C 10.539063 34.722656 11.921875 36.15625 11.921875 37.929688 C 11.921875 36.148438 13.289063 34.707031 14.976563 34.707031 C 16.675781 34.699219 18.050781 36.140625 18.058594 37.914063 Z M 18.058594 37.914063 "/>
<path style=" stroke:none;fill-rule:nonzero;fill:rgb(86.29303%,23.658752%,16.767883%);fill-opacity:1;" d="M 117.964844 156.828125 C 117.972656 153.0625 122.691406 150.320313 124.074219 147.335938 C 125.472656 150.3125 130.199219 153.03125 130.230469 156.796875 C 130.238281 158.570313 128.863281 160.019531 127.175781 160.019531 C 125.480469 160.019531 124.097656 158.589844 124.097656 156.8125 C 124.097656 158.597656 122.730469 160.035156 121.042969 160.035156 C 119.347656 160.042969 117.972656 158.605469 117.964844 156.828125 Z M 117.964844 156.828125 "/>
<path style=" stroke:none;fill-rule:nonzero;fill:rgb(86.29303%,23.658752%,16.767883%);fill-opacity:1;" d="M 50.800781 22.804688 C 50.78125 31.84375 39.457031 38.429688 36.136719 45.585938 C 32.777344 38.445313 21.433594 31.921875 21.355469 22.882813 C 21.339844 18.621094 24.640625 15.148438 28.6875 15.148438 C 32.757813 15.148438 36.078125 18.582031 36.078125 22.84375 C 36.078125 18.5625 39.359375 15.109375 43.410156 15.109375 C 47.480469 15.089844 50.78125 18.542969 50.800781 22.804688 Z M 50.800781 22.804688 "/>
<path style=" stroke:none;fill-rule:nonzero;fill:rgb(86.29303%,23.658752%,16.767883%);fill-opacity:1;" d="M 50.800781 66.113281 C 50.78125 75.152344 39.457031 81.738281 36.136719 88.894531 C 32.777344 81.757813 21.433594 75.230469 21.355469 66.191406 C 21.339844 61.929688 24.640625 58.457031 28.6875 58.457031 C 32.757813 58.457031 36.078125 61.890625 36.078125 66.152344 C 36.078125 61.871094 39.359375 58.417969 43.410156 58.417969 C 47.480469 58.398438 50.78125 61.851563 50.800781 66.113281 Z M 50.800781 66.113281 "/>
<path style=" stroke:none;fill-rule:nonzero;fill:rgb(86.29303%,23.658752%,16.767883%);fill-opacity:1;" d="M 21.355469 125.3125 C 21.375 116.273438 32.699219 109.6875 36.019531 102.53125 C 39.378906 109.671875 50.722656 116.195313 50.800781 125.234375 C 50.816406 129.496094 47.515625 132.96875 43.46875 132.96875 C 39.398438 132.96875 36.078125 129.535156 36.078125 125.273438 C 36.078125 129.554688 32.796875 133.007813 28.746094 133.007813 C 24.675781 133.027344 21.375 129.574219 21.355469 125.3125 Z M 21.355469 125.3125 "/>
<path style=" stroke:none;fill-rule:nonzero;fill:rgb(86.29303%,23.658752%,16.767883%);fill-opacity:1;" d="M 21.355469 168.621094 C 21.375 159.582031 32.699219 152.996094 36.019531 145.839844 C 39.378906 152.980469 50.722656 159.503906 50.800781 168.542969 C 50.816406 172.804688 47.515625 176.277344 43.46875 176.277344 C 39.398438 176.277344 36.078125 172.84375 36.078125 168.582031 C 36.078125 172.863281 32.796875 176.316406 28.746094 176.316406 C 24.675781 176.335938 21.375 172.882813 21.355469 168.621094 Z M 21.355469 168.621094 "/>
<path style=" stroke:none;fill-rule:nonzero;fill:rgb(86.29303%,23.658752%,16.767883%);fill-opacity:1;" d="M 114.660156 22.804688 C 114.640625 31.84375 103.316406 38.429688 99.996094 45.585938 C 96.640625 38.445313 85.296875 31.921875 85.21875 22.882813 C 85.199219 18.621094 88.5 15.148438 92.550781 15.148438 C 96.621094 15.148438 99.941406 18.582031 99.941406 22.84375 C 99.941406 18.5625 103.222656 15.109375 107.273438 15.109375 C 111.339844 15.089844 114.640625 18.542969 114.660156 22.804688 Z M 114.660156 22.804688 "/>
<path style=" stroke:none;fill-rule:nonzero;fill:rgb(86.29303%,23.658752%,16.767883%);fill-opacity:1;" d="M 114.660156 66.113281 C 114.640625 75.152344 103.316406 81.738281 99.996094 88.894531 C 96.640625 81.757813 85.296875 75.230469 85.21875 66.191406 C 85.199219 61.929688 88.5 58.457031 92.550781 58.457031 C 96.621094 58.457031 99.941406 61.890625 99.941406 66.152344 C 99.941406 61.871094 103.222656 58.417969 107.273438 58.417969 C 111.339844 58.398438 114.640625 61.851563 114.660156 66.113281 Z M 114.660156 66.113281 "/>
<path style=" stroke:none;fill-rule:nonzero;fill:rgb(86.29303%,23.658752%,16.767883%);fill-opacity:1;" d="M 85.21875 125.3125 C 85.238281 116.273438 96.5625 109.6875 99.882813 102.53125 C 103.242188 109.671875 114.585938 116.195313 114.660156 125.234375 C 114.679688 129.496094 111.378906 132.96875 107.328125 132.96875 C 103.261719 132.96875 99.941406 129.535156 99.941406 125.273438 C 99.941406 129.554688 96.65625 133.007813 92.609375 133.007813 C 88.539063 133.027344 85.238281 129.574219 85.21875 125.3125 Z M 85.21875 125.3125 "/>
<path style=" stroke:none;fill-rule:nonzero;fill:rgb(86.29303%,23.658752%,16.767883%);fill-opacity:1;" d="M 85.21875 168.621094 C 85.238281 159.582031 96.5625 152.996094 99.882813 145.839844 C 103.242188 152.980469 114.585938 159.503906 114.660156 168.542969 C 114.679688 172.804688 111.378906 176.277344 107.328125 176.277344 C 103.261719 176.277344 99.941406 172.84375 99.941406 168.582031 C 99.941406 172.863281 96.65625 176.316406 92.609375 176.316406 C 88.539063 176.335938 85.238281 172.882813 85.21875 168.621094 Z M 85.21875 168.621094 "/>
<path style=" stroke:none;fill-rule:nonzero;fill:rgb(86.29303%,23.658752%,16.767883%);fill-opacity:1;" d="M 82.730469 44.460938 C 82.710938 53.5 71.386719 60.082031 68.066406 67.242188 C 64.707031 60.101563 53.363281 53.578125 53.289063 44.535156 C 53.269531 40.277344 56.570313 36.804688 60.621094 36.804688 C 64.6875 36.804688 68.007813 40.238281 68.007813 44.5 C 68.007813 40.21875 71.289063 36.765625 75.339844 36.765625 C 79.410156 36.746094 82.710938 40.199219 82.730469 44.460938 Z M 82.730469 44.460938 "/>
<path style=" stroke:none;fill-rule:nonzero;fill:rgb(86.29303%,23.658752%,16.767883%);fill-opacity:1;" d="M 53.289063 146.964844 C 53.308594 137.925781 64.632813 131.34375 67.949219 124.183594 C 71.308594 131.324219 82.652344 137.847656 82.730469 146.890625 C 82.75 151.148438 79.449219 154.625 75.398438 154.625 C 71.328125 154.625 68.007813 151.1875 68.007813 146.925781 C 68.007813 151.207031 64.726563 154.660156 60.675781 154.660156 C 56.609375 154.679688 53.308594 151.226563 53.289063 146.964844 Z M 53.289063 146.964844 "/>
</g>
</svg>
