<?xml version="1.0" encoding="UTF-8"?>
<svg xmlns="http://www.w3.org/2000/svg" xmlns:xlink="http://www.w3.org/1999/xlink" width="135.21pt" height="195.639pt" viewBox="0 0 135.21 195.639" version="1.1">
<g id="surface1">
<path style=" stroke:none;fill-rule:nonzero;fill:rgb(100%,100%,100%);fill-opacity:1;" d="M 1 189.097656 C 1 192.121094 3.472656 194.589844 6.492188 194.589844 L 128.726563 194.589844 C 131.738281 194.589844 134.210938 192.121094 134.210938 189.097656 L 134.210938 6.445313 C 134.210938 3.421875 131.738281 0.949219 128.726563 0.949219 L 6.492188 0.949219 C 3.472656 0.949219 1 3.421875 1 6.445313 Z M 1 189.097656 "/>
<path style="fill:none;stroke-width:1.999;stroke-linecap:butt;stroke-linejoin:miter;stroke:rgb(0%,0%,0%);stroke-opacity:1;stroke-miterlimit:10;" d="M 1 6.541344 C 1 3.517906 3.472656 1.049156 6.492188 1.049156 L 128.726563 1.049156 C 131.738281 1.049156 134.210938 3.517906 134.210938 6.541344 L 134.210938 189.193687 C 134.210938 192.217125 131.738281 194.689781 128.726563 194.689781 L 6.492188 194.689781 C 3.472656 194.689781 1 192.217125 1 189.193687 Z M 1 6.541344 " transform="matrix(1,0,0,-1,0,195.639)"/>
<path style=" stroke:none;fill-rule:nonzero;fill:rgb(86.29303%,23.658752%,16.767883%);fill-opacity:1;" d="M 81.644531 160.367188 L 81.046875 161.527344 L 81.664063 165.550781 L 83.273438 165.273438 L 86.46875 163.109375 L 82.917969 159.730469 "/>
<path style=" stroke:none;fill-rule:nonzero;fill:rgb(86.29303%,23.658752%,16.767883%);fill-opacity:1;" d="M 93.863281 53.542969 C 94.085938 53.628906 88.730469 58.675781 88.058594 58.675781 L 83.515625 61.199219 L 80.808594 65.195313 L 78.773438 69.699219 L 78.648438 74.691406 L 80.542969 77.382813 L 84.566406 78.210938 L 89.601563 77.328125 L 95.117188 73.816406 L 97.910156 70.195313 L 98.96875 66.65625 L 98.59375 64.300781 L 96.089844 63.089844 L 93.949219 62.890625 L 93.800781 61.988281 L 94.1875 59.824219 L 92.351563 58.363281 L 89.007813 58.585938 L 94.4375 53.671875 L 100.066406 55.097656 L 102.722656 54.617188 L 110.285156 63.898438 L 106.238281 69.476563 L 105.613281 71.886719 L 106.457031 75.277344 L 107.71875 78.757813 L 107.101563 82.515625 L 106.148438 83.859375 L 106.257813 86.832031 L 105.671875 88.347656 L 103.621094 89.21875 L 101.714844 88.40625 L 100.539063 86.359375 L 101.128906 83.972656 L 102.726563 83.074219 L 104.15625 83.046875 L 104.410156 82.628906 L 103.285156 79.738281 L 100.734375 77.859375 L 98.660156 77.746094 L 93.613281 81.167969 L 93.050781 84.113281 L 92.996094 89.050781 L 97.875 92.273438 L 100.089844 95.835938 L 100.789063 99.988281 L 101.351563 105.148438 L 105.980469 116.648438 L 107.605469 119.5625 L 106.988281 120.070313 L 103.203125 118.300781 L 99.78125 114.765625 L 99.585938 112.074219 L 100.230469 109.972656 L 99.332031 108.402344 L 97.816406 108.429688 L 96.863281 109.945313 L 97.003906 111.179688 L 98.238281 113.195313 L 97.679688 116.3125 L 95.433594 120.460938 L 94.257813 120.488281 L 91.929688 117.179688 L 90.636719 112.777344 L 91.84375 109.917969 L 91.816406 108.765625 L 89.769531 107.109375 L 88.195313 107.617188 L 87.046875 109.382813 L 88.226563 113.226563 L 86.964844 115.496094 L 82.222656 119.507813 L 81.355469 119.003906 L 80.261719 116.140625 L 79.980469 111.878906 L 82.5625 109.859375 L 82.757813 107.617188 L 81.296875 106.355469 L 79.699219 106.605469 L 78.101563 107.757813 L 77.988281 109.859375 L 78.015625 112.382813 L 74.847656 116.449219 L 71.34375 119.113281 L 69.882813 118.722656 L 69.265625 116.871094 L 69.15625 109.132813 L 72.238281 107.503906 L 73.136719 105.738281 L 72.15625 104.164063 L 70.136719 103.550781 L 68.367188 104.671875 L 67.585938 106.523438 L 68.171875 109.046875 L 66.882813 110.476563 L 64.976563 112.074219 L 60.011719 114.429688 L 57.824219 114.765625 L 57.851563 111.570313 L 59.589844 106.046875 L 61.050781 103.941406 L 64.359375 102.960938 L 65.425781 100.914063 L 64.835938 99.3125 L 62.703125 98.359375 L 60.769531 99.453125 L 60.09375 100.742188 L 59.730469 102.652344 L 57.09375 104.476563 L 50.222656 106.578125 L 49.242188 105.652344 L 51.289063 99.734375 L 53.980469 97.070313 L 57.148438 96.621094 L 58.441406 94.40625 L 57.824219 92.304688 L 55.914063 91.460938 L 54.121094 92.328125 L 52.691406 95.472656 L 50.027344 97.210938 L 43.605469 98.390625 L 44.332031 95.585938 L 45.875 92.722656 L 46.96875 91.769531 L 48.765625 89.777344 L 51.710938 89.527344 L 52.886719 88.292969 L 53.28125 87.199219 L 53.140625 86.078125 L 51.539063 85.039063 L 48.90625 85.824219 L 47.53125 85.90625 L 44.921875 83.382813 L 43.941406 81.757813 L 44.558594 81.449219 L 47.953125 81.53125 L 51.851563 80.496094 L 59.507813 76.960938 L 62.84375 76.316406 L 66.238281 77.019531 L 68.816406 78.5625 L 68.761719 76.90625 L 69.828125 75.53125 L 73.191406 74.886719 L 73.359375 74.464844 L 73.472656 71.996094 L 75.296875 70.425781 L 76.671875 65.574219 L 79.421875 61.3125 L 79.445313 60.019531 L 77.679688 56.289063 L 77.734375 52.335938 L 78.523438 50.121094 L 80.0625 47.988281 L 83.683594 46.417969 L 85.140625 44.230469 L 86.65625 43.53125 L 88.507813 44.035156 L 89.683594 45.914063 L 89.09375 48.605469 L 86.851563 49.558594 L 84.273438 48.523438 L 83.765625 48.71875 L 83.402344 51.578125 L 84.132813 54.046875 L 85.730469 55.003906 L 91.621094 53.515625 "/>
<path style=" stroke:none;fill-rule:nonzero;fill:rgb(86.29303%,23.658752%,16.767883%);fill-opacity:1;" d="M 94.039063 53.496094 L 94.363281 53.875 L 88.894531 58.761719 L 88.570313 58.382813 Z M 94.039063 53.496094 "/>
<path style=" stroke:none;fill-rule:nonzero;fill:rgb(86.29303%,23.658752%,16.767883%);fill-opacity:1;" d="M 41.992188 84.214844 L 44.472656 84.773438 L 46.214844 87.742188 L 44.296875 96.992188 L 39.304688 106.28125 L 31.65625 114.140625 L 24.917969 114.140625 L 23.835938 112.671875 L 32.425781 104.921875 L 39.304688 93.679688 "/>
<path style=" stroke:none;fill-rule:nonzero;fill:rgb(86.29303%,23.658752%,16.767883%);fill-opacity:1;" d="M 85.910156 119.765625 L 86.984375 118.960938 L 90.085938 118.195313 L 91.074219 119.09375 L 92.734375 125.378906 L 93.316406 128.789063 L 92.867188 135.164063 L 90.308594 145.535156 L 88.421875 150.113281 L 85.371094 154.066406 L 81.644531 156.625 L 81.914063 154.828125 L 82.992188 153.078125 L 85.054688 149.667969 L 86.898438 144.234375 L 88.558594 136.917969 L 89.140625 131.710938 L 88.335938 125.871094 L 86 121.695313 "/>
<path style=" stroke:none;fill-rule:nonzero;fill:rgb(0%,0%,0%);fill-opacity:1;" d="M 68.773438 129.78125 L 69.488281 129.078125 L 71.699219 128.855469 L 73.441406 128.226563 L 73.714844 127.917969 L 74.632813 128.148438 L 75.054688 127.554688 L 75.695313 127.847656 L 76.183594 127.738281 L 77.308594 127.433594 L 79.992188 122.226563 L 81.234375 119.1875 L 82.160156 119.632813 L 83.253906 119.300781 L 90.621094 117.042969 L 91.101563 118.046875 L 89.679688 118.144531 L 87.0625 118.839844 L 85.515625 119.871094 L 85.820313 121.546875 L 84.835938 122 L 82.820313 124.90625 L 83.070313 125.839844 L 84.90625 125.421875 L 85.898438 123.410156 L 85.570313 122.304688 L 86.113281 122.171875 L 88.125 125.84375 L 87.664063 130.097656 L 88.949219 132.335938 L 88.207031 137.921875 L 87.410156 141.492188 L 86.457031 145.234375 L 84.867188 149.765625 L 82.3125 154.054688 L 82.011719 152.144531 L 83.546875 148.25 L 82.8125 141.289063 L 82.945313 134.804688 L 81.433594 134.3125 L 80.550781 135.816406 L 80.738281 150.292969 L 81.558594 152.449219 L 81.859375 154.539063 L 81.269531 157.101563 L 82.296875 159.738281 L 81.578125 160.605469 L 80.882813 162.289063 L 82.027344 165.382813 L 82.65625 165.355469 L 86.601563 162.964844 L 87.371094 165.011719 L 85.476563 167.355469 L 82.371094 168.015625 L 80.46875 165.214844 L 80.148438 161.308594 L 80.160156 159.90625 L 79.078125 159.230469 L 78.960938 156.351563 L 76.84375 150.542969 L 76.257813 144.484375 L 76.179688 138.546875 L 76.253906 134.777344 L 71.835938 135.007813 L 71.449219 135.707031 L 70.332031 135.046875 L 68.335938 135.621094 L 66.800781 135.578125 L 65.070313 136.5625 L 61.953125 137.292969 L 59.050781 137.679688 L 60.203125 136.371094 L 66.308594 135.171875 L 68.414063 133.890625 L 69.085938 130.699219 "/>
<path style=" stroke:none;fill-rule:nonzero;fill:rgb(0%,0%,0%);fill-opacity:1;" d="M 85.375 121.546875 L 86.128906 121.546875 L 86.128906 122.265625 L 85.375 122.265625 Z M 85.375 121.546875 "/>
<path style=" stroke:none;fill-rule:nonzero;fill:rgb(0%,0%,0%);fill-opacity:1;" d="M 81.546875 152.429688 L 82.28125 152.429688 L 82.28125 154.441406 L 81.546875 154.441406 Z M 81.546875 152.429688 "/>
<path style=" stroke:none;fill-rule:nonzero;fill:rgb(0%,0%,0%);fill-opacity:1;" d="M 87.203125 126.296875 L 88.324219 126.164063 L 88.957031 131.984375 L 87.835938 132.117188 Z M 87.203125 126.296875 "/>
<path style=" stroke:none;fill-rule:nonzero;fill:rgb(0%,0%,0%);fill-opacity:1;" d="M 91.585938 118.128906 C 91.585938 118.328125 93.136719 121.585938 93.136719 121.585938 L 94.128906 126.59375 L 94.25 133.351563 L 92.699219 143.050781 L 92.300781 144.003906 L 92.660156 144.203125 L 93.054688 143.921875 L 97.628906 134.265625 L 99.457031 126.4375 L 99.851563 122.222656 L 100.566406 122.5 L 100.050781 128.621094 L 97.707031 137.007813 L 93.773438 145.15625 L 89.4375 150.917969 L 87.453125 152.46875 L 87.292969 151.636719 L 89.796875 147.0625 L 92.738281 135.855469 L 93.296875 129.257813 L 92.023438 121.90625 L 90.789063 118.128906 "/>
<path style=" stroke:none;fill-rule:nonzero;fill:rgb(86.29303%,23.658752%,16.767883%);fill-opacity:1;" d="M 62.398438 35.175781 L 65.535156 35.449219 L 67.261719 39.363281 L 65.941406 42.21875 L 61.601563 41.683594 L 60.90625 37.640625 "/>
<path style=" stroke:none;fill-rule:nonzero;fill:rgb(86.29303%,23.658752%,16.767883%);fill-opacity:1;" d="M 72.167969 31.238281 L 74.746094 29.980469 L 75.773438 30.339844 L 76.140625 31.671875 L 76.148438 32.917969 L 75.414063 35.019531 L 72.875 37.300781 L 68.414063 38.320313 L 68.097656 37.089844 L 69.683594 36.597656 L 71.855469 34.46875 "/>
<path style=" stroke:none;fill-rule:nonzero;fill:rgb(92.700195%,4.258728%,39.077759%);fill-opacity:1;" d="M 41.472656 33.003906 C 41.472656 33.992188 40.714844 34.792969 39.785156 34.792969 C 38.851563 34.792969 38.097656 33.992188 38.097656 33.003906 C 38.097656 32.011719 38.851563 31.210938 39.785156 31.210938 C 40.714844 31.210938 41.472656 32.011719 41.472656 33.003906 Z M 41.472656 33.003906 "/>
<path style=" stroke:none;fill-rule:nonzero;fill:rgb(0%,65.205383%,33.80127%);fill-opacity:1;" d="M 45.414063 42.082031 C 45.414063 43 44.628906 43.742188 43.65625 43.742188 C 42.6875 43.742188 41.902344 43 41.902344 42.082031 C 41.902344 41.164063 42.6875 40.417969 43.65625 40.417969 C 44.628906 40.417969 45.414063 41.164063 45.414063 42.082031 Z M 45.414063 42.082031 "/>
<path style=" stroke:none;fill-rule:nonzero;fill:rgb(97.315979%,63.011169%,5.36499%);fill-opacity:1;" d="M 54.222656 55.652344 C 54.222656 56.613281 53.371094 57.386719 52.316406 57.386719 C 51.265625 57.386719 50.414063 56.613281 50.414063 55.652344 C 50.414063 54.695313 51.265625 53.921875 52.316406 53.921875 C 53.371094 53.921875 54.222656 54.695313 54.222656 55.652344 Z M 54.222656 55.652344 "/>
<path style=" stroke:none;fill-rule:nonzero;fill:rgb(9.97467%,40.953064%,73.556519%);fill-opacity:1;" d="M 61.285156 60.316406 C 61.285156 61.371094 60.449219 62.226563 59.421875 62.226563 C 58.390625 62.226563 57.554688 61.371094 57.554688 60.316406 C 57.554688 59.261719 58.390625 58.410156 59.421875 58.410156 C 60.449219 58.410156 61.285156 59.261719 61.285156 60.316406 Z M 61.285156 60.316406 "/>
<path style=" stroke:none;fill-rule:nonzero;fill:rgb(100%,94.898987%,0%);fill-opacity:1;" d="M 68.738281 62.667969 C 68.738281 63.832031 67.890625 64.773438 66.847656 64.773438 C 65.800781 64.773438 64.953125 63.832031 64.953125 62.667969 C 64.953125 61.507813 65.800781 60.5625 66.847656 60.5625 C 67.890625 60.5625 68.738281 61.507813 68.738281 62.667969 Z M 68.738281 62.667969 "/>
<path style=" stroke:none;fill-rule:nonzero;fill:rgb(86.29303%,23.658752%,16.767883%);fill-opacity:1;" d="M 49.199219 49.921875 C 49.472656 50.367188 49.21875 51.019531 48.636719 51.371094 C 48.050781 51.726563 47.355469 51.648438 47.078125 51.199219 C 46.808594 50.753906 47.058594 50.105469 47.644531 49.75 C 48.230469 49.394531 48.925781 49.472656 49.199219 49.921875 Z M 49.199219 49.921875 "/>
<path style=" stroke:none;fill-rule:nonzero;fill:rgb(86.29303%,23.658752%,16.767883%);fill-opacity:1;" d="M 53.730469 46.90625 C 53.730469 47.324219 53.4375 47.664063 53.074219 47.664063 C 52.710938 47.664063 52.417969 47.324219 52.417969 46.90625 C 52.417969 46.488281 52.710938 46.152344 53.074219 46.152344 C 53.4375 46.152344 53.730469 46.488281 53.730469 46.90625 Z M 53.730469 46.90625 "/>
<path style=" stroke:none;fill-rule:nonzero;fill:rgb(86.29303%,23.658752%,16.767883%);fill-opacity:1;" d="M 44.410156 54.160156 C 44.488281 54.246094 44.429688 54.429688 44.25 54.628906 C 44.074219 54.832031 43.808594 55.019531 43.5625 55.117188 C 43.316406 55.21875 43.128906 55.214844 43.074219 55.105469 C 42.996094 55.019531 43.058594 54.835938 43.234375 54.636719 C 43.410156 54.433594 43.675781 54.246094 43.921875 54.148438 C 44.167969 54.046875 44.355469 54.050781 44.410156 54.160156 Z M 44.410156 54.160156 "/>
<path style=" stroke:none;fill-rule:nonzero;fill:rgb(86.29303%,23.658752%,16.767883%);fill-opacity:1;" d="M 30.457031 63.296875 L 33.546875 60.421875 L 34.992188 61.875 L 31.902344 64.75 Z M 30.457031 63.296875 "/>
<path style=" stroke:none;fill-rule:nonzero;fill:rgb(86.29303%,23.658752%,16.767883%);fill-opacity:1;" d="M 24.105469 68.027344 L 28.613281 64.390625 L 29.898438 65.875 L 25.390625 69.511719 Z M 24.105469 68.027344 "/>
<path style=" stroke:none;fill-rule:nonzero;fill:rgb(86.29303%,23.658752%,16.767883%);fill-opacity:1;" d="M 22.683594 70.472656 C 22.835938 70.644531 22.847656 70.910156 22.714844 71.171875 C 22.582031 71.429688 22.328125 71.636719 22.050781 71.714844 C 21.777344 71.789063 21.527344 71.71875 21.398438 71.53125 C 21.246094 71.359375 21.238281 71.09375 21.367188 70.835938 C 21.5 70.574219 21.753906 70.367188 22.03125 70.289063 C 22.304688 70.214844 22.558594 70.285156 22.683594 70.472656 Z M 22.683594 70.472656 "/>
<path style=" stroke:none;fill-rule:nonzero;fill:rgb(86.29303%,23.658752%,16.767883%);fill-opacity:1;" d="M 22.222656 117.578125 L 23.414063 117.148438 L 25.132813 118.066406 L 26.683594 119.515625 L 26.703125 121.054688 L 23.382813 122.78125 L 21.71875 121.675781 L 21.882813 118.371094 "/>
<path style=" stroke:none;fill-rule:nonzero;fill:rgb(86.29303%,23.658752%,16.767883%);fill-opacity:1;" d="M 35.472656 68.011719 L 39.277344 66.808594 L 40.15625 68.109375 L 39.050781 82.703125 L 41.292969 85.304688 L 38.886719 94.53125 L 36.15625 95.769531 L 29.429688 93.234375 L 29.105469 90.503906 L 31.671875 77.957031 L 34.792969 69.117188 "/>
<path style=" stroke:none;fill-rule:nonzero;fill:rgb(86.29303%,23.658752%,16.767883%);fill-opacity:1;" d="M 71.269531 130.078125 L 81.78125 127.671875 L 84.507813 126.503906 L 86.488281 126.3125 L 87.007813 127.269531 L 87.054688 131.988281 L 86.214844 132.777344 L 71.375 133.945313 L 69.855469 133.675781 L 69.75 131.65625 "/>
<path style=" stroke:none;fill-rule:nonzero;fill:rgb(86.29303%,23.658752%,16.767883%);fill-opacity:1;" d="M 106.90625 42.015625 C 107.128906 42.015625 108.558594 42.238281 108.757813 42.410156 C 108.953125 42.574219 110.046875 43.925781 110.046875 43.925781 L 109.710938 46.503906 L 109.878906 47.597656 L 111.953125 51.214844 L 112.738281 55.476563 L 111.953125 60.917969 L 110.496094 64.230469 L 102.699219 54.664063 L 105.417969 53.796875 L 107.996094 51.160156 L 108.585938 48.269531 L 108.335938 47.960938 L 105.644531 47.625 L 104.074219 45.296875 L 105.164063 42.828125 "/>
<path style=" stroke:none;fill-rule:nonzero;fill:rgb(0%,0%,0%);fill-opacity:1;" d="M 49.316406 47.902344 C 47.382813 49.410156 45.265625 52.097656 42.980469 52.988281 C 42.070313 53.332031 40.476563 50.796875 39.636719 52.902344 C 38.285156 52.519531 37.265625 53.125 37.199219 54.527344 C 35.6875 54.53125 33.785156 55.683594 32.9375 56.96875 C 32.089844 58.261719 33.535156 59.6875 32.492188 60.871094 C 30.054688 63.625 26.324219 65.773438 23.492188 68.117188 C 22.535156 68.90625 20.628906 69.90625 20.886719 71.410156 C 21.246094 73.460938 24.476563 70.761719 25.144531 70.191406 C 27.082031 68.609375 29.070313 66.773438 31.195313 65.472656 C 31.617188 65.214844 32.621094 64.105469 33.121094 64.203125 C 33.675781 64.328125 34.792969 67.121094 34.910156 67.675781 C 35.089844 68.652344 33.949219 70.167969 33.628906 71.085938 C 32.539063 74.203125 31.34375 77.320313 30.476563 80.503906 C 29.5625 83.851563 29.53125 87.648438 28.304688 90.890625 C 27.675781 92.53125 26.355469 93.851563 25.570313 95.4375 C 24.265625 98.085938 23.203125 101.34375 22.488281 104.203125 C 21.804688 106.925781 21.730469 110.171875 21.9375 112.96875 C 21.992188 113.476563 22.589844 113.820313 22.578125 114.269531 C 22.566406 114.757813 21.664063 114.878906 21.523438 115.414063 C 21.339844 116.109375 21.878906 116.703125 21.867188 117.351563 C 21.824219 119.847656 20.761719 122.773438 22.261719 125.144531 C 23.390625 126.824219 27.945313 124.617188 28.59375 123.277344 C 28.972656 122.570313 28.433594 121.867188 28.160156 121.25 C 27.265625 119.394531 25.816406 118.359375 24.210938 117.152344 C 23.757813 116.800781 23.433594 115.1875 23.84375 114.691406 C 24.210938 114.269531 24.90625 114.59375 25.347656 114.683594 C 26.484375 114.929688 27.894531 114.78125 29.082031 114.757813 C 33.132813 114.65625 36.765625 114.148438 40.609375 112.699219 C 41.726563 112.277344 43.730469 111.777344 44.339844 110.699219 C 40.867188 110.859375 37.769531 113.226563 34.113281 112.648438 C 34.171875 112.65625 36.722656 110.078125 36.722656 110.078125 C 37.875 108.628906 41.640625 104.207031 42.484375 102.582031 C 43.085938 101.445313 43.667969 99.507813 44.628906 98.621094 C 45.1875 98.101563 46.679688 98.3125 47.425781 98.164063 C 49.210938 97.804688 51.074219 97.144531 52.546875 96.007813 C 54.007813 94.875 53.257813 92.539063 55.542969 91.976563 C 56.808594 91.660156 57.945313 92.769531 58.046875 93.980469 C 58.132813 94.992188 57.234375 96.019531 56.355469 96.414063 C 55.453125 96.824219 54.527344 96.351563 53.59375 96.914063 C 51.320313 98.269531 50.089844 101.320313 49.355469 103.71875 C 49.148438 104.398438 48.691406 105.90625 49.210938 106.539063 C 49.828125 107.292969 52.828125 106.316406 53.59375 106.046875 C 55.578125 105.394531 58.203125 104.550781 59.671875 102.980469 C 60.175781 102.441406 60.085938 101.625 60.320313 100.960938 C 60.929688 99.238281 62.414063 98.257813 64.117188 99.203125 C 65.445313 99.945313 65.199219 101.449219 64.292969 102.421875 C 63.0625 103.734375 61.285156 102.910156 60.234375 104.375 C 58.695313 106.519531 58.109375 109.617188 57.601563 112.160156 C 57.476563 112.769531 57.164063 114.476563 57.753906 114.921875 C 58.238281 115.300781 59.097656 114.921875 59.601563 114.761719 C 61.277344 114.273438 62.878906 113.578125 64.378906 112.664063 C 65.847656 111.769531 66.941406 110.699219 68.207031 109.5625 C 66.257813 113.246094 64.632813 117.136719 62.898438 120.929688 C 62.285156 122.273438 61.75 124.722656 60.65625 125.730469 C 59.601563 126.707031 56.765625 124.144531 55.707031 123.75 C 55.179688 123.550781 54.140625 123.304688 53.757813 123.902344 C 52.785156 125.429688 56.1875 127.535156 57.007813 128.394531 C 54.332031 128.28125 51.558594 127.640625 48.890625 127.753906 C 48.078125 127.785156 46.722656 127.746094 46.128906 128.363281 C 45.480469 129.015625 46.039063 129.648438 46.777344 129.8125 C 48.769531 130.25 51.078125 130.628906 53.109375 130.832031 L 53.109375 130.992188 C 51.410156 131.398438 49.628906 130.945313 47.914063 131.25 C 47.324219 131.355469 46.425781 131.542969 46.128906 132.144531 C 45.742188 133.007813 46.941406 133.480469 47.589844 133.558594 C 49.75 133.832031 52.074219 133.75 54.246094 133.75 L 54.246094 134.074219 C 52.085938 134.246094 50.019531 134.65625 47.914063 135.175781 C 47.265625 135.332031 45.773438 135.808594 46.554688 136.746094 C 47.101563 137.421875 48.238281 137.351563 49.050781 137.324219 C 51.277344 137.214844 53.488281 136.394531 55.707031 136.347656 C 54.664063 137.722656 52.558594 138.082031 51.324219 139.433594 C 49.242188 141.761719 52.976563 140.832031 54.082031 140.246094 C 53.476563 142.035156 52.554688 143.707031 51.8125 145.441406 C 51.554688 146.03125 50.984375 146.851563 51.078125 147.550781 C 51.160156 148.097656 51.648438 147.875 51.886719 147.550781 C 52.40625 146.710938 52.742188 145.683594 53.109375 144.789063 L 53.273438 144.789063 L 52.945313 146.414063 C 54.40625 146.175781 55.425781 142.523438 55.867188 141.21875 L 56.03125 141.21875 C 55.867188 141.828125 54.472656 144.160156 55.148438 144.597656 C 55.542969 144.871094 55.867188 144.070313 55.984375 143.816406 C 56.519531 142.582031 57.167969 141.351563 57.65625 140.082031 L 57.816406 140.082031 L 56.679688 143.652344 C 58.550781 143.097656 58.703125 139.488281 59.929688 138.132813 L 58.304688 142.519531 C 59.601563 142.410156 60.203125 140.082031 60.578125 138.945313 L 60.738281 138.945313 L 59.929688 141.707031 C 61.101563 141.515625 61.582031 139.8125 61.875 138.785156 L 62.039063 138.785156 L 61.550781 140.894531 C 62.605469 140.730469 62.878906 139.527344 63.175781 138.621094 L 63.335938 138.621094 C 62.730469 140.570313 63.984375 139.816406 64.472656 138.460938 L 64.636719 138.460938 L 64.636719 139.433594 C 65.660156 139.269531 65.933594 138.203125 66.257813 137.324219 L 66.421875 137.324219 L 66.257813 138.785156 C 67.15625 138.628906 67.367188 137.808594 67.558594 136.996094 L 67.71875 136.996094 L 67.558594 138.132813 C 68.601563 138.050781 68.921875 137.09375 69.179688 136.1875 L 69.34375 136.1875 L 69.179688 137.648438 C 69.972656 137.507813 70.195313 136.710938 70.480469 136.023438 L 70.640625 136.023438 L 70.640625 136.996094 C 71.617188 136.835938 71.894531 135.933594 72.101563 135.050781 L 72.265625 135.050781 C 71.886719 137.214844 73.050781 135.449219 73.757813 135.148438 C 74.410156 134.886719 75.445313 134.976563 76.160156 134.886719 C 76.160156 141.636719 75.617188 147.957031 77.753906 154.53125 C 78.023438 155.359375 78.515625 156.121094 78.726563 156.964844 C 79.03125 158.175781 78.25 159.910156 80.054688 160.050781 C 79.941406 162.753906 79.851563 165.359375 81.613281 167.679688 C 82.871094 169.304688 86.382813 167.402344 87.140625 166.058594 C 88.535156 163.578125 85.871094 161.347656 83.953125 159.996094 C 83.265625 159.519531 81.476563 158.445313 81.894531 157.324219 C 82.152344 156.640625 83.363281 156.125 83.953125 155.761719 C 85.515625 154.785156 86.980469 153.636719 88.328125 152.375 C 91.859375 149.058594 94.289063 144.882813 96.390625 140.570313 C 98.890625 135.425781 100.675781 129.265625 100.675781 123.523438 C 100.675781 122.0625 100.648438 120.601563 100.628906 119.140625 C 100.621094 118.820313 100.609375 117.886719 100.054688 118.007813 C 99.519531 118.09375 99.703125 119.21875 99.703125 119.582031 C 99.75 121.253906 99.589844 122.875 99.355469 124.5 C 98.796875 128.496094 98.039063 132.617188 96.457031 136.351563 C 95.386719 138.949219 93.695313 141.382813 92.722656 143.980469 L 92.558594 143.980469 C 94.671875 137.335938 95.050781 129.859375 93.664063 123.039063 C 93.285156 121.179688 92.652344 119.273438 91.585938 117.679688 C 91.34375 117.277344 91.070313 116.546875 90.578125 116.382813 C 90.0625 116.183594 88.898438 116.75 88.40625 116.960938 C 86.773438 117.679688 85.09375 118.296875 83.46875 118.980469 C 84.921875 117.730469 88.527344 115.320313 88.484375 113.136719 C 88.457031 111.835938 87.203125 110.863281 87.394531 109.402344 C 87.519531 108.429688 88.605469 107.453125 89.632813 107.535156 C 90.03125 107.570313 90.34375 107.796875 90.652344 108.027344 C 92.839844 109.679688 90.496094 111.03125 90.492188 112.808594 C 90.488281 114.4375 91.421875 116.714844 92.222656 118.117188 C 92.71875 119.015625 93.890625 121.542969 95.242188 120.996094 C 95.96875 120.699219 96.355469 119.632813 96.667969 118.984375 C 97.53125 117.195313 98.6875 115.035156 98.351563 112.972656 C 98.121094 111.570313 95.785156 109.886719 98.175781 108.75 C 98.972656 108.359375 99.785156 109.117188 99.914063 109.886719 C 100.082031 110.882813 99.242188 111.835938 99.210938 112.808594 C 99.171875 115.273438 101.425781 117.257813 103.175781 118.609375 C 103.757813 119.070313 107.242188 121.335938 107.683594 119.753906 C 107.882813 119.046875 107.164063 117.960938 106.871094 117.355469 C 105.867188 115.304688 104.800781 113.316406 103.988281 111.1875 C 102.945313 108.453125 101.75 105.828125 101.234375 102.90625 C 100.753906 100.203125 101.066406 97.226563 99.890625 94.65625 C 99.085938 92.914063 97.722656 91.480469 96.121094 90.4375 C 95.277344 89.886719 94.089844 89.515625 93.433594 88.722656 C 92.949219 88.136719 93.46875 87.332031 93.511719 86.671875 C 93.632813 84.925781 92.992188 83.265625 93.789063 81.523438 C 94.074219 80.898438 95.265625 80.417969 95.800781 80.015625 C 96.894531 79.140625 97.777344 78.175781 99.210938 77.988281 C 101.585938 77.675781 103.890625 80.640625 104.082031 82.777344 C 103.339844 82.777344 102.660156 82.824219 101.96875 83.128906 C 97.824219 84.96875 102.003906 91.910156 105.832031 88.484375 C 107.328125 87.132813 106.117188 85.78125 106.3125 84.238281 C 106.390625 83.609375 106.964844 83.160156 107.238281 82.613281 C 107.742188 81.601563 107.980469 80.015625 107.914063 78.878906 C 107.730469 76.414063 105.816406 74.234375 105.910156 71.738281 C 106.027344 68.664063 110 65.832031 111.335938 63.132813 C 113.171875 59.351563 113.476563 54.425781 111.929688 50.472656 C 111.46875 49.285156 110.414063 48.359375 109.988281 47.230469 C 109.761719 46.667969 110.359375 46.023438 110.394531 45.4375 C 110.523438 43.371094 109.277344 41.40625 107.003906 41.605469 C 104.652344 41.808594 103.035156 44.679688 104.363281 46.738281 C 105.21875 48.089844 106.804688 48.472656 108.304688 48.199219 C 108.265625 52.757813 103.148438 55.230469 99.050781 54.621094 C 96.699219 54.273438 94.882813 52.964844 92.394531 53.074219 C 90.578125 53.152344 88.949219 53.8125 87.199219 54.203125 C 86.625 54.308594 85.714844 54.691406 85.164063 54.367188 C 82.957031 53.136719 83.917969 50.507813 84.113281 48.683594 C 85.414063 49.597656 86.941406 50.308594 88.496094 49.394531 C 90.8125 48.035156 90.335938 44.050781 87.6875 43.402344 C 86.445313 43.101563 84.980469 43.597656 84.21875 44.632813 C 83.871094 45.113281 83.847656 45.882813 83.382813 46.261719 C 82.457031 47.007813 80.945313 47.097656 79.925781 47.902344 C 77.757813 49.621094 77.042969 53.066406 77.320313 55.664063 C 77.4375 56.734375 77.78125 57.945313 78.269531 58.914063 C 78.640625 59.644531 79.382813 60.257813 79.046875 61.15625 C 78.402344 62.871094 76.90625 64.390625 76.128906 66.082031 C 75.507813 67.382813 75.609375 69.023438 74.949219 70.246094 C 74.628906 70.847656 73.882813 71.121094 73.449219 71.648438 C 72.742188 72.507813 72.882813 73.636719 73.070313 74.660156 C 70.800781 74.125 67.9375 75.753906 68.527344 78.230469 C 67.546875 77.550781 66.285156 76.609375 65.117188 76.304688 C 60.148438 75.148438 54.875 79.25 50.328125 80.667969 C 49.253906 81.007813 47.898438 81.355469 46.773438 81.3125 C 45.960938 81.273438 44.78125 80.855469 44.058594 81.320313 C 42.824219 82.125 44.664063 83.234375 44.988281 83.84375 C 45.355469 84.507813 44.273438 84.265625 44.015625 84.140625 C 43.039063 83.6875 40.441406 82.542969 39.953125 81.589844 C 39.601563 80.851563 39.953125 79.234375 39.953125 78.394531 C 39.886719 75.066406 40.726563 71.78125 40.765625 68.488281 C 40.765625 67.476563 40.992188 66.398438 40.914063 65.402344 C 40.867188 64.808594 40.511719 64.222656 40.796875 63.644531 C 41.210938 62.808594 42.03125 62.15625 42.492188 61.316406 C 43.132813 60.164063 43.34375 58.847656 44.285156 57.875 C 45.3125 56.800781 47.316406 55.832031 48.023438 54.484375 C 48.339844 53.878906 47.75 53.320313 48.003906 52.773438 C 48.222656 52.273438 49.261719 51.828125 49.695313 51.523438 C 51.15625 50.511719 52.523438 49.414063 53.914063 48.316406 C 54.394531 47.9375 55.121094 46.789063 55.78125 47.441406 C 57.066406 48.710938 56.257813 53.414063 54.519531 54.039063 C 53.59375 54.367188 52.675781 53.035156 51.484375 53.554688 C 50.625 53.886719 50.183594 54.78125 50.183594 55.664063 C 50.132813 58.808594 55.296875 58.285156 54.40625 55.175781 C 58.253906 54.125 57.453125 49.175781 58.335938 46.25 C 58.671875 45.125 59.90625 44.328125 60.085938 43.324219 C 60.78125 43.121094 61.421875 42.144531 62.074219 43.039063 C 62.683594 43.90625 61.988281 46.734375 62.035156 47.871094 C 62.167969 50.675781 63.007813 53.230469 61.9375 55.988281 C 61.695313 56.605469 61.472656 57.613281 60.863281 57.953125 C 60.433594 58.414063 59.0625 58.148438 58.199219 58.550781 C 56.59375 59.695313 56.960938 63.351563 60.160156 62.21875 C 61.886719 61.609375 60.953125 60.445313 61.78125 59.359375 C 62.640625 58.230469 64.015625 57.535156 64.796875 56.316406 C 66.570313 53.5625 65.65625 50.3125 65.117188 47.386719 C 64.957031 46.527344 64.578125 43.199219 66.085938 43.199219 C 66.65625 43.199219 66.902344 44.042969 67.058594 44.464844 C 67.59375 45.925781 68.128906 47.34375 68.460938 48.847656 C 69.179688 52.152344 69.578125 56.746094 67.496094 59.722656 C 66.8125 60.699219 65.335938 60.226563 64.796875 61.511719 C 64.25 62.917969 64.902344 64.492188 66.417969 64.832031 C 68.039063 65.203125 69.242188 63.867188 69.171875 62.324219 C 69.144531 61.753906 68.6875 61.0625 68.972656 60.539063 C 69.425781 59.6875 70.296875 59.144531 70.738281 58.265625 C 72.179688 55.414063 72.398438 51.363281 71.335938 48.363281 C 70.476563 45.992188 66.574219 43.167969 67.375 40.570313 C 68.039063 38.417969 70.566406 38.800781 72.261719 37.90625 C 76.09375 35.890625 76.992188 33.113281 75.675781 29.394531 C 75.582031 28.746094 76.382813 28.113281 75.988281 27.445313 C 75.640625 26.847656 74.859375 26.933594 74.492188 27.445313 C 73.765625 28.476563 75.097656 29.207031 73.777344 30.210938 C 72.960938 30.847656 71.890625 30.609375 70.964844 30.941406 C 70.53125 31.097656 70.226563 31.574219 69.785156 31.660156 C 69.089844 31.804688 68.460938 31.261719 67.804688 31.804688 C 66.738281 32.617188 67.066406 34.992188 65.117188 35.214844 C 62.105469 35.484375 62.339844 33.164063 60.820313 31.316406 C 59.640625 29.878906 57.8125 29.015625 56.027344 28.59375 C 53.375 27.972656 50.378906 28.691406 48.71875 31.019531 C 47.75 32.367188 47.308594 35.660156 45.152344 35.589844 C 44.3125 35.558594 42.175781 34.894531 41.847656 34.039063 C 41.417969 32.992188 42.125 31.964844 40.914063 31.152344 C 39.773438 30.410156 38.0625 30.917969 37.746094 32.292969 C 37.453125 33.589844 38.007813 35.019531 39.46875 35.179688 C 40.058594 35.242188 40.679688 34.886719 41.226563 35.15625 C 42.6875 35.933594 43.800781 37.269531 45.640625 36.921875 C 48.03125 36.472656 48.722656 33.265625 50.507813 31.851563 C 52.710938 30.117188 56.769531 31.59375 58.949219 32.683594 C 59.734375 33.101563 61.007813 33.753906 61.171875 34.726563 C 61.351563 35.796875 59.113281 35.097656 58.625 35.050781 C 55.929688 34.664063 52.78125 35.488281 51.359375 37.976563 C 50.328125 39.773438 51.097656 41.714844 48.5625 42.46875 C 47.863281 42.679688 46.8125 43.003906 46.207031 42.425781 C 45.425781 41.707031 45.753906 40.433594 44.5 40.027344 C 43.152344 39.597656 41.652344 40.199219 41.453125 41.707031 C 41.410156 42.035156 41.453125 42.371094 41.554688 42.683594 C 42.390625 45.324219 44.476563 43.371094 46.125 43.582031 C 47.71875 43.785156 49.207031 44.253906 50.664063 43.101563 C 52.492188 41.648438 52.128906 39.433594 54.726563 38.515625 C 55.804688 38.140625 59.15625 37.230469 59.65625 38.785156 C 60.011719 39.921875 58.441406 40.636719 57.742188 41.175781 C 56.128906 42.425781 54.546875 43.75 52.941406 45.054688 C 52.4375 45.492188 49.996094 47.386719 49.316406 47.902344 Z M 68.53125 37.15625 C 70.136719 36.996094 72.058594 35.101563 72.496094 33.585938 C 72.691406 32.9375 72.34375 31.964844 72.734375 31.367188 C 73.171875 30.710938 75.113281 29.792969 75.636719 30.675781 C 77.351563 33.585938 73.710938 37.183594 71.128906 37.503906 C 70.316406 37.601563 68.855469 38.265625 68.53125 37.15625 Z M 39.636719 31.378906 C 41.609375 31.121094 42.132813 34.402344 40.121094 34.6875 C 37.976563 34.988281 37.523438 31.652344 39.636719 31.378906 Z M 67.394531 34.074219 C 67.339844 34.566406 67.558594 35.554688 68.28125 34.976563 C 68.578125 34.738281 67.117188 33.261719 67.980469 32.386719 C 68.46875 31.898438 69.246094 32.34375 69.828125 32.261719 C 70.390625 32.179688 70.96875 31.515625 71.5625 31.746094 C 72.3125 32.039063 71.898438 33.597656 71.617188 34.089844 C 70.886719 35.394531 69.0625 37.25 67.394531 36.949219 C 65.566406 36.617188 66.25 34.761719 67.394531 34.074219 Z M 69.667969 33.097656 L 70.316406 34.234375 C 71.378906 33.585938 70.804688 32.558594 69.667969 33.097656 Z M 68.207031 34.828125 C 68.148438 34.886719 67.894531 35.023438 67.789063 34.980469 C 67.683594 34.941406 67.539063 33.800781 67.539063 33.800781 C 67.539063 33.800781 68.265625 34.769531 68.207031 34.828125 Z M 63.660156 35.492188 C 65.5625 35.046875 67.214844 38.957031 66.625 40.402344 C 66.125 41.628906 65.316406 40.644531 64.472656 40.851563 C 63.984375 40.972656 63.824219 41.546875 63.328125 41.644531 C 63.011719 41.703125 62.65625 41.550781 62.648438 41.21875 C 62.628906 40.53125 63.707031 40.320313 63.421875 39.597656 C 63.121094 38.839844 61.226563 39.367188 61.390625 38.457031 C 61.578125 37.382813 62.933594 38.457031 63.320313 37.761719 C 63.695313 37.117188 62.40625 35.796875 63.660156 35.492188 Z M 43.207031 40.621094 C 45.292969 40.242188 46.15625 43.246094 43.855469 43.613281 C 41.859375 43.933594 41.140625 41.011719 43.207031 40.621094 Z M 107.167969 119.625 C 104.085938 119.03125 100.648438 116.480469 99.828125 113.296875 C 99.371094 111.507813 101.878906 109.175781 99.050781 108.023438 C 97.671875 107.453125 96.546875 109.402344 96.546875 110.535156 C 96.550781 111.722656 97.535156 112.246094 97.820313 113.296875 C 98.273438 114.9375 96.777344 117.410156 96.0625 118.8125 C 95.804688 119.300781 95.46875 120.203125 94.832031 120.289063 C 93.855469 120.4375 92.6875 117.761719 92.375 117.027344 C 91.890625 115.898438 91.027344 114.226563 91.148438 112.96875 C 91.21875 112.246094 91.800781 111.710938 91.988281 111.023438 C 92.453125 109.332031 91.832031 107.613281 90.121094 106.988281 C 88.921875 106.546875 87.363281 107.617188 87.003906 108.75 C 86.390625 110.558594 88.046875 111.765625 87.820313 113.296875 C 87.480469 115.570313 83.757813 117.757813 82.167969 119.140625 L 82.007813 119.140625 C 80.585938 117.871094 80.707031 116.054688 80.476563 114.269531 C 80.382813 113.621094 80.164063 112.523438 80.546875 111.929688 C 81.476563 110.535156 83.46875 110.324219 83.066406 108.101563 C 82.636719 105.742188 79.734375 105.433594 78.335938 107.132813 C 76.976563 108.785156 78.421875 110.484375 77.671875 112.160156 C 76.457031 114.875 73.566406 116.933594 71.453125 118.816406 C 71.453125 118.816406 70.632813 118.808594 70.472656 118.648438 C 70.3125 118.484375 69.953125 118.074219 69.804688 117.652344 C 69.402344 116.496094 69.25 114.832031 69.390625 113.621094 C 69.507813 112.429688 69.109375 110.535156 69.605469 109.445313 C 70.03125 108.523438 71.941406 108.269531 72.671875 107.5 C 74.320313 105.765625 72.257813 102.945313 70.15625 103.265625 C 68.570313 103.507813 67.300781 105.226563 67.429688 106.804688 C 67.488281 107.546875 68.074219 108.460938 67.652344 109.15625 C 65.859375 112.109375 61.183594 113.832031 57.980469 114.433594 C 57.980469 111.511719 58.910156 106.515625 61.148438 104.421875 C 62.339844 103.304688 64.183594 104.265625 65.285156 102.421875 C 66.46875 100.472656 65.007813 98.210938 62.851563 98.074219 C 61.34375 97.980469 60.144531 99.5 59.769531 100.796875 C 59.644531 101.285156 59.769531 101.933594 59.492188 102.320313 C 58.253906 103.921875 55.546875 104.601563 53.761719 105.273438 C 53.078125 105.527344 50.414063 106.441406 49.867188 105.734375 C 49.332031 105.027344 50.335938 103.265625 50.601563 102.585938 C 51.328125 100.714844 52.332031 98.429688 54.25 97.441406 C 55.671875 96.710938 57.101563 97.59375 58.1875 95.929688 C 59.605469 93.726563 57.789063 90.453125 55.0625 91.394531 C 52.949219 92.117188 53.4375 94.09375 52.230469 95.367188 C 50.273438 97.414063 46.664063 97.714844 44.023438 97.714844 C 44.328125 95.28125 46.832031 91.46875 48.917969 90.183594 C 49.59375 89.769531 50.292969 90.167969 51.003906 90.007813 C 52.464844 89.671875 53.753906 87.863281 53.367188 86.359375 C 53.003906 84.925781 50.945313 84.402344 49.703125 84.890625 C 49.210938 85.09375 48.78125 85.65625 48.242188 85.714844 C 47.6875 85.773438 47.269531 85.101563 46.929688 84.773438 C 46.015625 83.921875 44.550781 83.125 44.347656 81.804688 C 46.703125 81.804688 48.890625 81.804688 51.144531 80.992188 C 54.789063 79.65625 58.429688 77.128906 62.367188 76.640625 C 65.035156 76.3125 66.53125 78.722656 69.023438 78.722656 C 69.011719 78.167969 68.796875 77.46875 68.984375 76.941406 C 69.644531 75.109375 72.402344 76.011719 73.308594 74.824219 C 73.757813 74.199219 73.4375 73.378906 73.707031 72.714844 C 74.054688 71.835938 75.027344 71.542969 75.445313 70.765625 C 76.054688 69.589844 76.003906 68.089844 76.546875 66.871094 C 77.378906 64.984375 79.085938 63.136719 79.652344 61.1875 C 80.023438 59.890625 78.664063 58.367188 78.273438 57.128906 C 77.464844 54.589844 77.679688 52 79.035156 49.664063 C 80.222656 47.582031 81.90625 47.734375 83.628906 46.621094 C 84.976563 45.765625 85.785156 43.089844 88.015625 44.21875 C 89.730469 45.085938 89.765625 47.929688 88.015625 48.800781 C 86.496094 49.554688 85.578125 48.105469 84.28125 48.363281 C 81.949219 48.78125 83.304688 53.417969 84.222656 54.484375 C 84.902344 55.28125 85.78125 55.195313 86.714844 55.019531 C 88.695313 54.589844 90.519531 53.921875 92.558594 53.75 C 94.507813 53.589844 95.96875 54.859375 97.753906 55.269531 C 101.515625 56.183594 107.609375 54.535156 108.632813 50.3125 C 108.792969 49.625 109.117188 48.527344 108.558594 47.945313 C 108.054688 47.433594 107.316406 47.625 106.683594 47.496094 C 105.378906 47.234375 104.394531 45.953125 104.625 44.628906 C 105.027344 42.355469 108.078125 41.613281 109.378906 43.492188 C 110.308594 44.832031 109.09375 46.050781 109.417969 47.386719 C 109.578125 48.039063 110.308594 48.574219 110.632813 49.175781 C 111.390625 50.558594 111.855469 52 112.128906 53.558594 C 112.847656 57.664063 111.777344 61.675781 109.429688 65.082031 C 108.113281 66.992188 105.808594 68.660156 105.433594 71.089844 C 105.003906 73.859375 107.039063 76.203125 107.304688 78.882813 C 107.410156 79.953125 107.230469 81.453125 106.796875 82.453125 C 106.5625 82.992188 106.007813 83.308594 105.910156 83.917969 C 105.652344 85.539063 106.804688 87.089844 105.035156 88.363281 C 103.230469 89.660156 100.40625 87.648438 100.90625 85.539063 C 101.09375 84.761719 101.679688 83.882813 102.460938 83.628906 C 103.074219 83.429688 104.015625 83.519531 104.402344 82.894531 C 104.851563 82.179688 104.285156 80.992188 103.902344 80.34375 C 102.757813 78.464844 101.035156 77.070313 98.726563 77.382813 C 97.699219 77.523438 96.917969 78.316406 96.128906 78.921875 C 95.316406 79.535156 94.097656 80.113281 93.46875 80.894531 C 92.269531 82.382813 92.871094 84.726563 92.878906 86.351563 C 92.882813 87.117188 92.289063 88.054688 92.511719 88.785156 C 92.835938 89.847656 94.769531 90.511719 95.644531 91.058594 C 97.308594 92.066406 98.621094 93.527344 99.480469 95.28125 C 101.042969 98.472656 100.484375 102.863281 101.472656 106.320313 C 102.347656 109.367188 103.699219 112.394531 105.058594 115.246094 C 105.769531 116.703125 106.726563 118.085938 107.167969 119.625 Z M 52.945313 46.207031 C 53.757813 45.964844 54.015625 47.390625 53.25 47.589844 C 52.382813 47.808594 52.121094 46.449219 52.945313 46.207031 Z M 47.589844 49.496094 L 47.429688 49.65625 Z M 48.238281 49.738281 C 49.800781 49.441406 49.507813 51.339844 48.078125 51.558594 C 46.507813 51.796875 47.09375 49.953125 48.238281 49.738281 Z M 40.65625 53.183594 C 42.058594 52.683594 42.589844 56.964844 41.554688 57.136719 C 40.660156 57.292969 39.636719 53.554688 40.65625 53.183594 Z M 39.796875 58.75 C 38.5 58.53125 37.582031 55.386719 38.132813 54.25 C 38.773438 52.925781 39.589844 54.953125 39.636719 55.503906 C 39.691406 55.933594 39.773438 56.363281 39.789063 56.800781 C 39.796875 57.449219 39.796875 58.101563 39.796875 58.75 Z M 46.941406 53.878906 C 46.5 55.339844 44.667969 55.941406 43.738281 56.992188 C 42.652344 58.195313 42.34375 60.136719 41.257813 61.460938 C 40.671875 62.21875 39.230469 62.582031 38.8125 63.21875 C 38.5 63.671875 39.472656 63.878906 39.699219 64.105469 C 40.195313 64.59375 39.960938 65.675781 39.542969 66.125 C 38.945313 66.734375 36.386719 67.839844 35.625 67.253906 C 34.980469 66.753906 34.804688 65.636719 34.527344 64.917969 C 34.339844 64.433594 33.953125 63.863281 34.035156 63.320313 C 34.105469 62.765625 35.332031 61.457031 35.902344 61.445313 C 36.386719 61.433594 36.679688 61.867188 37.191406 61.683594 C 38.050781 61.378906 37.847656 60.386719 38.375 59.820313 C 39.199219 58.917969 40.183594 59.6875 40.445313 57.933594 C 43.28125 58.273438 43.964844 54.203125 46.941406 53.878906 Z M 51.648438 54.109375 C 53.921875 53.453125 55.152344 56.507813 52.941406 57.179688 C 50.953125 57.78125 49.65625 54.691406 51.648438 54.109375 Z M 44.34375 54.203125 C 44.222656 54.875 43.84375 54.957031 43.207031 55.015625 C 43.324219 54.308594 43.664063 54.226563 44.34375 54.203125 Z M 36.125 55.460938 C 36.644531 55.3125 36.914063 55.933594 37.03125 56.3125 C 37.269531 57.085938 38.21875 60.230469 37.164063 60.65625 C 36.644531 60.863281 36.289063 60.273438 36.128906 59.886719 C 35.824219 59.132813 34.910156 55.828125 36.125 55.460938 Z M 35.089844 61.347656 C 33.953125 60.972656 32.933594 58.425781 33.628906 57.332031 C 34.277344 56.3125 34.925781 57.648438 35.039063 58.261719 C 35.089844 58.691406 35.089844 59.128906 35.15625 59.558594 C 35.242188 60.210938 35.203125 60.726563 35.089844 61.347656 Z M 98.726563 63.945313 C 98.726563 63.945313 97.71875 63.273438 96.546875 62.960938 C 95.640625 62.714844 94.621094 62.808594 94.019531 62.808594 C 94.140625 61.863281 94.699219 60.664063 94.34375 59.722656 C 93.195313 56.433594 87.300781 58.585938 85.414063 59.6875 C 80.851563 62.378906 77.78125 68.09375 78.53125 73.359375 C 78.632813 74.089844 78.433594 74.746094 78.714844 75.472656 C 79.980469 78.71875 84.398438 78.398438 87.199219 78.097656 C 93.421875 77.417969 100.613281 70.46875 98.726563 63.945313 Z M 59.117188 58.664063 C 61.511719 58.0625 61.605469 61.546875 59.738281 61.949219 C 57.328125 62.484375 56.773438 59.253906 59.117188 58.664063 Z M 87.363281 65.730469 L 85.578125 67.515625 C 87.265625 67.222656 89.449219 66.222656 90.191406 64.59375 C 90.933594 62.914063 89.390625 60.046875 87.523438 59.886719 C 87.949219 61.414063 91.039063 64.269531 88.175781 65.242188 C 88.175781 63.234375 87.851563 61.078125 85.414063 61.019531 C 86.125 58.65625 92.230469 57.808594 93.738281 59.777344 C 94.5 60.773438 92.988281 62.246094 93.929688 63.027344 C 95.28125 64.148438 97.914063 62.734375 98.632813 65.242188 C 99.257813 67.410156 97.714844 69.789063 96.496094 71.410156 C 93.347656 75.65625 85.859375 80.074219 80.546875 76.769531 C 79.21875 75.914063 78.921875 74.171875 78.921875 72.710938 C 78.917969 69.5625 79.722656 67.398438 81.402344 64.753906 C 81.953125 63.890625 82.816406 61.917969 83.945313 61.699219 C 84.441406 61.597656 84.667969 62.644531 84.816406 62.96875 C 85.351563 64.226563 85.984375 65.320313 87.363281 65.730469 Z M 33.5 60.859375 C 34.074219 60.753906 34.4375 61.546875 34.28125 62.003906 C 34.0625 62.746094 32.683594 64.207031 31.871094 64.269531 C 31.359375 64.269531 30.707031 63.539063 30.964844 63.050781 C 31.222656 62.527344 32.945313 60.933594 33.5 60.859375 Z M 66.257813 60.957031 C 68.402344 60.121094 69.546875 63.351563 67.703125 64.121094 C 65.507813 65.042969 64.257813 61.742188 66.257813 60.957031 Z M 87.574219 65.238281 C 87.460938 65.324219 87.351563 65.230469 87.160156 65.167969 C 86.96875 65.105469 86.519531 64.636719 86.277344 64.359375 C 86.035156 64.082031 85.519531 63.332031 85.519531 63.332031 C 85.519531 63.332031 86.007813 63.492188 86.480469 63.066406 C 86.957031 62.636719 86.976563 62.140625 86.976563 62.140625 C 86.976563 62.140625 87.21875 62.421875 87.503906 63.265625 C 87.652344 63.722656 87.820313 64.597656 87.789063 64.789063 C 87.753906 64.984375 87.6875 65.15625 87.574219 65.238281 Z M 85.351563 61.621094 C 85.691406 61.277344 85.882813 61.414063 86.066406 61.480469 C 86.25 61.546875 86.691406 61.804688 86.691406 61.804688 C 86.691406 61.804688 86.304688 61.75 85.851563 62.15625 C 85.402344 62.558594 85.382813 62.914063 85.382813 62.914063 C 85.382813 62.914063 85.179688 62.484375 85.152344 62.257813 C 85.113281 61.949219 85.007813 61.964844 85.351563 61.621094 Z M 25.347656 69.300781 C 23.496094 68.121094 26.902344 65.484375 28.269531 65.15625 C 30.03125 64.753906 28.789063 66.703125 28.269531 67.121094 C 27.902344 67.429688 27.519531 67.730469 27.136719 68.019531 C 26.550781 68.457031 25.929688 68.855469 25.347656 69.300781 Z M 92.070313 66.703125 L 94.507813 68.007813 L 96.453125 69.464844 C 96.332031 67.230469 94.078125 66.109375 92.070313 66.703125 Z M 80.546875 69.625 L 82.492188 67.027344 C 81.140625 67.117188 80.214844 68.273438 80.546875 69.625 Z M 37.847656 67.40625 C 40.386719 66.984375 39.453125 70.929688 39.28125 72.546875 C 38.984375 75.101563 38.824219 77.617188 38.648438 80.179688 C 38.585938 81.0625 38.175781 82.070313 38.253906 82.9375 C 38.371094 84.398438 39.554688 84.292969 40.023438 85.261719 C 40.445313 86.140625 40.054688 87.707031 39.890625 88.617188 C 39.617188 90.132813 38.765625 94.269531 37.023438 94.734375 C 36.273438 94.949219 35.46875 94.570313 34.761719 94.371094 C 32.972656 93.859375 30.054688 93.507813 29.78125 91.21875 C 29.613281 89.859375 30.164063 88.1875 30.359375 86.832031 C 31.007813 82.320313 32.371094 77.90625 33.605469 73.523438 C 34.277344 71.105469 34.917969 67.894531 37.847656 67.40625 Z M 90.773438 68.488281 L 89.960938 68.488281 C 90.113281 70.621094 92.957031 71.945313 94.832031 72.222656 C 94.828125 71.164063 94.785156 69.335938 93.972656 68.558594 C 93.1875 67.796875 91.03125 66.902344 90.773438 68.488281 Z M 88.5 73.683594 L 87.363281 75.46875 C 90.257813 75.019531 89.148438 72.394531 88.335938 70.597656 C 87.523438 71.375 88.265625 72 88.5 72.871094 C 86.921875 72.632813 85.324219 70.925781 84.277344 69.789063 C 83.914063 69.363281 83.46875 68.269531 82.816406 68.269531 C 80.984375 68.269531 81.316406 71.953125 82.085938 72.835938 C 83.441406 74.386719 86.714844 74.015625 88.5 73.683594 Z M 86.0625 68.328125 C 85.902344 69.40625 87.039063 70.007813 88.011719 70.113281 C 87.929688 69.054688 86.976563 68.652344 86.0625 68.328125 Z M 82.816406 68.976563 L 86.550781 73.195313 C 84.488281 73.195313 81.058594 71.574219 82.816406 68.976563 Z M 91.078125 68.605469 C 91.222656 68.347656 91.542969 68.039063 91.996094 67.992188 C 92.453125 67.992188 92.804688 68.320313 92.804688 68.320313 C 92.804688 68.320313 92.261719 68.464844 91.875 68.894531 C 91.488281 69.324219 91.394531 70.113281 91.394531 70.113281 C 90.941406 70.019531 90.859375 69.0625 91.078125 68.605469 Z M 92.878906 69.871094 C 93.324219 69.4375 93.316406 68.765625 93.316406 68.765625 C 93.316406 68.765625 93.816406 69.132813 94.058594 69.804688 C 94.304688 70.488281 94.515625 71.285156 94.277344 71.523438 C 94.035156 71.765625 93.207031 71.375 92.6875 71.136719 C 92.265625 70.941406 91.75 70.421875 91.75 70.421875 C 91.75 70.421875 92.460938 70.277344 92.878906 69.871094 Z M 22.101563 70.375 C 23.171875 70.320313 22.808594 71.574219 21.941406 71.644531 C 21.027344 71.742188 21.269531 70.4375 22.101563 70.375 Z M 79.691406 81.320313 C 79.308594 81.679688 79.96875 82.15625 80.21875 82.308594 C 80.910156 82.695313 82.492188 83.425781 83.195313 82.65625 C 83.851563 81.9375 80.1875 80.847656 79.691406 81.320313 Z M 72.429688 82.289063 C 73.402344 86.476563 78.257813 88.675781 82.007813 89.554688 C 83.46875 89.917969 85.957031 90.179688 87.039063 88.945313 C 83.722656 88.085938 80.6875 88.132813 77.621094 86.246094 C 75.996094 85.261719 74.292969 82.449219 72.429688 82.289063 Z M 45.796875 89.578125 C 43.441406 98.898438 39.441406 106.539063 33.703125 111.4375 C 31.796875 113.066406 29.789063 113.78125 27.296875 113.78125 C 26.78125 113.78125 25.347656 114.027344 25.132813 113.40625 C 24.847656 112.667969 30.355469 108.132813 32.070313 106.3125 C 35.777344 102.308594 38.441406 97.726563 40.285156 92.679688 C 41.257813 90.050781 42.226563 87.402344 42.234375 84.5625 C 42.871094 84.5625 46.050781 86.324219 45.796875 89.578125 Z M 45.964844 92.191406 L 46.777344 87.320313 L 45.15625 84.722656 C 46.128906 84.988281 46.910156 86.070313 47.914063 86.183594 C 49.539063 86.355469 51.160156 84.410156 52.855469 86.144531 C 53.332031 86.640625 53.148438 87.429688 52.855469 87.96875 C 51.570313 90.332031 49.863281 88.667969 48.238281 89.785156 C 47.320313 90.421875 47.003906 91.867188 45.964844 92.191406 Z M 25.835938 109.398438 C 24.929688 109.109375 27.714844 100.355469 28.269531 98.875 C 28.703125 97.710938 29.40625 95.714844 30.320313 94.847656 C 30.808594 94.375 31.945313 94.53125 32.070313 95.285156 C 32.238281 96.339844 30.988281 97.726563 30.617188 98.683594 C 29.4375 101.71875 28.550781 104.632813 27.765625 107.773438 C 27.539063 108.667969 26.742188 109.6875 25.835938 109.398438 Z M 69.992188 103.933594 C 71.664063 103.605469 73.21875 104.882813 72.429688 106.640625 C 71.996094 107.613281 70.21875 108.601563 69.179688 108.804688 C 68.289063 108.976563 68.113281 107.613281 68.023438 106.964844 C 67.835938 105.601563 68.53125 104.21875 69.992188 103.933594 Z M 71.777344 128.554688 C 71.453125 127.417969 73.019531 125.085938 73.527344 124.007813 C 75.28125 120.292969 77.296875 116.507813 78.710938 112.644531 C 79.1875 111.347656 77.785156 109.898438 78.238281 108.425781 C 78.632813 107.078125 80.324219 106.152344 81.632813 106.847656 C 82.976563 107.582031 82.71875 109.234375 81.808594 110.210938 C 81.164063 110.882813 80.125 111.097656 79.570313 111.863281 C 78.59375 113.203125 78.027344 115.039063 77.335938 116.539063 C 75.507813 120.519531 73.890625 124.726563 71.777344 128.554688 Z M 69.019531 110.046875 L 66.796875 115.566406 L 61.875 126.605469 L 61.714844 126.605469 C 61.929688 124.171875 67.039063 112.5 69.019531 110.046875 Z M 69.019531 112.15625 C 69.019531 112.15625 65.0625 124.996094 62.851563 126.445313 L 66.839844 117.191406 Z M 79.894531 113.132813 L 78.179688 117.515625 L 73.238281 128.230469 L 73.078125 128.230469 C 73.644531 125.035156 75.898438 121.601563 77.246094 118.652344 C 78.054688 116.894531 78.65625 114.632813 79.894531 113.132813 Z M 77.136719 114.269531 L 70.480469 128.878906 L 70.316406 128.878906 C 70.15625 127.683594 71.289063 126.054688 71.820313 124.984375 C 73.039063 122.546875 74.109375 119.988281 75.308594 117.515625 C 75.835938 116.421875 76.191406 115.082031 77.136719 114.269531 Z M 80.058594 115.566406 C 79.734375 118.542969 77.355469 122.101563 76.109375 124.820313 C 75.671875 125.796875 75.285156 127.308594 74.375 127.90625 L 77.984375 119.789063 Z M 69.019531 115.890625 L 66.164063 122.546875 L 64.148438 126.769531 C 63.984375 125.523438 65.070313 123.8125 65.609375 122.710938 C 66.746094 120.515625 67.71875 118.171875 68.695313 115.890625 Z M 80.21875 116.867188 C 80.476563 118.28125 79.785156 119.339844 79.222656 120.601563 C 78.234375 122.824219 76.585938 125.351563 76.160156 127.742188 C 77.570313 127.742188 77.945313 126.824219 78.476563 125.632813 C 79.359375 123.621094 80.851563 121.488281 81.195313 119.300781 L 81.03125 119.300781 L 77.296875 127.417969 L 77.136719 127.417969 C 77.53125 124.738281 79.507813 121.3125 80.867188 118.976563 C 80.867188 118.976563 81.875 119.789063 82.167969 119.789063 C 82.460938 119.789063 83.515625 119.507813 85.671875 118.613281 C 85.957031 118.519531 91.230469 116.867188 90.570313 117.890625 C 90.367188 118.210938 89.5 117.964844 89.148438 118.164063 C 89.148438 118.164063 84.988281 118.863281 85.285156 120.277344 C 85.738281 122.449219 87.640625 124.359375 88.171875 126.605469 C 89.574219 132.289063 88.09375 138.148438 86.765625 143.652344 C 86.15625 146.175781 85.136719 149.011719 83.902344 151.28125 C 83.21875 152.542969 81.816406 153.972656 81.476563 155.339844 C 81.339844 155.882813 81.03125 157.089844 81.164063 157.613281 C 81.320313 158.289063 81.957031 158.949219 81.832031 159.695313 C 81.605469 161.085938 80.425781 161.589844 80.789063 163.296875 C 80.867188 163.683594 81.015625 164.066406 81.171875 164.433594 C 82.167969 166.867188 83.441406 164.652344 85.25 164.039063 C 85.652344 163.902344 86.265625 163.628906 86.660156 163.902344 C 87.792969 164.691406 86.011719 166.703125 85.246094 167.03125 C 84.578125 167.324219 83.273438 167.898438 82.554688 167.578125 C 81.183594 166.976563 80.507813 163.972656 80.410156 162.644531 C 80.355469 161.859375 80.746094 160.980469 80.445313 160.21875 C 80.21875 159.660156 79.570313 159.460938 79.367188 158.910156 C 79.082031 158.230469 79.488281 157.496094 79.304688 156.800781 C 78.921875 155.359375 78.101563 154.042969 77.691406 152.582031 C 76.871094 149.691406 76.636719 146.632813 76.351563 143.652344 C 76.160156 141.722656 76.367188 139.59375 76.484375 137.644531 C 76.554688 136.84375 76.867188 135.859375 76.550781 135.058594 C 76.070313 133.867188 73.726563 134.398438 72.914063 134.886719 L 72.753906 134.886719 C 72.070313 134.613281 71.671875 134.832031 71.453125 135.535156 L 71.289063 135.535156 C 70.804688 134.648438 69.753906 134.902344 69.019531 135.371094 L 67.71875 135.371094 C 66.90625 135.105469 65.445313 135.859375 64.960938 136.507813 C 64.3125 136.285156 63.976563 136.355469 63.5 136.835938 L 59.601563 137.484375 C 60.289063 136.277344 62.425781 136.242188 63.660156 136.023438 C 64.859375 135.777344 67.609375 135.136719 68.367188 134.167969 C 69.179688 133.179688 69.253906 130.84375 69.019531 129.691406 L 69.507813 129.203125 C 70.589844 129.371094 72.953125 128.847656 73.726563 128.066406 L 74.699219 128.390625 L 75.023438 127.742188 L 75.1875 127.742188 L 75.835938 128.066406 C 75.835938 126.445313 76.910156 124.828125 77.59375 123.359375 C 78.597656 121.21875 79.453125 119.066406 80.21875 116.867188 Z M 74.539063 117.027344 L 72.730469 121.25 L 69.019531 129.367188 L 68.855469 129.367188 L 72.359375 121.410156 Z M 22.640625 117.613281 C 23.878906 117.03125 26.808594 119.074219 26.582031 120.4375 C 26.40625 121.488281 25.550781 120.972656 24.945313 121.367188 C 24.617188 121.585938 24.480469 122.015625 24.128906 122.222656 C 22.011719 123.382813 21.089844 118.34375 22.640625 117.613281 Z M 69.179688 117.679688 C 69.0625 119.984375 67.164063 122.742188 66.1875 124.820313 C 65.824219 125.589844 65.546875 126.640625 64.796875 127.09375 C 65.609375 124.214844 67.378906 120.0625 69.179688 117.679688 Z M 82.007813 155.664063 C 82.378906 153.609375 84.441406 151.683594 85.238281 149.660156 C 87.253906 144.464844 88.910156 138.851563 89.296875 133.261719 C 89.46875 130.75 89.394531 128.003906 88.46875 125.632813 C 87.84375 124.039063 86.15625 121.9375 86.003906 120.277344 C 85.894531 119.105469 88.921875 118.5 89.796875 118.574219 C 90.894531 118.671875 91.140625 120.070313 91.402344 120.925781 C 92.183594 123.4375 92.652344 125.957031 92.929688 128.554688 C 93.589844 134.886719 89.652344 146.578125 89.210938 147.710938 C 88.765625 148.84375 85.460938 154.058594 82.007813 155.664063 Z M 91.257813 118.488281 C 94.402344 122.910156 94.488281 130.882813 93.625 136.023438 C 93.304688 137.914063 93.03125 139.839844 92.558594 141.703125 C 92.429688 142.308594 91.910156 143.496094 92.175781 144.09375 C 92.496094 144.828125 93.371094 143.816406 93.589844 143.488281 C 94.546875 142.191406 95.050781 140.566406 95.765625 139.105469 C 98.15625 134.257813 99.789063 128.648438 100.023438 123.199219 L 100.1875 123.199219 C 100.1875 130.691406 97.242188 138.847656 93.242188 145.113281 C 91.726563 147.488281 90.203125 149.949219 87.847656 151.605469 C 91.226563 145.449219 94.503906 133.097656 93.183594 126.1875 C 92.800781 124.183594 91.257813 118.488281 91.257813 118.488281 Z M 72.429688 118.976563 C 71.730469 122.238281 69.476563 125.699219 68.046875 128.71875 L 67.882813 128.71875 L 71.066406 121.574219 Z M 83.46875 118.976563 L 83.46875 119.140625 L 82.980469 119.140625 Z M 69.992188 119.140625 L 66.097656 127.582031 L 66.90625 127.90625 L 69.769531 121.734375 L 71.128906 119.300781 L 67.070313 128.230469 L 66.050781 127.382813 L 67.394531 124.144531 L 69.667969 119.140625 Z M 85.089844 121.746094 C 83.792969 121.917969 81.355469 126.238281 83.46875 126.089844 C 84.804688 125.996094 85.835938 125.191406 86.03125 123.847656 C 86.121094 123.207031 86.109375 121.609375 85.089844 121.746094 Z M 85.253906 122.222656 C 86.21875 124.03125 84.929688 125.398438 83.140625 125.632813 C 83.28125 124.289063 84.117188 122.957031 85.253906 122.222656 Z M 69.019531 130.664063 L 69.019531 130.828125 C 68.34375 131.601563 68.621094 133.363281 67.945313 133.910156 C 65.851563 135.59375 62.085938 135.535156 59.601563 136.433594 C 56.914063 137.429688 54.71875 139.792969 51.8125 140.242188 C 52.75 138.457031 56.398438 138.484375 56.882813 136.355469 C 57.117188 135.332031 55.292969 135.503906 54.734375 135.5625 C 52.09375 135.859375 49.636719 136.847656 46.941406 136.347656 L 46.941406 136.183594 L 55.867188 134.238281 C 55.300781 132.449219 53.859375 133.046875 52.453125 133.101563 C 50.671875 133.132813 48.15625 133.117188 46.453125 132.613281 L 46.453125 132.449219 C 48.34375 131.648438 50.609375 131.800781 52.621094 131.800781 C 53.269531 131.800781 54.789063 131.976563 55.21875 131.382813 C 55.835938 130.589844 53.808594 130.363281 53.433594 130.246094 C 51.304688 129.574219 48.855469 129.203125 46.617188 129.203125 C 46.933594 128.304688 47.945313 128.652344 48.726563 128.59375 C 50.992188 128.425781 53.015625 129.042969 55.21875 129.203125 C 55.953125 129.242188 57.863281 129.480469 57.972656 128.390625 C 58.035156 127.765625 57.269531 127.339844 56.84375 127.039063 C 55.867188 126.363281 54.503906 125.582031 54.40625 124.335938 L 60.089844 127.09375 L 65.609375 128.390625 Z M 81.03125 127.546875 C 78.675781 128.328125 76.152344 128.84375 73.726563 129.367188 C 72.753906 129.570313 71.515625 129.410156 70.671875 129.96875 C 69.667969 130.625 69.113281 132.613281 69.625 133.714844 C 70.128906 134.789063 72.648438 134.121094 73.5625 134.074219 C 76.8125 133.914063 80.21875 133.800781 83.46875 133.382813 C 84.417969 133.265625 86.0625 133.425781 86.804688 132.707031 C 87.851563 131.671875 87.382813 127.351563 86.730469 126.160156 C 86.289063 125.347656 82.257813 127.140625 81.03125 127.546875 Z M 85.894531 126.550781 C 86.496094 126.605469 86.65625 127.257813 86.699219 127.742188 C 86.792969 128.796875 87.238281 131.554688 86.320313 132.3125 C 85.515625 132.96875 83.789063 132.667969 82.804688 132.796875 C 79.792969 133.1875 76.605469 133.347656 73.5625 133.425781 C 72.640625 133.449219 71.242188 133.917969 70.367188 133.488281 C 69.152344 132.890625 70.640625 130.636719 71.453125 130.351563 C 74.421875 129.316406 77.824219 129.222656 80.867188 128.246094 C 82.308594 127.789063 84.371094 126.445313 85.894531 126.550781 Z M 81.519531 134.167969 C 80.292969 134.527344 80.433594 136.609375 80.382813 137.644531 C 80.21875 141.316406 80.382813 145.027344 80.546875 148.683594 C 80.582031 149.363281 80.640625 152.953125 81.746094 152.605469 C 82.734375 152.292969 83.304688 150.058594 83.558594 149.171875 C 83.996094 147.589844 83.304688 145.449219 83.171875 143.816406 C 82.972656 141.738281 83.140625 139.59375 83.140625 137.484375 C 83.140625 136.234375 83.621094 133.550781 81.519531 134.167969 Z M 81.84375 152.09375 C 81.03125 151.605469 81.183594 149.742188 81.078125 148.847656 C 80.679688 145.464844 80.867188 142.027344 80.867188 138.621094 C 80.867188 137.808594 80.683594 135.113281 81.566406 134.722656 C 83.304688 133.914063 82.46875 138.035156 82.5625 138.78125 C 82.804688 140.730469 82.535156 142.683594 82.65625 144.625 C 82.753906 145.828125 83.347656 147.164063 83.214844 148.359375 C 83.066406 149.6875 82.097656 150.816406 81.84375 152.09375 Z M 69.828125 135.210938 L 69.507813 136.183594 L 69.34375 136.183594 Z M 70.96875 135.210938 L 70.804688 136.023438 L 70.640625 136.023438 Z M 67.234375 135.535156 L 66.90625 136.507813 L 66.746094 136.507813 Z M 68.367188 135.535156 L 67.882813 136.996094 L 67.71875 136.996094 Z M 65.933594 136.183594 L 65.933594 136.347656 L 65.445313 136.996094 Z M 64.3125 136.671875 L 63.5 138.621094 L 63.335938 138.621094 Z M 66.746094 136.671875 L 66.585938 137.320313 L 66.421875 137.320313 Z M 62.851563 137.160156 L 62.199219 138.78125 L 62.039063 138.78125 Z M 65.285156 137.160156 L 64.796875 138.457031 L 64.636719 138.457031 Z M 61.550781 137.320313 L 61.0625 138.621094 L 60.902344 138.621094 L 61.226563 137.320313 Z M 60.089844 137.644531 L 60.089844 138.132813 L 59.929688 138.132813 Z M 58.628906 138.296875 L 57.980469 140.082031 L 57.816406 140.082031 Z M 60.902344 138.78125 L 60.738281 138.945313 Z M 57.167969 138.945313 L 56.195313 141.21875 L 56.03125 141.21875 Z M 55.707031 139.59375 L 53.433594 144.789063 L 53.273438 144.789063 C 53.476563 143.433594 54.507813 140.324219 55.707031 139.59375 Z M 82.332031 165.242188 C 81.355469 164.371094 80.382813 159.792969 82.816406 160.222656 C 83.429688 160.332031 86.09375 162.566406 85.710938 163.191406 C 85.488281 163.550781 84.644531 163.621094 84.277344 163.78125 C 83.503906 164.105469 82.882813 164.613281 82.332031 165.242188 Z M 82.332031 165.242188 "/>
<path style=" stroke:none;fill-rule:nonzero;fill:rgb(86.29303%,23.658752%,16.767883%);fill-opacity:1;" d="M 33.261719 134.550781 C 31.707031 137.980469 34.859375 142.433594 34.882813 145.722656 C 37.390625 143.597656 42.820313 143.085938 44.410156 139.671875 C 45.15625 138.058594 44.503906 136.171875 42.96875 135.46875 C 41.425781 134.765625 39.574219 135.496094 38.835938 137.109375 C 39.578125 135.488281 38.929688 133.609375 37.394531 132.910156 C 35.855469 132.199219 34.007813 132.9375 33.261719 134.550781 Z M 33.261719 134.550781 "/>
<path style=" stroke:none;fill-rule:nonzero;fill:rgb(86.29303%,23.658752%,16.767883%);fill-opacity:1;" d="M 46.941406 155.894531 C 44.960938 156.40625 42.976563 156.914063 40.996094 157.425781 C 41.664063 157.222656 42.128906 156.636719 42.578125 156.132813 C 43.5625 154.894531 44.4375 153.542969 45.023438 152.074219 C 45.285156 151.34375 45.546875 150.53125 45.359375 149.75 M 40.996094 157.425781 C 41.863281 157.230469 42.734375 157.589844 43.519531 157.925781 C 44.929688 158.597656 46.226563 159.496094 47.394531 160.53125 C 47.839844 160.96875 48.34375 161.425781 48.523438 162.042969 C 47.996094 159.992188 47.46875 157.945313 46.941406 155.894531 M 48.523438 162.042969 C 48.316406 161.121094 48.667969 160.183594 49.015625 159.339844 C 49.652344 157.929688 50.496094 156.609375 51.496094 155.429688 C 51.894531 155.011719 52.308594 154.53125 52.886719 154.367188 C 50.902344 154.878906 48.921875 155.386719 46.941406 155.894531 M 52.886719 154.367188 C 52.019531 154.5625 51.144531 154.203125 50.359375 153.867188 C 48.953125 153.191406 47.652344 152.296875 46.488281 151.261719 C 46.042969 150.824219 45.535156 150.367188 45.359375 149.75 C 45.886719 151.800781 46.414063 153.847656 46.941406 155.894531 "/>
<path style=" stroke:none;fill-rule:nonzero;fill:rgb(0%,0%,0%);fill-opacity:1;" d="M 69.445313 155.425781 C 68.742188 156.691406 67.113281 157.136719 65.804688 156.410156 C 64.496094 155.6875 64.011719 154.070313 64.714844 152.804688 C 65.414063 151.539063 67.042969 151.097656 68.351563 151.820313 C 69.660156 152.546875 70.144531 154.160156 69.445313 155.425781 Z M 69.445313 155.425781 "/>
<path style=" stroke:none;fill-rule:nonzero;fill:rgb(0%,0%,0%);fill-opacity:1;" d="M 70.085938 161.464844 C 69.382813 162.730469 67.757813 163.171875 66.449219 162.449219 C 65.140625 161.722656 64.652344 160.109375 65.355469 158.839844 C 66.058594 157.574219 67.683594 157.132813 68.992188 157.855469 C 70.300781 158.582031 70.789063 160.195313 70.085938 161.464844 Z M 70.085938 161.464844 "/>
<path style=" stroke:none;fill-rule:nonzero;fill:rgb(0%,0%,0%);fill-opacity:1;" d="M 64.019531 158.117188 C 63.761719 158.578125 63.382813 158.9375 62.9375 159.164063 C 62.171875 159.554688 61.207031 159.558594 60.382813 159.101563 C 59.074219 158.378906 58.585938 156.761719 59.289063 155.496094 C 59.988281 154.230469 61.617188 153.785156 62.925781 154.511719 C 64.234375 155.238281 64.722656 156.851563 64.019531 158.117188 Z M 64.019531 158.117188 "/>
<path style=" stroke:none;fill-rule:nonzero;fill:rgb(0%,0%,0%);fill-opacity:1;" d="M 64.96875 164.472656 C 63.800781 163.824219 63.714844 162.53125 63.917969 161.402344 C 64.125 160.273438 64.621094 159.304688 64.621094 159.304688 L 64.023438 158.972656 C 64.023438 158.972656 61.804688 162.707031 59.464844 161.421875 Z M 64.96875 164.472656 "/>
<path style=" stroke:none;fill-rule:nonzero;fill:rgb(0%,0%,0%);fill-opacity:1;" d="M 64.539063 154.914063 C 65.132813 156.980469 64.027344 158.976563 64.027344 158.976563 L 64.621094 159.3125 C 64.621094 159.3125 65.746094 157.273438 67.761719 156.699219 "/>
<path style=" stroke:none;fill-rule:nonzero;fill:rgb(0%,0%,0%);fill-opacity:1;" d="M 62.441406 159.328125 C 64.507813 158.738281 66.503906 159.84375 66.503906 159.84375 L 66.832031 159.246094 C 66.832031 159.246094 64.796875 158.117188 64.21875 156.105469 "/>
<path style=" stroke:none;fill-rule:nonzero;fill:rgb(0%,0%,0%);fill-opacity:1;" d="M 65.105469 160.816406 C 64.511719 158.746094 62.515625 157.644531 62.515625 157.644531 L 62.847656 157.046875 C 62.847656 157.046875 64.882813 158.175781 66.894531 157.601563 "/>
<path style=" stroke:none;fill-rule:nonzero;fill:rgb(0%,0%,0%);fill-opacity:1;" d="M 50.601563 124.933594 C 49.316406 125.300781 48.246094 124.128906 47.5 122.863281 C 46.75 121.597656 46.324219 120.238281 46.324219 120.238281 L 45.671875 120.417969 C 45.671875 120.417969 47.128906 125.933594 44.558594 126.675781 Z M 50.601563 124.933594 "/>
<path style=" stroke:none;fill-rule:nonzero;fill:rgb(0%,0%,0%);fill-opacity:1;" d="M 51.195313 118.824219 C 50.421875 116.160156 45.859375 115.378906 44.074219 113.613281 C 43.507813 116.0625 40.0625 119.15625 40.820313 121.816406 C 41.183594 123.078125 42.640625 123.765625 44.078125 123.351563 C 45.507813 122.9375 46.371094 121.582031 46.007813 120.320313 C 46.371094 121.582031 47.828125 122.269531 49.265625 121.855469 C 50.699219 121.441406 51.558594 120.085938 51.195313 118.824219 Z M 51.195313 118.824219 "/>
<path style=" stroke:none;fill-rule:nonzero;fill:rgb(86.29303%,23.658752%,16.767883%);fill-opacity:1;" d="M 6.765625 25.238281 L 6.765625 22.875 L 7.335938 22.875 C 7.355469 23.503906 7.421875 23.96875 7.53125 24.261719 C 7.644531 24.558594 7.8125 24.703125 8.039063 24.703125 C 8.320313 24.703125 8.519531 24.453125 8.632813 23.949219 C 8.746094 23.453125 8.804688 22.519531 8.804688 21.144531 L 8.804688 7.839844 L 7.847656 7.839844 L 7.847656 6.621094 L 11.347656 6.621094 L 11.347656 7.839844 L 10.507813 7.839844 L 10.507813 21.226563 C 10.507813 22.855469 10.328125 24.042969 9.964844 24.796875 C 9.609375 25.546875 9.035156 25.921875 8.253906 25.921875 C 8.011719 25.921875 7.765625 25.863281 7.519531 25.75 C 7.269531 25.636719 7.019531 25.464844 6.765625 25.238281 "/>
<path style=" stroke:none;fill-rule:nonzero;fill:rgb(86.29303%,23.658752%,16.767883%);fill-opacity:1;" d="M 15.613281 20.710938 C 16.171875 20.710938 16.589844 20.171875 16.863281 19.09375 C 17.136719 18.011719 17.273438 16.363281 17.273438 14.144531 C 17.273438 11.917969 17.136719 10.265625 16.863281 9.1875 C 16.589844 8.105469 16.171875 7.566406 15.613281 7.566406 C 15.054688 7.566406 14.636719 8.113281 14.359375 9.207031 C 14.089844 10.292969 13.953125 11.9375 13.953125 14.144531 C 13.953125 16.34375 14.089844 17.988281 14.359375 19.082031 C 14.636719 20.167969 15.054688 20.710938 15.613281 20.710938 M 15.613281 21.929688 C 14.503906 21.929688 13.636719 21.238281 13.007813 19.855469 C 12.382813 18.476563 12.066406 16.570313 12.066406 14.144531 C 12.066406 11.71875 12.382813 9.8125 13.007813 8.433594 C 13.640625 7.046875 14.507813 6.351563 15.613281 6.351563 C 16.71875 6.351563 17.585938 7.039063 18.214844 8.421875 C 18.84375 9.804688 19.15625 11.710938 19.15625 14.144531 C 19.15625 16.570313 18.839844 18.476563 18.210938 19.855469 C 17.582031 21.238281 16.714844 21.929688 15.613281 21.929688 "/>
<path style=" stroke:none;fill-rule:nonzero;fill:rgb(86.29303%,23.658752%,16.767883%);fill-opacity:1;" d="M 19.96875 21.636719 L 19.96875 20.421875 L 20.808594 20.421875 L 20.808594 7.839844 L 19.96875 7.839844 L 19.96875 6.621094 L 23.347656 6.621094 L 23.347656 7.839844 L 22.503906 7.839844 L 22.503906 13.320313 L 25.289063 7.839844 L 24.585938 7.839844 L 24.585938 6.621094 L 27.039063 6.621094 L 27.039063 7.839844 L 26.164063 7.839844 L 23.804688 12.476563 L 27.011719 20.421875 L 27.660156 20.421875 L 27.660156 21.636719 L 25.433594 21.636719 L 22.503906 14.347656 L 22.503906 20.421875 L 23.347656 20.421875 L 23.347656 21.636719 L 19.96875 21.636719 "/>
<path style=" stroke:none;fill-rule:nonzero;fill:rgb(86.29303%,23.658752%,16.767883%);fill-opacity:1;" d="M 27.804688 21.636719 L 27.804688 20.421875 L 28.648438 20.421875 L 28.648438 7.839844 L 27.804688 7.839844 L 27.804688 6.621094 L 33.714844 6.621094 L 33.714844 10.160156 L 33.109375 10.160156 L 33.109375 8 L 30.34375 8 L 30.34375 12.816406 L 32.0625 12.816406 L 32.0625 10.90625 L 32.667969 10.90625 L 32.667969 16.097656 L 32.0625 16.097656 L 32.0625 14.183594 L 30.34375 14.183594 L 30.34375 20.257813 L 33.191406 20.257813 L 33.191406 18.097656 L 33.796875 18.097656 L 33.796875 21.636719 L 27.804688 21.636719 "/>
<path style=" stroke:none;fill-rule:nonzero;fill:rgb(86.29303%,23.658752%,16.767883%);fill-opacity:1;" d="M 39.039063 14.304688 C 39.300781 14.394531 39.519531 14.589844 39.699219 14.898438 C 39.878906 15.207031 40.035156 15.652344 40.167969 16.234375 L 41.128906 20.421875 L 41.800781 20.421875 L 41.800781 21.636719 L 39.636719 21.636719 L 38.589844 17.101563 C 38.386719 16.164063 38.214844 15.566406 38.070313 15.3125 C 37.929688 15.050781 37.734375 14.917969 37.480469 14.917969 L 37.210938 14.917969 L 37.210938 20.421875 L 38.058594 20.421875 L 38.058594 21.636719 L 34.675781 21.636719 L 34.675781 20.421875 L 35.515625 20.421875 L 35.515625 7.839844 L 34.675781 7.839844 L 34.675781 6.621094 L 38.425781 6.621094 C 39.191406 6.621094 39.777344 6.972656 40.191406 7.679688 C 40.609375 8.375 40.816406 9.367188 40.816406 10.65625 C 40.816406 11.699219 40.671875 12.527344 40.375 13.140625 C 40.078125 13.742188 39.636719 14.132813 39.039063 14.304688 M 37.210938 13.710938 L 37.789063 13.710938 C 38.199219 13.710938 38.515625 13.457031 38.734375 12.949219 C 38.960938 12.4375 39.070313 11.710938 39.070313 10.765625 C 39.070313 9.820313 38.960938 9.097656 38.734375 8.59375 C 38.515625 8.089844 38.199219 7.839844 37.789063 7.839844 L 37.210938 7.839844 L 37.210938 13.710938 "/>
<path style=" stroke:none;fill-rule:nonzero;fill:rgb(86.29303%,23.658752%,16.767883%);fill-opacity:1;" d="M 128.445313 170.304688 L 128.445313 172.667969 L 127.871094 172.667969 C 127.855469 172.039063 127.789063 171.574219 127.679688 171.28125 C 127.566406 170.984375 127.394531 170.839844 127.171875 170.839844 C 126.886719 170.839844 126.691406 171.089844 126.578125 171.59375 C 126.464844 172.089844 126.40625 173.023438 126.40625 174.398438 L 126.40625 187.703125 L 127.363281 187.703125 L 127.363281 188.921875 L 123.863281 188.921875 L 123.863281 187.703125 L 124.703125 187.703125 L 124.703125 174.316406 C 124.703125 172.6875 124.882813 171.5 125.242188 170.746094 C 125.601563 169.996094 126.171875 169.621094 126.957031 169.621094 C 127.199219 169.621094 127.445313 169.679688 127.691406 169.792969 C 127.9375 169.90625 128.191406 170.078125 128.445313 170.304688 "/>
<path style=" stroke:none;fill-rule:nonzero;fill:rgb(86.29303%,23.658752%,16.767883%);fill-opacity:1;" d="M 119.597656 174.832031 C 119.039063 174.832031 118.621094 175.371094 118.347656 176.449219 C 118.074219 177.53125 117.9375 179.179688 117.9375 181.398438 C 117.9375 183.625 118.074219 185.277344 118.347656 186.355469 C 118.621094 187.433594 119.039063 187.976563 119.597656 187.976563 C 120.15625 187.976563 120.574219 187.429688 120.847656 186.335938 C 121.121094 185.25 121.257813 183.605469 121.257813 181.398438 C 121.257813 179.199219 121.121094 177.554688 120.847656 176.460938 C 120.574219 175.375 120.15625 174.832031 119.597656 174.832031 M 119.597656 173.613281 C 120.707031 173.613281 121.574219 174.304688 122.199219 175.6875 C 122.828125 177.066406 123.144531 178.972656 123.144531 181.398438 C 123.144531 183.824219 122.828125 185.730469 122.199219 187.109375 C 121.570313 188.496094 120.703125 189.191406 119.597656 189.191406 C 118.492188 189.191406 117.625 188.5 116.996094 187.121094 C 116.367188 185.738281 116.054688 183.832031 116.054688 181.398438 C 116.054688 178.972656 116.367188 177.066406 117 175.6875 C 117.628906 174.304688 118.496094 173.613281 119.597656 173.613281 "/>
<path style=" stroke:none;fill-rule:nonzero;fill:rgb(86.29303%,23.658752%,16.767883%);fill-opacity:1;" d="M 115.242188 173.90625 L 115.242188 175.121094 L 114.402344 175.121094 L 114.402344 187.703125 L 115.242188 187.703125 L 115.242188 188.921875 L 111.863281 188.921875 L 111.863281 187.703125 L 112.707031 187.703125 L 112.707031 182.222656 L 109.921875 187.703125 L 110.625 187.703125 L 110.625 188.921875 L 108.171875 188.921875 L 108.171875 187.703125 L 109.046875 187.703125 L 111.40625 183.066406 L 108.199219 175.121094 L 107.550781 175.121094 L 107.550781 173.90625 L 109.777344 173.90625 L 112.707031 181.195313 L 112.707031 175.121094 L 111.863281 175.121094 L 111.863281 173.90625 L 115.242188 173.90625 "/>
<path style=" stroke:none;fill-rule:nonzero;fill:rgb(86.29303%,23.658752%,16.767883%);fill-opacity:1;" d="M 107.40625 173.90625 L 107.40625 175.121094 L 106.5625 175.121094 L 106.5625 187.703125 L 107.40625 187.703125 L 107.40625 188.921875 L 101.496094 188.921875 L 101.496094 185.382813 L 102.101563 185.382813 L 102.101563 187.542969 L 104.867188 187.542969 L 104.867188 182.726563 L 103.148438 182.726563 L 103.148438 184.636719 L 102.542969 184.636719 L 102.542969 179.445313 L 103.148438 179.445313 L 103.148438 181.359375 L 104.867188 181.359375 L 104.867188 175.285156 L 102.019531 175.285156 L 102.019531 177.445313 L 101.414063 177.445313 L 101.414063 173.90625 L 107.40625 173.90625 "/>
<path style=" stroke:none;fill-rule:nonzero;fill:rgb(86.29303%,23.658752%,16.767883%);fill-opacity:1;" d="M 96.171875 181.238281 C 95.910156 181.148438 95.691406 180.953125 95.511719 180.644531 C 95.332031 180.335938 95.175781 179.890625 95.042969 179.304688 L 94.085938 175.121094 L 93.410156 175.121094 L 93.410156 173.90625 L 95.570313 173.90625 L 96.621094 178.441406 C 96.824219 179.378906 96.996094 179.976563 97.140625 180.230469 C 97.28125 180.492188 97.476563 180.625 97.730469 180.625 L 98 180.625 L 98 175.121094 L 97.152344 175.121094 L 97.152344 173.90625 L 100.535156 173.90625 L 100.535156 175.121094 L 99.695313 175.121094 L 99.695313 187.703125 L 100.535156 187.703125 L 100.535156 188.921875 L 96.78125 188.921875 C 96.019531 188.921875 95.433594 188.566406 95.019531 187.863281 C 94.601563 187.167969 94.390625 186.175781 94.390625 184.886719 C 94.390625 183.84375 94.539063 183.015625 94.835938 182.402344 C 95.132813 181.800781 95.574219 181.410156 96.171875 181.238281 M 98 181.832031 L 97.421875 181.832031 C 97.011719 181.832031 96.695313 182.085938 96.476563 182.59375 C 96.253906 183.105469 96.140625 183.832031 96.140625 184.777344 C 96.140625 185.722656 96.253906 186.445313 96.476563 186.949219 C 96.695313 187.453125 97.011719 187.703125 97.421875 187.703125 L 98 187.703125 L 98 181.832031 "/>
</g>
</svg>
