<?xml version="1.0" encoding="UTF-8"?>
<svg xmlns="http://www.w3.org/2000/svg" xmlns:xlink="http://www.w3.org/1999/xlink" width="135.21pt" height="195.639pt" viewBox="0 0 135.21 195.639" version="1.1">
<g id="surface1">
<path style=" stroke:none;fill-rule:nonzero;fill:rgb(100%,100%,100%);fill-opacity:1;" d="M 1 189.097656 C 1 192.121094 3.472656 194.589844 6.492188 194.589844 L 128.722656 194.589844 C 131.738281 194.589844 134.210938 192.121094 134.210938 189.097656 L 134.210938 6.445313 C 134.210938 3.421875 131.738281 0.949219 128.722656 0.949219 L 6.492188 0.949219 C 3.472656 0.949219 1 3.421875 1 6.445313 Z M 1 189.097656 "/>
<path style="fill:none;stroke-width:1.999;stroke-linecap:butt;stroke-linejoin:miter;stroke:rgb(0%,0%,0%);stroke-opacity:1;stroke-miterlimit:10;" d="M 1 6.541344 C 1 3.517906 3.472656 1.049156 6.492188 1.049156 L 128.722656 1.049156 C 131.738281 1.049156 134.210938 3.517906 134.210938 6.541344 L 134.210938 189.193687 C 134.210938 192.217125 131.738281 194.689781 128.722656 194.689781 L 6.492188 194.689781 C 3.472656 194.689781 1 192.217125 1 189.193687 Z M 1 6.541344 " transform="matrix(1,0,0,-1,0,195.639)"/>
<path style=" stroke:none;fill-rule:nonzero;fill:rgb(86.29303%,23.658752%,16.767883%);fill-opacity:1;" d="M 4.046875 29.863281 L 4.046875 27.714844 L 5.203125 27.714844 L 10.53125 3.355469 L 12.796875 3.355469 L 18.132813 27.714844 L 19.480469 27.714844 L 19.480469 29.863281 L 12.851563 29.863281 L 12.851563 27.714844 L 14.238281 27.714844 L 13.070313 22.296875 L 7.753906 22.296875 L 6.566406 27.714844 L 8.257813 27.714844 L 8.257813 29.863281 L 4.046875 29.863281 M 8.21875 20.148438 L 12.605469 20.148438 L 10.425781 10.011719 L 8.21875 20.148438 "/>
<path style=" stroke:none;fill-rule:nonzero;fill:rgb(86.29303%,23.658752%,16.767883%);fill-opacity:1;" d="M 131.964844 164.882813 L 131.964844 167.03125 L 130.808594 167.03125 L 125.480469 191.390625 L 123.214844 191.390625 L 117.878906 167.03125 L 116.53125 167.03125 L 116.53125 164.882813 L 123.15625 164.882813 L 123.15625 167.03125 L 121.773438 167.03125 L 122.9375 172.445313 L 128.257813 172.445313 L 129.441406 167.03125 L 127.753906 167.03125 L 127.753906 164.882813 L 131.964844 164.882813 M 127.792969 174.59375 L 123.402344 174.59375 L 125.585938 184.730469 L 127.792969 174.59375 "/>
<path style=" stroke:none;fill-rule:nonzero;fill:rgb(86.29303%,23.658752%,16.767883%);fill-opacity:1;" d="M 18.050781 37.914063 C 18.042969 41.683594 13.324219 44.425781 11.941406 47.40625 C 10.539063 44.433594 5.8125 41.714844 5.78125 37.945313 C 5.773438 36.171875 7.148438 34.722656 8.835938 34.722656 C 10.53125 34.722656 11.914063 36.15625 11.914063 37.929688 C 11.914063 36.148438 13.28125 34.707031 14.972656 34.707031 C 16.664063 34.699219 18.042969 36.140625 18.050781 37.914063 Z M 18.050781 37.914063 "/>
<path style=" stroke:none;fill-rule:nonzero;fill:rgb(86.29303%,23.658752%,16.767883%);fill-opacity:1;" d="M 117.960938 156.828125 C 117.96875 153.0625 122.6875 150.320313 124.070313 147.335938 C 125.46875 150.3125 130.195313 153.03125 130.226563 156.796875 C 130.234375 158.570313 128.859375 160.019531 127.171875 160.019531 C 125.476563 160.019531 124.09375 158.589844 124.09375 156.8125 C 124.09375 158.597656 122.726563 160.035156 121.039063 160.035156 C 119.34375 160.042969 117.96875 158.605469 117.960938 156.828125 Z M 117.960938 156.828125 "/>
<path style=" stroke:none;fill-rule:nonzero;fill:rgb(86.29303%,23.658752%,16.767883%);fill-opacity:1;" d="M 82.726563 84.335938 C 82.707031 93.375 71.382813 99.960938 68.0625 107.117188 C 64.703125 99.976563 53.359375 93.453125 53.285156 84.410156 C 53.265625 80.152344 56.566406 76.679688 60.617188 76.679688 C 64.683594 76.679688 68.003906 80.113281 68.003906 84.375 C 68.003906 80.09375 71.285156 76.640625 75.335938 76.640625 C 79.40625 76.621094 82.707031 80.074219 82.726563 84.335938 Z M 82.726563 84.335938 "/>
</g>
</svg>
