<?xml version="1.0" encoding="UTF-8"?>
<svg xmlns="http://www.w3.org/2000/svg" xmlns:xlink="http://www.w3.org/1999/xlink" width="135.21pt" height="195.639pt" viewBox="0 0 135.21 195.639" version="1.1">
<g id="surface1">
<path style=" stroke:none;fill-rule:nonzero;fill:rgb(100%,100%,100%);fill-opacity:1;" d="M 1 189.097656 C 1 192.121094 3.472656 194.589844 6.492188 194.589844 L 128.722656 194.589844 C 131.738281 194.589844 134.210938 192.121094 134.210938 189.097656 L 134.210938 6.445313 C 134.210938 3.421875 131.738281 0.949219 128.722656 0.949219 L 6.492188 0.949219 C 3.472656 0.949219 1 3.421875 1 6.445313 Z M 1 189.097656 "/>
<path style="fill:none;stroke-width:1.999;stroke-linecap:butt;stroke-linejoin:miter;stroke:rgb(0%,0%,0%);stroke-opacity:1;stroke-miterlimit:10;" d="M 1 6.541344 C 1 3.517906 3.472656 1.049156 6.492188 1.049156 L 128.722656 1.049156 C 131.738281 1.049156 134.210938 3.517906 134.210938 6.541344 L 134.210938 189.193687 C 134.210938 192.217125 131.738281 194.689781 128.722656 194.689781 L 6.492188 194.689781 C 3.472656 194.689781 1 192.217125 1 189.193687 Z M 1 6.541344 " transform="matrix(1,0,0,-1,0,195.639)"/>
<path style=" stroke:none;fill-rule:nonzero;fill:rgb(0%,0%,0%);fill-opacity:1;" d="M 4.046875 29.863281 L 4.046875 27.714844 L 5.203125 27.714844 L 10.53125 3.355469 L 12.796875 3.355469 L 18.132813 27.714844 L 19.480469 27.714844 L 19.480469 29.863281 L 12.851563 29.863281 L 12.851563 27.714844 L 14.238281 27.714844 L 13.070313 22.300781 L 7.753906 22.300781 L 6.566406 27.714844 L 8.257813 27.714844 L 8.257813 29.863281 L 4.046875 29.863281 M 8.21875 20.152344 L 12.605469 20.152344 L 10.425781 10.011719 L 8.21875 20.152344 "/>
<path style=" stroke:none;fill-rule:nonzero;fill:rgb(0%,0%,0%);fill-opacity:1;" d="M 131.964844 164.882813 L 131.964844 167.03125 L 130.808594 167.03125 L 125.480469 191.390625 L 123.214844 191.390625 L 117.878906 167.03125 L 116.53125 167.03125 L 116.53125 164.882813 L 123.15625 164.882813 L 123.15625 167.03125 L 121.773438 167.03125 L 122.9375 172.445313 L 128.257813 172.445313 L 129.441406 167.03125 L 127.753906 167.03125 L 127.753906 164.882813 L 131.964844 164.882813 M 127.792969 174.59375 L 123.402344 174.59375 L 125.585938 184.730469 L 127.792969 174.59375 "/>
<path style=" stroke:none;fill-rule:nonzero;fill:rgb(0%,0%,0%);fill-opacity:1;" d="M 8.78125 47.402344 C 10.117188 47.402344 10.820313 45.976563 11.1875 44.554688 C 11.554688 43.128906 11.589844 41.707031 11.589844 41.707031 L 12.269531 41.699219 C 12.269531 41.699219 12.394531 47.402344 15.066406 47.402344 Z M 8.78125 47.402344 "/>
<path style=" stroke:none;fill-rule:nonzero;fill:rgb(0%,0%,0%);fill-opacity:1;" d="M 6.519531 41.699219 C 6.527344 38.925781 10.691406 36.90625 11.914063 34.71875 C 13.140625 36.914063 17.304688 38.933594 17.3125 41.699219 C 17.3125 43.011719 16.105469 44.074219 14.609375 44.074219 C 13.121094 44.074219 11.914063 43.011719 11.914063 41.699219 C 11.914063 43.011719 10.707031 44.074219 9.214844 44.074219 C 7.71875 44.074219 6.519531 43.011719 6.519531 41.699219 Z M 6.519531 41.699219 "/>
<path style=" stroke:none;fill-rule:nonzero;fill:rgb(0%,0%,0%);fill-opacity:1;" d="M 127.230469 147.34375 C 125.894531 147.34375 125.191406 148.769531 124.820313 150.191406 C 124.453125 151.613281 124.421875 153.039063 124.421875 153.039063 L 123.742188 153.046875 C 123.742188 153.046875 123.613281 147.34375 120.941406 147.34375 Z M 127.230469 147.34375 "/>
<path style=" stroke:none;fill-rule:nonzero;fill:rgb(0%,0%,0%);fill-opacity:1;" d="M 129.492188 153.046875 C 129.484375 155.820313 125.316406 157.835938 124.09375 160.027344 C 122.871094 157.828125 118.703125 155.8125 118.695313 153.046875 C 118.695313 151.734375 119.902344 150.671875 121.398438 150.671875 C 122.886719 150.671875 124.09375 151.734375 124.09375 153.046875 C 124.09375 151.734375 125.300781 150.671875 126.796875 150.671875 C 128.292969 150.671875 129.492188 151.734375 129.492188 153.046875 Z M 129.492188 153.046875 "/>
<path style=" stroke:none;fill-rule:nonzero;fill:rgb(0%,0%,0%);fill-opacity:1;" d="M 60.480469 107.097656 C 63.6875 107.097656 65.375 103.683594 66.257813 100.265625 C 67.140625 96.847656 67.21875 93.433594 67.21875 93.433594 L 68.851563 93.414063 C 68.851563 93.414063 69.15625 107.097656 75.566406 107.097656 Z M 60.480469 107.097656 "/>
<path style=" stroke:none;fill-rule:nonzero;fill:rgb(0%,0%,0%);fill-opacity:1;" d="M 55.050781 93.414063 C 55.070313 86.753906 65.070313 81.917969 68.003906 76.65625 C 70.941406 81.9375 80.941406 86.773438 80.960938 93.414063 C 80.960938 96.5625 78.0625 99.113281 74.472656 99.113281 C 70.902344 99.113281 68.003906 96.5625 68.003906 93.414063 C 68.003906 96.5625 65.105469 99.113281 61.519531 99.113281 C 57.929688 99.113281 55.050781 96.5625 55.050781 93.414063 Z M 55.050781 93.414063 "/>
</g>
</svg>
