<?xml version="1.0" encoding="UTF-8"?>
<svg xmlns="http://www.w3.org/2000/svg" xmlns:xlink="http://www.w3.org/1999/xlink" width="135.21pt" height="195.639pt" viewBox="0 0 135.21 195.639" version="1.1">
<g id="surface1">
<path style=" stroke:none;fill-rule:nonzero;fill:rgb(100%,100%,100%);fill-opacity:1;" d="M 1 189.097656 C 1 192.121094 3.472656 194.59375 6.492188 194.59375 L 128.722656 194.59375 C 131.738281 194.59375 134.210938 192.121094 134.210938 189.097656 L 134.210938 6.445313 C 134.210938 3.421875 131.738281 0.953125 128.722656 0.953125 L 6.492188 0.953125 C 3.472656 0.953125 1 3.421875 1 6.445313 Z M 1 189.097656 "/>
<path style="fill:none;stroke-width:1.999;stroke-linecap:butt;stroke-linejoin:miter;stroke:rgb(0%,0%,0%);stroke-opacity:1;stroke-miterlimit:10;" d="M 1 6.541344 C 1 3.517906 3.472656 1.04525 6.492188 1.04525 L 128.722656 1.04525 C 131.738281 1.04525 134.210938 3.517906 134.210938 6.541344 L 134.210938 189.193687 C 134.210938 192.217125 131.738281 194.685875 128.722656 194.685875 L 6.492188 194.685875 C 3.472656 194.685875 1 192.217125 1 189.193687 Z M 1 6.541344 " transform="matrix(1,0,0,-1,0,195.639)"/>
<path style=" stroke:none;fill-rule:nonzero;fill:rgb(0%,0%,0%);fill-opacity:1;" d="M 4.046875 29.863281 L 4.046875 27.714844 L 5.203125 27.714844 L 10.53125 3.355469 L 12.796875 3.355469 L 18.132813 27.714844 L 19.480469 27.714844 L 19.480469 29.863281 L 12.851563 29.863281 L 12.851563 27.714844 L 14.238281 27.714844 L 13.070313 22.300781 L 7.753906 22.300781 L 6.566406 27.714844 L 8.257813 27.714844 L 8.257813 29.863281 L 4.046875 29.863281 M 8.21875 20.152344 L 12.605469 20.152344 L 10.425781 10.015625 L 8.21875 20.152344 "/>
<path style=" stroke:none;fill-rule:nonzero;fill:rgb(0%,0%,0%);fill-opacity:1;" d="M 131.964844 164.882813 L 131.964844 167.03125 L 130.808594 167.03125 L 125.480469 191.390625 L 123.214844 191.390625 L 117.878906 167.03125 L 116.53125 167.03125 L 116.53125 164.882813 L 123.15625 164.882813 L 123.15625 167.03125 L 121.773438 167.03125 L 122.9375 172.445313 L 128.257813 172.445313 L 129.441406 167.03125 L 127.753906 167.03125 L 127.753906 164.882813 L 131.964844 164.882813 M 127.792969 174.59375 L 123.402344 174.59375 L 125.585938 184.730469 L 127.792969 174.59375 "/>
<path style=" stroke:none;fill-rule:nonzero;fill:rgb(0%,0%,0%);fill-opacity:1;" d="M 9.238281 37.332031 C 9.238281 38.78125 10.445313 39.953125 11.941406 39.953125 C 13.433594 39.953125 14.644531 38.78125 14.644531 37.332031 C 14.644531 35.886719 13.433594 34.710938 11.941406 34.710938 C 10.445313 34.710938 9.238281 35.886719 9.238281 37.332031 Z M 9.238281 37.332031 "/>
<path style=" stroke:none;fill-rule:nonzero;fill:rgb(0%,0%,0%);fill-opacity:1;" d="M 5.75 42.300781 C 5.75 43.746094 6.957031 44.921875 8.453125 44.921875 C 9.949219 44.921875 11.15625 43.746094 11.15625 42.300781 C 11.15625 40.851563 9.949219 39.675781 8.453125 39.675781 C 6.957031 39.675781 5.75 40.851563 5.75 42.300781 Z M 5.75 42.300781 "/>
<path style=" stroke:none;fill-rule:nonzero;fill:rgb(0%,0%,0%);fill-opacity:1;" d="M 12.675781 42.316406 C 12.675781 42.84375 12.835938 43.339844 13.113281 43.753906 C 13.59375 44.464844 14.433594 44.9375 15.378906 44.9375 C 16.875 44.9375 18.082031 43.761719 18.082031 42.316406 C 18.082031 40.867188 16.875 39.691406 15.378906 39.691406 C 13.882813 39.691406 12.675781 40.867188 12.675781 42.316406 Z M 12.675781 42.316406 "/>
<path style=" stroke:none;fill-rule:nonzero;fill:rgb(0%,0%,0%);fill-opacity:1;" d="M 8.765625 47.410156 C 10.101563 47.410156 10.804688 46.320313 11.171875 45.234375 C 11.539063 44.144531 11.570313 43.058594 11.570313 43.058594 L 12.261719 43.058594 C 12.261719 43.058594 12.386719 47.402344 15.058594 47.410156 Z M 8.765625 47.410156 "/>
<path style=" stroke:none;fill-rule:nonzero;fill:rgb(0%,0%,0%);fill-opacity:1;" d="M 13.769531 39.261719 C 12.253906 40.777344 12.253906 43.058594 12.253906 43.058594 L 11.570313 43.066406 C 11.570313 43.066406 11.570313 40.738281 10.09375 39.261719 "/>
<path style=" stroke:none;fill-rule:nonzero;fill:rgb(0%,0%,0%);fill-opacity:1;" d="M 13.46875 44.136719 C 11.949219 42.617188 9.667969 42.617188 9.667969 42.617188 L 9.667969 41.9375 C 9.667969 41.9375 11.996094 41.9375 13.476563 40.460938 "/>
<path style=" stroke:none;fill-rule:nonzero;fill:rgb(0%,0%,0%);fill-opacity:1;" d="M 10.421875 44.144531 C 11.941406 42.628906 14.21875 42.628906 14.21875 42.628906 L 14.21875 41.945313 C 14.21875 41.945313 11.890625 41.945313 10.410156 40.46875 "/>
<path style=" stroke:none;fill-rule:nonzero;fill:rgb(0%,0%,0%);fill-opacity:1;" d="M 126.773438 157.414063 C 126.773438 155.964844 125.566406 154.789063 124.070313 154.789063 C 122.574219 154.789063 121.367188 155.964844 121.367188 157.414063 C 121.367188 158.859375 122.574219 160.035156 124.070313 160.035156 C 125.566406 160.035156 126.773438 158.859375 126.773438 157.414063 Z M 126.773438 157.414063 "/>
<path style=" stroke:none;fill-rule:nonzero;fill:rgb(0%,0%,0%);fill-opacity:1;" d="M 130.261719 152.445313 C 130.261719 151 129.050781 149.824219 127.558594 149.824219 C 126.0625 149.824219 124.855469 151 124.855469 152.445313 C 124.855469 153.894531 126.0625 155.070313 127.558594 155.070313 C 129.050781 155.070313 130.261719 153.894531 130.261719 152.445313 Z M 130.261719 152.445313 "/>
<path style=" stroke:none;fill-rule:nonzero;fill:rgb(0%,0%,0%);fill-opacity:1;" d="M 123.335938 152.429688 C 123.335938 151.902344 123.175781 151.40625 122.894531 150.992188 C 122.414063 150.28125 121.574219 149.808594 120.632813 149.808594 C 119.136719 149.808594 117.929688 150.984375 117.929688 152.429688 C 117.929688 153.878906 119.136719 155.054688 120.632813 155.054688 C 122.128906 155.054688 123.335938 153.878906 123.335938 152.429688 Z M 123.335938 152.429688 "/>
<path style=" stroke:none;fill-rule:nonzero;fill:rgb(0%,0%,0%);fill-opacity:1;" d="M 127.246094 147.335938 C 125.910156 147.335938 125.207031 148.425781 124.839844 149.511719 C 124.46875 150.601563 124.4375 151.6875 124.4375 151.6875 L 123.75 151.6875 C 123.75 151.6875 123.621094 147.34375 120.949219 147.335938 Z M 127.246094 147.335938 "/>
<path style=" stroke:none;fill-rule:nonzero;fill:rgb(0%,0%,0%);fill-opacity:1;" d="M 122.238281 155.484375 C 123.757813 153.96875 123.757813 151.6875 123.757813 151.6875 L 124.4375 151.679688 C 124.4375 151.679688 124.4375 154.007813 125.917969 155.484375 "/>
<path style=" stroke:none;fill-rule:nonzero;fill:rgb(0%,0%,0%);fill-opacity:1;" d="M 122.542969 150.609375 C 124.0625 152.128906 126.339844 152.128906 126.339844 152.128906 L 126.339844 152.808594 C 126.339844 152.808594 124.015625 152.808594 122.535156 154.285156 "/>
<path style=" stroke:none;fill-rule:nonzero;fill:rgb(0%,0%,0%);fill-opacity:1;" d="M 125.589844 150.601563 C 124.070313 152.117188 121.789063 152.117188 121.789063 152.117188 L 121.789063 152.800781 C 121.789063 152.800781 124.117188 152.800781 125.597656 154.277344 "/>
<path style=" stroke:none;fill-rule:nonzero;fill:rgb(0%,0%,0%);fill-opacity:1;" d="M 61.574219 82.933594 C 61.574219 86.410156 64.472656 89.230469 68.0625 89.230469 C 71.652344 89.230469 74.550781 86.410156 74.550781 82.933594 C 74.550781 79.460938 71.652344 76.640625 68.0625 76.640625 C 64.472656 76.640625 61.574219 79.460938 61.574219 82.933594 Z M 61.574219 82.933594 "/>
<path style=" stroke:none;fill-rule:nonzero;fill:rgb(0%,0%,0%);fill-opacity:1;" d="M 53.207031 94.855469 C 53.207031 98.328125 56.105469 101.148438 59.695313 101.148438 C 63.285156 101.148438 66.183594 98.328125 66.183594 94.855469 C 66.183594 91.378906 63.285156 88.558594 59.695313 88.558594 C 56.105469 88.558594 53.207031 91.378906 53.207031 94.855469 Z M 53.207031 94.855469 "/>
<path style=" stroke:none;fill-rule:nonzero;fill:rgb(0%,0%,0%);fill-opacity:1;" d="M 69.828125 94.890625 C 69.828125 96.160156 70.210938 97.347656 70.882813 98.347656 C 72.035156 100.054688 74.050781 101.1875 76.316406 101.1875 C 79.90625 101.1875 82.804688 98.367188 82.804688 94.890625 C 82.804688 91.417969 79.90625 88.597656 76.316406 88.597656 C 72.726563 88.597656 69.828125 91.417969 69.828125 94.890625 Z M 69.828125 94.890625 "/>
<path style=" stroke:none;fill-rule:nonzero;fill:rgb(0%,0%,0%);fill-opacity:1;" d="M 60.441406 107.117188 C 63.648438 107.117188 65.335938 104.507813 66.21875 101.898438 C 67.101563 99.285156 67.179688 96.675781 67.179688 96.675781 L 68.828125 96.675781 C 68.828125 96.675781 69.136719 107.097656 75.546875 107.117188 Z M 60.441406 107.117188 "/>
<path style=" stroke:none;fill-rule:nonzero;fill:rgb(0%,0%,0%);fill-opacity:1;" d="M 72.457031 87.558594 C 68.8125 91.207031 68.8125 96.675781 68.8125 96.675781 L 67.179688 96.695313 C 67.179688 96.695313 67.179688 91.109375 63.628906 87.558594 "/>
<path style=" stroke:none;fill-rule:nonzero;fill:rgb(0%,0%,0%);fill-opacity:1;" d="M 71.730469 99.269531 C 68.082031 95.621094 62.613281 95.621094 62.613281 95.621094 L 62.613281 93.988281 C 62.613281 93.988281 68.195313 93.988281 71.746094 90.4375 "/>
<path style=" stroke:none;fill-rule:nonzero;fill:rgb(0%,0%,0%);fill-opacity:1;" d="M 64.414063 99.285156 C 68.0625 95.640625 73.53125 95.640625 73.53125 95.640625 L 73.53125 94.007813 C 73.53125 94.007813 67.949219 94.007813 64.398438 90.460938 "/>
<path style=" stroke:none;fill-rule:nonzero;fill:rgb(0%,0%,0%);fill-opacity:1;" d="M 76.410156 120.734375 C 77.335938 121.113281 76.375 121.648438 76.410156 120.734375 M 63.605469 120.734375 C 63.605469 122.136719 64.679688 120.972656 63.605469 120.734375 M 65.425781 119.84375 C 65.988281 119.832031 66.890625 120.558594 65.914063 120.804688 C 65.277344 120.964844 64.539063 120.015625 65.425781 119.84375 M 70.042969 120.804688 C 68.179688 120.214844 70.480469 118.742188 70.042969 120.804688 M 63.464844 119.335938 C 63.816406 120.074219 64.035156 121.367188 65.074219 121.363281 C 64.675781 120.804688 64.339844 120.613281 64.234375 119.894531 C 64.449219 120.0625 65.5 121.042969 65.394531 121.289063 C 64.855469 122.523438 63.425781 121.28125 62.90625 120.816406 C 61.5625 119.609375 61.425781 119.601563 63.464844 119.335938 M 61.03125 119.234375 C 61.226563 119.628906 60.941406 119.742188 61.03125 119.234375 M 73.332031 118.773438 C 73.253906 118.929688 73.136719 119.023438 72.980469 119.054688 C 73.027344 118.886719 73.152344 118.785156 73.332031 118.773438 M 72.632813 118.84375 C 72.445313 118.753906 72.261719 118.730469 72.070313 118.773438 C 72.242188 118.933594 72.335938 119.121094 72.351563 119.335938 L 72.003906 119.335938 C 72.273438 120.289063 72.246094 120.996094 71.382813 121.664063 C 71.035156 121.9375 70.484375 122.332031 70.304688 121.855469 C 70.609375 121.390625 71.53125 117.035156 72.632813 118.84375 M 60.738281 119.054688 C 60.558594 120.238281 58.59375 119.144531 58.636719 118.355469 C 59.332031 118.664063 59.996094 118.730469 60.738281 119.054688 M 71.304688 118.355469 C 71.136719 118.753906 70.867188 119.070313 70.464844 119.195313 C 70.441406 118.765625 70.757813 118.070313 71.304688 118.355469 M 61.015625 118.214844 C 61.402344 118.730469 60.496094 118.871094 61.015625 118.214844 M 65.003906 119.054688 C 65.019531 119.277344 61.617188 119.386719 61.714844 118.636719 C 62.523438 118.839844 62.226563 118.023438 63.125 118.265625 C 63.496094 118.367188 63.953125 118.339844 64.296875 118.496094 C 64.628906 118.839844 64.539063 119.050781 65.003906 119.054688 M 79.699219 118.355469 C 80.035156 118.367188 80.359375 118.277344 80.679688 118.144531 C 80.347656 118.085938 79.988281 118.164063 79.699219 118.355469 M 73.261719 118.074219 L 73.332031 118.144531 C 73.242188 118.519531 72.679688 118.640625 73.261719 118.074219 M 66.824219 117.65625 C 67.101563 118.007813 67.359375 118.492188 67.664063 118.707031 C 67.882813 118.277344 67.359375 117.371094 66.824219 117.65625 M 67.59375 119.546875 C 66.945313 119.382813 65.542969 117.976563 66.332031 117.425781 C 67.601563 116.539063 68.207031 118.195313 68.386719 119.042969 C 68.480469 119.484375 70.332031 121.804688 69.414063 121.902344 C 68.894531 121.941406 67.101563 120.015625 67.59375 119.546875 M 78.511719 116.816406 C 78.605469 116.847656 78.65625 117.199219 78.859375 116.816406 C 78.714844 116.738281 78.636719 116.839844 78.511719 116.816406 M 56.539063 115.628906 C 56.457031 116.003906 56.480469 116.378906 56.609375 116.746094 C 56.15625 116.46875 55.261719 115.214844 56.539063 115.628906 M 75.992188 115.417969 C 76.429688 117.410156 73.230469 116.121094 73.261719 117.726563 C 72.175781 116.324219 74.542969 115.007813 74.242188 116.324219 C 74.835938 116.0625 75.386719 115.679688 75.992188 115.417969 M 53.179688 114.578125 C 53.96875 115.1875 54.96875 115.441406 55.625 116.199219 C 55.738281 116.328125 56.367188 116.992188 55.628906 116.886719 C 55.378906 116.953125 55.132813 116.367188 55.0625 116.304688 C 54.382813 115.914063 53.34375 115.34375 53.179688 114.578125 M 74.730469 115.558594 C 74.359375 115.488281 73.996094 115.058594 74.242188 114.648438 C 74.695313 113.886719 75.164063 114.980469 74.730469 115.558594 M 70.953125 114.085938 C 70.929688 114.320313 70.90625 114.554688 70.882813 114.785156 C 70.597656 114.5625 70.65625 114.269531 70.953125 114.085938 M 70.324219 113.945313 C 70.347656 114.285156 70.316406 114.648438 70.324219 114.996094 C 70.019531 114.726563 70.027344 114.253906 70.324219 113.945313 M 79.558594 113.527344 C 79.492188 113.695313 79.421875 113.824219 79.421875 114.015625 C 79.605469 113.960938 79.722656 113.820313 79.769531 113.597656 C 79.765625 113.59375 79.558594 113.464844 79.558594 113.527344 M 52.621094 113.527344 C 52.925781 113.769531 53.109375 114.050781 53.109375 114.4375 C 52.726563 114.273438 52.527344 113.925781 52.621094 113.527344 M 80.609375 112.828125 C 80.5625 113.015625 80.515625 113.199219 80.46875 113.386719 C 80.71875 113.160156 80.621094 112.730469 80.609375 112.828125 M 81.730469 112.40625 C 81.367188 113.476563 79.984375 114.125 79.769531 114.996094 C 80.386719 114.828125 81.019531 114.734375 81.660156 114.71875 C 81.378906 114.503906 81 114.574219 80.609375 114.578125 C 80.976563 114.039063 81.632813 113.941406 82.078125 113.597656 L 81.800781 113.597656 C 82.003906 113.421875 82.140625 113.210938 82.21875 112.96875 C 82.101563 112.992188 81.984375 113.015625 81.867188 113.039063 C 81.835938 111.429688 81.882813 112.851563 81.730469 112.40625 M 90.753906 111.707031 C 90.664063 112.652344 90.203125 114.324219 88.898438 114.179688 C 87.753906 114.050781 87.175781 116.148438 86.050781 114.828125 C 85.53125 114.703125 84.441406 115.21875 84.214844 114.71875 C 83.851563 113.917969 86.988281 113.972656 87.328125 114.085938 C 86.753906 113.269531 88.132813 113.328125 88.585938 113.527344 C 88.6875 112.582031 90.007813 112.183594 90.753906 111.707031 M 55 111.078125 C 55.132813 111.488281 55.5 111.890625 55.347656 112.339844 C 54.996094 112.273438 54.648438 112.226563 54.300781 112.269531 C 54.890625 113.296875 55.917969 112.429688 56.398438 113.597656 C 55.730469 113.621094 55.464844 113.222656 54.789063 113.246094 C 54.964844 113.457031 55.148438 113.410156 55.417969 113.457031 C 55.203125 113.789063 55.015625 113.710938 54.929688 114.015625 C 55.640625 113.980469 57.011719 113.738281 57.449219 114.507813 C 57.0625 114.570313 56.742188 114.546875 56.46875 114.785156 C 56.867188 114.789063 57.265625 114.753906 57.65625 114.671875 C 58.234375 115.042969 58.785156 115.464844 59.40625 115.765625 C 59.167969 115.46875 58.914063 115.058594 58.917969 114.648438 C 58.253906 114.671875 58.316406 114.628906 58.097656 113.964844 C 57.679688 112.707031 57.085938 112.375 57.65625 113.945313 C 56.425781 113.773438 55.988281 111.660156 55 111.078125 M 78.859375 115.90625 C 78.976563 115.363281 78.234375 116.425781 79 115.277344 C 78.367188 115.578125 77.617188 115.535156 77.039063 115.90625 C 77.300781 115.65625 77.429688 115.378906 77.460938 114.996094 C 76.761719 115.265625 76.34375 116.097656 77.179688 116.324219 C 77.0625 116.992188 76.324219 116.980469 75.808594 117.160156 C 75.164063 117.386719 74.390625 118.273438 73.820313 118.355469 C 74.390625 117.246094 74.996094 117.304688 75.914063 116.441406 C 76.136719 116.234375 77.089844 113.988281 76.304688 114.390625 C 75.875 114.609375 74.988281 114.335938 75.1875 113.671875 C 75.589844 112.503906 76.429688 113.90625 76.902344 113.808594 C 77.320313 114.078125 77.566406 114.378906 78.089844 114.175781 C 79.035156 113.808594 78.652344 112.214844 79.488281 111.886719 C 79.757813 111.78125 80.085938 112.25 80.433594 112.175781 C 81.140625 112.027344 81.253906 110.777344 81.867188 110.703125 C 82.46875 110.492188 82.398438 111.324219 82.847656 111.535156 C 83.484375 111.835938 84.054688 110.847656 84.492188 111.636719 C 84.710938 112.03125 84.464844 112.28125 84.246094 112.597656 C 83.265625 113.316406 83.433594 113.316406 83.304688 114.4375 C 83.089844 115.019531 81.539063 116.625 80.890625 116.648438 C 80.125 116.320313 80.117188 116.0625 79.390625 116.546875 C 79.078125 117.082031 78.492188 118.074219 77.800781 117.410156 C 77.367188 116.214844 77.675781 115.996094 78.859375 115.90625 M 89.707031 111.847656 C 89.65625 111.761719 89.632813 111.667969 89.636719 111.566406 C 89.214844 111.964844 89.015625 112.554688 88.375 112.757813 C 88.425781 112.488281 88.386719 112.214844 88.515625 111.917969 C 88.160156 112.480469 88.089844 113.132813 87.328125 113.246094 C 87.261719 112.941406 87.332031 112.660156 87.535156 112.40625 C 86.878906 113.074219 86.683594 113.992188 86.347656 112.6875 C 86.089844 112.820313 85.519531 114.671875 84.667969 114.003906 C 84.027344 113.5 85.355469 111.875 85.855469 111.613281 C 86.898438 111.683594 87.109375 110.953125 87.886719 110.582031 C 88.488281 110.296875 89 110.691406 89.699219 110.449219 C 90.179688 110.28125 91.039063 110.144531 91.03125 110.867188 C 91.027344 111.507813 90.152344 111.570313 89.707031 111.847656 M 45.480469 109.820313 C 45.355469 110.183594 45.617188 110.601563 45.832031 110.867188 C 45.222656 110.59375 44.621094 110.113281 44.011719 109.960938 C 44.40625 110.554688 45.042969 110.863281 45.480469 111.359375 C 45.285156 111.398438 45.226563 111.421875 45.0625 111.429688 L 45.0625 111.566406 C 46.511719 111.621094 47.542969 112.546875 48.980469 112.898438 C 48.515625 112.222656 47.851563 111.371094 47.160156 110.9375 C 47.292969 111.355469 47.613281 111.648438 47.789063 112.058594 C 46.480469 111.714844 46.324219 110.464844 45.480469 109.820313 M 60.105469 116.535156 C 59.03125 116.203125 57.296875 116.542969 57.027344 115.066406 C 55.0625 115.714844 54.984375 114.800781 53.492188 113.84375 C 53.332031 113.59375 53.316406 113.367188 53.191406 113.109375 C 53.347656 112.308594 52.242188 111.925781 52.410156 111.359375 C 52.558594 110.851563 52.574219 110.980469 53.183594 110.941406 C 54.007813 110.890625 54.042969 110.515625 54.34375 109.78125 C 55.257813 109.207031 55.742188 110.375 55.925781 111.078125 C 56.476563 111.601563 57.292969 111.214844 57.789063 111.691406 C 58.230469 112.121094 57.917969 112.769531 58.359375 113.222656 C 59.179688 114.070313 59.304688 113.1875 59.238281 114.472656 C 59.21875 114.894531 59.625 114.96875 59.871094 115.28125 C 60.03125 115.636719 59.984375 116.15625 60.105469 116.535156 M 88.796875 109.257813 C 88.769531 110.738281 86.851563 109.878906 88.796875 109.257813 M 90.195313 108.140625 C 90.234375 108.84375 89.746094 108.691406 90.195313 108.140625 M 85.71875 109.679688 C 84.96875 109.570313 84.570313 108.214844 85.507813 108.214844 C 87.046875 108.800781 85.5 108.820313 85.71875 109.679688 M 49.121094 108.070313 C 48.738281 108.308594 47.796875 108.128906 48 107.441406 C 48.058594 106.863281 49.304688 107.121094 49.121094 108.070313 M 89.914063 106.738281 C 89.898438 107.105469 89.855469 107.324219 89.566406 107.371094 C 89.546875 107.09375 89.65625 106.808594 89.914063 106.738281 M 86.6875 106.53125 C 87.472656 107.09375 87.257813 108.492188 86.101563 108.066406 C 85.226563 107.742188 86.152344 106.683594 86.6875 106.53125 M 93.902344 106.203125 C 95.015625 106.273438 94.316406 107.179688 93.785156 107.519531 C 92.574219 108.296875 93.183594 106.460938 93.902344 106.203125 M 90.894531 106.179688 C 91.234375 106.746094 91.144531 107.664063 90.546875 108 C 90.605469 107.460938 90.367188 106.511719 90.894531 106.179688 M 48.910156 105.410156 C 49.59375 108.050781 46.757813 106.050781 48.910156 105.410156 M 91.804688 104.992188 C 91.800781 105.132813 91.742188 105.289063 91.664063 105.410156 C 91.402344 105.34375 91.273438 105.351563 91.316406 105.132813 C 91.480469 105.085938 91.640625 105.035156 91.804688 104.992188 M 44.222656 104.640625 C 44.691406 104.890625 44.855469 105.851563 44.921875 106.320313 C 44.484375 106.238281 44.207031 105.070313 44.222656 104.640625 M 40.515625 103.417969 C 41.308594 103.480469 41.878906 104.335938 40.863281 104.570313 C 39.953125 104.660156 39.398438 103.710938 40.515625 103.417969 M 43.804688 103.800781 C 43.257813 103.1875 44.15625 102.917969 43.804688 103.800781 M 40.023438 102.121094 C 39.890625 102.589844 40.152344 102.574219 40.515625 102.75 C 39.871094 104.585938 38.695313 102.054688 40.023438 102.121094 M 41.773438 99.882813 C 42.222656 100.3125 42.667969 100.730469 43.03125 101.210938 C 42.390625 101.390625 41.890625 100.316406 41.773438 99.882813 M 91.175781 99.464844 C 91.324219 100.398438 91.4375 101.566406 90.964844 102.402344 C 90.96875 102.210938 90.871094 102.082031 90.683594 102.050781 C 90.699219 102.207031 90.683594 103.632813 91.058594 103.417969 C 91.335938 103.257813 91.996094 101.722656 92.085938 101.351563 C 91.886719 101.519531 91.605469 101.847656 91.523438 101.980469 C 91.316406 101.144531 91.742188 100.589844 91.945313 99.8125 C 91.609375 100.1875 91.417969 99.96875 91.386719 99.464844 L 91.175781 99.464844 M 95.164063 99.394531 C 95.070313 99.976563 94.976563 100.558594 94.882813 101.140625 C 95.214844 100.761719 95.402344 99.691406 95.164063 99.394531 M 95.023438 97.851563 C 95.035156 98.117188 95.078125 99.179688 94.464844 98.832031 C 94.578125 98.433594 94.71875 98.035156 95.023438 97.851563 M 40.585938 97.152344 C 41.363281 97.824219 41.308594 98.082031 40.933594 98.972656 C 40.414063 98.550781 40.042969 97.675781 40.585938 97.152344 M 94.605469 102.542969 C 94.828125 102.222656 95.132813 102.183594 95.515625 102.050781 C 94.445313 101.703125 96.164063 100.605469 96.703125 100.441406 C 95.789063 100.21875 97.382813 98.683594 97.683594 98.273438 C 97.164063 98.527344 96.933594 99.117188 96.421875 99.394531 C 96.4375 99.03125 96.507813 98.683594 96.632813 98.34375 C 96.113281 98.886719 95.933594 99.890625 95.554688 100.59375 C 95.078125 101.480469 94.445313 102.242188 93.835938 103.03125 C 94.257813 103.527344 93.554688 103.832031 93.09375 103.988281 C 91.554688 104.503906 92.859375 103.355469 93.242188 102.847656 C 93.578125 102.40625 94.199219 101.710938 94.199219 101.140625 C 93.921875 100.65625 93.628906 100.132813 93.929688 99.617188 C 94.15625 99.230469 94.527344 99.261719 94.953125 99.167969 C 95.472656 98.785156 95.269531 98.730469 95.398438 98.023438 C 95.691406 96.429688 96.671875 97.472656 97.71875 97.285156 C 98.949219 97.0625 99.152344 97.757813 98.230469 98.691406 C 98.0625 99.3125 98.570313 99.84375 98.410156 100.429688 C 98.273438 100.9375 97.300781 100.808594 96.910156 100.976563 C 95.480469 102.078125 96.804688 102.578125 94.605469 102.542969 M 93.972656 96.523438 C 94.066406 96.726563 94.023438 96.917969 93.835938 97.015625 C 93.832031 96.84375 93.882813 96.667969 93.972656 96.523438 M 41.632813 96.242188 C 41.753906 97.210938 42.105469 98.546875 43.242188 98.484375 C 43.140625 99.019531 41.578125 99.878906 41.464844 98.996094 C 41.421875 98.648438 41.683594 98.34375 41.621094 97.992188 C 41.363281 97.128906 40.765625 96.996094 41.632813 96.242188 M 94.394531 96.105469 C 94.601563 96.277344 94.617188 96.457031 94.394531 96.59375 C 94.289063 96.40625 94.289063 96.242188 94.394531 96.105469 M 42.191406 96.945313 C 42.078125 96.566406 42.015625 96.199219 42.121094 95.824219 C 42.671875 95.945313 42.714844 96.792969 42.191406 96.945313 M 91.59375 95.214844 C 92.445313 95.121094 92.894531 96.175781 92.015625 96.175781 C 91.433594 96.234375 91.050781 95.472656 91.59375 95.214844 M 93.972656 94.984375 C 94.191406 95.304688 94.328125 95.652344 94.394531 96.035156 C 94.058594 95.8125 93.835938 95.367188 93.972656 94.984375 M 41.773438 94.425781 C 43.851563 95.121094 41.339844 95.957031 41.773438 94.425781 M 94.042969 93.796875 C 94.019531 93.886719 93.996094 93.980469 93.972656 94.074219 C 94.1875 94.144531 94.398438 94.121094 94.605469 94.003906 C 94.617188 94.359375 94.613281 94.710938 94.535156 95.054688 C 94.152344 94.769531 93.5625 94.085938 94.042969 93.796875 M 41.144531 93.796875 C 41.238281 94.113281 41.285156 94.441406 41.285156 94.773438 C 40.796875 94.722656 40.984375 94.035156 41.144531 93.796875 M 96.492188 93.628906 C 97.039063 93.742188 97.878906 94.867188 96.914063 95.019531 C 96.179688 95.136719 96.09375 93.988281 96.492188 93.628906 M 92.085938 94.773438 C 90.785156 95.472656 91.011719 93.75 91.546875 93.695313 C 92.410156 93.613281 91.796875 94.21875 92.085938 94.773438 M 43.804688 94.914063 C 41.753906 95.558594 43.203125 91.691406 43.804688 94.914063 M 43.734375 93.445313 C 42.191406 93.191406 45.222656 91.609375 43.734375 93.445313 M 41.425781 92.183594 C 41.960938 92.480469 41.90625 93.214844 41.984375 93.726563 C 41.453125 93.390625 41.214844 92.769531 41.425781 92.183594 M 40.09375 97.152344 C 39.546875 96.820313 39.8125 96.019531 40.023438 95.472656 C 39.117188 96.421875 39.34375 94.746094 39.535156 94.003906 C 39.398438 94.144531 39.339844 94.066406 39.183594 94.285156 C 38.644531 93.519531 38.046875 92.496094 38.625 94.425781 C 38.398438 94.511719 38.164063 94.488281 37.925781 94.355469 C 38.386719 94.917969 38.9375 95.441406 39.046875 96.242188 C 38.746094 96.148438 38.390625 96.035156 38.066406 96.035156 C 38.300781 96.347656 38.777344 96.660156 39.183594 96.523438 C 39.464844 97.269531 39.71875 97.863281 40.09375 98.554688 C 39.636719 98.683594 39.1875 98.703125 38.886719 98.34375 C 38.671875 97.3125 38.015625 97.492188 37.703125 96.664063 C 37.625 96.460938 37.761719 96.179688 37.789063 96.007813 C 37.890625 95.355469 37.378906 95.269531 37.136719 94.765625 C 36.789063 94.046875 37.777344 93.539063 37.589844 92.726563 C 37.058594 90.414063 38.953125 93.015625 39.605469 93.234375 C 40.230469 93.84375 39.855469 93.929688 40.167969 94.738281 C 40.304688 95.097656 40.871094 95.207031 40.96875 95.546875 C 41.101563 96.042969 40.402344 96.828125 40.09375 97.152344 M 41.355469 91.136719 C 41.476563 91.359375 41.617188 91.445313 41.492188 91.625 C 41.191406 91.535156 41.257813 91.34375 41.144531 91.136719 L 41.355469 91.136719 M 94.464844 93.304688 C 93.996094 93.035156 94.039063 92.691406 94.042969 92.113281 C 93.6875 91.472656 93.449219 91.589844 93.617188 90.878906 C 94.148438 88.621094 94.449219 92.996094 94.464844 93.304688 M 41.914063 91.136719 C 41.429688 87.957031 43.347656 89.777344 41.914063 91.136719 M 94.042969 88.058594 C 94.097656 88.46875 94.128906 88.898438 94.113281 89.316406 C 93.625 88.941406 93.515625 88.394531 94.042969 88.058594 M 41.5625 87.917969 C 41.761719 88.378906 41.710938 88.898438 41.5625 89.386719 C 40.976563 88.972656 41.277344 88.277344 41.5625 87.917969 M 92.015625 87.777344 C 91.980469 88.199219 91.863281 88.59375 91.664063 88.96875 C 91.15625 88.808594 91.007813 88.484375 90.683594 88.828125 C 90.980469 88.929688 91.71875 89.492188 92.050781 89.324219 C 92.324219 89.179688 92.449219 87.863281 92.015625 87.777344 M 42.613281 88.617188 C 42.148438 88.316406 41.65625 87.488281 41.632813 86.9375 C 42.214844 87.25 42.523438 87.972656 42.613281 88.617188 M 39.464844 85.957031 C 39.386719 86.371094 39.386719 87.679688 38.527344 86.765625 C 37.921875 86.117188 38.914063 85.910156 39.464844 85.957031 M 97.683594 86.515625 C 97.214844 86.558594 96.148438 87.085938 96.46875 86.027344 C 97.507813 84.628906 97.351563 85.925781 97.683594 86.515625 M 93.625 85.328125 C 93.648438 85.414063 93.625 85.484375 93.554688 85.539063 C 93.382813 85.382813 93.378906 85.300781 93.625 85.328125 M 41.84375 84.488281 C 42.183594 84.945313 42.140625 85.460938 41.914063 85.957031 C 41.398438 85.644531 41.460938 84.914063 41.84375 84.488281 M 39.464844 84.066406 C 39.382813 84.199219 39.335938 84.339844 39.324219 84.488281 C 40.089844 84.4375 38.988281 85.820313 38.460938 85.507813 C 37.816406 85.121094 38.757813 83.335938 39.464844 84.066406 M 92.574219 90.296875 C 92.828125 91.027344 93.273438 91.675781 93.554688 92.394531 C 92.25 92.230469 92.402344 90.960938 91.28125 90.753906 C 90.148438 90.542969 90.554688 89.601563 90.054688 88.828125 C 89.824219 88.46875 89.222656 88.375 89.304688 87.847656 C 89.984375 86.484375 90.597656 87.398438 91.523438 87.984375 C 91.648438 87.484375 92.171875 85.929688 91.664063 85.675781 C 91.601563 86.023438 91.554688 86.382813 91.523438 86.726563 C 91 86.105469 91.191406 85.15625 90.894531 84.488281 C 90.753906 85.460938 91.054688 86.402344 91.175781 87.355469 C 90.308594 86.863281 88.8125 85.90625 89.605469 84.800781 C 90.4375 84.175781 90.277344 83.890625 90.425781 83.027344 C 90.558594 82.234375 91.78125 82.851563 91.902344 83.367188 C 92.019531 83.855469 91.753906 84.308594 92.257813 84.660156 C 92.644531 84.933594 92.722656 85.269531 92.492188 85.675781 C 92.042969 86.46875 92.9375 86.585938 93.191406 87.214844 C 93.40625 87.746094 92.691406 88.136719 92.742188 88.683594 C 93.074219 89.222656 93.519531 90.140625 92.574219 90.296875 M 42.542969 83.230469 C 42.238281 83.121094 42.105469 82.84375 42.191406 82.527344 C 42.492188 82.640625 42.546875 82.871094 42.542969 83.230469 M 45.691406 81.828125 C 45.992188 82.457031 46.277344 82.21875 46.742188 82.039063 C 46.789063 82.425781 46.738281 82.796875 46.597656 83.160156 C 46.683594 83.523438 46.933594 83.820313 46.917969 84.207031 C 46.90625 84.4375 46.523438 84.550781 46.40625 84.773438 C 46.257813 85.058594 46.40625 85.5 46.414063 85.816406 C 45.925781 86.667969 45.410156 86.039063 45.195313 87.21875 C 44.628906 87.648438 44.214844 87.609375 43.523438 87.707031 C 43.523438 87.355469 43.691406 87.339844 43.800781 87.027344 C 44.664063 86.257813 44.117188 86.945313 44.308594 86.238281 C 44.425781 85.816406 44.820313 85.632813 45.058594 85.304688 C 45.179688 84.363281 45.777344 83.597656 46.25 82.808594 C 45.769531 82.988281 45.566406 83.464844 45.132813 83.789063 C 44.621094 83.167969 44.8125 84.929688 44.363281 85.257813 C 44.308594 84.863281 44.261719 84.464844 44.222656 84.066406 C 43.859375 84.433594 43.875 85.128906 44.363281 85.328125 C 43.988281 86.136719 43.484375 87.351563 42.890625 87.917969 C 42.597656 87.042969 44.363281 85.617188 43.3125 85.328125 L 43.3125 86.097656 C 42.597656 85.636719 42.894531 85.386719 43.03125 84.871094 C 43.617188 84.484375 43.40625 84.03125 43.648438 83.441406 C 43.957031 83.027344 44.375 83.148438 44.851563 82.960938 C 45.25 82.703125 45.347656 82.128906 45.691406 81.828125 M 92.433594 82.949219 C 91.125 82.648438 93.253906 80.679688 92.433594 82.949219 M 91.875 80.921875 C 91.644531 80.839844 91.515625 80.667969 91.523438 80.429688 C 91.832031 80.476563 91.96875 80.625 91.875 80.921875 M 44.082031 80.429688 C 44.054688 80.632813 43.9375 80.773438 43.734375 80.851563 C 43.636719 80.570313 43.863281 80.574219 44.082031 80.429688 M 90.613281 79.449219 L 90.613281 79.589844 L 90.476563 79.589844 C 90.472656 79.507813 90.527344 79.464844 90.613281 79.449219 M 90.894531 79.03125 C 90.871094 79.199219 90.835938 79.300781 90.683594 79.378906 C 90.738281 79.121094 90.664063 78.984375 90.894531 79.03125 M 46.253906 79.941406 C 45.722656 79.972656 45.25 79.554688 45.363281 78.996094 C 45.644531 77.621094 46.835938 78.605469 46.253906 79.941406 M 90.476563 78.261719 C 91.804688 77.964844 90.703125 79.644531 90.476563 78.261719 M 47.160156 79.101563 C 46.425781 78.96875 46.585938 77.859375 47.261719 77.742188 C 48.863281 77.464844 47.371094 78.796875 47.160156 79.101563 M 89.707031 77.492188 C 89.894531 77.792969 89.890625 78.195313 89.777344 78.539063 C 89.324219 78.324219 89.449219 77.902344 89.707031 77.492188 M 85.996094 77.140625 C 86.375 77.964844 86.292969 78.664063 87.023438 79.339844 C 87.484375 79.765625 87.667969 80.578125 88.375 80.640625 C 88.382813 80.007813 88.109375 79.207031 87.398438 79.191406 C 86.691406 78.617188 86.5 78.480469 86.976563 77.5625 C 86.660156 77.398438 86.332031 77.261719 85.996094 77.140625 M 88.9375 77.070313 C 88.988281 77.222656 88.9375 77.351563 88.796875 77.421875 C 88.800781 77.265625 88.8125 77.164063 88.9375 77.070313 M 92.363281 75.949219 C 92.585938 76.796875 93.082031 77.714844 92.925781 78.609375 C 92.65625 78.332031 92.355469 78.097656 92.015625 77.910156 C 92.390625 78.535156 92.992188 79.054688 93.34375 79.730469 C 93.648438 79.785156 94.199219 78.089844 94.324219 77.839844 C 94.015625 77.839844 93.757813 77.957031 93.554688 78.191406 C 93.519531 77.617188 94.289063 76.5 93.414063 76.300781 C 93.328125 76.617188 93.277344 76.957031 93.273438 77.28125 C 92.914063 76.886719 92.691406 76.222656 92.363281 75.949219 M 47.582031 74.902344 C 48.972656 75.175781 47.417969 75.863281 47.582031 74.902344 M 86.417969 74.410156 C 86.496094 74.75 86.460938 75.039063 86.695313 75.183594 C 86.6875 74.78125 86.691406 74.550781 86.417969 74.410156 M 85.296875 73.640625 C 85.359375 73.945313 85.476563 74.222656 85.648438 74.480469 C 85.734375 74.164063 85.582031 73.816406 85.296875 73.640625 M 90.964844 74.761719 C 91.121094 74.007813 91.316406 73.902344 91.914063 73.992188 C 92.257813 74.042969 92.421875 74.613281 92.546875 74.902344 C 93.003906 75.378906 93.472656 75.25 94.042969 75.398438 C 94.296875 75.585938 94.296875 75.730469 94.503906 75.949219 C 94.339844 77 95.269531 76.59375 95.46875 77.351563 C 95.554688 77.683594 95.128906 78.058594 95 78.332031 C 94.894531 78.945313 95.632813 79.394531 95.3125 79.964844 C 94.925781 80.652344 94.570313 80.78125 94.835938 81.617188 C 94.628906 82.234375 93.765625 82.617188 94.113281 83.367188 C 94.507813 82.910156 95.121094 82.414063 95.320313 81.828125 C 95.371094 80.992188 95.964844 80.335938 95.890625 79.554688 C 95.839844 79.03125 95.441406 78.605469 95.746094 78.125 C 95.988281 77.746094 96.085938 77.257813 95.816406 76.882813 C 95.210938 76.035156 94.96875 75.378906 94.113281 74.839844 C 93.042969 74.832031 92.800781 73.777344 91.742188 73.546875 C 90.710938 73.316406 90.523438 73.972656 90.964844 74.761719 M 82.566406 73.152344 C 82.71875 73.246094 82.558594 73.300781 82.847656 73.292969 C 82.773438 73.199219 82.679688 73.152344 82.566406 73.152344 M 83.96875 73.011719 C 84.019531 73.097656 84.238281 73.753906 84.179688 73.640625 C 83.789063 73.738281 83.363281 73.367188 82.988281 73.292969 C 83.683594 73.816406 84.46875 74.3125 85.226563 74.761719 C 84.855469 74.164063 84.351563 73.621094 83.96875 73.011719 M 44.433594 74.480469 C 44.363281 74.425781 44.132813 74.253906 44.011719 74.203125 C 44.003906 74.957031 44.007813 75.65625 43.664063 76.371094 C 43.355469 76.023438 43.398438 74.742188 42.925781 74.832031 C 42.792969 74.855469 43.140625 77.429688 43.03125 77.769531 C 42.769531 77.480469 42.671875 76.980469 42.191406 77.210938 C 42.738281 78.078125 42.726563 78.980469 42.824219 79.941406 C 43.0625 79.679688 43.210938 79.070313 43.3125 78.613281 C 43.640625 78.109375 44.320313 77.855469 44.734375 77.402344 C 45.953125 76.066406 43.738281 77.824219 43.523438 77.980469 C 43.6875 76.695313 44.945313 76.058594 45.550781 75.042969 C 45.085938 75.003906 44.757813 75.558594 44.433594 75.8125 C 44.816406 74.648438 45.507813 71.449219 44.433594 74.480469 M 49.050781 74.273438 C 50.21875 74.144531 51.277344 74.679688 52.410156 74.832031 C 52.242188 74.636719 51.992188 74.46875 51.78125 74.34375 C 52.621094 73.964844 53.039063 74.621094 53.808594 74.621094 C 53.660156 74.421875 53.535156 74.070313 53.390625 73.921875 C 53.878906 73.820313 54.359375 73.964844 54.859375 73.992188 C 54.601563 73.664063 54.671875 73.429688 55.070313 73.292969 C 53.847656 73.007813 54.195313 73.464844 53.039063 73.726563 C 52.480469 73.867188 52.21875 73.445313 51.5 73.941406 C 51.21875 73.992188 51.058594 73.679688 50.800781 73.710938 C 50.179688 73.972656 49.503906 74.054688 48.839844 73.957031 C 48.53125 74.199219 48.40625 74.359375 48 74.34375 C 48.375 74.035156 48.777344 73.570313 49.25 73.355469 C 49.609375 73.191406 49.992188 73.363281 50.308594 73.195313 C 51.136719 72.765625 50.992188 71.714844 52.058594 72.316406 C 52.671875 72.660156 52.628906 72.625 53.359375 72.339844 C 54.421875 71.921875 54.09375 72.421875 55.035156 72.550781 C 55.269531 72.582031 56.8125 72.28125 56.359375 73.140625 C 56.097656 73.636719 55.652344 73.753906 55.261719 74.164063 C 54.980469 74.460938 54.820313 75.183594 54.4375 75.347656 C 53.84375 75.597656 53.269531 75.101563 52.683594 75.535156 C 52.019531 76.03125 51.570313 75.15625 50.90625 75.09375 C 50.136719 75.023438 49.277344 75.367188 49.050781 74.273438 M 44.78125 71.847656 C 45.203125 71.859375 45.4375 72.175781 45.648438 72.523438 C 45.664063 73.265625 46.425781 73.644531 46.441406 74.273438 C 46.457031 74.921875 45.886719 75.214844 45.972656 75.9375 C 46.128906 77.246094 44.902344 78.367188 43.871094 78.964844 C 43.375 79.730469 43.507813 80.101563 42.613281 80.570313 C 42.152344 80.570313 42.105469 79.652344 41.964844 79.351563 C 41.753906 78.910156 41.300781 78.566406 41.285156 78.050781 C 41.273438 77.644531 41.691406 77.402344 41.730469 77 C 41.148438 75.199219 41.742188 76.199219 42.527344 74.902344 C 43.042969 74.054688 42.394531 73.824219 43.632813 73.359375 C 44.554688 73.011719 43.972656 72.175781 44.78125 71.847656 M 86.207031 76.441406 C 85.773438 76.359375 85.066406 75.859375 84.457031 75.699219 C 83.75 75.960938 83.230469 75.898438 82.875 75.257813 C 82.519531 74.617188 82.0625 75.125 81.539063 74.722656 C 81.242188 74.496094 80.378906 72.875 80.449219 72.664063 C 80.746094 71.742188 82.238281 72.296875 82.917969 72.03125 C 83.015625 72.628906 83.769531 72.480469 84.246094 72.59375 C 83.835938 71.039063 82.378906 71.984375 81.238281 71.84375 C 79.449219 72.210938 80.347656 73.035156 80.742188 74.039063 C 81.210938 75.234375 82.019531 75.183594 82.996094 75.886719 C 83.492188 76.25 84.011719 76.148438 84.597656 75.984375 C 85.027344 76.210938 85.683594 76.765625 86.207031 76.441406 M 88.097656 71.261719 C 87.886719 71.703125 87.503906 71.609375 87.117188 71.378906 C 87 71.308594 86.96875 71.140625 87.023438 71.035156 C 87.214844 70.652344 87.851563 71.214844 88.097656 71.261719 M 51.570313 70.984375 C 51.574219 69.597656 52.839844 70.921875 51.570313 70.984375 M 48.980469 69.792969 C 49.066406 70.351563 49.027344 70.9375 48.839844 71.472656 C 48.484375 71.023438 48.496094 70.066406 48.980469 69.792969 M 53.460938 69.09375 C 53.417969 69.390625 53.253906 69.65625 52.96875 69.722656 C 52.902344 69.414063 53.144531 69.207031 53.460938 69.09375 M 87.1875 68.867188 C 87.738281 69.34375 87.832031 70.894531 86.71875 70.546875 C 86.070313 70.34375 86.425781 68.886719 87.1875 68.867188 M 51.011719 67.902344 C 50.800781 68.8125 50.628906 69.898438 49.820313 70.492188 C 49.878906 69.714844 50.398438 68.402344 51.011719 67.902344 M 74.800781 67.625 C 74.382813 67.652344 74.171875 67.449219 74.03125 67.835938 C 74.855469 67.960938 76.253906 68.546875 75.257813 67.179688 C 74.859375 67.039063 74.851563 67.277344 74.800781 67.625 M 58.148438 68.113281 C 58.722656 68.453125 59.199219 68.332031 59.824219 68.507813 C 60.59375 68.71875 61.296875 69.105469 62.066406 69.304688 C 61.667969 68.308594 63.355469 69.414063 63.675781 69.585938 C 63.53125 68.632813 64.6875 68.949219 65.144531 68.742188 C 64.242188 68.691406 63.296875 68.9375 62.414063 68.605469 C 62.574219 68.320313 62.914063 68.199219 63.257813 68.042969 C 62.445313 68.054688 61.707031 68.785156 60.945313 68.394531 C 61.003906 68.136719 61.167969 67.949219 61.4375 67.835938 C 60.945313 68.042969 59.207031 68.652344 58.824219 67.972656 C 58.238281 66.925781 61.605469 67.121094 61.613281 67.117188 C 62.214844 66.894531 62.113281 66.863281 62.691406 67.117188 C 63.285156 67.378906 64.214844 66.773438 64.632813 67.109375 C 65.09375 67.894531 65.03125 67.902344 65.914063 68.136719 C 66.09375 68.292969 66.421875 68.535156 66.394531 68.8125 C 66.320313 69.519531 65.558594 69.40625 65.078125 69.707031 C 64.753906 69.914063 64.492188 70.347656 64.09375 70.410156 C 63.703125 70.472656 63.371094 70.109375 62.976563 70.167969 C 61.871094 70.335938 62.347656 71.046875 61.363281 70.234375 C 60.703125 69.695313 60.03125 69.914063 59.339844 69.292969 C 58.953125 68.9375 58.3125 68.53125 58.148438 68.113281 M 73.402344 66.785156 C 73.394531 67.066406 73.417969 67.347656 73.472656 67.625 C 72.921875 67.367188 72.730469 67.75 72.84375 68.324219 C 72.894531 68.273438 75.070313 66.980469 73.402344 66.785156 M 78.789063 66.644531 L 78.789063 66.785156 L 79.351563 66.785156 C 79.195313 66.660156 79.007813 66.613281 78.789063 66.644531 M 71.933594 66.714844 C 70.996094 65.992188 71.136719 67.265625 71.582031 67.34375 C 71.632813 67.257813 71.65625 67.164063 71.652344 67.066406 C 72.101563 67.210938 72.5 67.417969 72.980469 67.414063 C 72.777344 66.910156 72.019531 65.59375 71.933594 66.714844 M 80.257813 65.59375 C 80.273438 65.808594 80.367188 65.996094 80.539063 66.15625 C 80.734375 65.804688 80.453125 65.804688 80.257813 65.59375 M 79.421875 65.59375 C 79.09375 65.605469 79.367188 65.753906 78.71875 65.664063 C 79.058594 65.988281 79.773438 66.15625 79.558594 66.714844 C 80.289063 66.671875 80.757813 66.597656 80.398438 67.273438 C 80.796875 67.347656 81.191406 67.347656 81.589844 67.273438 C 80.980469 66.496094 80.183594 66.199219 79.421875 65.59375 M 55.90625 65.246094 C 55.8125 65.929688 55.890625 66.707031 55.210938 67.066406 C 55.226563 66.394531 53.90625 65.816406 54.597656 65.0625 C 55.003906 64.625 55.527344 65.066406 55.90625 65.246094 M 74.03125 65.316406 C 74.15625 65.636719 74.296875 66.121094 74.589844 66.371094 C 75.203125 66.582031 75.765625 67.230469 76.304688 67.371094 C 76.742188 67.484375 77.945313 67.5625 77.050781 68.285156 C 76.472656 68.75 76.035156 68.578125 75.359375 68.65625 C 74.828125 69.148438 74.859375 69.34375 74.199219 68.9375 C 73.160156 68.304688 73.851563 69.085938 72.773438 68.953125 C 71.769531 68.621094 71.953125 68.214844 70.933594 68.527344 C 69.964844 68.824219 70.039063 68.09375 70.105469 67.414063 C 69.824219 66.769531 69.351563 66.996094 68.785156 66.65625 C 67.839844 66.097656 69.628906 65.027344 69.902344 64.476563 C 70.199219 64.578125 70.988281 65.089844 71.285156 65.074219 C 71.414063 65.070313 71.589844 64.449219 71.859375 64.546875 C 72.324219 64.707031 72.355469 65.300781 72.910156 65.554688 C 73.335938 65.667969 73.636719 65.40625 74.03125 65.316406 M 75.851563 65.316406 C 76.152344 64.554688 77.222656 66.28125 77.082031 66.800781 C 76.910156 67.445313 74.78125 65.179688 74.535156 64.984375 C 74.175781 64.703125 72.714844 65.285156 72.9375 64.550781 C 73.367188 63.152344 75.480469 65.015625 75.851563 65.316406 M 65.074219 63.984375 L 65.074219 64.125 C 65.300781 64.222656 65.507813 64.222656 65.703125 64.125 C 65.527344 64 65.300781 63.953125 65.074219 63.984375 M 82.078125 67.835938 L 81.730469 67.835938 L 81.730469 67.972656 C 83.035156 67.972656 81.742188 66.890625 82.117188 66.371094 C 82.347656 65.539063 83.570313 67.941406 83.601563 68.253906 C 83.09375 69.570313 83.480469 69.070313 82.007813 69.269531 C 81.703125 69.164063 81.503906 69.164063 81.292969 68.886719 C 80.699219 68.09375 80.140625 69.003906 79.394531 68.535156 C 78.875 67.5625 78.265625 68.171875 77.714844 67.414063 C 77.460938 66.414063 77.449219 65.898438 76.703125 65.089844 C 76.433594 64.792969 76.066406 64.535156 76.480469 64.171875 C 76.820313 63.867188 77.609375 64.214844 77.949219 64.304688 C 78.996094 63.824219 79.253906 64.046875 80.117188 64.652344 C 80.53125 64.84375 81 64.710938 81.285156 65.085938 C 81.714844 65.652344 82.128906 67.082031 82.078125 67.835938 M 63.816406 63.144531 C 63.019531 64.570313 61.492188 65.339844 64.515625 64.894531 C 63.796875 64.882813 63.710938 64.789063 63.816406 64.265625 C 63.570313 64.457031 63.3125 64.527344 63.046875 64.476563 C 63.398438 64.128906 63.960938 63.425781 63.816406 63.144531 M 64.863281 62.585938 C 64.59375 62.984375 64.394531 63.441406 64.304688 63.914063 C 64.46875 63.917969 64.652344 63.855469 64.796875 63.777344 C 64.664063 63.339844 65.105469 62.765625 64.863281 62.585938 M 54.160156 68.464844 C 54.496094 68.347656 54.789063 68.082031 55.070313 67.835938 C 55.535156 67.605469 55.941406 67.886719 56.398438 67.484375 C 56.097656 67.53125 55.792969 67.558594 55.488281 67.554688 C 55.773438 66.226563 56.824219 66.757813 57.589844 66.15625 C 55.835938 66.269531 57.503906 65.265625 58.148438 65.105469 C 57.472656 64.878906 57.75 64.785156 57.9375 64.125 C 57.6875 64.46875 57.136719 65.09375 57.238281 64.125 C 57.015625 64.453125 56.800781 66.015625 56.257813 66.015625 C 55.671875 66.015625 56.445313 63.5 56.539063 63.214844 C 57.421875 63.769531 57.652344 63.082031 58.425781 62.695313 C 59.074219 62.371094 59.710938 62.730469 59.589844 63.445313 C 59.398438 64.558594 59.695313 65.667969 58.46875 66.304688 C 58.15625 66.964844 58.117188 67.355469 57.363281 67.628906 C 56.898438 67.796875 56.738281 67.6875 56.542969 68.113281 C 56.300781 68.652344 55.855469 68.683594 55.328125 68.816406 C 54.308594 69.074219 54.09375 69.671875 53.816406 68.628906 C 53.382813 67.007813 55.539063 66.84375 54.160156 68.464844 M 66.824219 62.375 C 66.75 62.457031 66.703125 62.550781 66.683594 62.65625 C 66.835938 62.613281 66.894531 62.511719 66.824219 62.375 M 71.933594 63.707031 C 72.148438 63.566406 72.546875 62.597656 72.96875 62.972656 C 73.195313 63.171875 72.695313 64.136719 73.472656 63.566406 C 73.519531 64.832031 70.757813 63.734375 70.855469 62.65625 C 70.902344 62.132813 71.605469 61.726563 72.070313 62.027344 C 72.636719 62.402344 71.765625 63.230469 71.933594 63.707031 M 70.253906 61.886719 C 70.515625 62.304688 71.363281 63.949219 71.105469 64.335938 C 70.875 64.679688 70.03125 64.183594 69.726563 64.222656 C 69.171875 64.292969 68.824219 64.976563 68.511719 65.367188 C 67.691406 66.394531 68.265625 66.871094 69.40625 67.152344 C 69.640625 67.488281 69.300781 67.835938 69.457031 68.253906 C 69.84375 69.027344 70.332031 69.027344 71.019531 68.859375 C 71.691406 68.695313 71.5 68.742188 72.015625 69.136719 C 72.585938 69.570313 72.996094 69.40625 73.679688 69.210938 C 74.15625 69.257813 74.570313 69.832031 75.117188 69.546875 C 75.488281 69.347656 75.675781 69.070313 76.0625 68.925781 C 77.191406 69.09375 77.789063 67.804688 78.714844 68.183594 C 79.039063 68.316406 79.03125 68.878906 79.421875 69.058594 C 80.671875 69.410156 80.582031 68.492188 81.449219 69.792969 C 80.351563 69.503906 79.71875 69.945313 78.675781 70.109375 C 77.867188 70.234375 76.746094 70.019531 76.132813 70.5625 C 76.941406 70.320313 78.542969 70.507813 77.390625 71.613281 C 77.890625 71.113281 78.476563 70.796875 79.097656 70.460938 C 80.257813 69.824219 80.988281 70.433594 82.148438 70.074219 C 82.59375 70.421875 83.265625 70.464844 83.65625 70.796875 C 84.050781 71.523438 84.261719 72.507813 85.160156 72.453125 C 85.59375 72.757813 86.027344 73.136719 86.488281 73.433594 C 87.269531 73.574219 87.34375 73.261719 87.570313 74.097656 C 87.714844 74.628906 87.550781 75.28125 87.667969 75.671875 C 88.015625 76.257813 88.363281 76.539063 88.097656 77.210938 C 87.558594 76.871094 87.285156 75.992188 86.628906 75.953125 C 87.007813 76.511719 87.363281 77.089844 87.785156 77.617188 C 88.1875 78.121094 88.21875 78.957031 88.867188 78.679688 C 88.816406 79.058594 88.984375 79.300781 89.359375 79.382813 C 89.203125 79.664063 89.082031 79.988281 89.007813 80.289063 C 89.328125 80.253906 89.609375 80.347656 89.847656 80.570313 C 89.539063 79.921875 89.929688 79.207031 90.476563 78.820313 C 90.332031 79.242188 90.691406 79.78125 90.199219 79.871094 C 90.269531 80.410156 90.3125 80.175781 90.40625 80.429688 C 90.585938 80.363281 90.746094 80.269531 90.898438 80.152344 C 90.785156 80.761719 90.578125 81.328125 89.988281 80.640625 C 90.347656 82.402344 90.957031 80.433594 91.386719 80.570313 C 91.164063 81.503906 91.105469 81.964844 90.269531 82.617188 C 90.046875 83.046875 89.949219 83.339844 90.023438 83.859375 C 89.871094 84.222656 89.480469 84.421875 89.265625 84.777344 C 88.523438 85.996094 89.554688 85.882813 89.636719 86.726563 C 89.722656 87.582031 88.347656 87.753906 89.363281 88.6875 C 90.019531 89.292969 89.851563 90.050781 90.40625 90.785156 C 90.796875 91.117188 91.414063 91.128906 91.835938 91.417969 C 91.996094 92.242188 92.683594 92.410156 93.339844 92.816406 C 93.621094 93.277344 93.53125 93.875 93.511719 94.40625 C 93.480469 95.378906 93.5625 98.054688 92.996094 98.554688 C 92.894531 97.964844 92.785156 97.371094 92.785156 96.769531 C 92.785156 95.996094 93.242188 95.472656 93.023438 94.683594 C 92.777344 93.785156 92.035156 93.371094 91.664063 92.605469 C 90.761719 93.300781 90.316406 95.683594 91.613281 96.324219 C 91.824219 96.429688 92.179688 96.34375 92.34375 96.5 C 92.652344 96.792969 92.652344 98.269531 92.644531 98.625 C 91.847656 98.0625 91.140625 97.0625 90.289063 98.289063 C 89.835938 98.9375 90.367188 99.515625 89.730469 100.101563 C 89.660156 100.515625 89.953125 101.191406 89.78125 101.492188 C 89.464844 102.046875 88.585938 102.546875 89.097656 103.265625 C 89.496094 103.820313 89.960938 103.867188 90.195313 104.570313 C 90.234375 104.964844 89.757813 105.535156 89.636719 105.902344 C 90.121094 105.4375 90.5625 104.847656 90.96875 104.292969 C 90.621094 104.164063 89.359375 103.308594 89.261719 102.890625 C 89.191406 102.578125 89.355469 102.394531 89.496094 102.132813 C 90.097656 101.648438 90.304688 101.621094 90.074219 100.898438 C 89.945313 100.496094 90.273438 98.824219 90.53125 98.410156 C 90.921875 97.78125 91.390625 97.882813 91.824219 98.425781 C 92.0625 99.144531 92.847656 99.414063 92.984375 100.09375 C 92.753906 101.011719 92.335938 101.402344 93.066406 102.121094 C 92.976563 102.75 92.746094 103.128906 92.085938 103.3125 C 92.105469 103.234375 92.160156 102.769531 92.15625 102.824219 C 91.160156 103.6875 92.292969 104.144531 91.238281 104.800781 C 89.480469 105.894531 89.027344 108.140625 87.46875 109.328125 C 87.351563 108.632813 87.386719 107.910156 87.578125 107.230469 C 87.363281 106.699219 87.277344 106.125 87.328125 105.550781 C 86.40625 106.160156 83.921875 108.226563 84.832031 109.539063 C 86.363281 111.742188 82.269531 110.125 81.519531 110.5 C 81.21875 110.75 80.722656 111.816406 80.292969 111.703125 C 79.902344 111.601563 79.726563 111.351563 79.28125 111.488281 C 78.671875 111.964844 78.328125 113.8125 77.601563 113.757813 C 77.054688 113.71875 77.011719 113.402344 77.183594 112.898438 C 75.949219 112.96875 74.285156 112.84375 73.753906 114.261719 C 73.226563 115.667969 71.8125 118.695313 69.835938 117.867188 C 70.609375 116.765625 72.65625 115.878906 71.664063 114.320313 C 71.015625 113.292969 69.652344 113.601563 68.628906 113.628906 C 67.34375 113.660156 66.203125 113.460938 64.953125 113.210938 C 61.03125 112.417969 62.078125 116.695313 65.214844 117.027344 C 64.585938 116.351563 63.542969 116.046875 62.902344 115.207031 C 62.5625 114.628906 62.527344 113.578125 63.398438 113.582031 C 64.367188 113.585938 65.835938 113.285156 66.621094 114.078125 C 66.964844 114.425781 66.695313 114.992188 67.175781 115.136719 C 67.226563 114.078125 67.207031 113.554688 67.875 114.648438 C 67.980469 113.722656 68.398438 113.96875 68.644531 114.789063 C 68.941406 114.765625 68.828125 114.179688 69.136719 113.949219 C 69.136719 114.28125 69.183594 114.609375 69.273438 114.929688 C 69.667969 114.683594 69.332031 114.175781 69.695313 113.949219 C 69.824219 114.542969 69.476563 115.28125 69.765625 115.558594 C 69.488281 116 69.089844 116.382813 68.925781 116.816406 C 69.40625 116.410156 70.003906 115.914063 70.605469 115.699219 C 70.890625 116.492188 69.410156 117.746094 68.714844 117.808594 C 68.460938 117.832031 67.820313 117.261719 67.578125 117.152344 C 66.523438 116.6875 66.066406 116.347656 65.425781 115.347656 C 66.660156 115.5625 67.964844 115.878906 69.203125 115.558594 C 68.050781 115.375 64.164063 114.019531 63.398438 115.207031 C 64.292969 115.207031 64.058594 114.90625 64.566406 115.636719 C 64.953125 116.199219 65.425781 116.074219 65.84375 116.523438 C 66.480469 117.214844 65.628906 117.382813 65.285156 117.9375 C 65.554688 117.949219 65.734375 118.101563 65.777344 118.355469 C 64.675781 118.09375 63.335938 118.175781 62.316406 117.707031 C 61.515625 117.335938 61.328125 116.855469 60.597656 116.957031 C 61.007813 116.550781 60.691406 115.28125 60.460938 114.757813 C 59.972656 113.648438 60.359375 113.457031 59.269531 112.617188 C 58.785156 111.78125 58.046875 110.636719 56.890625 110.84375 C 56.347656 110.496094 56.1875 109.832031 55.582031 109.492188 C 54.308594 108.773438 54.132813 110.039063 53.320313 110.527344 C 52.761719 110.480469 52.054688 110.574219 51.886719 111.21875 C 51.671875 112.035156 52.726563 112.164063 52.691406 112.828125 C 52.058594 112.539063 51.222656 112.085938 50.703125 111.570313 C 50.3125 110.617188 49.457031 110.199219 49.101563 109.226563 C 48.878906 108.605469 50 107.945313 50.109375 107.199219 C 50.269531 106.089844 49.425781 105.238281 48.910156 104.363281 C 48.746094 104.75 48.484375 105.046875 48.203125 105.382813 C 47.636719 106.0625 47.738281 107.339844 46.882813 106.53125 C 47.109375 107.21875 47.339844 107.910156 47.703125 108.539063 C 48.003906 109.066406 48.5625 109.398438 48.835938 109.894531 C 49.050781 110.28125 48.65625 110.441406 48.28125 110.449219 C 48.226563 110.285156 48.097656 110.15625 47.933594 110.097656 C 47.8125 110.992188 48.476563 111.101563 49.226563 111.085938 C 49.804688 111.074219 49.910156 111.3125 50.246094 111.804688 C 50.824219 112.652344 50.8125 113.09375 51.851563 113.457031 C 51.695313 113.59375 51.601563 113.757813 51.570313 113.949219 C 50.851563 113.585938 50.320313 113.074219 49.75 112.617188 C 49.847656 113.335938 50.636719 113.621094 50.242188 114.226563 C 51.285156 113.921875 52.378906 114.730469 53.039063 115.488281 C 54.21875 115.058594 52.085938 115.882813 52.269531 115.835938 L 52.96875 115.835938 C 52.167969 116.285156 53.183594 116.835938 53.179688 117.65625 C 53.492188 117.414063 55.066406 116.570313 54.738281 117.726563 C 54.382813 118.972656 51.070313 117.492188 51.710938 115.90625 C 51.242188 116.050781 50.824219 115.933594 50.449219 116.117188 C 51.027344 116.140625 51.054688 116.460938 51.105469 116.957031 C 51.457031 117.671875 52.167969 118.15625 52.933594 118.328125 C 53.742188 118.511719 54.589844 118.40625 55.089844 117.710938 C 55.679688 116.886719 56.296875 117.121094 57.238281 117.378906 C 57.207031 117.03125 57.128906 116.589844 57.097656 116.328125 C 57.648438 116.648438 59.875 117.320313 60.316406 116.605469 C 60.429688 117.019531 60.242188 117.324219 59.757813 117.308594 C 59.78125 117.585938 59.921875 117.820313 60.175781 118.007813 C 59.675781 117.957031 58.039063 118.085938 58.429688 117.097656 C 58.074219 116.980469 57.6875 117.269531 57.519531 117.515625 C 57.675781 117.730469 57.863281 117.917969 58.078125 118.074219 C 57.886719 118.140625 57.890625 118.128906 57.726563 118.144531 C 58.847656 119.417969 57.003906 119.316406 57.378906 118.214844 C 56.949219 118.210938 56.644531 118.480469 56.761719 118.882813 C 56.835938 119.125 57.078125 119.316406 57.308594 119.4375 C 58.371094 119.585938 59.199219 119.207031 60.167969 119.945313 C 60.859375 120.472656 58.824219 120.949219 59.441406 121.433594 C 60.0625 121.914063 61.523438 122.230469 62.136719 121.714844 C 61.523438 121.730469 60.585938 121.957031 61.226563 121.15625 C 60.890625 121.292969 60.539063 121.386719 60.175781 121.433594 C 60.078125 119.257813 62.378906 120.550781 63.070313 121.414063 C 64.546875 123.257813 65.75 120.691406 67.070313 120.296875 C 67.582031 120.140625 68.195313 121.445313 68.457031 121.761719 C 69.367188 122.605469 70.613281 122.390625 71.59375 121.796875 C 71.933594 121.59375 72.46875 120.816406 72.894531 121.136719 C 73.546875 121.628906 73.738281 122.703125 74.804688 122.414063 C 73.9375 122.277344 72.644531 121 73.964844 120.457031 C 74.109375 120.988281 75.558594 122.90625 75.921875 122.066406 C 75.054688 121.949219 74.289063 121.152344 74.3125 120.246094 C 74.851563 120.472656 76.359375 121.902344 76.972656 121.691406 C 77.605469 121.472656 77.367188 120.804688 76.898438 120.570313 C 75.925781 120.085938 74.449219 120.800781 73.683594 119.460938 C 73.535156 119.203125 73.726563 119.300781 73.753906 119.070313 C 73.976563 118.921875 74.226563 118.847656 74.492188 118.855469 C 74.816406 118.625 74.613281 118.164063 75.011719 117.867188 C 74.988281 118.230469 75.15625 118.484375 75.503906 118.566406 C 75.394531 117.257813 76.472656 117.226563 77.269531 117.828125 C 78.941406 119.078125 81.152344 119.003906 83.128906 118.917969 C 82.144531 118.617188 81.515625 118.925781 80.519531 118.734375 C 79.5625 118.554688 78.007813 118.628906 79.101563 117.6875 C 79.378906 117.449219 79.542969 116.871094 79.910156 116.765625 C 80.167969 116.691406 80.640625 117.128906 81.03125 117.117188 C 81.945313 117.089844 82.492188 117.371094 83.335938 116.835938 C 83.601563 116.875 83.625 116.800781 83.816406 117.0625 C 84.011719 117.332031 84.183594 117.851563 84.320313 118.160156 C 84.375 118.285156 84.785156 118.246094 84.820313 118.496094 C 84.769531 118.855469 84.464844 118.882813 84.179688 119.011719 C 83.953125 119.222656 83.742188 119.445313 83.546875 119.6875 C 82.875 119.84375 82.445313 119.542969 81.785156 119.8125 C 80.628906 120.285156 80.070313 119.050781 78.863281 119.871094 C 77.757813 120.007813 77.441406 117.667969 75.851563 117.9375 C 76.34375 118.441406 77.128906 118.566406 77.597656 119.292969 C 77.769531 119.558594 77.917969 119.949219 78.230469 120.105469 C 78.804688 120.222656 79.539063 119.808594 79.992188 119.921875 C 80.769531 121.21875 81.753906 120.199219 82.8125 120.234375 C 83.785156 120.265625 84.675781 119.652344 85.378906 119.003906 C 85.816406 118.597656 85.648438 118.371094 85.484375 117.988281 C 84.691406 117.609375 84.515625 116.601563 83.621094 116.472656 C 83.167969 116.40625 82.546875 117.179688 82.214844 116.746094 C 81.800781 116.203125 82.6875 115.800781 82.984375 115.636719 C 83.402344 115.371094 83.285156 115.277344 83.671875 115.234375 C 84.308594 115.941406 85.433594 115.324219 86.234375 115.550781 C 87.492188 115.902344 87.722656 114.804688 88.726563 114.722656 C 89.742188 114.636719 89.703125 114.203125 90.550781 113.636719 C 91.828125 112.777344 92.160156 109.554688 89.90625 110.308594 C 89.683594 110.382813 88.632813 110.8125 88.714844 110.132813 C 88.785156 109.535156 89.085938 108.601563 89.636719 108.28125 C 89.648438 108.914063 89.140625 109.46875 90.054688 109.46875 C 90.867188 109.15625 91.609375 108.679688 92.226563 108.070313 C 93.382813 108.042969 94 107.675781 94.738281 106.8125 C 95.328125 105.574219 93.636719 106.164063 93.296875 106.453125 C 92.46875 107.148438 91.515625 109.0625 90.304688 108.980469 C 91.527344 107.257813 91.558594 105.542969 93.53125 104.328125 C 94.433594 103.777344 94.742188 103.09375 95.863281 103.394531 C 96.742188 103.039063 96.710938 102.246094 97.332031 101.734375 C 98.226563 101.574219 99.144531 100.929688 99.042969 99.9375 C 99.007813 99.625 98.722656 99.152344 98.777344 98.867188 C 98.859375 98.449219 99.226563 98.167969 99.324219 97.714844 C 99.328125 96.789063 98.472656 96.726563 97.777344 96.90625 C 96.957031 97.121094 96.472656 96.652344 95.585938 96.945313 C 95.871094 95.734375 96.949219 95.472656 97.894531 94.941406 C 99.003906 94.03125 98.179688 92.84375 98.382813 91.695313 C 97.777344 92.210938 96.722656 92.132813 96.421875 93.027344 C 97.097656 92.675781 97.910156 92.046875 98.242188 93.234375 C 97.382813 93.453125 97.167969 93.4375 96.28125 93.164063 C 95.890625 93.8125 95.835938 94.433594 96.1875 95.125 C 96.082031 95.652344 95.203125 96.441406 94.882813 97.015625 C 94.761719 95.59375 94.949219 93.824219 95.324219 92.433594 C 95.578125 91.484375 95.925781 90.566406 96.183594 89.617188 C 96.476563 88.554688 96.824219 89.328125 97.261719 88.546875 C 96.75 88.585938 95.273438 87.855469 95.933594 87.152344 C 96.351563 86.480469 97.632813 87.699219 97.613281 88.269531 C 98.773438 87.535156 98.210938 85.457031 98.171875 84.347656 C 97.621094 84.546875 96.320313 85.777344 96.011719 86.261719 C 95.480469 87.085938 95.582031 87.730469 95.949219 88.617188 C 95.910156 88.914063 95.804688 89.179688 95.628906 89.421875 C 95.035156 89.835938 95.191406 90.316406 94.882813 90.925781 C 93.734375 88.996094 93.664063 85.664063 94.042969 83.507813 C 93.425781 83.554688 93.066406 83.585938 92.867188 82.738281 C 93.226563 81.757813 92.636719 81.328125 92.230469 80.507813 C 92.015625 80.066406 91.429688 80.015625 91.285156 79.519531 C 91.144531 79.050781 91.730469 78.625 91.367188 78.195313 C 90.183594 77.191406 91.089844 77.207031 90.683594 75.953125 C 90.375 76.175781 90.195313 76.644531 90.054688 77.070313 C 88.984375 76.320313 89.738281 75.492188 89.425781 74.414063 C 89.714844 73.113281 88.984375 72.964844 88.609375 71.847656 C 88.332031 71.027344 88.421875 69.773438 87.941406 69.0625 C 87.636719 68.613281 86.929688 68.488281 86.484375 68.253906 C 86.230469 69.523438 85.890625 71.648438 87.746094 71.867188 C 88.828125 72.78125 88.339844 73.980469 88.796875 75.183594 C 88.050781 75.316406 88.097656 73.074219 87.257813 72.664063 C 87.339844 74.328125 85.890625 71.664063 85.699219 71.253906 C 85.027344 69.808594 85.019531 70.925781 84.175781 71.195313 C 85.0625 68.371094 83.664063 66.511719 81.636719 64.75 C 80.4375 63.710938 79.269531 64.023438 77.949219 64.039063 C 77.09375 63.664063 75.9375 63.925781 75.921875 64.96875 C 75.304688 64.535156 74.679688 64.117188 74.058594 63.6875 C 73.792969 63.34375 73.835938 62.882813 73.589844 62.519531 C 72.753906 61.597656 71.363281 61.710938 70.253906 61.886719 M 65.355469 63.496094 C 65.613281 63.332031 67.246094 60.390625 67.78125 61.960938 C 67.882813 62.261719 67.652344 62.433594 67.496094 62.675781 C 67.191406 63.140625 67.617188 63.554688 67.316406 63.972656 C 67.101563 64.277344 66.558594 64.304688 66.289063 64.4375 C 66.09375 64.574219 66.136719 64.898438 65.992188 65.074219 C 65.585938 65.578125 64.460938 65.375 63.902344 65.644531 C 63.289063 65.941406 62.527344 66.03125 62.136719 65.453125 C 61.789063 64.101563 62.828125 64.351563 62.65625 63.074219 C 63.144531 62.453125 63.585938 62.636719 64.175781 62.082031 C 64.457031 61.910156 64.46875 61.148438 64.949219 61.671875 C 65.777344 62.582031 65.523438 62.121094 65.355469 63.496094 M 49.261719 72.59375 C 48.921875 70.976563 51.296875 69.039063 51.640625 67.414063 C 50.34375 66.855469 50.023438 69.386719 49.472656 69.722656 C 49.441406 68.953125 49.714844 68.050781 48.769531 67.972656 C 48.558594 69.484375 48.425781 71.003906 48.273438 72.523438 C 48.179688 73.472656 47.710938 73.367188 47.582031 74.132813 C 46.578125 73.085938 44.726563 69.894531 43.800781 72.769531 C 43.632813 73.289063 42.621094 73.296875 42.304688 73.785156 C 41.671875 74.761719 42.210938 74.765625 41.042969 75.550781 C 40.714844 76.105469 41.117188 76.566406 41.074219 77.140625 C 40.445313 78.433594 41.3125 79.300781 41.8125 80.5 C 42.339844 81.765625 41.460938 83.589844 41.234375 84.867188 C 40.953125 86.480469 40.734375 88.105469 40.585938 89.734375 C 40.476563 89.417969 40.390625 88.90625 40.125 88.617188 C 39.777344 88.4375 39.382813 88.1875 39.371094 87.742188 C 39.363281 87.316406 39.800781 87.265625 40.050781 86.984375 C 40.59375 86.390625 40.355469 85.71875 40.15625 85.023438 C 39.988281 84.433594 39.648438 83.222656 39.074219 82.910156 C 38.773438 82.746094 38.214844 84.058594 38.09375 84.304688 C 37.152344 86.277344 38.789063 87.175781 39.324219 88.898438 C 38.929688 88.8125 38.660156 88.613281 38.277344 88.617188 C 38.894531 89.492188 40 89.242188 40.300781 90.578125 C 40.527344 91.589844 40.976563 92.320313 41.003906 93.445313 C 40.355469 92.738281 39.558594 92.101563 38.808594 91.539063 C 38.316406 91.167969 37.53125 91.207031 37.207031 91.765625 C 37.117188 91.917969 37.140625 92.152344 37.085938 92.324219 C 37.359375 93.226563 37.003906 93.507813 36.6875 94.355469 C 36.683594 94.769531 36.734375 94.851563 37.007813 95.242188 C 37.507813 95.949219 37.109375 95.863281 37.183594 96.59375 C 37.246094 97.261719 38.046875 97.378906 38.382813 97.855469 C 38.742188 98.363281 38.550781 98.59375 39.183594 98.933594 C 40.292969 98.746094 41.28125 100.1875 41.894531 100.921875 C 42.871094 102.089844 43.25 103.65625 43.734375 105.0625 C 42.609375 104.800781 44.113281 105.976563 44.222656 106.109375 C 42.84375 106.386719 41.773438 104.832031 41.898438 103.660156 C 41.550781 101.871094 40.464844 102.085938 39.378906 101.210938 C 38.773438 101.398438 38.917969 103.402344 39.25 104.011719 C 39.617188 104.683594 40.320313 105.011719 41.074219 104.875 C 41.792969 105.152344 42.515625 105.742188 43.152344 106.1875 C 43.910156 106.71875 46.496094 108.628906 44.15625 108.863281 C 43.320313 108.949219 43.136719 109.039063 42.691406 109.703125 C 42.230469 110.386719 43.226563 110.871094 43.402344 111.394531 C 43.664063 112.160156 43.53125 112.730469 44.363281 113.203125 C 45.234375 113.457031 45.53125 113.4375 46.367188 113.871094 C 47.125 114.265625 47.492188 113.550781 48.140625 113.722656 C 48.902344 114.160156 49.074219 114.71875 50.03125 114.507813 C 49.371094 113.914063 48.335938 113.183594 47.410156 113.605469 C 46.546875 114.003906 46.097656 113 45.277344 112.902344 C 44.296875 112.785156 44.269531 112.367188 44.007813 111.46875 C 43.847656 110.914063 42.859375 110.238281 43.175781 109.695313 C 43.542969 109.058594 43.847656 109.390625 44.574219 109.28125 C 45.515625 109.019531 45.441406 108.429688 46.199219 109.609375 C 46.867188 109.941406 46.8125 109.605469 47.582031 109.539063 C 46.953125 109.226563 46.746094 108.773438 46.671875 108 C 46.523438 108.113281 46.453125 108.277344 46.460938 108.488281 C 45.742188 108.140625 45.101563 107.558594 44.78125 106.8125 C 45.242188 107.195313 45.546875 106.667969 45.621094 106.460938 C 45.710938 107.015625 45.652344 107.527344 45.972656 107.789063 C 45.972656 106.605469 45.980469 106.601563 45.65625 105.863281 C 45.21875 105.222656 44.582031 104.59375 44.257813 103.941406 C 44.039063 103.503906 44.585938 103.371094 44.109375 102.894531 C 43.769531 102.550781 43.3125 102.695313 43.097656 102.121094 C 42.988281 101.699219 43.546875 101.410156 43.496094 101.003906 C 42.746094 99.703125 43.335938 99.914063 43.773438 98.800781 C 43.972656 98.289063 43.457031 97.867188 43.898438 97.480469 C 44.664063 96.804688 45.300781 98.324219 45.832031 98.65625 C 47.414063 98.414063 46.8125 99.300781 47.089844 100.164063 C 47.246094 100.652344 47.644531 100.804688 47.75 101.28125 C 47.777344 101.425781 47.46875 101.625 47.476563 101.773438 C 47.523438 101.945313 47.886719 102.746094 47.808594 102.890625 C 47.699219 103.097656 47.390625 103.28125 47.226563 103.453125 C 47.089844 103.738281 47.363281 104.015625 47.308594 104.328125 C 47.285156 104.460938 47.171875 104.8125 46.953125 104.746094 C 46.363281 104.5625 46.753906 102.792969 46.882813 102.402344 C 46.734375 102.519531 46.574219 102.671875 46.460938 102.820313 C 46.113281 101.964844 46.265625 101.289063 46.601563 100.441406 C 46.273438 100.40625 45.988281 100.757813 45.832031 101.003906 C 45.617188 100.339844 45.84375 100.039063 45.902344 99.394531 C 45.710938 99.410156 45.652344 99.542969 45.550781 99.671875 C 45.3125 99.339844 45.148438 98.429688 44.644531 98.554688 C 44.777344 98.921875 44.894531 99.292969 44.992188 99.671875 C 44.753906 99.53125 44.496094 99.441406 44.222656 99.394531 C 44.632813 100.082031 45.273438 100.480469 45.480469 101.28125 C 45.128906 101.132813 44.234375 100.5 43.941406 100.933594 C 44.863281 101.195313 45.617188 101.902344 45.902344 102.820313 C 45.460938 102.703125 45.273438 102.546875 44.851563 102.542969 C 45.460938 103.21875 46.085938 103.324219 46.300781 104.292969 C 46.449219 104.976563 46.496094 105.855469 46.882813 106.390625 C 47.160156 104.910156 48.796875 103.675781 48.367188 102.121094 C 48.46875 101.367188 48.882813 101.375 48.421875 100.675781 C 47.988281 100.011719 47.796875 98.953125 47.289063 98.433594 C 46.890625 98.015625 46.519531 98.117188 46.042969 97.867188 C 45.675781 97.414063 45.167969 97.078125 44.597656 96.949219 C 43.53125 96.703125 42.679688 97.742188 42.839844 95.757813 C 42.882813 95.671875 42.910156 95.609375 42.976563 95.546875 C 43.855469 95.527344 44.324219 95.269531 44.71875 94.476563 C 45.207031 93.5 44.882813 92.496094 44.851563 91.484375 C 44.402344 92.230469 43.277344 92.214844 42.5625 92.761719 C 41.8125 92.554688 42.460938 90.820313 42.71875 90.367188 C 42.703125 89.757813 42.738281 88.964844 43.144531 88.476563 C 43.695313 87.8125 44.449219 88.160156 45.144531 87.824219 C 45.652344 87.578125 45.746094 87.429688 45.808594 86.9375 C 46.238281 86.515625 46.769531 86.429688 46.941406 85.757813 C 47.085938 85.1875 47.574219 84.941406 47.679688 84.417969 C 47.785156 83.886719 47.621094 83.355469 47.6875 82.808594 C 47.769531 82.125 47.644531 81.882813 47.023438 81.484375 C 46.648438 81.355469 45.519531 81.042969 45.167969 81.300781 C 44.785156 82.621094 44.734375 82.28125 43.941406 82.816406 C 43.460938 83.144531 43.359375 82.929688 43.1875 83.621094 C 43.066406 84.085938 43.109375 84.390625 42.613281 84.488281 C 43.261719 82.859375 44.253906 81.398438 44.992188 79.800781 C 46.839844 81.460938 48.230469 78.976563 48.769531 77.488281 C 47.730469 77.269531 46.839844 77.621094 45.871094 77.863281 C 45.945313 77.15625 47.039063 76.667969 47.679688 76.402344 C 48.605469 76.015625 47.992188 76.042969 48.460938 75.488281 C 48.742188 75.160156 49.34375 75.765625 49.472656 75.847656 C 49.898438 75.957031 50.054688 75.953125 50.527344 75.828125 C 51.328125 75.621094 51.507813 76.050781 52.300781 75.964844 C 52.988281 75.886719 53.226563 75.554688 53.9375 75.597656 C 54.632813 75.636719 55.035156 75.367188 55.515625 74.867188 C 55.921875 74.4375 57.320313 73.742188 57.179688 73.007813 C 56.949219 71.828125 54.894531 71.6875 53.878906 71.773438 C 53.015625 72.234375 52.664063 72.425781 51.953125 71.71875 C 51.8125 71.574219 51.804688 71.445313 51.917969 71.273438 C 52.425781 70.507813 54.222656 69.867188 55.035156 69.460938 C 56.65625 68.644531 57.601563 68.078125 58.964844 69.515625 C 59.53125 70.113281 59.960938 70.25 60.804688 70.285156 C 61.105469 70.535156 61.398438 70.859375 61.785156 70.941406 C 62.238281 71.03125 62.742188 70.738281 63.117188 70.496094 C 63.488281 70.609375 64.105469 70.726563 64.476563 70.5625 C 64.910156 70.375 66.136719 69.675781 66.453125 69.355469 C 66.695313 69.109375 66.683594 68.773438 66.558594 68.464844 C 66.246094 67.691406 65.367188 67.898438 64.984375 67.066406 C 64.304688 66.683594 63.957031 67.132813 63.257813 67.042969 C 62.1875 66.488281 62.121094 66.945313 61.050781 66.957031 C 60.710938 66.960938 60.296875 66.832031 60.316406 66.4375 C 60.351563 65.703125 61.839844 66.453125 62.140625 66.335938 C 64.222656 65.519531 66.242188 66.277344 67.800781 64.195313 C 68.183594 63.160156 68.933594 61.113281 66.980469 61.398438 C 66.273438 61.503906 66.078125 61.644531 65.402344 61.410156 C 64.878906 61.230469 64.640625 61.285156 64.164063 61.519531 C 63.835938 61.636719 63.449219 62.140625 63.027344 62.3125 C 61.910156 62.769531 62.484375 63.472656 61.621094 64.214844 C 61.539063 64.371094 61.527344 65.027344 61.34375 65.078125 C 60.183594 65.402344 60.425781 63.992188 60.332031 63.160156 C 60.175781 61.75 58.828125 61.703125 57.875 62.664063 C 57.335938 63.207031 56.710938 62.578125 56.214844 63.089844 C 55.882813 63.429688 55.832031 63.941406 55.441406 64.203125 C 54.847656 64.597656 54.125 64.65625 54.019531 65.523438 C 54.132813 66.109375 54.625 66.554688 54.09375 67.035156 C 53.679688 67.414063 53.296875 67.371094 53.277344 68.007813 C 53.21875 69.8125 50.125 71.007813 49.261719 72.59375 "/>
</g>
</svg>
