<?xml version="1.0" encoding="UTF-8"?>
<svg xmlns="http://www.w3.org/2000/svg" xmlns:xlink="http://www.w3.org/1999/xlink" width="135.21pt" height="195.639pt" viewBox="0 0 135.21 195.639" version="1.1">
<g id="surface1">
<path style=" stroke:none;fill-rule:nonzero;fill:rgb(100%,100%,100%);fill-opacity:1;" d="M 1 189.097656 C 1 192.121094 3.472656 194.589844 6.492188 194.589844 L 128.726563 194.589844 C 131.738281 194.589844 134.210938 192.121094 134.210938 189.097656 L 134.210938 6.445313 C 134.210938 3.421875 131.738281 0.949219 128.726563 0.949219 L 6.492188 0.949219 C 3.472656 0.949219 1 3.421875 1 6.445313 Z M 1 189.097656 "/>
<path style="fill:none;stroke-width:1.999;stroke-linecap:butt;stroke-linejoin:miter;stroke:rgb(0%,0%,0%);stroke-opacity:1;stroke-miterlimit:10;" d="M 1 6.541344 C 1 3.517906 3.472656 1.049156 6.492188 1.049156 L 128.726563 1.049156 C 131.738281 1.049156 134.210938 3.517906 134.210938 6.541344 L 134.210938 189.193687 C 134.210938 192.217125 131.738281 194.689781 128.726563 194.689781 L 6.492188 194.689781 C 3.472656 194.689781 1 192.217125 1 189.193687 Z M 1 6.541344 " transform="matrix(1,0,0,-1,0,195.639)"/>
<path style=" stroke:none;fill-rule:nonzero;fill:rgb(86.29303%,23.658752%,16.767883%);fill-opacity:1;" d="M 6.757813 9.90625 L 5.621094 9.90625 L 5.621094 4.1875 C 6.390625 3.753906 7.152344 3.425781 7.90625 3.214844 C 8.664063 2.988281 9.429688 2.875 10.199219 2.875 C 12 2.875 13.402344 3.566406 14.40625 4.953125 C 15.417969 6.324219 15.925781 8.242188 15.925781 10.703125 C 15.925781 12.457031 15.644531 14.03125 15.089844 15.429688 C 14.535156 16.8125 13.472656 18.457031 11.90625 20.363281 L 7.960938 25.210938 L 14.664063 25.210938 L 14.664063 22.085938 L 15.960938 22.085938 L 15.960938 29.863281 L 5.496094 29.863281 L 5.496094 25.53125 L 7.59375 22.8125 C 9.382813 20.507813 10.570313 18.539063 11.164063 16.921875 C 11.761719 15.296875 12.058594 13.402344 12.058594 11.238281 C 12.058594 9.191406 11.828125 7.632813 11.375 6.570313 C 10.925781 5.492188 10.269531 4.953125 9.402344 4.953125 C 8.65625 4.953125 8.058594 5.378906 7.609375 6.230469 C 7.164063 7.070313 6.878906 8.296875 6.757813 9.90625 "/>
<path style=" stroke:none;fill-rule:nonzero;fill:rgb(86.29303%,23.658752%,16.767883%);fill-opacity:1;" d="M 129.253906 184.839844 L 130.390625 184.839844 L 130.390625 190.554688 C 129.617188 190.992188 128.855469 191.320313 128.105469 191.53125 C 127.347656 191.757813 126.582031 191.867188 125.8125 191.867188 C 124.011719 191.867188 122.609375 191.175781 121.601563 189.792969 C 120.59375 188.417969 120.085938 186.5 120.085938 184.039063 C 120.085938 182.285156 120.363281 180.714844 120.921875 179.316406 C 121.476563 177.933594 122.539063 176.285156 124.105469 174.382813 L 128.046875 169.535156 L 121.347656 169.535156 L 121.347656 172.660156 L 120.046875 172.660156 L 120.046875 164.882813 L 130.511719 164.882813 L 130.511719 169.214844 L 128.417969 171.929688 C 126.628906 174.238281 125.4375 176.203125 124.84375 177.824219 C 124.25 179.445313 123.953125 181.339844 123.953125 183.507813 C 123.953125 185.554688 124.179688 187.109375 124.636719 188.175781 C 125.085938 189.253906 125.742188 189.792969 126.609375 189.792969 C 127.351563 189.792969 127.949219 189.367188 128.398438 188.511719 C 128.847656 187.671875 129.132813 186.449219 129.253906 184.839844 "/>
<path style=" stroke:none;fill-rule:nonzero;fill:rgb(86.29303%,23.658752%,16.767883%);fill-opacity:1;" d="M 11.914063 41.058594 C 13.964844 41.058594 16.011719 41.058594 18.058594 41.058594 C 17.359375 41.027344 16.761719 40.574219 16.199219 40.199219 C 14.9375 39.246094 13.753906 38.15625 12.820313 36.878906 C 12.386719 36.234375 11.929688 35.511719 11.914063 34.710938 M 18.058594 41.058594 C 17.171875 41.085938 16.410156 41.652344 15.734375 42.171875 C 14.539063 43.175781 13.503906 44.371094 12.632813 45.660156 C 12.3125 46.195313 11.933594 46.765625 11.914063 47.40625 C 11.914063 45.289063 11.914063 43.175781 11.914063 41.058594 M 11.914063 47.40625 C 11.886719 46.464844 11.308594 45.644531 10.765625 44.914063 C 9.796875 43.703125 8.648438 42.636719 7.386719 41.742188 C 6.894531 41.4375 6.371094 41.074219 5.773438 41.058594 C 7.820313 41.058594 9.867188 41.058594 11.914063 41.058594 M 5.773438 41.058594 C 6.660156 41.03125 7.421875 40.464844 8.097656 39.945313 C 9.292969 38.941406 10.328125 37.746094 11.199219 36.453125 C 11.519531 35.921875 11.898438 35.351563 11.914063 34.710938 C 11.914063 36.824219 11.914063 38.941406 11.914063 41.058594 "/>
<path style=" stroke:none;fill-rule:nonzero;fill:rgb(86.29303%,23.658752%,16.767883%);fill-opacity:1;" d="M 124.09375 153.6875 C 122.046875 153.6875 120 153.6875 117.953125 153.6875 C 118.652344 153.71875 119.246094 154.171875 119.808594 154.542969 C 121.070313 155.496094 122.253906 156.589844 123.1875 157.867188 C 123.625 158.511719 124.082031 159.234375 124.09375 160.035156 M 117.953125 153.6875 C 118.839844 153.65625 119.597656 153.09375 120.273438 152.570313 C 121.472656 151.566406 122.503906 150.375 123.378906 149.082031 C 123.699219 148.546875 124.078125 147.980469 124.09375 147.335938 C 124.09375 149.453125 124.09375 151.570313 124.09375 153.6875 M 124.09375 147.335938 C 124.125 148.28125 124.699219 149.101563 125.242188 149.832031 C 126.214844 151.039063 127.363281 152.105469 128.625 153 C 129.117188 153.308594 129.636719 153.671875 130.234375 153.6875 C 128.1875 153.6875 126.140625 153.6875 124.09375 153.6875 M 130.234375 153.6875 C 129.347656 153.714844 128.589844 154.277344 127.914063 154.800781 C 126.71875 155.804688 125.683594 156.996094 124.808594 158.289063 C 124.488281 158.824219 124.113281 159.390625 124.09375 160.035156 C 124.09375 157.917969 124.09375 155.804688 124.09375 153.6875 "/>
<path style=" stroke:none;fill-rule:nonzero;fill:rgb(86.29303%,23.658752%,16.767883%);fill-opacity:1;" d="M 68.003906 161.078125 C 63.089844 161.078125 58.179688 161.078125 53.265625 161.078125 C 54.941406 161.152344 56.371094 162.238281 57.722656 163.136719 C 60.75 165.421875 63.589844 168.046875 65.832031 171.113281 C 66.878906 172.65625 67.976563 174.390625 68.003906 176.316406 M 53.265625 161.078125 C 55.394531 161.011719 57.214844 159.65625 58.839844 158.402344 C 61.707031 155.996094 64.191406 153.128906 66.285156 150.027344 C 67.054688 148.742188 67.960938 147.382813 68.003906 145.839844 C 68.003906 150.917969 68.003906 155.996094 68.003906 161.078125 M 68.003906 145.839844 C 68.078125 148.105469 69.460938 150.074219 70.765625 151.828125 C 73.089844 154.726563 75.847656 157.289063 78.878906 159.433594 C 80.058594 160.167969 81.308594 161.042969 82.746094 161.078125 C 77.832031 161.078125 72.917969 161.078125 68.003906 161.078125 M 82.746094 161.078125 C 80.613281 161.144531 78.796875 162.5 77.171875 163.75 C 74.300781 166.160156 71.816406 169.023438 69.722656 172.128906 C 68.953125 173.410156 68.046875 174.773438 68.003906 176.316406 C 68.003906 171.238281 68.003906 166.15625 68.003906 161.078125 "/>
<path style=" stroke:none;fill-rule:nonzero;fill:rgb(86.29303%,23.658752%,16.767883%);fill-opacity:1;" d="M 68.003906 30.347656 C 72.917969 30.347656 77.832031 30.347656 82.746094 30.347656 C 81.066406 30.273438 79.636719 29.1875 78.289063 28.289063 C 75.257813 26.003906 72.417969 23.382813 70.175781 20.3125 C 69.132813 18.769531 68.03125 17.035156 68.003906 15.109375 M 82.746094 30.347656 C 80.613281 30.414063 78.796875 31.769531 77.171875 33.023438 C 74.300781 35.429688 71.816406 38.296875 69.722656 41.398438 C 68.953125 42.683594 68.046875 44.042969 68.003906 45.589844 C 68.003906 40.507813 68.003906 35.429688 68.003906 30.347656 M 68.003906 45.589844 C 67.933594 43.320313 66.550781 41.355469 65.246094 39.597656 C 62.917969 36.699219 60.160156 34.136719 57.128906 31.992188 C 55.949219 31.257813 54.699219 30.382813 53.265625 30.347656 C 58.179688 30.347656 63.089844 30.347656 68.003906 30.347656 M 53.265625 30.347656 C 55.394531 30.28125 57.214844 28.925781 58.839844 27.675781 C 61.707031 25.265625 64.191406 22.402344 66.285156 19.300781 C 67.054688 18.015625 67.960938 16.652344 68.003906 15.109375 C 68.003906 20.191406 68.003906 25.269531 68.003906 30.347656 "/>
</g>
</svg>
