<?xml version="1.0" encoding="UTF-8"?>
<svg xmlns="http://www.w3.org/2000/svg" xmlns:xlink="http://www.w3.org/1999/xlink" width="135.21pt" height="195.639pt" viewBox="0 0 135.21 195.639" version="1.1">
<g id="surface1">
<path style=" stroke:none;fill-rule:nonzero;fill:rgb(100%,100%,100%);fill-opacity:1;" d="M 1 189.097656 C 1 192.121094 3.472656 194.589844 6.492188 194.589844 L 128.726563 194.589844 C 131.738281 194.589844 134.210938 192.121094 134.210938 189.097656 L 134.210938 6.445313 C 134.210938 3.421875 131.738281 0.949219 128.726563 0.949219 L 6.492188 0.949219 C 3.472656 0.949219 1 3.421875 1 6.445313 Z M 1 189.097656 "/>
<path style="fill:none;stroke-width:1.999;stroke-linecap:butt;stroke-linejoin:miter;stroke:rgb(0%,0%,0%);stroke-opacity:1;stroke-miterlimit:10;" d="M 1 6.541344 C 1 3.517906 3.472656 1.049156 6.492188 1.049156 L 128.726563 1.049156 C 131.738281 1.049156 134.210938 3.517906 134.210938 6.541344 L 134.210938 189.193687 C 134.210938 192.217125 131.738281 194.689781 128.726563 194.689781 L 6.492188 194.689781 C 3.472656 194.689781 1 192.217125 1 189.193687 Z M 1 6.541344 " transform="matrix(1,0,0,-1,0,195.639)"/>
<path style=" stroke:none;fill-rule:nonzero;fill:rgb(0%,0%,0%);fill-opacity:1;" d="M 6.757813 9.90625 L 5.621094 9.90625 L 5.621094 4.191406 C 6.390625 3.753906 7.152344 3.425781 7.90625 3.214844 C 8.664063 2.988281 9.429688 2.875 10.199219 2.875 C 12 2.875 13.402344 3.566406 14.40625 4.953125 C 15.417969 6.324219 15.925781 8.242188 15.925781 10.707031 C 15.925781 12.457031 15.644531 14.03125 15.089844 15.429688 C 14.535156 16.8125 13.472656 18.460938 11.90625 20.363281 L 7.960938 25.210938 L 14.664063 25.210938 L 14.664063 22.085938 L 15.960938 22.085938 L 15.960938 29.863281 L 5.496094 29.863281 L 5.496094 25.53125 L 7.59375 22.8125 C 9.382813 20.507813 10.570313 18.539063 11.164063 16.921875 C 11.761719 15.296875 12.058594 13.40625 12.058594 11.238281 C 12.058594 9.191406 11.828125 7.632813 11.375 6.570313 C 10.925781 5.492188 10.269531 4.953125 9.402344 4.953125 C 8.65625 4.953125 8.058594 5.378906 7.609375 6.230469 C 7.164063 7.070313 6.878906 8.296875 6.757813 9.90625 "/>
<path style=" stroke:none;fill-rule:nonzero;fill:rgb(0%,0%,0%);fill-opacity:1;" d="M 129.253906 184.839844 L 130.390625 184.839844 L 130.390625 190.554688 C 129.617188 190.992188 128.855469 191.320313 128.105469 191.53125 C 127.347656 191.757813 126.582031 191.867188 125.8125 191.867188 C 124.011719 191.867188 122.609375 191.175781 121.601563 189.792969 C 120.59375 188.417969 120.085938 186.5 120.085938 184.039063 C 120.085938 182.289063 120.363281 180.714844 120.921875 179.316406 C 121.476563 177.933594 122.539063 176.285156 124.105469 174.382813 L 128.046875 169.535156 L 121.347656 169.535156 L 121.347656 172.660156 L 120.046875 172.660156 L 120.046875 164.882813 L 130.511719 164.882813 L 130.511719 169.214844 L 128.417969 171.929688 C 126.628906 174.238281 125.4375 176.203125 124.84375 177.824219 C 124.25 179.445313 123.953125 181.339844 123.953125 183.507813 C 123.953125 185.554688 124.179688 187.109375 124.636719 188.175781 C 125.085938 189.253906 125.742188 189.792969 126.609375 189.792969 C 127.351563 189.792969 127.949219 189.367188 128.398438 188.515625 C 128.847656 187.671875 129.132813 186.449219 129.253906 184.839844 "/>
<path style=" stroke:none;fill-rule:nonzero;fill:rgb(0%,0%,0%);fill-opacity:1;" d="M 8.78125 47.402344 C 10.117188 47.402344 10.820313 45.976563 11.1875 44.554688 C 11.554688 43.128906 11.589844 41.707031 11.589844 41.707031 L 12.269531 41.699219 C 12.269531 41.699219 12.394531 47.402344 15.066406 47.402344 Z M 8.78125 47.402344 "/>
<path style=" stroke:none;fill-rule:nonzero;fill:rgb(0%,0%,0%);fill-opacity:1;" d="M 6.519531 41.699219 C 6.527344 38.925781 10.691406 36.90625 11.914063 34.71875 C 13.140625 36.914063 17.304688 38.933594 17.3125 41.699219 C 17.3125 43.011719 16.105469 44.074219 14.609375 44.074219 C 13.125 44.074219 11.914063 43.011719 11.914063 41.699219 C 11.914063 43.011719 10.707031 44.074219 9.214844 44.074219 C 7.71875 44.074219 6.519531 43.011719 6.519531 41.699219 Z M 6.519531 41.699219 "/>
<path style=" stroke:none;fill-rule:nonzero;fill:rgb(0%,0%,0%);fill-opacity:1;" d="M 127.230469 147.34375 C 125.894531 147.34375 125.191406 148.769531 124.820313 150.191406 C 124.453125 151.613281 124.421875 153.039063 124.421875 153.039063 L 123.742188 153.046875 C 123.742188 153.046875 123.613281 147.34375 120.945313 147.34375 Z M 127.230469 147.34375 "/>
<path style=" stroke:none;fill-rule:nonzero;fill:rgb(0%,0%,0%);fill-opacity:1;" d="M 129.492188 153.046875 C 129.484375 155.820313 125.316406 157.835938 124.09375 160.027344 C 122.871094 157.828125 118.703125 155.8125 118.695313 153.046875 C 118.695313 151.734375 119.902344 150.671875 121.398438 150.671875 C 122.886719 150.671875 124.09375 151.734375 124.09375 153.046875 C 124.09375 151.734375 125.300781 150.671875 126.796875 150.671875 C 128.292969 150.671875 129.492188 151.734375 129.492188 153.046875 Z M 129.492188 153.046875 "/>
<path style=" stroke:none;fill-rule:nonzero;fill:rgb(0%,0%,0%);fill-opacity:1;" d="M 75.527344 145.859375 C 72.324219 145.859375 70.632813 149.273438 69.75 152.691406 C 68.867188 156.105469 68.789063 159.523438 68.789063 159.523438 L 67.160156 159.542969 C 67.160156 159.542969 66.851563 145.859375 60.441406 145.859375 Z M 75.527344 145.859375 "/>
<path style=" stroke:none;fill-rule:nonzero;fill:rgb(0%,0%,0%);fill-opacity:1;" d="M 80.960938 159.542969 C 80.941406 166.203125 70.941406 171.039063 68.003906 176.296875 C 65.066406 171.019531 55.066406 166.183594 55.050781 159.542969 C 55.050781 156.394531 57.945313 153.84375 61.535156 153.84375 C 65.105469 153.84375 68.003906 156.394531 68.003906 159.542969 C 68.003906 156.394531 70.902344 153.84375 74.492188 153.84375 C 78.082031 153.84375 80.960938 156.394531 80.960938 159.542969 Z M 80.960938 159.542969 "/>
<path style=" stroke:none;fill-rule:nonzero;fill:rgb(0%,0%,0%);fill-opacity:1;" d="M 60.480469 45.566406 C 63.6875 45.566406 65.375 42.152344 66.257813 38.734375 C 67.140625 35.320313 67.21875 31.902344 67.21875 31.902344 L 68.847656 31.882813 C 68.847656 31.882813 69.15625 45.566406 75.566406 45.566406 Z M 60.480469 45.566406 "/>
<path style=" stroke:none;fill-rule:nonzero;fill:rgb(0%,0%,0%);fill-opacity:1;" d="M 55.050781 31.882813 C 55.070313 25.222656 65.066406 20.386719 68.003906 15.128906 C 70.941406 20.40625 80.941406 25.242188 80.960938 31.882813 C 80.960938 35.03125 78.0625 37.585938 74.472656 37.585938 C 70.902344 37.585938 68.003906 35.03125 68.003906 31.882813 C 68.003906 35.03125 65.105469 37.585938 61.515625 37.585938 C 57.929688 37.585938 55.050781 35.03125 55.050781 31.882813 Z M 55.050781 31.882813 "/>
</g>
</svg>
