<?xml version="1.0" encoding="UTF-8"?>
<svg xmlns="http://www.w3.org/2000/svg" xmlns:xlink="http://www.w3.org/1999/xlink" width="135.21pt" height="195.639pt" viewBox="0 0 135.21 195.639" version="1.1">
<g id="surface1">
<path style=" stroke:none;fill-rule:nonzero;fill:rgb(100%,100%,100%);fill-opacity:1;" d="M 1 189.097656 C 1 192.121094 3.46875 194.589844 6.492188 194.589844 L 128.722656 194.589844 C 131.738281 194.589844 134.210938 192.121094 134.210938 189.097656 L 134.210938 6.445313 C 134.210938 3.421875 131.738281 0.949219 128.722656 0.949219 L 6.492188 0.949219 C 3.46875 0.949219 1 3.421875 1 6.445313 Z M 1 189.097656 "/>
<path style="fill:none;stroke-width:1.999;stroke-linecap:butt;stroke-linejoin:miter;stroke:rgb(0%,0%,0%);stroke-opacity:1;stroke-miterlimit:10;" d="M 1 6.541344 C 1 3.517906 3.46875 1.049156 6.492188 1.049156 L 128.722656 1.049156 C 131.738281 1.049156 134.210938 3.517906 134.210938 6.541344 L 134.210938 189.193687 C 134.210938 192.217125 131.738281 194.689781 128.722656 194.689781 L 6.492188 194.689781 C 3.46875 194.689781 1 192.217125 1 189.193687 Z M 1 6.541344 " transform="matrix(1,0,0,-1,0,195.639)"/>
<path style=" stroke:none;fill-rule:nonzero;fill:rgb(86.29303%,23.658752%,16.767883%);fill-opacity:1;" d="M 5.867188 4.117188 C 6.699219 3.703125 7.507813 3.394531 8.292969 3.195313 C 9.074219 2.980469 9.839844 2.875 10.585938 2.875 C 12.292969 2.875 13.601563 3.449219 14.511719 4.597656 C 15.425781 5.734375 15.886719 7.367188 15.886719 9.496094 C 15.886719 11.09375 15.621094 12.390625 15.097656 13.386719 C 14.574219 14.378906 13.804688 15.050781 12.796875 15.390625 C 14.027344 15.757813 14.945313 16.546875 15.554688 17.753906 C 16.160156 18.960938 16.464844 20.613281 16.464844 22.707031 C 16.464844 25.179688 15.9375 27.078125 14.890625 28.40625 C 13.847656 29.71875 12.335938 30.378906 10.351563 30.378906 C 9.605469 30.378906 8.832031 30.257813 8.035156 30.023438 C 7.246094 29.785156 6.417969 29.429688 5.554688 28.957031 L 5.554688 23.132813 L 6.699219 23.132813 C 6.769531 24.8125 7.050781 26.097656 7.542969 26.984375 C 8.035156 27.863281 8.71875 28.300781 9.59375 28.300781 C 10.550781 28.300781 11.296875 27.800781 11.820313 26.808594 C 12.34375 25.800781 12.605469 24.382813 12.605469 22.546875 C 12.605469 20.628906 12.332031 19.148438 11.78125 18.109375 C 11.238281 17.066406 10.464844 16.546875 9.460938 16.546875 L 8.832031 16.546875 L 8.832031 14.414063 L 9.324219 14.414063 C 10.253906 14.414063 10.953125 14.011719 11.421875 13.207031 C 11.890625 12.402344 12.121094 11.203125 12.121094 9.605469 C 12.121094 8.101563 11.902344 6.953125 11.460938 6.160156 C 11.023438 5.355469 10.394531 4.953125 9.574219 4.953125 C 8.828125 4.953125 8.234375 5.335938 7.800781 6.105469 C 7.363281 6.863281 7.101563 7.972656 7.011719 9.425781 L 5.867188 9.425781 L 5.867188 4.117188 "/>
<path style=" stroke:none;fill-rule:nonzero;fill:rgb(86.29303%,23.658752%,16.767883%);fill-opacity:1;" d="M 130.140625 190.625 C 129.308594 191.039063 128.5 191.347656 127.714844 191.550781 C 126.933594 191.761719 126.167969 191.867188 125.421875 191.867188 C 123.714844 191.867188 122.40625 191.296875 121.496094 190.148438 C 120.582031 189.011719 120.121094 187.378906 120.121094 185.246094 C 120.121094 183.648438 120.386719 182.351563 120.910156 181.359375 C 121.433594 180.363281 122.203125 179.695313 123.214844 179.351563 C 121.980469 178.984375 121.0625 178.199219 120.453125 176.992188 C 119.847656 175.78125 119.546875 174.132813 119.546875 172.035156 C 119.546875 169.5625 120.070313 167.664063 121.117188 166.339844 C 122.160156 165.023438 123.675781 164.367188 125.660156 164.367188 C 126.40625 164.367188 127.175781 164.484375 127.972656 164.722656 C 128.761719 164.960938 129.589844 165.3125 130.453125 165.789063 L 130.453125 171.609375 L 129.308594 171.609375 C 129.238281 169.929688 128.957031 168.644531 128.464844 167.757813 C 127.972656 166.882813 127.289063 166.445313 126.417969 166.445313 C 125.457031 166.445313 124.714844 166.941406 124.191406 167.9375 C 123.664063 168.941406 123.402344 170.363281 123.402344 172.195313 C 123.402344 174.113281 123.679688 175.59375 124.226563 176.636719 C 124.769531 177.675781 125.546875 178.199219 126.550781 178.199219 L 127.175781 178.199219 L 127.175781 180.328125 L 126.683594 180.328125 C 125.753906 180.328125 125.054688 180.730469 124.589844 181.535156 C 124.121094 182.339844 123.886719 183.542969 123.886719 185.140625 C 123.886719 186.644531 124.109375 187.789063 124.550781 188.585938 C 124.984375 189.390625 125.613281 189.792969 126.4375 189.792969 C 127.183594 189.792969 127.773438 189.40625 128.210938 188.636719 C 128.644531 187.878906 128.90625 186.773438 128.996094 185.316406 L 130.140625 185.316406 L 130.140625 190.625 "/>
<path style=" stroke:none;fill-rule:nonzero;fill:rgb(86.29303%,23.658752%,16.767883%);fill-opacity:1;" d="M 18.050781 37.914063 C 18.039063 41.683594 13.324219 44.425781 11.9375 47.40625 C 10.539063 44.433594 5.8125 41.714844 5.78125 37.945313 C 5.773438 36.171875 7.148438 34.722656 8.835938 34.722656 C 10.53125 34.722656 11.914063 36.15625 11.914063 37.929688 C 11.914063 36.148438 13.28125 34.707031 14.96875 34.707031 C 16.664063 34.699219 18.039063 36.140625 18.050781 37.914063 Z M 18.050781 37.914063 "/>
<path style=" stroke:none;fill-rule:nonzero;fill:rgb(86.29303%,23.658752%,16.767883%);fill-opacity:1;" d="M 117.960938 156.828125 C 117.96875 153.0625 122.6875 150.320313 124.070313 147.335938 C 125.46875 150.3125 130.195313 153.03125 130.226563 156.796875 C 130.234375 158.570313 128.859375 160.019531 127.171875 160.019531 C 125.476563 160.019531 124.09375 158.589844 124.09375 156.8125 C 124.09375 158.597656 122.726563 160.035156 121.039063 160.035156 C 119.34375 160.042969 117.96875 158.605469 117.960938 156.828125 Z M 117.960938 156.828125 "/>
<path style=" stroke:none;fill-rule:nonzero;fill:rgb(86.29303%,23.658752%,16.767883%);fill-opacity:1;" d="M 53.28125 168.621094 C 53.300781 159.582031 64.625 152.996094 67.945313 145.839844 C 71.304688 152.980469 82.648438 159.503906 82.726563 168.542969 C 82.742188 172.804688 79.441406 176.277344 75.394531 176.277344 C 71.324219 176.277344 68.003906 172.84375 68.003906 168.582031 C 68.003906 172.863281 64.722656 176.316406 60.671875 176.316406 C 56.601563 176.335938 53.300781 172.882813 53.28125 168.621094 Z M 53.28125 168.621094 "/>
<path style=" stroke:none;fill-rule:nonzero;fill:rgb(86.29303%,23.658752%,16.767883%);fill-opacity:1;" d="M 82.726563 84.335938 C 82.703125 93.375 71.382813 99.960938 68.0625 107.117188 C 64.703125 99.976563 53.359375 93.453125 53.28125 84.410156 C 53.265625 80.152344 56.566406 76.679688 60.613281 76.679688 C 64.683594 76.679688 68.003906 80.113281 68.003906 84.375 C 68.003906 80.09375 71.285156 76.640625 75.335938 76.640625 C 79.402344 76.621094 82.703125 80.074219 82.726563 84.335938 Z M 82.726563 84.335938 "/>
<path style=" stroke:none;fill-rule:nonzero;fill:rgb(86.29303%,23.658752%,16.767883%);fill-opacity:1;" d="M 82.726563 22.804688 C 82.703125 31.84375 71.382813 38.429688 68.0625 45.585938 C 64.703125 38.445313 53.359375 31.921875 53.28125 22.882813 C 53.265625 18.621094 56.566406 15.148438 60.613281 15.148438 C 64.683594 15.148438 68.003906 18.582031 68.003906 22.84375 C 68.003906 18.5625 71.285156 15.109375 75.335938 15.109375 C 79.402344 15.089844 82.703125 18.542969 82.726563 22.804688 Z M 82.726563 22.804688 "/>
</g>
</svg>
