<?xml version="1.0" encoding="UTF-8"?>
<svg xmlns="http://www.w3.org/2000/svg" xmlns:xlink="http://www.w3.org/1999/xlink" width="135.21pt" height="195.639pt" viewBox="0 0 135.21 195.639" version="1.1">
<g id="surface1">
<path style=" stroke:none;fill-rule:nonzero;fill:rgb(100%,100%,100%);fill-opacity:1;" d="M 1 189.097656 C 1 192.121094 3.46875 194.589844 6.492188 194.589844 L 128.722656 194.589844 C 131.738281 194.589844 134.210938 192.121094 134.210938 189.097656 L 134.210938 6.445313 C 134.210938 3.421875 131.738281 0.949219 128.722656 0.949219 L 6.492188 0.949219 C 3.46875 0.949219 1 3.421875 1 6.445313 Z M 1 189.097656 "/>
<path style="fill:none;stroke-width:1.999;stroke-linecap:butt;stroke-linejoin:miter;stroke:rgb(0%,0%,0%);stroke-opacity:1;stroke-miterlimit:10;" d="M 1 6.541344 C 1 3.517906 3.46875 1.049156 6.492188 1.049156 L 128.722656 1.049156 C 131.738281 1.049156 134.210938 3.517906 134.210938 6.541344 L 134.210938 189.193687 C 134.210938 192.217125 131.738281 194.689781 128.722656 194.689781 L 6.492188 194.689781 C 3.46875 194.689781 1 192.217125 1 189.193687 Z M 1 6.541344 " transform="matrix(1,0,0,-1,0,195.639)"/>
<path style=" stroke:none;fill-rule:nonzero;fill:rgb(0%,0%,0%);fill-opacity:1;" d="M 5.867188 4.117188 C 6.699219 3.703125 7.507813 3.398438 8.292969 3.195313 C 9.074219 2.984375 9.839844 2.875 10.585938 2.875 C 12.292969 2.875 13.601563 3.449219 14.511719 4.597656 C 15.425781 5.734375 15.886719 7.367188 15.886719 9.496094 C 15.886719 11.097656 15.621094 12.390625 15.097656 13.386719 C 14.574219 14.382813 13.804688 15.050781 12.796875 15.394531 C 14.027344 15.761719 14.945313 16.546875 15.554688 17.753906 C 16.160156 18.960938 16.464844 20.613281 16.464844 22.707031 C 16.464844 25.183594 15.9375 27.082031 14.890625 28.40625 C 13.847656 29.722656 12.335938 30.378906 10.351563 30.378906 C 9.605469 30.378906 8.832031 30.257813 8.035156 30.023438 C 7.246094 29.785156 6.417969 29.429688 5.554688 28.957031 L 5.554688 23.132813 L 6.699219 23.132813 C 6.769531 24.816406 7.050781 26.097656 7.542969 26.988281 C 8.035156 27.863281 8.71875 28.300781 9.59375 28.300781 C 10.550781 28.300781 11.296875 27.804688 11.820313 26.808594 C 12.34375 25.804688 12.605469 24.382813 12.605469 22.546875 C 12.605469 20.632813 12.332031 19.152344 11.78125 18.109375 C 11.238281 17.066406 10.464844 16.546875 9.460938 16.546875 L 8.832031 16.546875 L 8.832031 14.417969 L 9.324219 14.417969 C 10.253906 14.417969 10.953125 14.015625 11.421875 13.210938 C 11.890625 12.402344 12.121094 11.203125 12.121094 9.605469 C 12.121094 8.101563 11.902344 6.953125 11.460938 6.160156 C 11.023438 5.355469 10.394531 4.953125 9.574219 4.953125 C 8.828125 4.953125 8.234375 5.339844 7.800781 6.105469 C 7.363281 6.863281 7.101563 7.972656 7.011719 9.425781 L 5.867188 9.425781 L 5.867188 4.117188 "/>
<path style=" stroke:none;fill-rule:nonzero;fill:rgb(0%,0%,0%);fill-opacity:1;" d="M 130.140625 190.625 C 129.308594 191.039063 128.5 191.347656 127.714844 191.550781 C 126.933594 191.761719 126.167969 191.867188 125.421875 191.867188 C 123.714844 191.867188 122.40625 191.296875 121.496094 190.148438 C 120.582031 189.011719 120.121094 187.378906 120.121094 185.246094 C 120.121094 183.648438 120.386719 182.351563 120.910156 181.359375 C 121.433594 180.363281 122.203125 179.695313 123.214844 179.351563 C 121.980469 178.984375 121.0625 178.199219 120.453125 176.992188 C 119.847656 175.785156 119.546875 174.132813 119.546875 172.035156 C 119.546875 169.5625 120.070313 167.664063 121.117188 166.339844 C 122.160156 165.023438 123.675781 164.367188 125.660156 164.367188 C 126.40625 164.367188 127.175781 164.484375 127.972656 164.722656 C 128.761719 164.960938 129.589844 165.3125 130.453125 165.789063 L 130.453125 171.609375 L 129.308594 171.609375 C 129.238281 169.929688 128.957031 168.644531 128.464844 167.757813 C 127.972656 166.882813 127.289063 166.445313 126.417969 166.445313 C 125.457031 166.445313 124.714844 166.941406 124.191406 167.9375 C 123.664063 168.941406 123.402344 170.363281 123.402344 172.195313 C 123.402344 174.113281 123.679688 175.59375 124.226563 176.636719 C 124.769531 177.675781 125.546875 178.199219 126.550781 178.199219 L 127.175781 178.199219 L 127.175781 180.328125 L 126.683594 180.328125 C 125.753906 180.328125 125.054688 180.730469 124.589844 181.535156 C 124.121094 182.339844 123.886719 183.542969 123.886719 185.140625 C 123.886719 186.644531 124.109375 187.792969 124.550781 188.585938 C 124.984375 189.390625 125.613281 189.792969 126.4375 189.792969 C 127.183594 189.792969 127.773438 189.40625 128.210938 188.636719 C 128.644531 187.878906 128.90625 186.773438 128.996094 185.316406 L 130.140625 185.316406 L 130.140625 190.625 "/>
<path style=" stroke:none;fill-rule:nonzero;fill:rgb(0%,0%,0%);fill-opacity:1;" d="M 8.78125 47.402344 C 10.117188 47.402344 10.820313 45.976563 11.1875 44.554688 C 11.554688 43.128906 11.585938 41.707031 11.585938 41.707031 L 12.265625 41.699219 C 12.265625 41.699219 12.394531 47.402344 15.066406 47.402344 Z M 8.78125 47.402344 "/>
<path style=" stroke:none;fill-rule:nonzero;fill:rgb(0%,0%,0%);fill-opacity:1;" d="M 6.515625 41.699219 C 6.523438 38.925781 10.691406 36.90625 11.914063 34.71875 C 13.140625 36.914063 17.304688 38.933594 17.3125 41.699219 C 17.3125 43.011719 16.105469 44.074219 14.609375 44.074219 C 13.121094 44.074219 11.914063 43.011719 11.914063 41.699219 C 11.914063 43.011719 10.707031 44.074219 9.210938 44.074219 C 7.71875 44.074219 6.515625 43.011719 6.515625 41.699219 Z M 6.515625 41.699219 "/>
<path style=" stroke:none;fill-rule:nonzero;fill:rgb(0%,0%,0%);fill-opacity:1;" d="M 127.226563 147.34375 C 125.894531 147.34375 125.1875 148.769531 124.820313 150.191406 C 124.453125 151.613281 124.421875 153.039063 124.421875 153.039063 L 123.742188 153.046875 C 123.742188 153.046875 123.613281 147.34375 120.941406 147.34375 Z M 127.226563 147.34375 "/>
<path style=" stroke:none;fill-rule:nonzero;fill:rgb(0%,0%,0%);fill-opacity:1;" d="M 129.492188 153.046875 C 129.484375 155.820313 125.316406 157.835938 124.09375 160.027344 C 122.871094 157.828125 118.703125 155.8125 118.695313 153.046875 C 118.695313 151.734375 119.902344 150.671875 121.398438 150.671875 C 122.886719 150.671875 124.09375 151.734375 124.09375 153.046875 C 124.09375 151.734375 125.300781 150.671875 126.796875 150.671875 C 128.292969 150.671875 129.492188 151.734375 129.492188 153.046875 Z M 129.492188 153.046875 "/>
<path style=" stroke:none;fill-rule:nonzero;fill:rgb(0%,0%,0%);fill-opacity:1;" d="M 75.527344 145.859375 C 72.320313 145.859375 70.632813 149.273438 69.75 152.691406 C 68.867188 156.105469 68.789063 159.523438 68.789063 159.523438 L 67.160156 159.542969 C 67.160156 159.542969 66.851563 145.859375 60.441406 145.859375 Z M 75.527344 145.859375 "/>
<path style=" stroke:none;fill-rule:nonzero;fill:rgb(0%,0%,0%);fill-opacity:1;" d="M 80.960938 159.542969 C 80.941406 166.203125 70.941406 171.039063 68.003906 176.296875 C 65.066406 171.019531 55.066406 166.183594 55.050781 159.542969 C 55.050781 156.394531 57.945313 153.84375 61.535156 153.84375 C 65.105469 153.84375 68.003906 156.394531 68.003906 159.542969 C 68.003906 156.394531 70.902344 153.84375 74.492188 153.84375 C 78.078125 153.84375 80.960938 156.394531 80.960938 159.542969 Z M 80.960938 159.542969 "/>
<path style=" stroke:none;fill-rule:nonzero;fill:rgb(0%,0%,0%);fill-opacity:1;" d="M 60.480469 107.097656 C 63.683594 107.097656 65.375 103.683594 66.257813 100.265625 C 67.140625 96.847656 67.21875 93.433594 67.21875 93.433594 L 68.847656 93.414063 C 68.847656 93.414063 69.15625 107.097656 75.566406 107.097656 Z M 60.480469 107.097656 "/>
<path style=" stroke:none;fill-rule:nonzero;fill:rgb(0%,0%,0%);fill-opacity:1;" d="M 55.050781 93.414063 C 55.066406 86.753906 65.066406 81.917969 68.003906 76.65625 C 70.941406 81.9375 80.941406 86.773438 80.960938 93.414063 C 80.960938 96.5625 78.0625 99.113281 74.472656 99.113281 C 70.902344 99.113281 68.003906 96.5625 68.003906 93.414063 C 68.003906 96.5625 65.105469 99.113281 61.515625 99.113281 C 57.929688 99.113281 55.050781 96.5625 55.050781 93.414063 Z M 55.050781 93.414063 "/>
<path style=" stroke:none;fill-rule:nonzero;fill:rgb(0%,0%,0%);fill-opacity:1;" d="M 60.480469 45.566406 C 63.683594 45.566406 65.375 42.152344 66.257813 38.734375 C 67.140625 35.320313 67.21875 31.902344 67.21875 31.902344 L 68.847656 31.882813 C 68.847656 31.882813 69.15625 45.566406 75.566406 45.566406 Z M 60.480469 45.566406 "/>
<path style=" stroke:none;fill-rule:nonzero;fill:rgb(0%,0%,0%);fill-opacity:1;" d="M 55.050781 31.882813 C 55.066406 25.222656 65.066406 20.386719 68.003906 15.128906 C 70.941406 20.40625 80.941406 25.242188 80.960938 31.882813 C 80.960938 35.03125 78.0625 37.585938 74.472656 37.585938 C 70.902344 37.585938 68.003906 35.03125 68.003906 31.882813 C 68.003906 35.03125 65.105469 37.585938 61.515625 37.585938 C 57.929688 37.585938 55.050781 35.03125 55.050781 31.882813 Z M 55.050781 31.882813 "/>
</g>
</svg>
