<?xml version="1.0" encoding="UTF-8"?>
<svg xmlns="http://www.w3.org/2000/svg" xmlns:xlink="http://www.w3.org/1999/xlink" width="135.21pt" height="195.639pt" viewBox="0 0 135.21 195.639" version="1.1">
<g id="surface1">
<path style=" stroke:none;fill-rule:nonzero;fill:rgb(100%,100%,100%);fill-opacity:1;" d="M 1 189.097656 C 1 192.121094 3.46875 194.59375 6.492188 194.59375 L 128.722656 194.59375 C 131.738281 194.59375 134.210938 192.121094 134.210938 189.097656 L 134.210938 6.445313 C 134.210938 3.421875 131.738281 0.953125 128.722656 0.953125 L 6.492188 0.953125 C 3.46875 0.953125 1 3.421875 1 6.445313 Z M 1 189.097656 "/>
<path style="fill:none;stroke-width:1.999;stroke-linecap:butt;stroke-linejoin:miter;stroke:rgb(0%,0%,0%);stroke-opacity:1;stroke-miterlimit:10;" d="M 1 6.541344 C 1 3.517906 3.46875 1.04525 6.492188 1.04525 L 128.722656 1.04525 C 131.738281 1.04525 134.210938 3.517906 134.210938 6.541344 L 134.210938 189.193687 C 134.210938 192.217125 131.738281 194.685875 128.722656 194.685875 L 6.492188 194.685875 C 3.46875 194.685875 1 192.217125 1 189.193687 Z M 1 6.541344 " transform="matrix(1,0,0,-1,0,195.639)"/>
<path style=" stroke:none;fill-rule:nonzero;fill:rgb(0%,0%,0%);fill-opacity:1;" d="M 5.867188 4.117188 C 6.699219 3.703125 7.507813 3.398438 8.292969 3.195313 C 9.074219 2.984375 9.839844 2.875 10.585938 2.875 C 12.292969 2.875 13.601563 3.449219 14.511719 4.597656 C 15.425781 5.734375 15.886719 7.367188 15.886719 9.5 C 15.886719 11.097656 15.621094 12.394531 15.097656 13.386719 C 14.574219 14.382813 13.804688 15.050781 12.796875 15.394531 C 14.027344 15.761719 14.945313 16.546875 15.554688 17.753906 C 16.160156 18.960938 16.464844 20.613281 16.464844 22.707031 C 16.464844 25.183594 15.9375 27.082031 14.890625 28.40625 C 13.847656 29.722656 12.335938 30.378906 10.351563 30.378906 C 9.605469 30.378906 8.832031 30.261719 8.035156 30.023438 C 7.246094 29.785156 6.417969 29.429688 5.554688 28.957031 L 5.554688 23.132813 L 6.699219 23.132813 C 6.769531 24.816406 7.050781 26.097656 7.542969 26.988281 C 8.035156 27.863281 8.71875 28.300781 9.59375 28.300781 C 10.550781 28.300781 11.296875 27.804688 11.820313 26.808594 C 12.34375 25.804688 12.605469 24.382813 12.605469 22.546875 C 12.605469 20.632813 12.332031 19.152344 11.78125 18.109375 C 11.238281 17.066406 10.464844 16.546875 9.460938 16.546875 L 8.832031 16.546875 L 8.832031 14.417969 L 9.324219 14.417969 C 10.253906 14.417969 10.953125 14.015625 11.421875 13.210938 C 11.890625 12.40625 12.121094 11.203125 12.121094 9.605469 C 12.121094 8.101563 11.902344 6.953125 11.460938 6.160156 C 11.023438 5.355469 10.394531 4.953125 9.574219 4.953125 C 8.828125 4.953125 8.234375 5.339844 7.800781 6.109375 C 7.363281 6.863281 7.101563 7.972656 7.011719 9.429688 L 5.867188 9.429688 L 5.867188 4.117188 "/>
<path style=" stroke:none;fill-rule:nonzero;fill:rgb(0%,0%,0%);fill-opacity:1;" d="M 130.140625 190.628906 C 129.308594 191.039063 128.5 191.347656 127.714844 191.550781 C 126.933594 191.761719 126.167969 191.871094 125.421875 191.871094 C 123.714844 191.871094 122.40625 191.296875 121.496094 190.148438 C 120.582031 189.011719 120.121094 187.378906 120.121094 185.246094 C 120.121094 183.648438 120.386719 182.351563 120.910156 181.359375 C 121.433594 180.363281 122.203125 179.695313 123.214844 179.351563 C 121.980469 178.984375 121.0625 178.199219 120.453125 176.992188 C 119.847656 175.785156 119.546875 174.132813 119.546875 172.039063 C 119.546875 169.5625 120.070313 167.664063 121.117188 166.339844 C 122.160156 165.023438 123.675781 164.367188 125.660156 164.367188 C 126.40625 164.367188 127.175781 164.484375 127.972656 164.722656 C 128.761719 164.960938 129.589844 165.316406 130.453125 165.789063 L 130.453125 171.613281 L 129.308594 171.613281 C 129.238281 169.929688 128.957031 168.648438 128.464844 167.757813 C 127.972656 166.882813 127.289063 166.445313 126.417969 166.445313 C 125.457031 166.445313 124.714844 166.941406 124.191406 167.9375 C 123.664063 168.941406 123.402344 170.363281 123.402344 172.199219 C 123.402344 174.113281 123.679688 175.59375 124.226563 176.636719 C 124.769531 177.679688 125.546875 178.199219 126.550781 178.199219 L 127.175781 178.199219 L 127.175781 180.328125 L 126.683594 180.328125 C 125.753906 180.328125 125.054688 180.730469 124.589844 181.535156 C 124.121094 182.339844 123.886719 183.542969 123.886719 185.140625 C 123.886719 186.644531 124.109375 187.792969 124.550781 188.585938 C 124.984375 189.390625 125.613281 189.792969 126.4375 189.792969 C 127.183594 189.792969 127.773438 189.40625 128.210938 188.636719 C 128.644531 187.882813 128.90625 186.773438 128.996094 185.316406 L 130.140625 185.316406 L 130.140625 190.628906 "/>
<path style=" stroke:none;fill-rule:nonzero;fill:rgb(0%,0%,0%);fill-opacity:1;" d="M 9.234375 37.332031 C 9.234375 38.78125 10.445313 39.953125 11.9375 39.953125 C 13.433594 39.953125 14.640625 38.78125 14.640625 37.332031 C 14.640625 35.886719 13.433594 34.710938 11.9375 34.710938 C 10.445313 34.710938 9.234375 35.886719 9.234375 37.332031 Z M 9.234375 37.332031 "/>
<path style=" stroke:none;fill-rule:nonzero;fill:rgb(0%,0%,0%);fill-opacity:1;" d="M 5.75 42.300781 C 5.75 43.746094 6.957031 44.921875 8.453125 44.921875 C 9.949219 44.921875 11.15625 43.746094 11.15625 42.300781 C 11.15625 40.851563 9.949219 39.675781 8.453125 39.675781 C 6.957031 39.675781 5.75 40.851563 5.75 42.300781 Z M 5.75 42.300781 "/>
<path style=" stroke:none;fill-rule:nonzero;fill:rgb(0%,0%,0%);fill-opacity:1;" d="M 12.675781 42.316406 C 12.675781 42.84375 12.835938 43.339844 13.113281 43.753906 C 13.59375 44.464844 14.433594 44.9375 15.378906 44.9375 C 16.871094 44.9375 18.082031 43.761719 18.082031 42.316406 C 18.082031 40.867188 16.871094 39.691406 15.378906 39.691406 C 13.882813 39.691406 12.675781 40.867188 12.675781 42.316406 Z M 12.675781 42.316406 "/>
<path style=" stroke:none;fill-rule:nonzero;fill:rgb(0%,0%,0%);fill-opacity:1;" d="M 8.765625 47.410156 C 10.101563 47.410156 10.804688 46.320313 11.171875 45.234375 C 11.539063 44.144531 11.570313 43.058594 11.570313 43.058594 L 12.257813 43.058594 C 12.257813 43.058594 12.386719 47.402344 15.058594 47.410156 Z M 8.765625 47.410156 "/>
<path style=" stroke:none;fill-rule:nonzero;fill:rgb(0%,0%,0%);fill-opacity:1;" d="M 13.769531 39.261719 C 12.25 40.777344 12.25 43.058594 12.25 43.058594 L 11.570313 43.066406 C 11.570313 43.066406 11.570313 40.738281 10.09375 39.261719 "/>
<path style=" stroke:none;fill-rule:nonzero;fill:rgb(0%,0%,0%);fill-opacity:1;" d="M 13.46875 44.136719 C 11.945313 42.617188 9.667969 42.617188 9.667969 42.617188 L 9.667969 41.9375 C 9.667969 41.9375 11.996094 41.9375 13.476563 40.460938 "/>
<path style=" stroke:none;fill-rule:nonzero;fill:rgb(0%,0%,0%);fill-opacity:1;" d="M 10.421875 44.144531 C 11.9375 42.628906 14.21875 42.628906 14.21875 42.628906 L 14.21875 41.945313 C 14.21875 41.945313 11.890625 41.945313 10.410156 40.46875 "/>
<path style=" stroke:none;fill-rule:nonzero;fill:rgb(0%,0%,0%);fill-opacity:1;" d="M 126.773438 157.414063 C 126.773438 155.964844 125.566406 154.789063 124.070313 154.789063 C 122.574219 154.789063 121.367188 155.964844 121.367188 157.414063 C 121.367188 158.859375 122.574219 160.035156 124.070313 160.035156 C 125.566406 160.035156 126.773438 158.859375 126.773438 157.414063 Z M 126.773438 157.414063 "/>
<path style=" stroke:none;fill-rule:nonzero;fill:rgb(0%,0%,0%);fill-opacity:1;" d="M 130.257813 152.445313 C 130.257813 151 129.050781 149.824219 127.554688 149.824219 C 126.0625 149.824219 124.851563 151 124.851563 152.445313 C 124.851563 153.894531 126.0625 155.070313 127.554688 155.070313 C 129.050781 155.070313 130.257813 153.894531 130.257813 152.445313 Z M 130.257813 152.445313 "/>
<path style=" stroke:none;fill-rule:nonzero;fill:rgb(0%,0%,0%);fill-opacity:1;" d="M 123.335938 152.429688 C 123.335938 151.902344 123.175781 151.40625 122.894531 150.992188 C 122.414063 150.28125 121.574219 149.808594 120.632813 149.808594 C 119.136719 149.808594 117.929688 150.984375 117.929688 152.429688 C 117.929688 153.878906 119.136719 155.054688 120.632813 155.054688 C 122.125 155.054688 123.335938 153.878906 123.335938 152.429688 Z M 123.335938 152.429688 "/>
<path style=" stroke:none;fill-rule:nonzero;fill:rgb(0%,0%,0%);fill-opacity:1;" d="M 127.242188 147.335938 C 125.910156 147.335938 125.203125 148.425781 124.835938 149.511719 C 124.46875 150.601563 124.4375 151.6875 124.4375 151.6875 L 123.75 151.6875 C 123.75 151.6875 123.621094 147.34375 120.949219 147.335938 Z M 127.242188 147.335938 "/>
<path style=" stroke:none;fill-rule:nonzero;fill:rgb(0%,0%,0%);fill-opacity:1;" d="M 122.238281 155.484375 C 123.757813 153.96875 123.757813 151.6875 123.757813 151.6875 L 124.4375 151.679688 C 124.4375 151.679688 124.4375 154.007813 125.917969 155.484375 "/>
<path style=" stroke:none;fill-rule:nonzero;fill:rgb(0%,0%,0%);fill-opacity:1;" d="M 122.542969 150.609375 C 124.0625 152.128906 126.339844 152.128906 126.339844 152.128906 L 126.339844 152.808594 C 126.339844 152.808594 124.015625 152.808594 122.535156 154.285156 "/>
<path style=" stroke:none;fill-rule:nonzero;fill:rgb(0%,0%,0%);fill-opacity:1;" d="M 125.589844 150.601563 C 124.070313 152.117188 121.789063 152.117188 121.789063 152.117188 L 121.789063 152.800781 C 121.789063 152.800781 124.117188 152.800781 125.597656 154.277344 "/>
<path style=" stroke:none;fill-rule:nonzero;fill:rgb(0%,0%,0%);fill-opacity:1;" d="M 74.433594 170.023438 C 74.433594 166.546875 71.535156 163.726563 67.945313 163.726563 C 64.355469 163.726563 61.460938 166.546875 61.460938 170.023438 C 61.460938 173.496094 64.355469 176.316406 67.945313 176.316406 C 71.535156 176.316406 74.433594 173.496094 74.433594 170.023438 Z M 74.433594 170.023438 "/>
<path style=" stroke:none;fill-rule:nonzero;fill:rgb(0%,0%,0%);fill-opacity:1;" d="M 82.800781 158.101563 C 82.800781 154.628906 79.902344 151.808594 76.3125 151.808594 C 72.726563 151.808594 69.828125 154.628906 69.828125 158.101563 C 69.828125 161.578125 72.726563 164.398438 76.3125 164.398438 C 79.902344 164.398438 82.800781 161.578125 82.800781 158.101563 Z M 82.800781 158.101563 "/>
<path style=" stroke:none;fill-rule:nonzero;fill:rgb(0%,0%,0%);fill-opacity:1;" d="M 66.179688 158.066406 C 66.179688 156.796875 65.796875 155.609375 65.125 154.609375 C 63.972656 152.902344 61.957031 151.769531 59.691406 151.769531 C 56.105469 151.769531 53.207031 154.589844 53.207031 158.066406 C 53.207031 161.539063 56.105469 164.359375 59.691406 164.359375 C 63.28125 164.359375 66.179688 161.539063 66.179688 158.066406 Z M 66.179688 158.066406 "/>
<path style=" stroke:none;fill-rule:nonzero;fill:rgb(0%,0%,0%);fill-opacity:1;" d="M 75.566406 145.839844 C 72.359375 145.839844 70.671875 148.449219 69.789063 151.058594 C 68.90625 153.671875 68.828125 156.28125 68.828125 156.28125 L 67.179688 156.28125 C 67.179688 156.28125 66.871094 145.859375 60.460938 145.839844 Z M 75.566406 145.839844 "/>
<path style=" stroke:none;fill-rule:nonzero;fill:rgb(0%,0%,0%);fill-opacity:1;" d="M 63.550781 165.394531 C 67.199219 161.75 67.199219 156.28125 67.199219 156.28125 L 68.828125 156.261719 C 68.828125 156.261719 68.828125 161.847656 72.378906 165.394531 "/>
<path style=" stroke:none;fill-rule:nonzero;fill:rgb(0%,0%,0%);fill-opacity:1;" d="M 64.28125 153.6875 C 67.925781 157.335938 73.398438 157.335938 73.398438 157.335938 L 73.398438 158.96875 C 73.398438 158.96875 67.8125 158.96875 64.261719 162.515625 "/>
<path style=" stroke:none;fill-rule:nonzero;fill:rgb(0%,0%,0%);fill-opacity:1;" d="M 71.59375 153.671875 C 67.945313 157.316406 62.476563 157.316406 62.476563 157.316406 L 62.476563 158.949219 C 62.476563 158.949219 68.0625 158.949219 71.613281 162.496094 "/>
<path style=" stroke:none;fill-rule:nonzero;fill:rgb(0%,0%,0%);fill-opacity:1;" d="M 61.574219 82.933594 C 61.574219 86.410156 64.472656 89.230469 68.0625 89.230469 C 71.648438 89.230469 74.550781 86.410156 74.550781 82.933594 C 74.550781 79.460938 71.648438 76.640625 68.0625 76.640625 C 64.472656 76.640625 61.574219 79.460938 61.574219 82.933594 Z M 61.574219 82.933594 "/>
<path style=" stroke:none;fill-rule:nonzero;fill:rgb(0%,0%,0%);fill-opacity:1;" d="M 53.207031 94.855469 C 53.207031 98.328125 56.105469 101.148438 59.691406 101.148438 C 63.28125 101.148438 66.179688 98.328125 66.179688 94.855469 C 66.179688 91.378906 63.28125 88.558594 59.691406 88.558594 C 56.105469 88.558594 53.207031 91.378906 53.207031 94.855469 Z M 53.207031 94.855469 "/>
<path style=" stroke:none;fill-rule:nonzero;fill:rgb(0%,0%,0%);fill-opacity:1;" d="M 69.828125 94.890625 C 69.828125 96.160156 70.210938 97.347656 70.882813 98.347656 C 72.035156 100.054688 74.050781 101.1875 76.3125 101.1875 C 79.902344 101.1875 82.800781 98.367188 82.800781 94.890625 C 82.800781 91.417969 79.902344 88.597656 76.3125 88.597656 C 72.726563 88.597656 69.828125 91.417969 69.828125 94.890625 Z M 69.828125 94.890625 "/>
<path style=" stroke:none;fill-rule:nonzero;fill:rgb(0%,0%,0%);fill-opacity:1;" d="M 60.441406 107.117188 C 63.648438 107.117188 65.335938 104.507813 66.21875 101.898438 C 67.101563 99.285156 67.179688 96.675781 67.179688 96.675781 L 68.828125 96.675781 C 68.828125 96.675781 69.136719 107.097656 75.546875 107.117188 Z M 60.441406 107.117188 "/>
<path style=" stroke:none;fill-rule:nonzero;fill:rgb(0%,0%,0%);fill-opacity:1;" d="M 72.457031 87.558594 C 68.808594 91.207031 68.808594 96.675781 68.808594 96.675781 L 67.179688 96.695313 C 67.179688 96.695313 67.179688 91.109375 63.628906 87.558594 "/>
<path style=" stroke:none;fill-rule:nonzero;fill:rgb(0%,0%,0%);fill-opacity:1;" d="M 71.726563 99.269531 C 68.082031 95.621094 62.609375 95.621094 62.609375 95.621094 L 62.609375 93.988281 C 62.609375 93.988281 68.195313 93.988281 71.746094 90.4375 "/>
<path style=" stroke:none;fill-rule:nonzero;fill:rgb(0%,0%,0%);fill-opacity:1;" d="M 64.414063 99.285156 C 68.0625 95.640625 73.53125 95.640625 73.53125 95.640625 L 73.53125 94.007813 C 73.53125 94.007813 67.945313 94.007813 64.394531 90.460938 "/>
<path style=" stroke:none;fill-rule:nonzero;fill:rgb(0%,0%,0%);fill-opacity:1;" d="M 61.574219 21.40625 C 61.574219 24.878906 64.472656 27.699219 68.0625 27.699219 C 71.648438 27.699219 74.550781 24.878906 74.550781 21.40625 C 74.550781 17.929688 71.648438 15.109375 68.0625 15.109375 C 64.472656 15.109375 61.574219 17.929688 61.574219 21.40625 Z M 61.574219 21.40625 "/>
<path style=" stroke:none;fill-rule:nonzero;fill:rgb(0%,0%,0%);fill-opacity:1;" d="M 53.207031 33.324219 C 53.207031 36.796875 56.105469 39.617188 59.691406 39.617188 C 63.28125 39.617188 66.179688 36.796875 66.179688 33.324219 C 66.179688 29.851563 63.28125 27.027344 59.691406 27.027344 C 56.105469 27.027344 53.207031 29.851563 53.207031 33.324219 Z M 53.207031 33.324219 "/>
<path style=" stroke:none;fill-rule:nonzero;fill:rgb(0%,0%,0%);fill-opacity:1;" d="M 69.828125 33.363281 C 69.828125 34.628906 70.210938 35.820313 70.882813 36.816406 C 72.035156 38.523438 74.050781 39.65625 76.3125 39.65625 C 79.902344 39.65625 82.800781 36.835938 82.800781 33.363281 C 82.800781 29.886719 79.902344 27.066406 76.3125 27.066406 C 72.726563 27.066406 69.828125 29.886719 69.828125 33.363281 Z M 69.828125 33.363281 "/>
<path style=" stroke:none;fill-rule:nonzero;fill:rgb(0%,0%,0%);fill-opacity:1;" d="M 60.441406 45.589844 C 63.648438 45.589844 65.335938 42.976563 66.21875 40.367188 C 67.101563 37.757813 67.179688 35.148438 67.179688 35.148438 L 68.828125 35.148438 C 68.828125 35.148438 69.136719 45.570313 75.546875 45.589844 Z M 60.441406 45.589844 "/>
<path style=" stroke:none;fill-rule:nonzero;fill:rgb(0%,0%,0%);fill-opacity:1;" d="M 72.457031 26.03125 C 68.808594 29.675781 68.808594 35.148438 68.808594 35.148438 L 67.179688 35.164063 C 67.179688 35.164063 67.179688 29.582031 63.628906 26.03125 "/>
<path style=" stroke:none;fill-rule:nonzero;fill:rgb(0%,0%,0%);fill-opacity:1;" d="M 71.726563 37.738281 C 68.082031 34.089844 62.609375 34.089844 62.609375 34.089844 L 62.609375 32.460938 C 62.609375 32.460938 68.195313 32.460938 71.746094 28.910156 "/>
<path style=" stroke:none;fill-rule:nonzero;fill:rgb(0%,0%,0%);fill-opacity:1;" d="M 64.414063 37.757813 C 68.0625 34.109375 73.53125 34.109375 73.53125 34.109375 L 73.53125 32.480469 C 73.53125 32.480469 67.945313 32.480469 64.394531 28.929688 "/>
</g>
</svg>
