<?xml version="1.0" encoding="UTF-8"?>
<svg xmlns="http://www.w3.org/2000/svg" xmlns:xlink="http://www.w3.org/1999/xlink" width="135.21pt" height="195.639pt" viewBox="0 0 135.21 195.639" version="1.1">
<g id="surface1">
<path style=" stroke:none;fill-rule:nonzero;fill:rgb(100%,100%,100%);fill-opacity:1;" d="M 1 189.097656 C 1 192.121094 3.472656 194.59375 6.492188 194.59375 L 128.722656 194.59375 C 131.738281 194.59375 134.210938 192.121094 134.210938 189.097656 L 134.210938 6.445313 C 134.210938 3.421875 131.738281 0.953125 128.722656 0.953125 L 6.492188 0.953125 C 3.472656 0.953125 1 3.421875 1 6.445313 Z M 1 189.097656 "/>
<path style="fill:none;stroke-width:1.999;stroke-linecap:butt;stroke-linejoin:miter;stroke:rgb(0%,0%,0%);stroke-opacity:1;stroke-miterlimit:10;" d="M 1 6.541344 C 1 3.517906 3.472656 1.04525 6.492188 1.04525 L 128.722656 1.04525 C 131.738281 1.04525 134.210938 3.517906 134.210938 6.541344 L 134.210938 189.193687 C 134.210938 192.217125 131.738281 194.685875 128.722656 194.685875 L 6.492188 194.685875 C 3.472656 194.685875 1 192.217125 1 189.193687 Z M 1 6.541344 " transform="matrix(1,0,0,-1,0,195.639)"/>
<path style=" stroke:none;fill-rule:nonzero;fill:rgb(0%,0%,0%);fill-opacity:1;" d="M 16.585938 29.863281 L 8.796875 29.863281 L 8.796875 27.714844 L 10.898438 27.714844 L 10.898438 22.886719 L 4.992188 22.886719 L 4.992188 20.84375 L 10.917969 2.875 L 14.484375 2.875 L 14.484375 20.59375 L 16.910156 20.59375 L 16.910156 22.886719 L 14.484375 22.886719 L 14.484375 27.714844 L 16.585938 27.714844 L 16.585938 29.863281 M 10.898438 20.59375 L 10.898438 7.722656 L 6.683594 20.59375 L 10.898438 20.59375 "/>
<path style=" stroke:none;fill-rule:nonzero;fill:rgb(0%,0%,0%);fill-opacity:1;" d="M 119.421875 164.882813 L 127.214844 164.882813 L 127.214844 167.03125 L 125.109375 167.03125 L 125.109375 171.859375 L 131.015625 171.859375 L 131.015625 173.902344 L 125.089844 191.871094 L 121.527344 191.871094 L 121.527344 174.152344 L 119.101563 174.152344 L 119.101563 171.859375 L 121.527344 171.859375 L 121.527344 167.03125 L 119.421875 167.03125 L 119.421875 164.882813 M 125.109375 174.152344 L 125.109375 187.023438 L 129.328125 174.152344 L 125.109375 174.152344 "/>
<path style=" stroke:none;fill-rule:nonzero;fill:rgb(0%,0%,0%);fill-opacity:1;" d="M 9.234375 37.332031 C 9.234375 38.78125 10.445313 39.953125 11.9375 39.953125 C 13.433594 39.953125 14.640625 38.78125 14.640625 37.332031 C 14.640625 35.886719 13.433594 34.710938 11.9375 34.710938 C 10.445313 34.710938 9.234375 35.886719 9.234375 37.332031 Z M 9.234375 37.332031 "/>
<path style=" stroke:none;fill-rule:nonzero;fill:rgb(0%,0%,0%);fill-opacity:1;" d="M 5.75 42.300781 C 5.75 43.746094 6.957031 44.921875 8.453125 44.921875 C 9.949219 44.921875 11.15625 43.746094 11.15625 42.300781 C 11.15625 40.851563 9.949219 39.675781 8.453125 39.675781 C 6.957031 39.675781 5.75 40.851563 5.75 42.300781 Z M 5.75 42.300781 "/>
<path style=" stroke:none;fill-rule:nonzero;fill:rgb(0%,0%,0%);fill-opacity:1;" d="M 12.675781 42.316406 C 12.675781 42.84375 12.835938 43.339844 13.113281 43.753906 C 13.59375 44.464844 14.433594 44.9375 15.378906 44.9375 C 16.875 44.9375 18.082031 43.761719 18.082031 42.316406 C 18.082031 40.867188 16.875 39.691406 15.378906 39.691406 C 13.882813 39.691406 12.675781 40.867188 12.675781 42.316406 Z M 12.675781 42.316406 "/>
<path style=" stroke:none;fill-rule:nonzero;fill:rgb(0%,0%,0%);fill-opacity:1;" d="M 8.765625 47.410156 C 10.101563 47.410156 10.804688 46.320313 11.171875 45.234375 C 11.539063 44.144531 11.570313 43.058594 11.570313 43.058594 L 12.257813 43.058594 C 12.257813 43.058594 12.386719 47.402344 15.058594 47.410156 Z M 8.765625 47.410156 "/>
<path style=" stroke:none;fill-rule:nonzero;fill:rgb(0%,0%,0%);fill-opacity:1;" d="M 13.769531 39.261719 C 12.25 40.777344 12.25 43.058594 12.25 43.058594 L 11.570313 43.066406 C 11.570313 43.066406 11.570313 40.738281 10.09375 39.261719 "/>
<path style=" stroke:none;fill-rule:nonzero;fill:rgb(0%,0%,0%);fill-opacity:1;" d="M 13.46875 44.136719 C 11.945313 42.617188 9.667969 42.617188 9.667969 42.617188 L 9.667969 41.9375 C 9.667969 41.9375 11.996094 41.9375 13.476563 40.460938 "/>
<path style=" stroke:none;fill-rule:nonzero;fill:rgb(0%,0%,0%);fill-opacity:1;" d="M 10.421875 44.144531 C 11.9375 42.628906 14.21875 42.628906 14.21875 42.628906 L 14.21875 41.945313 C 14.21875 41.945313 11.890625 41.945313 10.410156 40.46875 "/>
<path style=" stroke:none;fill-rule:nonzero;fill:rgb(0%,0%,0%);fill-opacity:1;" d="M 126.773438 157.414063 C 126.773438 155.964844 125.566406 154.789063 124.070313 154.789063 C 122.574219 154.789063 121.367188 155.964844 121.367188 157.414063 C 121.367188 158.859375 122.574219 160.035156 124.070313 160.035156 C 125.566406 160.035156 126.773438 158.859375 126.773438 157.414063 Z M 126.773438 157.414063 "/>
<path style=" stroke:none;fill-rule:nonzero;fill:rgb(0%,0%,0%);fill-opacity:1;" d="M 130.257813 152.445313 C 130.257813 151 129.050781 149.824219 127.554688 149.824219 C 126.0625 149.824219 124.851563 151 124.851563 152.445313 C 124.851563 153.894531 126.0625 155.070313 127.554688 155.070313 C 129.050781 155.070313 130.257813 153.894531 130.257813 152.445313 Z M 130.257813 152.445313 "/>
<path style=" stroke:none;fill-rule:nonzero;fill:rgb(0%,0%,0%);fill-opacity:1;" d="M 123.335938 152.429688 C 123.335938 151.902344 123.175781 151.40625 122.894531 150.992188 C 122.414063 150.28125 121.574219 149.808594 120.632813 149.808594 C 119.136719 149.808594 117.929688 150.984375 117.929688 152.429688 C 117.929688 153.878906 119.136719 155.054688 120.632813 155.054688 C 122.125 155.054688 123.335938 153.878906 123.335938 152.429688 Z M 123.335938 152.429688 "/>
<path style=" stroke:none;fill-rule:nonzero;fill:rgb(0%,0%,0%);fill-opacity:1;" d="M 127.246094 147.335938 C 125.910156 147.335938 125.203125 148.425781 124.835938 149.511719 C 124.46875 150.601563 124.4375 151.6875 124.4375 151.6875 L 123.75 151.6875 C 123.75 151.6875 123.621094 147.34375 120.949219 147.335938 Z M 127.246094 147.335938 "/>
<path style=" stroke:none;fill-rule:nonzero;fill:rgb(0%,0%,0%);fill-opacity:1;" d="M 122.238281 155.484375 C 123.757813 153.96875 123.757813 151.6875 123.757813 151.6875 L 124.4375 151.679688 C 124.4375 151.679688 124.4375 154.007813 125.917969 155.484375 "/>
<path style=" stroke:none;fill-rule:nonzero;fill:rgb(0%,0%,0%);fill-opacity:1;" d="M 122.542969 150.609375 C 124.0625 152.128906 126.339844 152.128906 126.339844 152.128906 L 126.339844 152.808594 C 126.339844 152.808594 124.015625 152.808594 122.535156 154.285156 "/>
<path style=" stroke:none;fill-rule:nonzero;fill:rgb(0%,0%,0%);fill-opacity:1;" d="M 125.589844 150.601563 C 124.070313 152.117188 121.789063 152.117188 121.789063 152.117188 L 121.789063 152.800781 C 121.789063 152.800781 124.117188 152.800781 125.597656 154.277344 "/>
<path style=" stroke:none;fill-rule:nonzero;fill:rgb(0%,0%,0%);fill-opacity:1;" d="M 29.644531 21.40625 C 29.644531 24.878906 32.539063 27.699219 36.128906 27.699219 C 39.71875 27.699219 42.617188 24.878906 42.617188 21.40625 C 42.617188 17.929688 39.71875 15.109375 36.128906 15.109375 C 32.539063 15.109375 29.644531 17.929688 29.644531 21.40625 Z M 29.644531 21.40625 "/>
<path style=" stroke:none;fill-rule:nonzero;fill:rgb(0%,0%,0%);fill-opacity:1;" d="M 21.273438 33.324219 C 21.273438 36.796875 24.171875 39.617188 27.761719 39.617188 C 31.351563 39.617188 34.25 36.796875 34.25 33.324219 C 34.25 29.851563 31.351563 27.027344 27.761719 27.027344 C 24.171875 27.027344 21.273438 29.851563 21.273438 33.324219 Z M 21.273438 33.324219 "/>
<path style=" stroke:none;fill-rule:nonzero;fill:rgb(0%,0%,0%);fill-opacity:1;" d="M 37.894531 33.363281 C 37.894531 34.628906 38.28125 35.820313 38.953125 36.816406 C 40.101563 38.523438 42.117188 39.65625 44.382813 39.65625 C 47.972656 39.65625 50.871094 36.835938 50.871094 33.363281 C 50.871094 29.886719 47.972656 27.066406 44.382813 27.066406 C 40.792969 27.066406 37.894531 29.886719 37.894531 33.363281 Z M 37.894531 33.363281 "/>
<path style=" stroke:none;fill-rule:nonzero;fill:rgb(0%,0%,0%);fill-opacity:1;" d="M 28.511719 45.589844 C 31.714844 45.589844 33.40625 42.976563 34.289063 40.367188 C 35.171875 37.757813 35.246094 35.148438 35.246094 35.148438 L 36.898438 35.148438 C 36.898438 35.148438 37.203125 45.570313 43.613281 45.589844 Z M 28.511719 45.589844 "/>
<path style=" stroke:none;fill-rule:nonzero;fill:rgb(0%,0%,0%);fill-opacity:1;" d="M 40.523438 26.03125 C 36.878906 29.675781 36.878906 35.148438 36.878906 35.148438 L 35.246094 35.164063 C 35.246094 35.164063 35.246094 29.582031 31.695313 26.03125 "/>
<path style=" stroke:none;fill-rule:nonzero;fill:rgb(0%,0%,0%);fill-opacity:1;" d="M 39.796875 37.738281 C 36.148438 34.089844 30.679688 34.089844 30.679688 34.089844 L 30.679688 32.460938 C 30.679688 32.460938 36.265625 32.460938 39.816406 28.910156 "/>
<path style=" stroke:none;fill-rule:nonzero;fill:rgb(0%,0%,0%);fill-opacity:1;" d="M 32.484375 37.757813 C 36.128906 34.109375 41.601563 34.109375 41.601563 34.109375 L 41.601563 32.480469 C 41.601563 32.480469 36.015625 32.480469 32.464844 28.929688 "/>
<path style=" stroke:none;fill-rule:nonzero;fill:rgb(0%,0%,0%);fill-opacity:1;" d="M 42.503906 170.023438 C 42.503906 166.546875 39.605469 163.726563 36.015625 163.726563 C 32.425781 163.726563 29.527344 166.546875 29.527344 170.023438 C 29.527344 173.496094 32.425781 176.316406 36.015625 176.316406 C 39.605469 176.316406 42.503906 173.496094 42.503906 170.023438 Z M 42.503906 170.023438 "/>
<path style=" stroke:none;fill-rule:nonzero;fill:rgb(0%,0%,0%);fill-opacity:1;" d="M 50.871094 158.101563 C 50.871094 154.628906 47.972656 151.808594 44.382813 151.808594 C 40.792969 151.808594 37.894531 154.628906 37.894531 158.101563 C 37.894531 161.578125 40.792969 164.398438 44.382813 164.398438 C 47.972656 164.398438 50.871094 161.578125 50.871094 158.101563 Z M 50.871094 158.101563 "/>
<path style=" stroke:none;fill-rule:nonzero;fill:rgb(0%,0%,0%);fill-opacity:1;" d="M 34.25 158.066406 C 34.25 156.796875 33.867188 155.609375 33.195313 154.609375 C 32.042969 152.902344 30.027344 151.769531 27.761719 151.769531 C 24.171875 151.769531 21.273438 154.589844 21.273438 158.066406 C 21.273438 161.539063 24.171875 164.359375 27.761719 164.359375 C 31.351563 164.359375 34.25 161.539063 34.25 158.066406 Z M 34.25 158.066406 "/>
<path style=" stroke:none;fill-rule:nonzero;fill:rgb(0%,0%,0%);fill-opacity:1;" d="M 43.636719 145.839844 C 40.429688 145.839844 38.742188 148.449219 37.859375 151.058594 C 36.976563 153.671875 36.898438 156.28125 36.898438 156.28125 L 35.246094 156.28125 C 35.246094 156.28125 34.941406 145.859375 28.53125 145.839844 Z M 43.636719 145.839844 "/>
<path style=" stroke:none;fill-rule:nonzero;fill:rgb(0%,0%,0%);fill-opacity:1;" d="M 31.621094 165.394531 C 35.265625 161.75 35.265625 156.28125 35.265625 156.28125 L 36.898438 156.261719 C 36.898438 156.261719 36.898438 161.847656 40.449219 165.394531 "/>
<path style=" stroke:none;fill-rule:nonzero;fill:rgb(0%,0%,0%);fill-opacity:1;" d="M 32.351563 153.6875 C 35.996094 157.335938 41.464844 157.335938 41.464844 157.335938 L 41.464844 158.96875 C 41.464844 158.96875 35.882813 158.96875 32.328125 162.515625 "/>
<path style=" stroke:none;fill-rule:nonzero;fill:rgb(0%,0%,0%);fill-opacity:1;" d="M 39.660156 153.671875 C 36.015625 157.316406 30.546875 157.316406 30.546875 157.316406 L 30.546875 158.949219 C 30.546875 158.949219 36.132813 158.949219 39.679688 162.496094 "/>
<path style=" stroke:none;fill-rule:nonzero;fill:rgb(0%,0%,0%);fill-opacity:1;" d="M 93.507813 21.40625 C 93.507813 24.878906 96.402344 27.699219 99.992188 27.699219 C 103.582031 27.699219 106.480469 24.878906 106.480469 21.40625 C 106.480469 17.929688 103.582031 15.109375 99.992188 15.109375 C 96.402344 15.109375 93.507813 17.929688 93.507813 21.40625 Z M 93.507813 21.40625 "/>
<path style=" stroke:none;fill-rule:nonzero;fill:rgb(0%,0%,0%);fill-opacity:1;" d="M 85.136719 33.324219 C 85.136719 36.796875 88.035156 39.617188 91.625 39.617188 C 95.214844 39.617188 98.113281 36.796875 98.113281 33.324219 C 98.113281 29.851563 95.214844 27.027344 91.625 27.027344 C 88.035156 27.027344 85.136719 29.851563 85.136719 33.324219 Z M 85.136719 33.324219 "/>
<path style=" stroke:none;fill-rule:nonzero;fill:rgb(0%,0%,0%);fill-opacity:1;" d="M 101.757813 33.363281 C 101.757813 34.628906 102.144531 35.820313 102.8125 36.816406 C 103.964844 38.523438 105.980469 39.65625 108.246094 39.65625 C 111.835938 39.65625 114.734375 36.835938 114.734375 33.363281 C 114.734375 29.886719 111.835938 27.066406 108.246094 27.066406 C 104.65625 27.066406 101.757813 29.886719 101.757813 33.363281 Z M 101.757813 33.363281 "/>
<path style=" stroke:none;fill-rule:nonzero;fill:rgb(0%,0%,0%);fill-opacity:1;" d="M 92.375 45.589844 C 95.578125 45.589844 97.269531 42.976563 98.152344 40.367188 C 99.03125 37.757813 99.109375 35.148438 99.109375 35.148438 L 100.761719 35.148438 C 100.761719 35.148438 101.066406 45.570313 107.476563 45.589844 Z M 92.375 45.589844 "/>
<path style=" stroke:none;fill-rule:nonzero;fill:rgb(0%,0%,0%);fill-opacity:1;" d="M 104.386719 26.03125 C 100.742188 29.675781 100.742188 35.148438 100.742188 35.148438 L 99.109375 35.164063 C 99.109375 35.164063 99.109375 29.582031 95.558594 26.03125 "/>
<path style=" stroke:none;fill-rule:nonzero;fill:rgb(0%,0%,0%);fill-opacity:1;" d="M 103.660156 37.738281 C 100.011719 34.089844 94.542969 34.089844 94.542969 34.089844 L 94.542969 32.460938 C 94.542969 32.460938 100.128906 32.460938 103.679688 28.910156 "/>
<path style=" stroke:none;fill-rule:nonzero;fill:rgb(0%,0%,0%);fill-opacity:1;" d="M 96.347656 37.757813 C 99.992188 34.109375 105.464844 34.109375 105.464844 34.109375 L 105.464844 32.480469 C 105.464844 32.480469 99.878906 32.480469 96.328125 28.929688 "/>
<path style=" stroke:none;fill-rule:nonzero;fill:rgb(0%,0%,0%);fill-opacity:1;" d="M 106.363281 170.023438 C 106.363281 166.546875 103.46875 163.726563 99.878906 163.726563 C 96.289063 163.726563 93.390625 166.546875 93.390625 170.023438 C 93.390625 173.496094 96.289063 176.316406 99.878906 176.316406 C 103.46875 176.316406 106.363281 173.496094 106.363281 170.023438 Z M 106.363281 170.023438 "/>
<path style=" stroke:none;fill-rule:nonzero;fill:rgb(0%,0%,0%);fill-opacity:1;" d="M 114.734375 158.101563 C 114.734375 154.628906 111.835938 151.808594 108.246094 151.808594 C 104.65625 151.808594 101.757813 154.628906 101.757813 158.101563 C 101.757813 161.578125 104.65625 164.398438 108.246094 164.398438 C 111.835938 164.398438 114.734375 161.578125 114.734375 158.101563 Z M 114.734375 158.101563 "/>
<path style=" stroke:none;fill-rule:nonzero;fill:rgb(0%,0%,0%);fill-opacity:1;" d="M 98.113281 158.066406 C 98.113281 156.796875 97.726563 155.609375 97.054688 154.609375 C 95.90625 152.902344 93.890625 151.769531 91.625 151.769531 C 88.035156 151.769531 85.136719 154.589844 85.136719 158.066406 C 85.136719 161.539063 88.035156 164.359375 91.625 164.359375 C 95.214844 164.359375 98.113281 161.539063 98.113281 158.066406 Z M 98.113281 158.066406 "/>
<path style=" stroke:none;fill-rule:nonzero;fill:rgb(0%,0%,0%);fill-opacity:1;" d="M 107.496094 145.839844 C 104.292969 145.839844 102.601563 148.449219 101.71875 151.058594 C 100.835938 153.671875 100.761719 156.28125 100.761719 156.28125 L 99.109375 156.28125 C 99.109375 156.28125 98.804688 145.859375 92.394531 145.839844 Z M 107.496094 145.839844 "/>
<path style=" stroke:none;fill-rule:nonzero;fill:rgb(0%,0%,0%);fill-opacity:1;" d="M 95.484375 165.394531 C 99.128906 161.75 99.128906 156.28125 99.128906 156.28125 L 100.761719 156.261719 C 100.761719 156.261719 100.761719 161.847656 104.3125 165.394531 "/>
<path style=" stroke:none;fill-rule:nonzero;fill:rgb(0%,0%,0%);fill-opacity:1;" d="M 96.210938 153.6875 C 99.859375 157.335938 105.328125 157.335938 105.328125 157.335938 L 105.328125 158.96875 C 105.328125 158.96875 99.742188 158.96875 96.191406 162.515625 "/>
<path style=" stroke:none;fill-rule:nonzero;fill:rgb(0%,0%,0%);fill-opacity:1;" d="M 103.523438 153.671875 C 99.878906 157.316406 94.40625 157.316406 94.40625 157.316406 L 94.40625 158.949219 C 94.40625 158.949219 99.992188 158.949219 103.542969 162.496094 "/>
</g>
</svg>
