<?xml version="1.0" encoding="UTF-8"?>
<svg xmlns="http://www.w3.org/2000/svg" xmlns:xlink="http://www.w3.org/1999/xlink" width="135.21pt" height="195.639pt" viewBox="0 0 135.21 195.639" version="1.1">
<g id="surface1">
<path style=" stroke:none;fill-rule:nonzero;fill:rgb(100%,100%,100%);fill-opacity:1;" d="M 1 189.097656 C 1 192.121094 3.472656 194.59375 6.492188 194.59375 L 128.722656 194.59375 C 131.738281 194.59375 134.210938 192.121094 134.210938 189.097656 L 134.210938 6.445313 C 134.210938 3.421875 131.738281 0.953125 128.722656 0.953125 L 6.492188 0.953125 C 3.472656 0.953125 1 3.421875 1 6.445313 Z M 1 189.097656 "/>
<path style="fill:none;stroke-width:1.999;stroke-linecap:butt;stroke-linejoin:miter;stroke:rgb(0%,0%,0%);stroke-opacity:1;stroke-miterlimit:10;" d="M 1 6.541344 C 1 3.517906 3.472656 1.04525 6.492188 1.04525 L 128.722656 1.04525 C 131.738281 1.04525 134.210938 3.517906 134.210938 6.541344 L 134.210938 189.193687 C 134.210938 192.217125 131.738281 194.685875 128.722656 194.685875 L 6.492188 194.685875 C 3.472656 194.685875 1 192.217125 1 189.193687 Z M 1 6.541344 " transform="matrix(1,0,0,-1,0,195.639)"/>
<path style=" stroke:none;fill-rule:nonzero;fill:rgb(0%,0%,0%);fill-opacity:1;" d="M 15.144531 3.355469 L 15.144531 8.007813 L 7.574219 8.007813 L 7.574219 13.832031 C 7.988281 13.226563 8.453125 12.773438 8.964844 12.464844 C 9.476563 12.15625 10.019531 12.003906 10.585938 12.003906 C 12.332031 12.003906 13.710938 12.832031 14.71875 14.488281 C 15.730469 16.132813 16.234375 18.375 16.238281 21.21875 C 16.234375 24.105469 15.730469 26.355469 14.71875 27.964844 C 13.710938 29.574219 12.292969 30.378906 10.472656 30.378906 C 9.703125 30.378906 8.933594 30.261719 8.171875 30.023438 C 7.410156 29.785156 6.617188 29.417969 5.789063 28.921875 L 5.789063 23.132813 L 6.929688 23.132813 C 6.964844 24.875 7.207031 26.171875 7.648438 27.023438 C 8.097656 27.875 8.757813 28.300781 9.628906 28.300781 C 10.558594 28.300781 11.246094 27.722656 11.695313 26.5625 C 12.144531 25.390625 12.367188 23.609375 12.367188 21.21875 C 12.367188 18.859375 12.148438 17.105469 11.707031 15.945313 C 11.269531 14.773438 10.605469 14.1875 9.714844 14.1875 C 9.234375 14.1875 8.804688 14.375 8.425781 14.753906 C 8.054688 15.121094 7.707031 15.695313 7.382813 16.476563 L 6.433594 16.476563 L 6.433594 3.355469 L 15.144531 3.355469 "/>
<path style=" stroke:none;fill-rule:nonzero;fill:rgb(0%,0%,0%);fill-opacity:1;" d="M 120.863281 191.390625 L 120.863281 186.738281 L 128.4375 186.738281 L 128.4375 180.914063 C 128.019531 181.519531 127.554688 181.972656 127.042969 182.28125 C 126.53125 182.589844 125.992188 182.742188 125.421875 182.742188 C 123.679688 182.742188 122.300781 181.914063 121.289063 180.257813 C 120.277344 178.613281 119.773438 176.371094 119.773438 173.527344 C 119.773438 170.640625 120.277344 168.390625 121.289063 166.78125 C 122.300781 165.171875 123.714844 164.367188 125.535156 164.367188 C 126.308594 164.367188 127.074219 164.484375 127.839844 164.722656 C 128.597656 164.960938 129.390625 165.324219 130.21875 165.824219 L 130.21875 171.613281 L 129.082031 171.613281 C 129.042969 169.871094 128.804688 168.574219 128.359375 167.722656 C 127.910156 166.871094 127.253906 166.445313 126.378906 166.445313 C 125.449219 166.445313 124.761719 167.023438 124.3125 168.183594 C 123.863281 169.355469 123.640625 171.136719 123.640625 173.527344 C 123.640625 175.886719 123.859375 177.640625 124.304688 178.800781 C 124.738281 179.972656 125.402344 180.558594 126.292969 180.558594 C 126.773438 180.558594 127.203125 180.371094 127.582031 179.992188 C 127.957031 179.625 128.304688 179.050781 128.625 178.269531 L 129.574219 178.269531 L 129.574219 191.390625 L 120.863281 191.390625 "/>
<path style=" stroke:none;fill-rule:nonzero;fill:rgb(0%,0%,0%);fill-opacity:1;" d="M 9.238281 37.332031 C 9.238281 38.78125 10.445313 39.953125 11.941406 39.953125 C 13.433594 39.953125 14.644531 38.78125 14.644531 37.332031 C 14.644531 35.886719 13.433594 34.710938 11.941406 34.710938 C 10.445313 34.710938 9.238281 35.886719 9.238281 37.332031 Z M 9.238281 37.332031 "/>
<path style=" stroke:none;fill-rule:nonzero;fill:rgb(0%,0%,0%);fill-opacity:1;" d="M 5.75 42.300781 C 5.75 43.746094 6.957031 44.921875 8.453125 44.921875 C 9.949219 44.921875 11.15625 43.746094 11.15625 42.300781 C 11.15625 40.851563 9.949219 39.675781 8.453125 39.675781 C 6.957031 39.675781 5.75 40.851563 5.75 42.300781 Z M 5.75 42.300781 "/>
<path style=" stroke:none;fill-rule:nonzero;fill:rgb(0%,0%,0%);fill-opacity:1;" d="M 12.675781 42.316406 C 12.675781 42.84375 12.835938 43.339844 13.113281 43.753906 C 13.59375 44.464844 14.433594 44.9375 15.378906 44.9375 C 16.875 44.9375 18.082031 43.761719 18.082031 42.316406 C 18.082031 40.867188 16.875 39.691406 15.378906 39.691406 C 13.882813 39.691406 12.675781 40.867188 12.675781 42.316406 Z M 12.675781 42.316406 "/>
<path style=" stroke:none;fill-rule:nonzero;fill:rgb(0%,0%,0%);fill-opacity:1;" d="M 8.765625 47.410156 C 10.101563 47.410156 10.804688 46.320313 11.171875 45.234375 C 11.539063 44.144531 11.570313 43.058594 11.570313 43.058594 L 12.257813 43.058594 C 12.257813 43.058594 12.386719 47.402344 15.058594 47.410156 Z M 8.765625 47.410156 "/>
<path style=" stroke:none;fill-rule:nonzero;fill:rgb(0%,0%,0%);fill-opacity:1;" d="M 13.769531 39.261719 C 12.25 40.777344 12.25 43.058594 12.25 43.058594 L 11.570313 43.066406 C 11.570313 43.066406 11.570313 40.738281 10.09375 39.261719 "/>
<path style=" stroke:none;fill-rule:nonzero;fill:rgb(0%,0%,0%);fill-opacity:1;" d="M 13.46875 44.136719 C 11.949219 42.617188 9.667969 42.617188 9.667969 42.617188 L 9.667969 41.9375 C 9.667969 41.9375 11.996094 41.9375 13.476563 40.460938 "/>
<path style=" stroke:none;fill-rule:nonzero;fill:rgb(0%,0%,0%);fill-opacity:1;" d="M 10.421875 44.144531 C 11.941406 42.628906 14.21875 42.628906 14.21875 42.628906 L 14.21875 41.945313 C 14.21875 41.945313 11.890625 41.945313 10.410156 40.46875 "/>
<path style=" stroke:none;fill-rule:nonzero;fill:rgb(0%,0%,0%);fill-opacity:1;" d="M 126.773438 157.414063 C 126.773438 155.964844 125.566406 154.789063 124.070313 154.789063 C 122.574219 154.789063 121.367188 155.964844 121.367188 157.414063 C 121.367188 158.859375 122.574219 160.035156 124.070313 160.035156 C 125.566406 160.035156 126.773438 158.859375 126.773438 157.414063 Z M 126.773438 157.414063 "/>
<path style=" stroke:none;fill-rule:nonzero;fill:rgb(0%,0%,0%);fill-opacity:1;" d="M 130.261719 152.445313 C 130.261719 151 129.050781 149.824219 127.558594 149.824219 C 126.0625 149.824219 124.855469 151 124.855469 152.445313 C 124.855469 153.894531 126.0625 155.070313 127.558594 155.070313 C 129.050781 155.070313 130.261719 153.894531 130.261719 152.445313 Z M 130.261719 152.445313 "/>
<path style=" stroke:none;fill-rule:nonzero;fill:rgb(0%,0%,0%);fill-opacity:1;" d="M 123.335938 152.429688 C 123.335938 151.902344 123.175781 151.40625 122.894531 150.992188 C 122.414063 150.28125 121.574219 149.808594 120.632813 149.808594 C 119.136719 149.808594 117.929688 150.984375 117.929688 152.429688 C 117.929688 153.878906 119.136719 155.054688 120.632813 155.054688 C 122.128906 155.054688 123.335938 153.878906 123.335938 152.429688 Z M 123.335938 152.429688 "/>
<path style=" stroke:none;fill-rule:nonzero;fill:rgb(0%,0%,0%);fill-opacity:1;" d="M 127.246094 147.335938 C 125.910156 147.335938 125.203125 148.425781 124.839844 149.511719 C 124.46875 150.601563 124.4375 151.6875 124.4375 151.6875 L 123.75 151.6875 C 123.75 151.6875 123.621094 147.34375 120.949219 147.335938 Z M 127.246094 147.335938 "/>
<path style=" stroke:none;fill-rule:nonzero;fill:rgb(0%,0%,0%);fill-opacity:1;" d="M 122.238281 155.484375 C 123.757813 153.96875 123.757813 151.6875 123.757813 151.6875 L 124.4375 151.679688 C 124.4375 151.679688 124.4375 154.007813 125.917969 155.484375 "/>
<path style=" stroke:none;fill-rule:nonzero;fill:rgb(0%,0%,0%);fill-opacity:1;" d="M 122.542969 150.609375 C 124.0625 152.128906 126.339844 152.128906 126.339844 152.128906 L 126.339844 152.808594 C 126.339844 152.808594 124.015625 152.808594 122.535156 154.285156 "/>
<path style=" stroke:none;fill-rule:nonzero;fill:rgb(0%,0%,0%);fill-opacity:1;" d="M 125.589844 150.601563 C 124.070313 152.117188 121.789063 152.117188 121.789063 152.117188 L 121.789063 152.800781 C 121.789063 152.800781 124.117188 152.800781 125.597656 154.277344 "/>
<path style=" stroke:none;fill-rule:nonzero;fill:rgb(0%,0%,0%);fill-opacity:1;" d="M 29.644531 21.40625 C 29.644531 24.878906 32.542969 27.699219 36.132813 27.699219 C 39.71875 27.699219 42.617188 24.878906 42.617188 21.40625 C 42.617188 17.929688 39.71875 15.109375 36.132813 15.109375 C 32.542969 15.109375 29.644531 17.929688 29.644531 21.40625 Z M 29.644531 21.40625 "/>
<path style=" stroke:none;fill-rule:nonzero;fill:rgb(0%,0%,0%);fill-opacity:1;" d="M 21.277344 33.324219 C 21.277344 36.796875 24.175781 39.617188 27.761719 39.617188 C 31.351563 39.617188 34.25 36.796875 34.25 33.324219 C 34.25 29.851563 31.351563 27.027344 27.761719 27.027344 C 24.175781 27.027344 21.277344 29.851563 21.277344 33.324219 Z M 21.277344 33.324219 "/>
<path style=" stroke:none;fill-rule:nonzero;fill:rgb(0%,0%,0%);fill-opacity:1;" d="M 37.898438 33.363281 C 37.898438 34.628906 38.28125 35.820313 38.953125 36.816406 C 40.105469 38.523438 42.117188 39.65625 44.382813 39.65625 C 47.972656 39.65625 50.871094 36.835938 50.871094 33.363281 C 50.871094 29.886719 47.972656 27.066406 44.382813 27.066406 C 40.796875 27.066406 37.898438 29.886719 37.898438 33.363281 Z M 37.898438 33.363281 "/>
<path style=" stroke:none;fill-rule:nonzero;fill:rgb(0%,0%,0%);fill-opacity:1;" d="M 28.511719 45.589844 C 31.71875 45.589844 33.40625 42.976563 34.289063 40.367188 C 35.171875 37.757813 35.246094 35.148438 35.246094 35.148438 L 36.898438 35.148438 C 36.898438 35.148438 37.207031 45.570313 43.617188 45.589844 Z M 28.511719 45.589844 "/>
<path style=" stroke:none;fill-rule:nonzero;fill:rgb(0%,0%,0%);fill-opacity:1;" d="M 40.527344 26.03125 C 36.878906 29.675781 36.878906 35.148438 36.878906 35.148438 L 35.246094 35.164063 C 35.246094 35.164063 35.246094 29.582031 31.695313 26.03125 "/>
<path style=" stroke:none;fill-rule:nonzero;fill:rgb(0%,0%,0%);fill-opacity:1;" d="M 39.796875 37.738281 C 36.148438 34.089844 30.679688 34.089844 30.679688 34.089844 L 30.679688 32.460938 C 30.679688 32.460938 36.265625 32.460938 39.816406 28.910156 "/>
<path style=" stroke:none;fill-rule:nonzero;fill:rgb(0%,0%,0%);fill-opacity:1;" d="M 32.484375 37.757813 C 36.132813 34.109375 41.601563 34.109375 41.601563 34.109375 L 41.601563 32.480469 C 41.601563 32.480469 36.015625 32.480469 32.464844 28.929688 "/>
<path style=" stroke:none;fill-rule:nonzero;fill:rgb(0%,0%,0%);fill-opacity:1;" d="M 42.503906 170.023438 C 42.503906 166.546875 39.605469 163.726563 36.015625 163.726563 C 32.425781 163.726563 29.527344 166.546875 29.527344 170.023438 C 29.527344 173.496094 32.425781 176.316406 36.015625 176.316406 C 39.605469 176.316406 42.503906 173.496094 42.503906 170.023438 Z M 42.503906 170.023438 "/>
<path style=" stroke:none;fill-rule:nonzero;fill:rgb(0%,0%,0%);fill-opacity:1;" d="M 50.871094 158.101563 C 50.871094 154.628906 47.972656 151.808594 44.382813 151.808594 C 40.796875 151.808594 37.898438 154.628906 37.898438 158.101563 C 37.898438 161.578125 40.796875 164.398438 44.382813 164.398438 C 47.972656 164.398438 50.871094 161.578125 50.871094 158.101563 Z M 50.871094 158.101563 "/>
<path style=" stroke:none;fill-rule:nonzero;fill:rgb(0%,0%,0%);fill-opacity:1;" d="M 34.25 158.066406 C 34.25 156.796875 33.867188 155.609375 33.195313 154.609375 C 32.042969 152.902344 30.027344 151.769531 27.761719 151.769531 C 24.175781 151.769531 21.277344 154.589844 21.277344 158.066406 C 21.277344 161.539063 24.175781 164.359375 27.761719 164.359375 C 31.351563 164.359375 34.25 161.539063 34.25 158.066406 Z M 34.25 158.066406 "/>
<path style=" stroke:none;fill-rule:nonzero;fill:rgb(0%,0%,0%);fill-opacity:1;" d="M 43.636719 145.839844 C 40.429688 145.839844 38.742188 148.449219 37.859375 151.058594 C 36.976563 153.671875 36.898438 156.28125 36.898438 156.28125 L 35.246094 156.28125 C 35.246094 156.28125 34.941406 145.859375 28.53125 145.839844 Z M 43.636719 145.839844 "/>
<path style=" stroke:none;fill-rule:nonzero;fill:rgb(0%,0%,0%);fill-opacity:1;" d="M 31.621094 165.394531 C 35.265625 161.75 35.265625 156.28125 35.265625 156.28125 L 36.898438 156.261719 C 36.898438 156.261719 36.898438 161.847656 40.449219 165.394531 "/>
<path style=" stroke:none;fill-rule:nonzero;fill:rgb(0%,0%,0%);fill-opacity:1;" d="M 32.351563 153.6875 C 35.996094 157.335938 41.46875 157.335938 41.46875 157.335938 L 41.46875 158.96875 C 41.46875 158.96875 35.882813 158.96875 32.332031 162.515625 "/>
<path style=" stroke:none;fill-rule:nonzero;fill:rgb(0%,0%,0%);fill-opacity:1;" d="M 39.660156 153.671875 C 36.015625 157.316406 30.546875 157.316406 30.546875 157.316406 L 30.546875 158.949219 C 30.546875 158.949219 36.132813 158.949219 39.683594 162.496094 "/>
<path style=" stroke:none;fill-rule:nonzero;fill:rgb(0%,0%,0%);fill-opacity:1;" d="M 93.507813 21.40625 C 93.507813 24.878906 96.402344 27.699219 99.992188 27.699219 C 103.582031 27.699219 106.480469 24.878906 106.480469 21.40625 C 106.480469 17.929688 103.582031 15.109375 99.992188 15.109375 C 96.402344 15.109375 93.507813 17.929688 93.507813 21.40625 Z M 93.507813 21.40625 "/>
<path style=" stroke:none;fill-rule:nonzero;fill:rgb(0%,0%,0%);fill-opacity:1;" d="M 85.136719 33.324219 C 85.136719 36.796875 88.035156 39.617188 91.625 39.617188 C 95.214844 39.617188 98.113281 36.796875 98.113281 33.324219 C 98.113281 29.851563 95.214844 27.027344 91.625 27.027344 C 88.035156 27.027344 85.136719 29.851563 85.136719 33.324219 Z M 85.136719 33.324219 "/>
<path style=" stroke:none;fill-rule:nonzero;fill:rgb(0%,0%,0%);fill-opacity:1;" d="M 101.757813 33.363281 C 101.757813 34.628906 102.144531 35.820313 102.816406 36.816406 C 103.964844 38.523438 105.980469 39.65625 108.246094 39.65625 C 111.835938 39.65625 114.734375 36.835938 114.734375 33.363281 C 114.734375 29.886719 111.835938 27.066406 108.246094 27.066406 C 104.65625 27.066406 101.757813 29.886719 101.757813 33.363281 Z M 101.757813 33.363281 "/>
<path style=" stroke:none;fill-rule:nonzero;fill:rgb(0%,0%,0%);fill-opacity:1;" d="M 92.375 45.589844 C 95.578125 45.589844 97.269531 42.976563 98.152344 40.367188 C 99.035156 37.757813 99.109375 35.148438 99.109375 35.148438 L 100.761719 35.148438 C 100.761719 35.148438 101.066406 45.570313 107.476563 45.589844 Z M 92.375 45.589844 "/>
<path style=" stroke:none;fill-rule:nonzero;fill:rgb(0%,0%,0%);fill-opacity:1;" d="M 104.386719 26.03125 C 100.742188 29.675781 100.742188 35.148438 100.742188 35.148438 L 99.109375 35.164063 C 99.109375 35.164063 99.109375 29.582031 95.558594 26.03125 "/>
<path style=" stroke:none;fill-rule:nonzero;fill:rgb(0%,0%,0%);fill-opacity:1;" d="M 103.660156 37.738281 C 100.011719 34.089844 94.542969 34.089844 94.542969 34.089844 L 94.542969 32.460938 C 94.542969 32.460938 100.128906 32.460938 103.679688 28.910156 "/>
<path style=" stroke:none;fill-rule:nonzero;fill:rgb(0%,0%,0%);fill-opacity:1;" d="M 96.347656 37.757813 C 99.992188 34.109375 105.464844 34.109375 105.464844 34.109375 L 105.464844 32.480469 C 105.464844 32.480469 99.878906 32.480469 96.328125 28.929688 "/>
<path style=" stroke:none;fill-rule:nonzero;fill:rgb(0%,0%,0%);fill-opacity:1;" d="M 106.363281 170.023438 C 106.363281 166.546875 103.46875 163.726563 99.878906 163.726563 C 96.289063 163.726563 93.390625 166.546875 93.390625 170.023438 C 93.390625 173.496094 96.289063 176.316406 99.878906 176.316406 C 103.46875 176.316406 106.363281 173.496094 106.363281 170.023438 Z M 106.363281 170.023438 "/>
<path style=" stroke:none;fill-rule:nonzero;fill:rgb(0%,0%,0%);fill-opacity:1;" d="M 114.734375 158.101563 C 114.734375 154.628906 111.835938 151.808594 108.246094 151.808594 C 104.65625 151.808594 101.757813 154.628906 101.757813 158.101563 C 101.757813 161.578125 104.65625 164.398438 108.246094 164.398438 C 111.835938 164.398438 114.734375 161.578125 114.734375 158.101563 Z M 114.734375 158.101563 "/>
<path style=" stroke:none;fill-rule:nonzero;fill:rgb(0%,0%,0%);fill-opacity:1;" d="M 98.113281 158.066406 C 98.113281 156.796875 97.726563 155.609375 97.058594 154.609375 C 95.90625 152.902344 93.890625 151.769531 91.625 151.769531 C 88.035156 151.769531 85.136719 154.589844 85.136719 158.066406 C 85.136719 161.539063 88.035156 164.359375 91.625 164.359375 C 95.214844 164.359375 98.113281 161.539063 98.113281 158.066406 Z M 98.113281 158.066406 "/>
<path style=" stroke:none;fill-rule:nonzero;fill:rgb(0%,0%,0%);fill-opacity:1;" d="M 107.496094 145.839844 C 104.292969 145.839844 102.601563 148.449219 101.722656 151.058594 C 100.839844 153.671875 100.761719 156.28125 100.761719 156.28125 L 99.109375 156.28125 C 99.109375 156.28125 98.804688 145.859375 92.394531 145.839844 Z M 107.496094 145.839844 "/>
<path style=" stroke:none;fill-rule:nonzero;fill:rgb(0%,0%,0%);fill-opacity:1;" d="M 95.484375 165.394531 C 99.128906 161.75 99.128906 156.28125 99.128906 156.28125 L 100.761719 156.261719 C 100.761719 156.261719 100.761719 161.847656 104.3125 165.394531 "/>
<path style=" stroke:none;fill-rule:nonzero;fill:rgb(0%,0%,0%);fill-opacity:1;" d="M 96.210938 153.6875 C 99.859375 157.335938 105.328125 157.335938 105.328125 157.335938 L 105.328125 158.96875 C 105.328125 158.96875 99.742188 158.96875 96.191406 162.515625 "/>
<path style=" stroke:none;fill-rule:nonzero;fill:rgb(0%,0%,0%);fill-opacity:1;" d="M 103.523438 153.671875 C 99.878906 157.316406 94.40625 157.316406 94.40625 157.316406 L 94.40625 158.949219 C 94.40625 158.949219 99.992188 158.949219 103.542969 162.496094 "/>
<path style=" stroke:none;fill-rule:nonzero;fill:rgb(0%,0%,0%);fill-opacity:1;" d="M 61.574219 82.933594 C 61.574219 86.410156 64.472656 89.230469 68.0625 89.230469 C 71.652344 89.230469 74.550781 86.410156 74.550781 82.933594 C 74.550781 79.460938 71.652344 76.640625 68.0625 76.640625 C 64.472656 76.640625 61.574219 79.460938 61.574219 82.933594 Z M 61.574219 82.933594 "/>
<path style=" stroke:none;fill-rule:nonzero;fill:rgb(0%,0%,0%);fill-opacity:1;" d="M 53.207031 94.855469 C 53.207031 98.328125 56.105469 101.148438 59.695313 101.148438 C 63.28125 101.148438 66.179688 98.328125 66.179688 94.855469 C 66.179688 91.378906 63.28125 88.558594 59.695313 88.558594 C 56.105469 88.558594 53.207031 91.378906 53.207031 94.855469 Z M 53.207031 94.855469 "/>
<path style=" stroke:none;fill-rule:nonzero;fill:rgb(0%,0%,0%);fill-opacity:1;" d="M 69.828125 94.890625 C 69.828125 96.160156 70.210938 97.347656 70.882813 98.347656 C 72.035156 100.054688 74.050781 101.1875 76.316406 101.1875 C 79.902344 101.1875 82.800781 98.367188 82.800781 94.890625 C 82.800781 91.417969 79.902344 88.597656 76.316406 88.597656 C 72.726563 88.597656 69.828125 91.417969 69.828125 94.890625 Z M 69.828125 94.890625 "/>
<path style=" stroke:none;fill-rule:nonzero;fill:rgb(0%,0%,0%);fill-opacity:1;" d="M 60.441406 107.117188 C 63.648438 107.117188 65.335938 104.507813 66.21875 101.898438 C 67.101563 99.285156 67.179688 96.675781 67.179688 96.675781 L 68.828125 96.675781 C 68.828125 96.675781 69.136719 107.097656 75.546875 107.117188 Z M 60.441406 107.117188 "/>
<path style=" stroke:none;fill-rule:nonzero;fill:rgb(0%,0%,0%);fill-opacity:1;" d="M 72.457031 87.558594 C 68.808594 91.207031 68.808594 96.675781 68.808594 96.675781 L 67.179688 96.695313 C 67.179688 96.695313 67.179688 91.109375 63.628906 87.558594 "/>
<path style=" stroke:none;fill-rule:nonzero;fill:rgb(0%,0%,0%);fill-opacity:1;" d="M 71.726563 99.269531 C 68.082031 95.621094 62.609375 95.621094 62.609375 95.621094 L 62.609375 93.988281 C 62.609375 93.988281 68.195313 93.988281 71.746094 90.4375 "/>
<path style=" stroke:none;fill-rule:nonzero;fill:rgb(0%,0%,0%);fill-opacity:1;" d="M 64.414063 99.285156 C 68.0625 95.640625 73.53125 95.640625 73.53125 95.640625 L 73.53125 94.007813 C 73.53125 94.007813 67.945313 94.007813 64.394531 90.460938 "/>
</g>
</svg>
