<?xml version="1.0" encoding="UTF-8"?>
<svg xmlns="http://www.w3.org/2000/svg" xmlns:xlink="http://www.w3.org/1999/xlink" width="135.21pt" height="195.639pt" viewBox="0 0 135.21 195.639" version="1.1">
<g id="surface1">
<path style=" stroke:none;fill-rule:nonzero;fill:rgb(100%,100%,100%);fill-opacity:1;" d="M 1 189.097656 C 1 192.121094 3.472656 194.589844 6.492188 194.589844 L 128.722656 194.589844 C 131.738281 194.589844 134.210938 192.121094 134.210938 189.097656 L 134.210938 6.445313 C 134.210938 3.421875 131.738281 0.949219 128.722656 0.949219 L 6.492188 0.949219 C 3.472656 0.949219 1 3.421875 1 6.445313 Z M 1 189.097656 "/>
<path style="fill:none;stroke-width:1.999;stroke-linecap:butt;stroke-linejoin:miter;stroke:rgb(0%,0%,0%);stroke-opacity:1;stroke-miterlimit:10;" d="M 1 6.541344 C 1 3.517906 3.472656 1.049156 6.492188 1.049156 L 128.722656 1.049156 C 131.738281 1.049156 134.210938 3.517906 134.210938 6.541344 L 134.210938 189.193687 C 134.210938 192.217125 131.738281 194.689781 128.722656 194.689781 L 6.492188 194.689781 C 3.472656 194.689781 1 192.217125 1 189.193687 Z M 1 6.541344 " transform="matrix(1,0,0,-1,0,195.639)"/>
<path style=" stroke:none;fill-rule:nonzero;fill:rgb(86.29303%,23.658752%,16.767883%);fill-opacity:1;" d="M 8.976563 14.148438 C 9.386719 13.535156 9.84375 13.074219 10.351563 12.765625 C 10.863281 12.457031 11.417969 12.304688 12.019531 12.304688 C 13.464844 12.304688 14.601563 13.097656 15.421875 14.683594 C 16.25 16.269531 16.664063 18.445313 16.664063 21.214844 C 16.664063 24.140625 16.199219 26.398438 15.269531 27.996094 C 14.339844 29.585938 13.019531 30.378906 11.308594 30.378906 C 9.375 30.378906 7.90625 29.289063 6.910156 27.109375 C 5.917969 24.921875 5.421875 21.707031 5.421875 17.46875 C 5.421875 12.652344 5.972656 9.019531 7.078125 6.570313 C 8.1875 4.105469 9.824219 2.875 12 2.875 C 12.566406 2.875 13.179688 2.964844 13.828125 3.140625 C 14.480469 3.320313 15.179688 3.585938 15.925781 3.941406 L 15.925781 8.628906 L 14.777344 8.628906 C 14.617188 7.421875 14.320313 6.507813 13.875 5.894531 C 13.441406 5.265625 12.875 4.953125 12.179688 4.953125 C 11.054688 4.953125 10.238281 5.675781 9.734375 7.117188 C 9.234375 8.5625 8.980469 10.90625 8.976563 14.148438 M 11.089844 28.300781 C 11.742188 28.300781 12.203125 27.785156 12.484375 26.757813 C 12.761719 25.714844 12.898438 23.914063 12.898438 21.359375 C 12.898438 18.800781 12.761719 17.007813 12.484375 15.976563 C 12.203125 14.9375 11.742188 14.414063 11.089844 14.414063 C 10.4375 14.414063 9.972656 14.9375 9.695313 15.976563 C 9.425781 17.007813 9.289063 18.800781 9.289063 21.359375 C 9.289063 23.914063 9.425781 25.714844 9.695313 26.757813 C 9.972656 27.785156 10.4375 28.300781 11.089844 28.300781 "/>
<path style=" stroke:none;fill-rule:nonzero;fill:rgb(86.29303%,23.658752%,16.767883%);fill-opacity:1;" d="M 127.035156 180.59375 C 126.621094 181.210938 126.164063 181.671875 125.660156 181.980469 C 125.148438 182.285156 124.589844 182.441406 123.992188 182.441406 C 122.542969 182.441406 121.410156 181.648438 120.589844 180.0625 C 119.761719 178.476563 119.347656 176.296875 119.347656 173.527344 C 119.347656 170.605469 119.8125 168.34375 120.738281 166.746094 C 121.667969 165.160156 122.988281 164.367188 124.703125 164.367188 C 126.636719 164.367188 128.101563 165.457031 129.101563 167.632813 C 130.09375 169.824219 130.589844 173.035156 130.589844 177.273438 C 130.589844 182.09375 130.035156 185.726563 128.929688 188.175781 C 127.824219 190.636719 126.183594 191.867188 124.011719 191.867188 C 123.441406 191.867188 122.832031 191.78125 122.179688 191.601563 C 121.53125 191.425781 120.832031 191.160156 120.085938 190.804688 L 120.085938 186.117188 L 121.234375 186.117188 C 121.390625 187.324219 121.691406 188.234375 122.132813 188.851563 C 122.570313 189.476563 123.136719 189.792969 123.828125 189.792969 C 124.953125 189.792969 125.769531 189.070313 126.277344 187.625 C 126.773438 186.183594 127.027344 183.839844 127.035156 180.59375 M 124.921875 166.445313 C 124.269531 166.445313 123.804688 166.960938 123.527344 167.988281 C 123.25 169.03125 123.109375 170.828125 123.109375 173.386719 C 123.109375 175.941406 123.25 177.734375 123.527344 178.765625 C 123.804688 179.808594 124.269531 180.328125 124.921875 180.328125 C 125.570313 180.328125 126.035156 179.808594 126.3125 178.765625 C 126.585938 177.734375 126.722656 175.941406 126.722656 173.386719 C 126.722656 170.828125 126.585938 169.03125 126.3125 167.988281 C 126.035156 166.960938 125.570313 166.445313 124.921875 166.445313 "/>
<path style=" stroke:none;fill-rule:nonzero;fill:rgb(86.29303%,23.658752%,16.767883%);fill-opacity:1;" d="M 11.914063 41.058594 C 13.964844 41.058594 16.011719 41.058594 18.058594 41.058594 C 17.359375 41.027344 16.761719 40.574219 16.199219 40.199219 C 14.9375 39.246094 13.753906 38.15625 12.820313 36.878906 C 12.386719 36.234375 11.925781 35.511719 11.914063 34.710938 M 18.058594 41.058594 C 17.171875 41.085938 16.410156 41.652344 15.734375 42.171875 C 14.539063 43.175781 13.503906 44.371094 12.632813 45.660156 C 12.3125 46.195313 11.933594 46.765625 11.914063 47.40625 C 11.914063 45.289063 11.914063 43.175781 11.914063 41.058594 M 11.914063 47.40625 C 11.886719 46.464844 11.308594 45.644531 10.765625 44.914063 C 9.796875 43.703125 8.648438 42.636719 7.386719 41.742188 C 6.894531 41.4375 6.371094 41.074219 5.773438 41.058594 C 7.820313 41.058594 9.867188 41.058594 11.914063 41.058594 M 5.773438 41.058594 C 6.660156 41.03125 7.421875 40.464844 8.097656 39.945313 C 9.292969 38.941406 10.328125 37.746094 11.199219 36.453125 C 11.519531 35.921875 11.898438 35.351563 11.914063 34.710938 C 11.914063 36.824219 11.914063 38.941406 11.914063 41.058594 "/>
<path style=" stroke:none;fill-rule:nonzero;fill:rgb(86.29303%,23.658752%,16.767883%);fill-opacity:1;" d="M 124.09375 153.6875 C 122.046875 153.6875 120 153.6875 117.953125 153.6875 C 118.652344 153.71875 119.246094 154.171875 119.808594 154.542969 C 121.070313 155.496094 122.253906 156.589844 123.1875 157.867188 C 123.625 158.511719 124.082031 159.234375 124.09375 160.035156 M 117.953125 153.6875 C 118.839844 153.65625 119.597656 153.09375 120.273438 152.570313 C 121.46875 151.566406 122.503906 150.375 123.378906 149.082031 C 123.699219 148.546875 124.074219 147.980469 124.09375 147.335938 C 124.09375 149.453125 124.09375 151.570313 124.09375 153.6875 M 124.09375 147.335938 C 124.125 148.28125 124.699219 149.101563 125.242188 149.832031 C 126.214844 151.039063 127.363281 152.105469 128.625 153 C 129.117188 153.308594 129.636719 153.671875 130.234375 153.6875 C 128.1875 153.6875 126.140625 153.6875 124.09375 153.6875 M 130.234375 153.6875 C 129.347656 153.714844 128.589844 154.277344 127.914063 154.800781 C 126.71875 155.804688 125.683594 156.996094 124.808594 158.289063 C 124.488281 158.824219 124.113281 159.390625 124.09375 160.035156 C 124.09375 157.917969 124.09375 155.804688 124.09375 153.6875 "/>
<path style=" stroke:none;fill-rule:nonzero;fill:rgb(86.29303%,23.658752%,16.767883%);fill-opacity:1;" d="M 36.074219 30.347656 C 40.988281 30.347656 45.898438 30.347656 50.8125 30.347656 C 49.136719 30.273438 47.707031 29.1875 46.355469 28.289063 C 43.324219 26.003906 40.488281 23.382813 38.246094 20.3125 C 37.199219 18.769531 36.101563 17.035156 36.074219 15.109375 M 50.8125 30.347656 C 48.683594 30.414063 46.863281 31.769531 45.238281 33.023438 C 42.371094 35.429688 39.886719 38.296875 37.789063 41.398438 C 37.023438 42.683594 36.117188 44.042969 36.074219 45.589844 C 36.074219 40.507813 36.074219 35.429688 36.074219 30.347656 M 36.074219 45.589844 C 36 43.320313 34.617188 41.355469 33.3125 39.597656 C 30.988281 36.699219 28.230469 34.136719 25.199219 31.992188 C 24.019531 31.257813 22.769531 30.382813 21.332031 30.347656 C 26.246094 30.347656 31.160156 30.347656 36.074219 30.347656 M 21.332031 30.347656 C 23.464844 30.28125 25.28125 28.925781 26.90625 27.675781 C 29.777344 25.265625 32.261719 22.402344 34.355469 19.300781 C 35.125 18.015625 36.03125 16.652344 36.074219 15.109375 C 36.074219 20.191406 36.074219 25.269531 36.074219 30.347656 "/>
<path style=" stroke:none;fill-rule:nonzero;fill:rgb(86.29303%,23.658752%,16.767883%);fill-opacity:1;" d="M 36.074219 91.878906 C 40.988281 91.878906 45.898438 91.878906 50.8125 91.878906 C 49.136719 91.804688 47.707031 90.71875 46.355469 89.820313 C 43.324219 87.53125 40.488281 84.910156 38.246094 81.84375 C 37.199219 80.300781 36.101563 78.566406 36.074219 76.640625 M 50.8125 91.878906 C 48.683594 91.945313 46.863281 93.300781 45.238281 94.550781 C 42.371094 96.960938 39.886719 99.824219 37.789063 102.929688 C 37.023438 104.210938 36.117188 105.574219 36.074219 107.117188 C 36.074219 102.035156 36.074219 96.960938 36.074219 91.878906 M 36.074219 107.117188 C 36 104.847656 34.617188 102.882813 33.3125 101.128906 C 30.988281 98.230469 28.230469 95.667969 25.199219 93.523438 C 24.019531 92.789063 22.769531 91.914063 21.332031 91.878906 C 26.246094 91.878906 31.160156 91.878906 36.074219 91.878906 M 21.332031 91.878906 C 23.464844 91.8125 25.28125 90.457031 26.90625 89.207031 C 29.777344 86.796875 32.261719 83.929688 34.355469 80.828125 C 35.125 79.546875 36.03125 78.183594 36.074219 76.640625 C 36.074219 81.71875 36.074219 86.796875 36.074219 91.878906 "/>
<path style=" stroke:none;fill-rule:nonzero;fill:rgb(86.29303%,23.658752%,16.767883%);fill-opacity:1;" d="M 36.074219 161.078125 C 31.160156 161.078125 26.246094 161.078125 21.335938 161.078125 C 23.011719 161.152344 24.441406 162.238281 25.789063 163.136719 C 28.820313 165.421875 31.660156 168.046875 33.902344 171.113281 C 34.945313 172.65625 36.046875 174.390625 36.074219 176.316406 M 21.335938 161.078125 C 23.464844 161.011719 25.28125 159.65625 26.90625 158.402344 C 29.777344 155.996094 32.261719 153.128906 34.355469 150.027344 C 35.125 148.742188 36.03125 147.382813 36.074219 145.839844 C 36.074219 150.917969 36.074219 155.996094 36.074219 161.078125 M 36.074219 145.839844 C 36.148438 148.105469 37.527344 150.074219 38.835938 151.828125 C 41.160156 154.726563 43.914063 157.289063 46.949219 159.433594 C 48.128906 160.167969 49.378906 161.042969 50.8125 161.078125 C 45.898438 161.078125 40.988281 161.078125 36.074219 161.078125 M 50.8125 161.078125 C 48.683594 161.144531 46.863281 162.5 45.238281 163.75 C 42.371094 166.160156 39.886719 169.023438 37.789063 172.128906 C 37.023438 173.410156 36.117188 174.773438 36.074219 176.316406 C 36.074219 171.238281 36.074219 166.15625 36.074219 161.078125 "/>
<path style=" stroke:none;fill-rule:nonzero;fill:rgb(86.29303%,23.658752%,16.767883%);fill-opacity:1;" d="M 99.9375 30.347656 C 104.847656 30.347656 109.761719 30.347656 114.675781 30.347656 C 112.996094 30.273438 111.566406 29.1875 110.21875 28.289063 C 107.1875 26.003906 104.351563 23.382813 102.109375 20.3125 C 101.0625 18.769531 99.964844 17.035156 99.9375 15.109375 M 114.675781 30.347656 C 112.546875 30.414063 110.726563 31.769531 109.101563 33.023438 C 106.234375 35.429688 103.75 38.296875 101.652344 41.398438 C 100.882813 42.683594 99.976563 44.042969 99.9375 45.589844 C 99.9375 40.507813 99.9375 35.429688 99.9375 30.347656 M 99.9375 45.589844 C 99.863281 43.320313 98.480469 41.355469 97.175781 39.597656 C 94.851563 36.699219 92.09375 34.136719 89.0625 31.992188 C 87.882813 31.257813 86.632813 30.382813 85.195313 30.347656 C 90.109375 30.347656 95.023438 30.347656 99.9375 30.347656 M 85.195313 30.347656 C 87.324219 30.28125 89.144531 28.925781 90.769531 27.675781 C 93.636719 25.265625 96.121094 22.402344 98.21875 19.300781 C 98.988281 18.015625 99.890625 16.652344 99.9375 15.109375 C 99.9375 20.191406 99.9375 25.269531 99.9375 30.347656 "/>
<path style=" stroke:none;fill-rule:nonzero;fill:rgb(86.29303%,23.658752%,16.767883%);fill-opacity:1;" d="M 99.9375 91.878906 C 104.847656 91.878906 109.761719 91.878906 114.675781 91.878906 C 112.996094 91.804688 111.566406 90.71875 110.21875 89.820313 C 107.1875 87.53125 104.351563 84.910156 102.109375 81.84375 C 101.0625 80.300781 99.964844 78.566406 99.9375 76.640625 M 114.675781 91.878906 C 112.546875 91.945313 110.726563 93.300781 109.101563 94.550781 C 106.234375 96.960938 103.75 99.824219 101.652344 102.929688 C 100.882813 104.210938 99.976563 105.574219 99.9375 107.117188 C 99.9375 102.035156 99.9375 96.960938 99.9375 91.878906 M 99.9375 107.117188 C 99.863281 104.847656 98.480469 102.882813 97.175781 101.128906 C 94.851563 98.230469 92.09375 95.667969 89.0625 93.523438 C 87.882813 92.789063 86.632813 91.914063 85.195313 91.878906 C 90.109375 91.878906 95.023438 91.878906 99.9375 91.878906 M 85.195313 91.878906 C 87.324219 91.8125 89.144531 90.457031 90.769531 89.207031 C 93.636719 86.796875 96.121094 83.929688 98.21875 80.828125 C 98.988281 79.546875 99.890625 78.183594 99.9375 76.640625 C 99.9375 81.71875 99.9375 86.796875 99.9375 91.878906 "/>
<path style=" stroke:none;fill-rule:nonzero;fill:rgb(86.29303%,23.658752%,16.767883%);fill-opacity:1;" d="M 99.9375 161.078125 C 95.023438 161.078125 90.109375 161.078125 85.195313 161.078125 C 86.875 161.152344 88.304688 162.238281 89.652344 163.136719 C 92.683594 165.421875 95.523438 168.046875 97.761719 171.113281 C 98.808594 172.65625 99.90625 174.390625 99.9375 176.316406 M 85.195313 161.078125 C 87.324219 161.011719 89.144531 159.65625 90.769531 158.402344 C 93.640625 155.996094 96.121094 153.128906 98.21875 150.027344 C 98.988281 148.742188 99.894531 147.382813 99.9375 145.839844 C 99.9375 150.917969 99.9375 155.996094 99.9375 161.078125 M 99.9375 145.839844 C 100.007813 148.105469 101.390625 150.074219 102.695313 151.828125 C 105.023438 154.726563 107.777344 157.289063 110.8125 159.433594 C 111.988281 160.167969 113.238281 161.042969 114.675781 161.078125 C 109.761719 161.078125 104.847656 161.078125 99.9375 161.078125 M 114.675781 161.078125 C 112.546875 161.144531 110.726563 162.5 109.101563 163.75 C 106.234375 166.160156 103.75 169.023438 101.652344 172.128906 C 100.882813 173.410156 99.980469 174.773438 99.9375 176.316406 C 99.9375 171.238281 99.9375 166.15625 99.9375 161.078125 "/>
</g>
</svg>
