<?xml version="1.0" encoding="UTF-8"?>
<svg xmlns="http://www.w3.org/2000/svg" xmlns:xlink="http://www.w3.org/1999/xlink" width="135.21pt" height="195.639pt" viewBox="0 0 135.21 195.639" version="1.1">
<g id="surface1">
<path style=" stroke:none;fill-rule:nonzero;fill:rgb(100%,100%,100%);fill-opacity:1;" d="M 1 189.097656 C 1 192.121094 3.472656 194.589844 6.492188 194.589844 L 128.722656 194.589844 C 131.738281 194.589844 134.210938 192.121094 134.210938 189.097656 L 134.210938 6.445313 C 134.210938 3.421875 131.738281 0.949219 128.722656 0.949219 L 6.492188 0.949219 C 3.472656 0.949219 1 3.421875 1 6.445313 Z M 1 189.097656 "/>
<path style="fill:none;stroke-width:1.999;stroke-linecap:butt;stroke-linejoin:miter;stroke:rgb(0%,0%,0%);stroke-opacity:1;stroke-miterlimit:10;" d="M 1 6.541344 C 1 3.517906 3.472656 1.049156 6.492188 1.049156 L 128.722656 1.049156 C 131.738281 1.049156 134.210938 3.517906 134.210938 6.541344 L 134.210938 189.193687 C 134.210938 192.217125 131.738281 194.689781 128.722656 194.689781 L 6.492188 194.689781 C 3.472656 194.689781 1 192.217125 1 189.193687 Z M 1 6.541344 " transform="matrix(1,0,0,-1,0,195.639)"/>
<path style=" stroke:none;fill-rule:nonzero;fill:rgb(86.29303%,23.658752%,16.767883%);fill-opacity:1;" d="M 8.976563 14.148438 C 9.386719 13.535156 9.84375 13.070313 10.351563 12.765625 C 10.863281 12.457031 11.417969 12.304688 12.019531 12.304688 C 13.464844 12.304688 14.601563 13.097656 15.421875 14.683594 C 16.25 16.269531 16.664063 18.445313 16.664063 21.214844 C 16.664063 24.140625 16.199219 26.398438 15.269531 27.996094 C 14.339844 29.585938 13.019531 30.378906 11.308594 30.378906 C 9.375 30.378906 7.90625 29.289063 6.910156 27.109375 C 5.917969 24.921875 5.421875 21.707031 5.421875 17.46875 C 5.421875 12.652344 5.972656 9.019531 7.078125 6.566406 C 8.1875 4.105469 9.824219 2.875 12 2.875 C 12.566406 2.875 13.179688 2.964844 13.828125 3.140625 C 14.480469 3.320313 15.179688 3.585938 15.925781 3.941406 L 15.925781 8.628906 L 14.777344 8.628906 C 14.617188 7.421875 14.320313 6.507813 13.875 5.894531 C 13.441406 5.265625 12.875 4.953125 12.179688 4.953125 C 11.054688 4.953125 10.238281 5.675781 9.734375 7.117188 C 9.234375 8.5625 8.980469 10.90625 8.976563 14.148438 M 11.089844 28.300781 C 11.742188 28.300781 12.203125 27.785156 12.484375 26.753906 C 12.761719 25.714844 12.898438 23.914063 12.898438 21.355469 C 12.898438 18.800781 12.761719 17.007813 12.484375 15.976563 C 12.203125 14.9375 11.742188 14.414063 11.089844 14.414063 C 10.4375 14.414063 9.972656 14.9375 9.695313 15.976563 C 9.425781 17.007813 9.289063 18.800781 9.289063 21.355469 C 9.289063 23.914063 9.425781 25.714844 9.695313 26.753906 C 9.972656 27.785156 10.4375 28.300781 11.089844 28.300781 "/>
<path style=" stroke:none;fill-rule:nonzero;fill:rgb(86.29303%,23.658752%,16.767883%);fill-opacity:1;" d="M 127.035156 180.59375 C 126.621094 181.210938 126.164063 181.671875 125.660156 181.980469 C 125.148438 182.285156 124.589844 182.441406 123.992188 182.441406 C 122.542969 182.441406 121.410156 181.648438 120.589844 180.0625 C 119.761719 178.476563 119.347656 176.296875 119.347656 173.527344 C 119.347656 170.605469 119.8125 168.34375 120.738281 166.746094 C 121.667969 165.160156 122.988281 164.367188 124.703125 164.367188 C 126.636719 164.367188 128.101563 165.457031 129.101563 167.632813 C 130.09375 169.824219 130.589844 173.035156 130.589844 177.273438 C 130.589844 182.09375 130.035156 185.726563 128.929688 188.175781 C 127.824219 190.636719 126.183594 191.867188 124.011719 191.867188 C 123.441406 191.867188 122.832031 191.78125 122.179688 191.601563 C 121.53125 191.425781 120.832031 191.160156 120.085938 190.804688 L 120.085938 186.117188 L 121.234375 186.117188 C 121.390625 187.324219 121.691406 188.234375 122.132813 188.851563 C 122.570313 189.476563 123.136719 189.792969 123.828125 189.792969 C 124.953125 189.792969 125.769531 189.070313 126.277344 187.625 C 126.773438 186.183594 127.027344 183.839844 127.035156 180.59375 M 124.921875 166.445313 C 124.269531 166.445313 123.804688 166.960938 123.527344 167.988281 C 123.25 169.03125 123.109375 170.828125 123.109375 173.386719 C 123.109375 175.941406 123.25 177.734375 123.527344 178.765625 C 123.804688 179.808594 124.269531 180.328125 124.921875 180.328125 C 125.570313 180.328125 126.035156 179.808594 126.3125 178.765625 C 126.585938 177.734375 126.722656 175.941406 126.722656 173.386719 C 126.722656 170.828125 126.585938 169.03125 126.3125 167.988281 C 126.035156 166.960938 125.570313 166.445313 124.921875 166.445313 "/>
<path style=" stroke:none;fill-rule:nonzero;fill:rgb(86.29303%,23.658752%,16.767883%);fill-opacity:1;" d="M 18.050781 37.914063 C 18.039063 41.683594 13.324219 44.425781 11.941406 47.40625 C 10.539063 44.433594 5.8125 41.714844 5.78125 37.945313 C 5.773438 36.171875 7.148438 34.722656 8.835938 34.722656 C 10.53125 34.722656 11.914063 36.15625 11.914063 37.929688 C 11.914063 36.148438 13.28125 34.707031 14.972656 34.707031 C 16.664063 34.699219 18.039063 36.140625 18.050781 37.914063 Z M 18.050781 37.914063 "/>
<path style=" stroke:none;fill-rule:nonzero;fill:rgb(86.29303%,23.658752%,16.767883%);fill-opacity:1;" d="M 117.960938 156.828125 C 117.96875 153.0625 122.6875 150.320313 124.070313 147.335938 C 125.46875 150.3125 130.195313 153.03125 130.226563 156.796875 C 130.234375 158.570313 128.859375 160.019531 127.171875 160.019531 C 125.476563 160.019531 124.09375 158.589844 124.09375 156.8125 C 124.09375 158.597656 122.726563 160.035156 121.039063 160.035156 C 119.34375 160.042969 117.96875 158.605469 117.960938 156.828125 Z M 117.960938 156.828125 "/>
<path style=" stroke:none;fill-rule:nonzero;fill:rgb(86.29303%,23.658752%,16.767883%);fill-opacity:1;" d="M 50.792969 22.804688 C 50.773438 31.84375 39.449219 38.429688 36.132813 45.585938 C 32.773438 38.445313 21.429688 31.921875 21.351563 22.882813 C 21.332031 18.621094 24.632813 15.148438 28.683594 15.148438 C 32.753906 15.148438 36.074219 18.582031 36.074219 22.84375 C 36.074219 18.5625 39.355469 15.109375 43.40625 15.109375 C 47.472656 15.089844 50.773438 18.542969 50.792969 22.804688 Z M 50.792969 22.804688 "/>
<path style=" stroke:none;fill-rule:nonzero;fill:rgb(86.29303%,23.658752%,16.767883%);fill-opacity:1;" d="M 50.792969 84.335938 C 50.773438 93.375 39.449219 99.960938 36.132813 107.117188 C 32.773438 99.976563 21.429688 93.453125 21.351563 84.410156 C 21.332031 80.152344 24.632813 76.679688 28.683594 76.679688 C 32.753906 76.679688 36.074219 80.113281 36.074219 84.375 C 36.074219 80.09375 39.355469 76.640625 43.40625 76.640625 C 47.472656 76.621094 50.773438 80.074219 50.792969 84.335938 Z M 50.792969 84.335938 "/>
<path style=" stroke:none;fill-rule:nonzero;fill:rgb(86.29303%,23.658752%,16.767883%);fill-opacity:1;" d="M 21.351563 168.621094 C 21.371094 159.582031 32.695313 152.996094 36.015625 145.839844 C 39.375 152.980469 50.71875 159.503906 50.796875 168.542969 C 50.8125 172.804688 47.511719 176.277344 43.464844 176.277344 C 39.394531 176.277344 36.074219 172.84375 36.074219 168.582031 C 36.074219 172.863281 32.792969 176.316406 28.742188 176.316406 C 24.671875 176.335938 21.371094 172.882813 21.351563 168.621094 Z M 21.351563 168.621094 "/>
<path style=" stroke:none;fill-rule:nonzero;fill:rgb(86.29303%,23.658752%,16.767883%);fill-opacity:1;" d="M 114.65625 22.804688 C 114.636719 31.84375 103.3125 38.429688 99.992188 45.585938 C 96.632813 38.445313 85.289063 31.921875 85.214844 22.882813 C 85.195313 18.621094 88.496094 15.148438 92.546875 15.148438 C 96.613281 15.148438 99.9375 18.582031 99.9375 22.84375 C 99.9375 18.5625 103.21875 15.109375 107.265625 15.109375 C 111.335938 15.089844 114.636719 18.542969 114.65625 22.804688 Z M 114.65625 22.804688 "/>
<path style=" stroke:none;fill-rule:nonzero;fill:rgb(86.29303%,23.658752%,16.767883%);fill-opacity:1;" d="M 114.65625 84.335938 C 114.636719 93.375 103.3125 99.960938 99.992188 107.117188 C 96.632813 99.976563 85.289063 93.453125 85.214844 84.410156 C 85.195313 80.152344 88.496094 76.679688 92.546875 76.679688 C 96.613281 76.679688 99.9375 80.113281 99.9375 84.375 C 99.9375 80.09375 103.21875 76.640625 107.265625 76.640625 C 111.335938 76.621094 114.636719 80.074219 114.65625 84.335938 Z M 114.65625 84.335938 "/>
<path style=" stroke:none;fill-rule:nonzero;fill:rgb(86.29303%,23.658752%,16.767883%);fill-opacity:1;" d="M 85.214844 168.621094 C 85.234375 159.582031 96.558594 152.996094 99.878906 145.839844 C 103.238281 152.980469 114.578125 159.503906 114.65625 168.542969 C 114.675781 172.804688 111.375 176.277344 107.324219 176.277344 C 103.257813 176.277344 99.9375 172.84375 99.9375 168.582031 C 99.9375 172.863281 96.652344 176.316406 92.605469 176.316406 C 88.535156 176.335938 85.234375 172.882813 85.214844 168.621094 Z M 85.214844 168.621094 "/>
</g>
</svg>
