<?xml version="1.0" encoding="UTF-8"?>
<svg xmlns="http://www.w3.org/2000/svg" xmlns:xlink="http://www.w3.org/1999/xlink" width="135.21pt" height="195.639pt" viewBox="0 0 135.21 195.639" version="1.1">
<g id="surface1">
<path style=" stroke:none;fill-rule:nonzero;fill:rgb(100%,100%,100%);fill-opacity:1;" d="M 1 189.097656 C 1 192.121094 3.472656 194.589844 6.492188 194.589844 L 128.722656 194.589844 C 131.738281 194.589844 134.210938 192.121094 134.210938 189.097656 L 134.210938 6.445313 C 134.210938 3.421875 131.738281 0.949219 128.722656 0.949219 L 6.492188 0.949219 C 3.472656 0.949219 1 3.421875 1 6.445313 Z M 1 189.097656 "/>
<path style="fill:none;stroke-width:1.999;stroke-linecap:butt;stroke-linejoin:miter;stroke:rgb(0%,0%,0%);stroke-opacity:1;stroke-miterlimit:10;" d="M 1 6.541344 C 1 3.517906 3.472656 1.049156 6.492188 1.049156 L 128.722656 1.049156 C 131.738281 1.049156 134.210938 3.517906 134.210938 6.541344 L 134.210938 189.193687 C 134.210938 192.217125 131.738281 194.689781 128.722656 194.689781 L 6.492188 194.689781 C 3.472656 194.689781 1 192.217125 1 189.193687 Z M 1 6.541344 " transform="matrix(1,0,0,-1,0,195.639)"/>
<path style=" stroke:none;fill-rule:nonzero;fill:rgb(86.29303%,23.658752%,16.767883%);fill-opacity:1;" d="M 16.09375 7.863281 L 10.257813 29.863281 L 8.332031 29.863281 L 14.019531 8.378906 L 7.03125 8.378906 L 7.03125 11.964844 L 5.734375 11.964844 L 5.734375 3.355469 L 16.09375 3.355469 L 16.09375 7.863281 "/>
<path style=" stroke:none;fill-rule:nonzero;fill:rgb(86.29303%,23.658752%,16.767883%);fill-opacity:1;" d="M 119.910156 186.878906 L 125.75 164.882813 L 127.675781 164.882813 L 121.988281 186.363281 L 128.972656 186.363281 L 128.972656 182.777344 L 130.273438 182.777344 L 130.273438 191.390625 L 119.910156 191.390625 L 119.910156 186.878906 "/>
<path style=" stroke:none;fill-rule:nonzero;fill:rgb(86.29303%,23.658752%,16.767883%);fill-opacity:1;" d="M 11.914063 41.058594 C 13.964844 41.058594 16.011719 41.058594 18.058594 41.058594 C 17.359375 41.027344 16.761719 40.574219 16.199219 40.199219 C 14.9375 39.246094 13.753906 38.15625 12.820313 36.878906 C 12.386719 36.234375 11.925781 35.511719 11.914063 34.710938 M 18.058594 41.058594 C 17.171875 41.085938 16.410156 41.652344 15.734375 42.171875 C 14.539063 43.175781 13.503906 44.371094 12.632813 45.660156 C 12.3125 46.195313 11.933594 46.765625 11.914063 47.40625 C 11.914063 45.289063 11.914063 43.175781 11.914063 41.058594 M 11.914063 47.40625 C 11.886719 46.464844 11.308594 45.644531 10.765625 44.914063 C 9.796875 43.703125 8.648438 42.636719 7.386719 41.742188 C 6.894531 41.4375 6.371094 41.074219 5.773438 41.058594 C 7.820313 41.058594 9.867188 41.058594 11.914063 41.058594 M 5.773438 41.058594 C 6.660156 41.03125 7.421875 40.464844 8.097656 39.945313 C 9.292969 38.941406 10.328125 37.746094 11.199219 36.453125 C 11.519531 35.921875 11.898438 35.351563 11.914063 34.710938 C 11.914063 36.824219 11.914063 38.941406 11.914063 41.058594 "/>
<path style=" stroke:none;fill-rule:nonzero;fill:rgb(86.29303%,23.658752%,16.767883%);fill-opacity:1;" d="M 124.089844 153.6875 C 122.042969 153.6875 119.996094 153.6875 117.949219 153.6875 C 118.648438 153.71875 119.242188 154.171875 119.804688 154.542969 C 121.066406 155.496094 122.25 156.589844 123.183594 157.867188 C 123.621094 158.511719 124.078125 159.234375 124.089844 160.035156 M 117.949219 153.6875 C 118.835938 153.65625 119.59375 153.09375 120.269531 152.570313 C 121.464844 151.566406 122.5 150.375 123.375 149.082031 C 123.695313 148.546875 124.074219 147.980469 124.089844 147.335938 C 124.089844 149.453125 124.089844 151.570313 124.089844 153.6875 M 124.089844 147.335938 C 124.121094 148.28125 124.695313 149.101563 125.238281 149.832031 C 126.210938 151.039063 127.359375 152.105469 128.621094 153 C 129.113281 153.308594 129.632813 153.671875 130.230469 153.6875 C 128.183594 153.6875 126.136719 153.6875 124.089844 153.6875 M 130.230469 153.6875 C 129.34375 153.714844 128.585938 154.277344 127.910156 154.800781 C 126.714844 155.804688 125.679688 156.996094 124.804688 158.289063 C 124.484375 158.824219 124.109375 159.390625 124.089844 160.035156 C 124.089844 157.917969 124.089844 155.804688 124.089844 153.6875 "/>
<path style=" stroke:none;fill-rule:nonzero;fill:rgb(86.29303%,23.658752%,16.767883%);fill-opacity:1;" d="M 36.074219 30.347656 C 40.988281 30.347656 45.902344 30.347656 50.8125 30.347656 C 49.136719 30.273438 47.707031 29.1875 46.359375 28.289063 C 43.328125 26.003906 40.488281 23.382813 38.246094 20.3125 C 37.199219 18.769531 36.101563 17.035156 36.074219 15.109375 M 50.8125 30.347656 C 48.683594 30.414063 46.863281 31.769531 45.242188 33.023438 C 42.371094 35.429688 39.886719 38.296875 37.792969 41.398438 C 37.023438 42.683594 36.117188 44.042969 36.074219 45.589844 C 36.074219 40.507813 36.074219 35.429688 36.074219 30.347656 M 36.074219 45.589844 C 36 43.320313 34.617188 41.355469 33.3125 39.597656 C 30.988281 36.699219 28.230469 34.136719 25.199219 31.992188 C 24.019531 31.257813 22.769531 30.382813 21.335938 30.347656 C 26.246094 30.347656 31.160156 30.347656 36.074219 30.347656 M 21.335938 30.347656 C 23.464844 30.28125 25.285156 28.925781 26.90625 27.675781 C 29.777344 25.265625 32.261719 22.402344 34.355469 19.300781 C 35.125 18.015625 36.03125 16.652344 36.074219 15.109375 C 36.074219 20.191406 36.074219 25.269531 36.074219 30.347656 "/>
<path style=" stroke:none;fill-rule:nonzero;fill:rgb(86.29303%,23.658752%,16.767883%);fill-opacity:1;" d="M 36.074219 91.878906 C 40.988281 91.878906 45.902344 91.878906 50.8125 91.878906 C 49.136719 91.804688 47.707031 90.71875 46.359375 89.820313 C 43.328125 87.53125 40.488281 84.910156 38.246094 81.84375 C 37.199219 80.300781 36.101563 78.566406 36.074219 76.640625 M 50.8125 91.878906 C 48.683594 91.945313 46.863281 93.300781 45.242188 94.550781 C 42.371094 96.960938 39.886719 99.824219 37.792969 102.929688 C 37.023438 104.210938 36.117188 105.574219 36.074219 107.117188 C 36.074219 102.035156 36.074219 96.960938 36.074219 91.878906 M 36.074219 107.117188 C 36 104.847656 34.617188 102.882813 33.3125 101.128906 C 30.988281 98.230469 28.230469 95.667969 25.199219 93.523438 C 24.019531 92.789063 22.769531 91.914063 21.335938 91.878906 C 26.246094 91.878906 31.160156 91.878906 36.074219 91.878906 M 21.335938 91.878906 C 23.464844 91.8125 25.285156 90.457031 26.90625 89.207031 C 29.777344 86.796875 32.261719 83.929688 34.355469 80.828125 C 35.125 79.546875 36.03125 78.183594 36.074219 76.640625 C 36.074219 81.71875 36.074219 86.796875 36.074219 91.878906 "/>
<path style=" stroke:none;fill-rule:nonzero;fill:rgb(86.29303%,23.658752%,16.767883%);fill-opacity:1;" d="M 36.074219 161.078125 C 31.160156 161.078125 26.246094 161.078125 21.335938 161.078125 C 23.011719 161.152344 24.441406 162.238281 25.789063 163.136719 C 28.820313 165.421875 31.660156 168.046875 33.902344 171.113281 C 34.945313 172.65625 36.046875 174.390625 36.074219 176.316406 M 21.335938 161.078125 C 23.464844 161.011719 25.285156 159.65625 26.90625 158.402344 C 29.777344 155.996094 32.261719 153.128906 34.355469 150.027344 C 35.125 148.742188 36.03125 147.382813 36.074219 145.839844 C 36.074219 150.917969 36.074219 155.996094 36.074219 161.078125 M 36.074219 145.839844 C 36.148438 148.105469 37.527344 150.074219 38.835938 151.828125 C 41.160156 154.726563 43.914063 157.289063 46.949219 159.433594 C 48.128906 160.167969 49.378906 161.042969 50.8125 161.078125 C 45.902344 161.078125 40.988281 161.078125 36.074219 161.078125 M 50.8125 161.078125 C 48.683594 161.144531 46.863281 162.5 45.242188 163.75 C 42.371094 166.160156 39.886719 169.023438 37.792969 172.128906 C 37.023438 173.410156 36.117188 174.773438 36.074219 176.316406 C 36.074219 171.238281 36.074219 166.15625 36.074219 161.078125 "/>
<path style=" stroke:none;fill-rule:nonzero;fill:rgb(86.29303%,23.658752%,16.767883%);fill-opacity:1;" d="M 99.9375 30.347656 C 104.851563 30.347656 109.761719 30.347656 114.675781 30.347656 C 112.996094 30.273438 111.570313 29.1875 110.21875 28.289063 C 107.1875 26.003906 104.351563 23.382813 102.109375 20.3125 C 101.0625 18.769531 99.964844 17.035156 99.9375 15.109375 M 114.675781 30.347656 C 112.546875 30.414063 110.726563 31.769531 109.101563 33.023438 C 106.234375 35.429688 103.75 38.296875 101.652344 41.398438 C 100.886719 42.683594 99.980469 44.042969 99.9375 45.589844 C 99.9375 40.507813 99.9375 35.429688 99.9375 30.347656 M 99.9375 45.589844 C 99.863281 43.320313 98.480469 41.355469 97.175781 39.597656 C 94.851563 36.699219 92.09375 34.136719 89.0625 31.992188 C 87.882813 31.257813 86.632813 30.382813 85.195313 30.347656 C 90.109375 30.347656 95.023438 30.347656 99.9375 30.347656 M 85.195313 30.347656 C 87.328125 30.28125 89.144531 28.925781 90.769531 27.675781 C 93.640625 25.265625 96.121094 22.402344 98.21875 19.300781 C 98.988281 18.015625 99.894531 16.652344 99.9375 15.109375 C 99.9375 20.191406 99.9375 25.269531 99.9375 30.347656 "/>
<path style=" stroke:none;fill-rule:nonzero;fill:rgb(86.29303%,23.658752%,16.767883%);fill-opacity:1;" d="M 99.9375 91.878906 C 104.851563 91.878906 109.761719 91.878906 114.675781 91.878906 C 112.996094 91.804688 111.570313 90.71875 110.21875 89.820313 C 107.1875 87.53125 104.351563 84.910156 102.109375 81.84375 C 101.0625 80.300781 99.964844 78.566406 99.9375 76.640625 M 114.675781 91.878906 C 112.546875 91.945313 110.726563 93.300781 109.101563 94.550781 C 106.234375 96.960938 103.75 99.824219 101.652344 102.929688 C 100.886719 104.210938 99.980469 105.574219 99.9375 107.117188 C 99.9375 102.035156 99.9375 96.960938 99.9375 91.878906 M 99.9375 107.117188 C 99.863281 104.847656 98.480469 102.882813 97.175781 101.128906 C 94.851563 98.230469 92.09375 95.667969 89.0625 93.523438 C 87.882813 92.789063 86.632813 91.914063 85.195313 91.878906 C 90.109375 91.878906 95.023438 91.878906 99.9375 91.878906 M 85.195313 91.878906 C 87.328125 91.8125 89.144531 90.457031 90.769531 89.207031 C 93.640625 86.796875 96.121094 83.929688 98.21875 80.828125 C 98.988281 79.546875 99.894531 78.183594 99.9375 76.640625 C 99.9375 81.71875 99.9375 86.796875 99.9375 91.878906 "/>
<path style=" stroke:none;fill-rule:nonzero;fill:rgb(86.29303%,23.658752%,16.767883%);fill-opacity:1;" d="M 99.9375 161.078125 C 95.023438 161.078125 90.109375 161.078125 85.195313 161.078125 C 86.875 161.152344 88.304688 162.238281 89.652344 163.136719 C 92.683594 165.421875 95.523438 168.046875 97.765625 171.113281 C 98.808594 172.65625 99.910156 174.390625 99.9375 176.316406 M 85.195313 161.078125 C 87.328125 161.011719 89.144531 159.65625 90.769531 158.402344 C 93.640625 155.996094 96.121094 153.128906 98.21875 150.027344 C 98.988281 148.742188 99.894531 147.382813 99.9375 145.839844 C 99.9375 150.917969 99.9375 155.996094 99.9375 161.078125 M 99.9375 145.839844 C 100.007813 148.105469 101.390625 150.074219 102.695313 151.828125 C 105.023438 154.726563 107.777344 157.289063 110.8125 159.433594 C 111.988281 160.167969 113.242188 161.042969 114.675781 161.078125 C 109.761719 161.078125 104.851563 161.078125 99.9375 161.078125 M 114.675781 161.078125 C 112.546875 161.144531 110.726563 162.5 109.101563 163.75 C 106.234375 166.160156 103.75 169.023438 101.652344 172.128906 C 100.882813 173.410156 99.980469 174.773438 99.9375 176.316406 C 99.9375 171.238281 99.9375 166.15625 99.9375 161.078125 "/>
<path style=" stroke:none;fill-rule:nonzero;fill:rgb(86.29303%,23.658752%,16.767883%);fill-opacity:1;" d="M 68.003906 73.65625 C 72.917969 73.65625 77.832031 73.65625 82.746094 73.65625 C 81.066406 73.582031 79.636719 72.496094 78.289063 71.597656 C 75.257813 69.3125 72.417969 66.691406 70.179688 63.621094 C 69.132813 62.078125 68.03125 60.34375 68.003906 58.417969 M 82.746094 73.65625 C 80.613281 73.722656 78.796875 75.078125 77.171875 76.332031 C 74.300781 78.738281 71.820313 81.605469 69.722656 84.707031 C 68.953125 85.992188 68.046875 87.351563 68.003906 88.894531 C 68.003906 83.816406 68.003906 78.738281 68.003906 73.65625 M 68.003906 88.894531 C 67.933594 86.628906 66.550781 84.660156 65.246094 82.90625 C 62.917969 80.011719 60.164063 77.445313 57.128906 75.300781 C 55.953125 74.566406 54.699219 73.691406 53.265625 73.65625 C 58.179688 73.65625 63.09375 73.65625 68.003906 73.65625 M 53.265625 73.65625 C 55.394531 73.589844 57.214844 72.234375 58.839844 70.984375 C 61.707031 68.574219 64.191406 65.710938 66.285156 62.609375 C 67.058594 61.324219 67.960938 59.964844 68.003906 58.417969 C 68.003906 63.496094 68.003906 68.578125 68.003906 73.65625 "/>
</g>
</svg>
