<?xml version="1.0" encoding="UTF-8"?>
<svg xmlns="http://www.w3.org/2000/svg" xmlns:xlink="http://www.w3.org/1999/xlink" width="135.21pt" height="195.639pt" viewBox="0 0 135.21 195.639" version="1.1">
<g id="surface1">
<path style=" stroke:none;fill-rule:nonzero;fill:rgb(100%,100%,100%);fill-opacity:1;" d="M 1 189.097656 C 1 192.121094 3.472656 194.589844 6.492188 194.589844 L 128.722656 194.589844 C 131.738281 194.589844 134.210938 192.121094 134.210938 189.097656 L 134.210938 6.445313 C 134.210938 3.421875 131.738281 0.949219 128.722656 0.949219 L 6.492188 0.949219 C 3.472656 0.949219 1 3.421875 1 6.445313 Z M 1 189.097656 "/>
<path style="fill:none;stroke-width:1.999;stroke-linecap:butt;stroke-linejoin:miter;stroke:rgb(0%,0%,0%);stroke-opacity:1;stroke-miterlimit:10;" d="M 1 6.541344 C 1 3.517906 3.472656 1.049156 6.492188 1.049156 L 128.722656 1.049156 C 131.738281 1.049156 134.210938 3.517906 134.210938 6.541344 L 134.210938 189.193687 C 134.210938 192.217125 131.738281 194.689781 128.722656 194.689781 L 6.492188 194.689781 C 3.472656 194.689781 1 192.217125 1 189.193687 Z M 1 6.541344 " transform="matrix(1,0,0,-1,0,195.639)"/>
<path style=" stroke:none;fill-rule:nonzero;fill:rgb(86.29303%,23.658752%,16.767883%);fill-opacity:1;" d="M 16.09375 7.863281 L 10.257813 29.863281 L 8.332031 29.863281 L 14.019531 8.378906 L 7.03125 8.378906 L 7.03125 11.964844 L 5.734375 11.964844 L 5.734375 3.355469 L 16.09375 3.355469 L 16.09375 7.863281 "/>
<path style=" stroke:none;fill-rule:nonzero;fill:rgb(86.29303%,23.658752%,16.767883%);fill-opacity:1;" d="M 119.910156 186.878906 L 125.75 164.882813 L 127.675781 164.882813 L 121.988281 186.363281 L 128.972656 186.363281 L 128.972656 182.777344 L 130.273438 182.777344 L 130.273438 191.390625 L 119.910156 191.390625 L 119.910156 186.878906 "/>
<path style=" stroke:none;fill-rule:nonzero;fill:rgb(86.29303%,23.658752%,16.767883%);fill-opacity:1;" d="M 18.050781 37.914063 C 18.042969 41.683594 13.324219 44.425781 11.941406 47.40625 C 10.539063 44.433594 5.8125 41.714844 5.78125 37.945313 C 5.773438 36.171875 7.148438 34.722656 8.835938 34.722656 C 10.53125 34.722656 11.914063 36.15625 11.914063 37.929688 C 11.914063 36.148438 13.28125 34.707031 14.972656 34.707031 C 16.664063 34.699219 18.042969 36.140625 18.050781 37.914063 Z M 18.050781 37.914063 "/>
<path style=" stroke:none;fill-rule:nonzero;fill:rgb(86.29303%,23.658752%,16.767883%);fill-opacity:1;" d="M 117.957031 156.828125 C 117.964844 153.0625 122.683594 150.320313 124.066406 147.335938 C 125.464844 150.3125 130.191406 153.03125 130.222656 156.796875 C 130.230469 158.570313 128.855469 160.019531 127.167969 160.019531 C 125.472656 160.019531 124.089844 158.589844 124.089844 156.8125 C 124.089844 158.597656 122.722656 160.035156 121.035156 160.035156 C 119.339844 160.042969 117.964844 158.605469 117.957031 156.828125 Z M 117.957031 156.828125 "/>
<path style=" stroke:none;fill-rule:nonzero;fill:rgb(86.29303%,23.658752%,16.767883%);fill-opacity:1;" d="M 50.796875 22.804688 C 50.777344 31.84375 39.453125 38.429688 36.132813 45.585938 C 32.773438 38.445313 21.429688 31.921875 21.351563 22.882813 C 21.335938 18.621094 24.636719 15.148438 28.683594 15.148438 C 32.753906 15.148438 36.074219 18.582031 36.074219 22.84375 C 36.074219 18.5625 39.355469 15.109375 43.40625 15.109375 C 47.476563 15.089844 50.777344 18.542969 50.796875 22.804688 Z M 50.796875 22.804688 "/>
<path style=" stroke:none;fill-rule:nonzero;fill:rgb(86.29303%,23.658752%,16.767883%);fill-opacity:1;" d="M 50.796875 84.335938 C 50.777344 93.375 39.453125 99.960938 36.132813 107.117188 C 32.773438 99.976563 21.429688 93.453125 21.351563 84.410156 C 21.335938 80.152344 24.636719 76.679688 28.683594 76.679688 C 32.753906 76.679688 36.074219 80.113281 36.074219 84.375 C 36.074219 80.09375 39.355469 76.640625 43.40625 76.640625 C 47.476563 76.621094 50.777344 80.074219 50.796875 84.335938 Z M 50.796875 84.335938 "/>
<path style=" stroke:none;fill-rule:nonzero;fill:rgb(86.29303%,23.658752%,16.767883%);fill-opacity:1;" d="M 21.351563 168.621094 C 21.371094 159.582031 32.695313 152.996094 36.015625 145.839844 C 39.375 152.980469 50.71875 159.503906 50.796875 168.542969 C 50.8125 172.804688 47.511719 176.277344 43.464844 176.277344 C 39.394531 176.277344 36.074219 172.84375 36.074219 168.582031 C 36.074219 172.863281 32.792969 176.316406 28.742188 176.316406 C 24.671875 176.335938 21.371094 172.882813 21.351563 168.621094 Z M 21.351563 168.621094 "/>
<path style=" stroke:none;fill-rule:nonzero;fill:rgb(86.29303%,23.658752%,16.767883%);fill-opacity:1;" d="M 114.65625 22.804688 C 114.636719 31.84375 103.3125 38.429688 99.992188 45.585938 C 96.636719 38.445313 85.292969 31.921875 85.214844 22.882813 C 85.195313 18.621094 88.496094 15.148438 92.546875 15.148438 C 96.617188 15.148438 99.9375 18.582031 99.9375 22.84375 C 99.9375 18.5625 103.21875 15.109375 107.269531 15.109375 C 111.335938 15.089844 114.636719 18.542969 114.65625 22.804688 Z M 114.65625 22.804688 "/>
<path style=" stroke:none;fill-rule:nonzero;fill:rgb(86.29303%,23.658752%,16.767883%);fill-opacity:1;" d="M 114.65625 84.335938 C 114.636719 93.375 103.3125 99.960938 99.992188 107.117188 C 96.636719 99.976563 85.292969 93.453125 85.214844 84.410156 C 85.195313 80.152344 88.496094 76.679688 92.546875 76.679688 C 96.617188 76.679688 99.9375 80.113281 99.9375 84.375 C 99.9375 80.09375 103.21875 76.640625 107.269531 76.640625 C 111.335938 76.621094 114.636719 80.074219 114.65625 84.335938 Z M 114.65625 84.335938 "/>
<path style=" stroke:none;fill-rule:nonzero;fill:rgb(86.29303%,23.658752%,16.767883%);fill-opacity:1;" d="M 85.214844 168.621094 C 85.234375 159.582031 96.558594 152.996094 99.878906 145.839844 C 103.238281 152.980469 114.578125 159.503906 114.65625 168.542969 C 114.675781 172.804688 111.375 176.277344 107.324219 176.277344 C 103.257813 176.277344 99.9375 172.84375 99.9375 168.582031 C 99.9375 172.863281 96.652344 176.316406 92.605469 176.316406 C 88.535156 176.335938 85.234375 172.882813 85.214844 168.621094 Z M 85.214844 168.621094 "/>
<path style=" stroke:none;fill-rule:nonzero;fill:rgb(86.29303%,23.658752%,16.767883%);fill-opacity:1;" d="M 82.726563 66.113281 C 82.707031 75.152344 71.382813 81.738281 68.0625 88.894531 C 64.703125 81.757813 53.359375 75.230469 53.285156 66.191406 C 53.265625 61.929688 56.566406 58.457031 60.617188 58.457031 C 64.683594 58.457031 68.003906 61.890625 68.003906 66.152344 C 68.003906 61.871094 71.285156 58.417969 75.335938 58.417969 C 79.40625 58.398438 82.707031 61.851563 82.726563 66.113281 Z M 82.726563 66.113281 "/>
</g>
</svg>
