<?xml version="1.0" encoding="UTF-8"?>
<svg xmlns="http://www.w3.org/2000/svg" xmlns:xlink="http://www.w3.org/1999/xlink" width="135.21pt" height="195.639pt" viewBox="0 0 135.21 195.639" version="1.1">
<g id="surface1">
<path style=" stroke:none;fill-rule:nonzero;fill:rgb(100%,100%,100%);fill-opacity:1;" d="M 1 189.097656 C 1 192.121094 3.472656 194.589844 6.492188 194.589844 L 128.722656 194.589844 C 131.738281 194.589844 134.210938 192.121094 134.210938 189.097656 L 134.210938 6.445313 C 134.210938 3.421875 131.738281 0.949219 128.722656 0.949219 L 6.492188 0.949219 C 3.472656 0.949219 1 3.421875 1 6.445313 Z M 1 189.097656 "/>
<path style="fill:none;stroke-width:1.999;stroke-linecap:butt;stroke-linejoin:miter;stroke:rgb(0%,0%,0%);stroke-opacity:1;stroke-miterlimit:10;" d="M 1 6.541344 C 1 3.517906 3.472656 1.049156 6.492188 1.049156 L 128.722656 1.049156 C 131.738281 1.049156 134.210938 3.517906 134.210938 6.541344 L 134.210938 189.193687 C 134.210938 192.217125 131.738281 194.689781 128.722656 194.689781 L 6.492188 194.689781 C 3.472656 194.689781 1 192.217125 1 189.193687 Z M 1 6.541344 " transform="matrix(1,0,0,-1,0,195.639)"/>
<path style=" stroke:none;fill-rule:nonzero;fill:rgb(0%,0%,0%);fill-opacity:1;" d="M 16.09375 7.863281 L 10.257813 29.863281 L 8.332031 29.863281 L 14.019531 8.378906 L 7.03125 8.378906 L 7.03125 11.964844 L 5.734375 11.964844 L 5.734375 3.355469 L 16.09375 3.355469 L 16.09375 7.863281 "/>
<path style=" stroke:none;fill-rule:nonzero;fill:rgb(0%,0%,0%);fill-opacity:1;" d="M 119.910156 186.878906 L 125.75 164.882813 L 127.675781 164.882813 L 121.988281 186.363281 L 128.972656 186.363281 L 128.972656 182.777344 L 130.273438 182.777344 L 130.273438 191.390625 L 119.910156 191.390625 L 119.910156 186.878906 "/>
<path style=" stroke:none;fill-rule:nonzero;fill:rgb(0%,0%,0%);fill-opacity:1;" d="M 8.78125 47.402344 C 10.117188 47.402344 10.820313 45.976563 11.1875 44.554688 C 11.554688 43.128906 11.589844 41.707031 11.589844 41.707031 L 12.269531 41.699219 C 12.269531 41.699219 12.394531 47.402344 15.066406 47.402344 Z M 8.78125 47.402344 "/>
<path style=" stroke:none;fill-rule:nonzero;fill:rgb(0%,0%,0%);fill-opacity:1;" d="M 6.519531 41.699219 C 6.527344 38.925781 10.691406 36.90625 11.914063 34.71875 C 13.140625 36.914063 17.304688 38.933594 17.3125 41.699219 C 17.3125 43.011719 16.105469 44.074219 14.609375 44.074219 C 13.121094 44.074219 11.914063 43.011719 11.914063 41.699219 C 11.914063 43.011719 10.707031 44.074219 9.214844 44.074219 C 7.71875 44.074219 6.519531 43.011719 6.519531 41.699219 Z M 6.519531 41.699219 "/>
<path style=" stroke:none;fill-rule:nonzero;fill:rgb(0%,0%,0%);fill-opacity:1;" d="M 127.226563 147.34375 C 125.890625 147.34375 125.1875 148.769531 124.816406 150.191406 C 124.449219 151.613281 124.417969 153.039063 124.417969 153.039063 L 123.738281 153.046875 C 123.738281 153.046875 123.609375 147.34375 120.9375 147.34375 Z M 127.226563 147.34375 "/>
<path style=" stroke:none;fill-rule:nonzero;fill:rgb(0%,0%,0%);fill-opacity:1;" d="M 129.488281 153.046875 C 129.480469 155.820313 125.3125 157.835938 124.089844 160.027344 C 122.867188 157.828125 118.699219 155.8125 118.691406 153.046875 C 118.691406 151.734375 119.898438 150.671875 121.394531 150.671875 C 122.882813 150.671875 124.089844 151.734375 124.089844 153.046875 C 124.089844 151.734375 125.296875 150.671875 126.792969 150.671875 C 128.289063 150.671875 129.488281 151.734375 129.488281 153.046875 Z M 129.488281 153.046875 "/>
<path style=" stroke:none;fill-rule:nonzero;fill:rgb(0%,0%,0%);fill-opacity:1;" d="M 28.550781 45.566406 C 31.757813 45.566406 33.445313 42.152344 34.328125 38.734375 C 35.210938 35.320313 35.285156 31.902344 35.285156 31.902344 L 36.917969 31.882813 C 36.917969 31.882813 37.226563 45.566406 43.636719 45.566406 Z M 28.550781 45.566406 "/>
<path style=" stroke:none;fill-rule:nonzero;fill:rgb(0%,0%,0%);fill-opacity:1;" d="M 23.117188 31.882813 C 23.136719 25.222656 33.136719 20.386719 36.074219 15.128906 C 39.011719 20.40625 49.011719 25.242188 49.027344 31.882813 C 49.027344 35.03125 46.132813 37.585938 42.542969 37.585938 C 38.972656 37.585938 36.074219 35.03125 36.074219 31.882813 C 36.074219 35.03125 33.175781 37.585938 29.585938 37.585938 C 25.996094 37.585938 23.117188 35.03125 23.117188 31.882813 Z M 23.117188 31.882813 "/>
<path style=" stroke:none;fill-rule:nonzero;fill:rgb(0%,0%,0%);fill-opacity:1;" d="M 28.550781 107.097656 C 31.757813 107.097656 33.445313 103.683594 34.328125 100.265625 C 35.210938 96.847656 35.285156 93.433594 35.285156 93.433594 L 36.917969 93.414063 C 36.917969 93.414063 37.226563 107.097656 43.636719 107.097656 Z M 28.550781 107.097656 "/>
<path style=" stroke:none;fill-rule:nonzero;fill:rgb(0%,0%,0%);fill-opacity:1;" d="M 23.117188 93.414063 C 23.136719 86.753906 33.136719 81.917969 36.074219 76.65625 C 39.011719 81.9375 49.011719 86.773438 49.027344 93.414063 C 49.027344 96.5625 46.132813 99.113281 42.542969 99.113281 C 38.972656 99.113281 36.074219 96.5625 36.074219 93.414063 C 36.074219 96.5625 33.175781 99.113281 29.585938 99.113281 C 25.996094 99.113281 23.117188 96.5625 23.117188 93.414063 Z M 23.117188 93.414063 "/>
<path style=" stroke:none;fill-rule:nonzero;fill:rgb(0%,0%,0%);fill-opacity:1;" d="M 43.597656 145.859375 C 40.390625 145.859375 38.703125 149.273438 37.820313 152.691406 C 36.9375 156.105469 36.859375 159.523438 36.859375 159.523438 L 35.230469 159.542969 C 35.230469 159.542969 34.921875 145.859375 28.511719 145.859375 Z M 43.597656 145.859375 "/>
<path style=" stroke:none;fill-rule:nonzero;fill:rgb(0%,0%,0%);fill-opacity:1;" d="M 49.027344 159.542969 C 49.011719 166.203125 39.011719 171.039063 36.074219 176.296875 C 33.136719 171.019531 23.136719 166.183594 23.117188 159.542969 C 23.117188 156.394531 26.015625 153.84375 29.605469 153.84375 C 33.175781 153.84375 36.074219 156.394531 36.074219 159.542969 C 36.074219 156.394531 38.972656 153.84375 42.5625 153.84375 C 46.148438 153.84375 49.027344 156.394531 49.027344 159.542969 Z M 49.027344 159.542969 "/>
<path style=" stroke:none;fill-rule:nonzero;fill:rgb(0%,0%,0%);fill-opacity:1;" d="M 92.414063 45.566406 C 95.617188 45.566406 97.308594 42.152344 98.191406 38.734375 C 99.074219 35.320313 99.148438 31.902344 99.148438 31.902344 L 100.78125 31.882813 C 100.78125 31.882813 101.089844 45.566406 107.496094 45.566406 Z M 92.414063 45.566406 "/>
<path style=" stroke:none;fill-rule:nonzero;fill:rgb(0%,0%,0%);fill-opacity:1;" d="M 86.980469 31.882813 C 87 25.222656 97 20.386719 99.9375 15.128906 C 102.871094 20.40625 112.871094 25.242188 112.890625 31.882813 C 112.890625 35.03125 109.992188 37.585938 106.402344 37.585938 C 102.835938 37.585938 99.9375 35.03125 99.9375 31.882813 C 99.9375 35.03125 97.039063 37.585938 93.449219 37.585938 C 89.859375 37.585938 86.980469 35.03125 86.980469 31.882813 Z M 86.980469 31.882813 "/>
<path style=" stroke:none;fill-rule:nonzero;fill:rgb(0%,0%,0%);fill-opacity:1;" d="M 92.414063 107.097656 C 95.617188 107.097656 97.308594 103.683594 98.191406 100.265625 C 99.074219 96.847656 99.148438 93.433594 99.148438 93.433594 L 100.78125 93.414063 C 100.78125 93.414063 101.089844 107.097656 107.496094 107.097656 Z M 92.414063 107.097656 "/>
<path style=" stroke:none;fill-rule:nonzero;fill:rgb(0%,0%,0%);fill-opacity:1;" d="M 86.980469 93.414063 C 87 86.753906 97 81.917969 99.9375 76.65625 C 102.871094 81.9375 112.871094 86.773438 112.890625 93.414063 C 112.890625 96.5625 109.992188 99.113281 106.402344 99.113281 C 102.835938 99.113281 99.9375 96.5625 99.9375 93.414063 C 99.9375 96.5625 97.039063 99.113281 93.449219 99.113281 C 89.859375 99.113281 86.980469 96.5625 86.980469 93.414063 Z M 86.980469 93.414063 "/>
<path style=" stroke:none;fill-rule:nonzero;fill:rgb(0%,0%,0%);fill-opacity:1;" d="M 107.460938 145.859375 C 104.253906 145.859375 102.566406 149.273438 101.683594 152.691406 C 100.800781 156.105469 100.722656 159.523438 100.722656 159.523438 L 99.09375 159.542969 C 99.09375 159.542969 98.785156 145.859375 92.375 145.859375 Z M 107.460938 145.859375 "/>
<path style=" stroke:none;fill-rule:nonzero;fill:rgb(0%,0%,0%);fill-opacity:1;" d="M 112.890625 159.542969 C 112.871094 166.203125 102.871094 171.039063 99.9375 176.296875 C 97 171.019531 87 166.183594 86.980469 159.542969 C 86.980469 156.394531 89.878906 153.84375 93.46875 153.84375 C 97.039063 153.84375 99.9375 156.394531 99.9375 159.542969 C 99.9375 156.394531 102.835938 153.84375 106.425781 153.84375 C 110.011719 153.84375 112.890625 156.394531 112.890625 159.542969 Z M 112.890625 159.542969 "/>
<path style=" stroke:none;fill-rule:nonzero;fill:rgb(0%,0%,0%);fill-opacity:1;" d="M 60.480469 88.878906 C 63.6875 88.878906 65.375 85.460938 66.257813 82.042969 C 67.140625 78.628906 67.21875 75.210938 67.21875 75.210938 L 68.851563 75.191406 C 68.851563 75.191406 69.15625 88.878906 75.566406 88.878906 Z M 60.480469 88.878906 "/>
<path style=" stroke:none;fill-rule:nonzero;fill:rgb(0%,0%,0%);fill-opacity:1;" d="M 55.050781 75.191406 C 55.070313 68.53125 65.070313 63.695313 68.003906 58.4375 C 70.941406 63.714844 80.941406 68.550781 80.960938 75.191406 C 80.960938 78.339844 78.0625 80.890625 74.472656 80.890625 C 70.902344 80.890625 68.003906 78.339844 68.003906 75.191406 C 68.003906 78.339844 65.105469 80.890625 61.519531 80.890625 C 57.929688 80.890625 55.050781 78.339844 55.050781 75.191406 Z M 55.050781 75.191406 "/>
</g>
</svg>
