<?xml version="1.0" encoding="UTF-8"?>
<svg xmlns="http://www.w3.org/2000/svg" xmlns:xlink="http://www.w3.org/1999/xlink" width="135.21pt" height="195.639pt" viewBox="0 0 135.21 195.639" version="1.1">
<g id="surface1">
<path style=" stroke:none;fill-rule:nonzero;fill:rgb(100%,100%,100%);fill-opacity:1;" d="M 1 189.097656 C 1 192.121094 3.472656 194.589844 6.492188 194.589844 L 128.726563 194.589844 C 131.738281 194.589844 134.210938 192.121094 134.210938 189.097656 L 134.210938 6.445313 C 134.210938 3.421875 131.738281 0.949219 128.726563 0.949219 L 6.492188 0.949219 C 3.472656 0.949219 1 3.421875 1 6.445313 Z M 1 189.097656 "/>
<path style="fill:none;stroke-width:1.999;stroke-linecap:butt;stroke-linejoin:miter;stroke:rgb(0%,0%,0%);stroke-opacity:1;stroke-miterlimit:10;" d="M 1 6.541344 C 1 3.517906 3.472656 1.049156 6.492188 1.049156 L 128.726563 1.049156 C 131.738281 1.049156 134.210938 3.517906 134.210938 6.541344 L 134.210938 189.193687 C 134.210938 192.217125 131.738281 194.689781 128.726563 194.689781 L 6.492188 194.689781 C 3.472656 194.689781 1 192.217125 1 189.193687 Z M 1 6.541344 " transform="matrix(1,0,0,-1,0,195.639)"/>
<path style=" stroke:none;fill-rule:nonzero;fill:rgb(86.29303%,23.658752%,16.767883%);fill-opacity:1;" d="M 13.222656 15.746094 C 14.347656 16.089844 15.199219 16.867188 15.78125 18.074219 C 16.371094 19.28125 16.664063 20.859375 16.664063 22.8125 C 16.664063 25.253906 16.171875 27.121094 15.183594 28.425781 C 14.203125 29.726563 12.789063 30.378906 10.9375 30.378906 C 9.085938 30.378906 7.667969 29.726563 6.683594 28.425781 C 5.695313 27.121094 5.203125 25.253906 5.203125 22.8125 C 5.203125 20.859375 5.496094 19.28125 6.085938 18.074219 C 6.671875 16.867188 7.527344 16.089844 8.644531 15.746094 C 7.652344 15.320313 6.910156 14.609375 6.417969 13.617188 C 5.925781 12.609375 5.679688 11.339844 5.679688 9.800781 C 5.679688 7.550781 6.125 5.835938 7.023438 4.648438 C 7.921875 3.46875 9.226563 2.875 10.9375 2.875 C 12.644531 2.875 13.945313 3.46875 14.84375 4.648438 C 15.746094 5.835938 16.199219 7.550781 16.199219 9.800781 C 16.199219 11.339844 15.949219 12.609375 15.449219 13.617188 C 14.957031 14.609375 14.214844 15.320313 13.222656 15.746094 M 12.53125 9.871094 C 12.53125 8 12.410156 6.714844 12.171875 6.019531 C 11.929688 5.308594 11.519531 4.953125 10.9375 4.953125 C 10.351563 4.953125 9.9375 5.308594 9.695313 6.019531 C 9.464844 6.714844 9.347656 8 9.347656 9.871094 C 9.347656 11.730469 9.464844 13.007813 9.695313 13.703125 C 9.9375 14.390625 10.351563 14.734375 10.9375 14.734375 C 11.527344 14.734375 11.9375 14.390625 12.171875 13.703125 C 12.410156 13.007813 12.53125 11.730469 12.53125 9.871094 M 12.902344 22.511719 C 12.902344 20.34375 12.753906 18.855469 12.453125 18.035156 C 12.164063 17.222656 11.660156 16.8125 10.9375 16.8125 C 10.210938 16.8125 9.703125 17.222656 9.410156 18.035156 C 9.121094 18.855469 8.976563 20.34375 8.976563 22.511719 C 8.976563 24.699219 9.121094 26.214844 9.410156 27.058594 C 9.710938 27.886719 10.21875 28.300781 10.9375 28.300781 C 11.652344 28.300781 12.15625 27.886719 12.453125 27.058594 C 12.753906 26.214844 12.902344 24.699219 12.902344 22.511719 "/>
<path style=" stroke:none;fill-rule:nonzero;fill:rgb(86.29303%,23.658752%,16.767883%);fill-opacity:1;" d="M 122.792969 178.996094 C 121.667969 178.652344 120.8125 177.878906 120.230469 176.671875 C 119.644531 175.464844 119.351563 173.882813 119.351563 171.929688 C 119.351563 169.492188 119.84375 167.621094 120.828125 166.320313 C 121.808594 165.019531 123.226563 164.367188 125.074219 164.367188 C 126.929688 164.367188 128.347656 165.019531 129.332031 166.320313 C 130.316406 167.621094 130.8125 169.492188 130.8125 171.929688 C 130.8125 173.882813 130.515625 175.464844 129.929688 176.671875 C 129.34375 177.878906 128.488281 178.652344 127.371094 178.996094 C 128.363281 179.421875 129.105469 180.132813 129.597656 181.128906 C 130.089844 182.132813 130.335938 183.40625 130.335938 184.945313 C 130.335938 187.195313 129.886719 188.910156 128.992188 190.09375 C 128.09375 191.277344 126.789063 191.867188 125.074219 191.867188 C 123.371094 191.867188 122.066406 191.277344 121.171875 190.09375 C 120.265625 188.910156 119.816406 187.195313 119.816406 184.945313 C 119.816406 183.40625 120.066406 182.132813 120.5625 181.128906 C 121.058594 180.132813 121.800781 179.421875 122.792969 178.996094 M 123.484375 184.875 C 123.484375 186.742188 123.605469 188.027344 123.84375 188.726563 C 124.085938 189.4375 124.496094 189.792969 125.074219 189.792969 C 125.664063 189.792969 126.078125 189.4375 126.316406 188.726563 C 126.550781 188.027344 126.667969 186.742188 126.667969 184.875 C 126.667969 183.015625 126.550781 181.738281 126.316406 181.039063 C 126.078125 180.351563 125.664063 180.007813 125.074219 180.007813 C 124.488281 180.007813 124.078125 180.351563 123.84375 181.039063 C 123.605469 181.738281 123.484375 183.015625 123.484375 184.875 M 123.113281 172.230469 C 123.113281 174.398438 123.261719 175.890625 123.558594 176.707031 C 123.851563 177.523438 124.355469 177.933594 125.074219 177.933594 C 125.804688 177.933594 126.3125 177.523438 126.601563 176.707031 C 126.894531 175.890625 127.039063 174.398438 127.039063 172.230469 C 127.039063 170.042969 126.894531 168.527344 126.601563 167.6875 C 126.304688 166.859375 125.796875 166.445313 125.074219 166.445313 C 124.363281 166.445313 123.855469 166.859375 123.558594 167.6875 C 123.261719 168.527344 123.113281 170.042969 123.113281 172.230469 "/>
<path style=" stroke:none;fill-rule:nonzero;fill:rgb(86.29303%,23.658752%,16.767883%);fill-opacity:1;" d="M 18.050781 37.914063 C 18.042969 41.683594 13.324219 44.425781 11.941406 47.40625 C 10.539063 44.433594 5.8125 41.714844 5.78125 37.945313 C 5.773438 36.171875 7.148438 34.722656 8.835938 34.722656 C 10.53125 34.722656 11.914063 36.15625 11.914063 37.929688 C 11.914063 36.148438 13.285156 34.707031 14.972656 34.707031 C 16.664063 34.699219 18.042969 36.140625 18.050781 37.914063 Z M 18.050781 37.914063 "/>
<path style=" stroke:none;fill-rule:nonzero;fill:rgb(86.29303%,23.658752%,16.767883%);fill-opacity:1;" d="M 117.964844 156.828125 C 117.972656 153.0625 122.691406 150.320313 124.074219 147.335938 C 125.472656 150.3125 130.199219 153.03125 130.230469 156.796875 C 130.238281 158.570313 128.863281 160.019531 127.175781 160.019531 C 125.480469 160.019531 124.097656 158.589844 124.097656 156.8125 C 124.097656 158.597656 122.730469 160.035156 121.042969 160.035156 C 119.347656 160.042969 117.972656 158.605469 117.964844 156.828125 Z M 117.964844 156.828125 "/>
<path style=" stroke:none;fill-rule:nonzero;fill:rgb(86.29303%,23.658752%,16.767883%);fill-opacity:1;" d="M 50.800781 22.804688 C 50.78125 31.84375 39.457031 38.429688 36.136719 45.585938 C 32.777344 38.445313 21.433594 31.921875 21.355469 22.882813 C 21.339844 18.621094 24.640625 15.148438 28.6875 15.148438 C 32.757813 15.148438 36.078125 18.582031 36.078125 22.84375 C 36.078125 18.5625 39.359375 15.109375 43.410156 15.109375 C 47.480469 15.089844 50.78125 18.542969 50.800781 22.804688 Z M 50.800781 22.804688 "/>
<path style=" stroke:none;fill-rule:nonzero;fill:rgb(86.29303%,23.658752%,16.767883%);fill-opacity:1;" d="M 50.800781 66.113281 C 50.78125 75.152344 39.457031 81.738281 36.136719 88.894531 C 32.777344 81.757813 21.433594 75.230469 21.355469 66.191406 C 21.339844 61.929688 24.640625 58.457031 28.6875 58.457031 C 32.757813 58.457031 36.078125 61.890625 36.078125 66.152344 C 36.078125 61.871094 39.359375 58.417969 43.410156 58.417969 C 47.480469 58.398438 50.78125 61.851563 50.800781 66.113281 Z M 50.800781 66.113281 "/>
<path style=" stroke:none;fill-rule:nonzero;fill:rgb(86.29303%,23.658752%,16.767883%);fill-opacity:1;" d="M 21.355469 125.3125 C 21.378906 116.273438 32.699219 109.6875 36.019531 102.53125 C 39.378906 109.671875 50.722656 116.195313 50.800781 125.234375 C 50.816406 129.496094 47.515625 132.96875 43.46875 132.96875 C 39.398438 132.96875 36.078125 129.535156 36.078125 125.273438 C 36.078125 129.554688 32.796875 133.007813 28.746094 133.007813 C 24.679688 133.027344 21.378906 129.574219 21.355469 125.3125 Z M 21.355469 125.3125 "/>
<path style=" stroke:none;fill-rule:nonzero;fill:rgb(86.29303%,23.658752%,16.767883%);fill-opacity:1;" d="M 21.355469 168.621094 C 21.378906 159.582031 32.699219 152.996094 36.019531 145.839844 C 39.378906 152.980469 50.722656 159.503906 50.800781 168.542969 C 50.816406 172.804688 47.515625 176.277344 43.46875 176.277344 C 39.398438 176.277344 36.078125 172.84375 36.078125 168.582031 C 36.078125 172.863281 32.796875 176.316406 28.746094 176.316406 C 24.679688 176.335938 21.378906 172.882813 21.355469 168.621094 Z M 21.355469 168.621094 "/>
<path style=" stroke:none;fill-rule:nonzero;fill:rgb(86.29303%,23.658752%,16.767883%);fill-opacity:1;" d="M 114.660156 22.804688 C 114.640625 31.84375 103.316406 38.429688 99.996094 45.585938 C 96.640625 38.445313 85.296875 31.921875 85.21875 22.882813 C 85.199219 18.621094 88.5 15.148438 92.550781 15.148438 C 96.621094 15.148438 99.941406 18.582031 99.941406 22.84375 C 99.941406 18.5625 103.222656 15.109375 107.273438 15.109375 C 111.339844 15.089844 114.640625 18.542969 114.660156 22.804688 Z M 114.660156 22.804688 "/>
<path style=" stroke:none;fill-rule:nonzero;fill:rgb(86.29303%,23.658752%,16.767883%);fill-opacity:1;" d="M 114.660156 66.113281 C 114.640625 75.152344 103.316406 81.738281 99.996094 88.894531 C 96.640625 81.757813 85.296875 75.230469 85.21875 66.191406 C 85.199219 61.929688 88.5 58.457031 92.550781 58.457031 C 96.621094 58.457031 99.941406 61.890625 99.941406 66.152344 C 99.941406 61.871094 103.222656 58.417969 107.273438 58.417969 C 111.339844 58.398438 114.640625 61.851563 114.660156 66.113281 Z M 114.660156 66.113281 "/>
<path style=" stroke:none;fill-rule:nonzero;fill:rgb(86.29303%,23.658752%,16.767883%);fill-opacity:1;" d="M 85.21875 125.3125 C 85.238281 116.273438 96.5625 109.6875 99.882813 102.53125 C 103.242188 109.671875 114.585938 116.195313 114.660156 125.234375 C 114.679688 129.496094 111.378906 132.96875 107.328125 132.96875 C 103.261719 132.96875 99.941406 129.535156 99.941406 125.273438 C 99.941406 129.554688 96.660156 133.007813 92.609375 133.007813 C 88.539063 133.027344 85.238281 129.574219 85.21875 125.3125 Z M 85.21875 125.3125 "/>
<path style=" stroke:none;fill-rule:nonzero;fill:rgb(86.29303%,23.658752%,16.767883%);fill-opacity:1;" d="M 85.21875 168.621094 C 85.238281 159.582031 96.5625 152.996094 99.882813 145.839844 C 103.242188 152.980469 114.585938 159.503906 114.660156 168.542969 C 114.679688 172.804688 111.378906 176.277344 107.328125 176.277344 C 103.261719 176.277344 99.941406 172.84375 99.941406 168.582031 C 99.941406 172.863281 96.660156 176.316406 92.609375 176.316406 C 88.539063 176.335938 85.238281 172.882813 85.21875 168.621094 Z M 85.21875 168.621094 "/>
</g>
</svg>
