<?xml version="1.0" encoding="UTF-8"?>
<svg xmlns="http://www.w3.org/2000/svg" xmlns:xlink="http://www.w3.org/1999/xlink" width="135.21pt" height="195.639pt" viewBox="0 0 135.21 195.639" version="1.1">
<g id="surface1">
<path style=" stroke:none;fill-rule:nonzero;fill:rgb(100%,100%,100%);fill-opacity:1;" d="M 1 189.097656 C 1 192.121094 3.472656 194.589844 6.492188 194.589844 L 128.726563 194.589844 C 131.738281 194.589844 134.210938 192.121094 134.210938 189.097656 L 134.210938 6.445313 C 134.210938 3.421875 131.738281 0.949219 128.726563 0.949219 L 6.492188 0.949219 C 3.472656 0.949219 1 3.421875 1 6.445313 Z M 1 189.097656 "/>
<path style="fill:none;stroke-width:1.999;stroke-linecap:butt;stroke-linejoin:miter;stroke:rgb(0%,0%,0%);stroke-opacity:1;stroke-miterlimit:10;" d="M 1 6.541344 C 1 3.517906 3.472656 1.049156 6.492188 1.049156 L 128.726563 1.049156 C 131.738281 1.049156 134.210938 3.517906 134.210938 6.541344 L 134.210938 189.193687 C 134.210938 192.217125 131.738281 194.689781 128.726563 194.689781 L 6.492188 194.689781 C 3.472656 194.689781 1 192.217125 1 189.193687 Z M 1 6.541344 " transform="matrix(1,0,0,-1,0,195.639)"/>
<path style=" stroke:none;fill-rule:nonzero;fill:rgb(0%,0%,0%);fill-opacity:1;" d="M 13.222656 15.746094 C 14.347656 16.089844 15.199219 16.867188 15.78125 18.074219 C 16.371094 19.28125 16.664063 20.859375 16.664063 22.8125 C 16.664063 25.253906 16.171875 27.121094 15.183594 28.425781 C 14.203125 29.726563 12.789063 30.378906 10.9375 30.378906 C 9.085938 30.378906 7.667969 29.726563 6.683594 28.425781 C 5.695313 27.121094 5.203125 25.253906 5.203125 22.8125 C 5.203125 20.859375 5.496094 19.28125 6.085938 18.074219 C 6.671875 16.867188 7.527344 16.089844 8.644531 15.746094 C 7.652344 15.320313 6.910156 14.613281 6.417969 13.617188 C 5.925781 12.609375 5.679688 11.339844 5.679688 9.800781 C 5.679688 7.550781 6.125 5.835938 7.023438 4.652344 C 7.921875 3.46875 9.226563 2.875 10.9375 2.875 C 12.644531 2.875 13.945313 3.46875 14.84375 4.652344 C 15.746094 5.835938 16.199219 7.550781 16.199219 9.800781 C 16.199219 11.339844 15.949219 12.609375 15.449219 13.617188 C 14.957031 14.613281 14.214844 15.320313 13.222656 15.746094 M 12.53125 9.871094 C 12.53125 8 12.410156 6.71875 12.171875 6.019531 C 11.929688 5.308594 11.519531 4.953125 10.9375 4.953125 C 10.351563 4.953125 9.9375 5.308594 9.695313 6.019531 C 9.464844 6.71875 9.347656 8 9.347656 9.871094 C 9.347656 11.730469 9.464844 13.007813 9.695313 13.707031 C 9.9375 14.394531 10.351563 14.734375 10.9375 14.734375 C 11.527344 14.734375 11.9375 14.394531 12.171875 13.707031 C 12.410156 13.007813 12.53125 11.730469 12.53125 9.871094 M 12.902344 22.511719 C 12.902344 20.347656 12.753906 18.855469 12.453125 18.039063 C 12.164063 17.222656 11.660156 16.8125 10.9375 16.8125 C 10.210938 16.8125 9.703125 17.222656 9.410156 18.039063 C 9.121094 18.855469 8.976563 20.347656 8.976563 22.511719 C 8.976563 24.703125 9.121094 26.21875 9.410156 27.058594 C 9.710938 27.886719 10.21875 28.300781 10.9375 28.300781 C 11.652344 28.300781 12.15625 27.886719 12.453125 27.058594 C 12.753906 26.21875 12.902344 24.703125 12.902344 22.511719 "/>
<path style=" stroke:none;fill-rule:nonzero;fill:rgb(0%,0%,0%);fill-opacity:1;" d="M 122.792969 178.996094 C 121.667969 178.652344 120.8125 177.878906 120.230469 176.671875 C 119.644531 175.464844 119.351563 173.882813 119.351563 171.929688 C 119.351563 169.492188 119.84375 167.621094 120.828125 166.320313 C 121.808594 165.019531 123.226563 164.367188 125.074219 164.367188 C 126.929688 164.367188 128.347656 165.019531 129.332031 166.320313 C 130.316406 167.621094 130.8125 169.492188 130.8125 171.929688 C 130.8125 173.882813 130.515625 175.464844 129.929688 176.671875 C 129.34375 177.878906 128.488281 178.652344 127.371094 178.996094 C 128.363281 179.421875 129.105469 180.132813 129.597656 181.128906 C 130.089844 182.132813 130.335938 183.40625 130.335938 184.945313 C 130.335938 187.195313 129.886719 188.910156 128.992188 190.09375 C 128.09375 191.277344 126.789063 191.867188 125.074219 191.867188 C 123.371094 191.867188 122.066406 191.277344 121.171875 190.09375 C 120.265625 188.910156 119.816406 187.195313 119.816406 184.945313 C 119.816406 183.40625 120.066406 182.132813 120.5625 181.128906 C 121.058594 180.132813 121.800781 179.421875 122.792969 178.996094 M 123.484375 184.875 C 123.484375 186.742188 123.605469 188.027344 123.84375 188.726563 C 124.085938 189.4375 124.496094 189.792969 125.074219 189.792969 C 125.664063 189.792969 126.078125 189.4375 126.316406 188.726563 C 126.550781 188.027344 126.667969 186.742188 126.667969 184.875 C 126.667969 183.015625 126.550781 181.738281 126.316406 181.039063 C 126.078125 180.351563 125.664063 180.007813 125.074219 180.007813 C 124.488281 180.007813 124.078125 180.351563 123.84375 181.039063 C 123.605469 181.738281 123.484375 183.015625 123.484375 184.875 M 123.113281 172.234375 C 123.113281 174.398438 123.261719 175.890625 123.558594 176.707031 C 123.851563 177.523438 124.355469 177.933594 125.074219 177.933594 C 125.804688 177.933594 126.3125 177.523438 126.601563 176.707031 C 126.894531 175.890625 127.039063 174.398438 127.039063 172.234375 C 127.039063 170.042969 126.894531 168.527344 126.601563 167.6875 C 126.304688 166.859375 125.796875 166.445313 125.074219 166.445313 C 124.363281 166.445313 123.855469 166.859375 123.558594 167.6875 C 123.261719 168.527344 123.113281 170.042969 123.113281 172.234375 "/>
<path style=" stroke:none;fill-rule:nonzero;fill:rgb(0%,0%,0%);fill-opacity:1;" d="M 8.78125 47.402344 C 10.117188 47.402344 10.820313 45.976563 11.1875 44.554688 C 11.554688 43.128906 11.589844 41.707031 11.589844 41.707031 L 12.269531 41.699219 C 12.269531 41.699219 12.394531 47.402344 15.066406 47.402344 Z M 8.78125 47.402344 "/>
<path style=" stroke:none;fill-rule:nonzero;fill:rgb(0%,0%,0%);fill-opacity:1;" d="M 6.519531 41.699219 C 6.527344 38.925781 10.691406 36.90625 11.914063 34.71875 C 13.140625 36.914063 17.304688 38.933594 17.3125 41.699219 C 17.3125 43.011719 16.105469 44.074219 14.609375 44.074219 C 13.125 44.074219 11.914063 43.011719 11.914063 41.699219 C 11.914063 43.011719 10.710938 44.074219 9.214844 44.074219 C 7.71875 44.074219 6.519531 43.011719 6.519531 41.699219 Z M 6.519531 41.699219 "/>
<path style=" stroke:none;fill-rule:nonzero;fill:rgb(0%,0%,0%);fill-opacity:1;" d="M 127.234375 147.34375 C 125.898438 147.34375 125.195313 148.769531 124.824219 150.191406 C 124.457031 151.613281 124.425781 153.039063 124.425781 153.039063 L 123.746094 153.046875 C 123.746094 153.046875 123.617188 147.34375 120.949219 147.34375 Z M 127.234375 147.34375 "/>
<path style=" stroke:none;fill-rule:nonzero;fill:rgb(0%,0%,0%);fill-opacity:1;" d="M 129.496094 153.046875 C 129.488281 155.820313 125.320313 157.835938 124.097656 160.027344 C 122.875 157.828125 118.707031 155.8125 118.699219 153.046875 C 118.699219 151.734375 119.90625 150.671875 121.402344 150.671875 C 122.890625 150.671875 124.097656 151.734375 124.097656 153.046875 C 124.097656 151.734375 125.304688 150.671875 126.800781 150.671875 C 128.296875 150.671875 129.496094 151.734375 129.496094 153.046875 Z M 129.496094 153.046875 "/>
<path style=" stroke:none;fill-rule:nonzero;fill:rgb(0%,0%,0%);fill-opacity:1;" d="M 28.554688 45.566406 C 31.761719 45.566406 33.449219 42.152344 34.332031 38.734375 C 35.214844 35.320313 35.289063 31.902344 35.289063 31.902344 L 36.921875 31.882813 C 36.921875 31.882813 37.230469 45.566406 43.640625 45.566406 Z M 28.554688 45.566406 "/>
<path style=" stroke:none;fill-rule:nonzero;fill:rgb(0%,0%,0%);fill-opacity:1;" d="M 23.121094 31.882813 C 23.140625 25.222656 33.140625 20.386719 36.078125 15.128906 C 39.015625 20.40625 49.015625 25.242188 49.035156 31.882813 C 49.035156 35.03125 46.136719 37.585938 42.546875 37.585938 C 38.976563 37.585938 36.078125 35.03125 36.078125 31.882813 C 36.078125 35.03125 33.179688 37.585938 29.589844 37.585938 C 26.003906 37.585938 23.121094 35.03125 23.121094 31.882813 Z M 23.121094 31.882813 "/>
<path style=" stroke:none;fill-rule:nonzero;fill:rgb(0%,0%,0%);fill-opacity:1;" d="M 28.554688 88.878906 C 31.761719 88.878906 33.449219 85.460938 34.332031 82.042969 C 35.214844 78.628906 35.289063 75.210938 35.289063 75.210938 L 36.921875 75.191406 C 36.921875 75.191406 37.230469 88.878906 43.640625 88.878906 Z M 28.554688 88.878906 "/>
<path style=" stroke:none;fill-rule:nonzero;fill:rgb(0%,0%,0%);fill-opacity:1;" d="M 23.121094 75.191406 C 23.140625 68.53125 33.140625 63.695313 36.078125 58.4375 C 39.015625 63.714844 49.015625 68.550781 49.035156 75.191406 C 49.035156 78.339844 46.136719 80.890625 42.546875 80.890625 C 38.976563 80.890625 36.078125 78.339844 36.078125 75.191406 C 36.078125 78.339844 33.179688 80.890625 29.589844 80.890625 C 26.003906 80.890625 23.121094 78.339844 23.121094 75.191406 Z M 23.121094 75.191406 "/>
<path style=" stroke:none;fill-rule:nonzero;fill:rgb(0%,0%,0%);fill-opacity:1;" d="M 43.601563 102.550781 C 40.398438 102.550781 38.707031 105.964844 37.824219 109.382813 C 36.941406 112.800781 36.863281 116.214844 36.863281 116.214844 L 35.234375 116.234375 C 35.234375 116.234375 34.925781 102.550781 28.515625 102.550781 Z M 43.601563 102.550781 "/>
<path style=" stroke:none;fill-rule:nonzero;fill:rgb(0%,0%,0%);fill-opacity:1;" d="M 49.035156 116.234375 C 49.015625 122.894531 39.015625 127.730469 36.078125 132.988281 C 33.140625 127.710938 23.140625 122.875 23.121094 116.234375 C 23.121094 113.085938 26.019531 110.535156 29.609375 110.535156 C 33.179688 110.535156 36.078125 113.085938 36.078125 116.234375 C 36.078125 113.085938 38.976563 110.535156 42.566406 110.535156 C 46.15625 110.535156 49.035156 113.085938 49.035156 116.234375 Z M 49.035156 116.234375 "/>
<path style=" stroke:none;fill-rule:nonzero;fill:rgb(0%,0%,0%);fill-opacity:1;" d="M 43.601563 145.859375 C 40.398438 145.859375 38.707031 149.273438 37.824219 152.691406 C 36.941406 156.105469 36.863281 159.523438 36.863281 159.523438 L 35.234375 159.542969 C 35.234375 159.542969 34.925781 145.859375 28.515625 145.859375 Z M 43.601563 145.859375 "/>
<path style=" stroke:none;fill-rule:nonzero;fill:rgb(0%,0%,0%);fill-opacity:1;" d="M 49.035156 159.542969 C 49.015625 166.203125 39.015625 171.039063 36.078125 176.296875 C 33.140625 171.019531 23.140625 166.183594 23.121094 159.542969 C 23.121094 156.394531 26.019531 153.84375 29.609375 153.84375 C 33.179688 153.84375 36.078125 156.394531 36.078125 159.542969 C 36.078125 156.394531 38.976563 153.84375 42.566406 153.84375 C 46.15625 153.84375 49.035156 156.394531 49.035156 159.542969 Z M 49.035156 159.542969 "/>
<path style=" stroke:none;fill-rule:nonzero;fill:rgb(0%,0%,0%);fill-opacity:1;" d="M 92.417969 45.566406 C 95.621094 45.566406 97.3125 42.152344 98.195313 38.734375 C 99.078125 35.320313 99.152344 31.902344 99.152344 31.902344 L 100.785156 31.882813 C 100.785156 31.882813 101.09375 45.566406 107.503906 45.566406 Z M 92.417969 45.566406 "/>
<path style=" stroke:none;fill-rule:nonzero;fill:rgb(0%,0%,0%);fill-opacity:1;" d="M 86.984375 31.882813 C 87.003906 25.222656 97.003906 20.386719 99.941406 15.128906 C 102.878906 20.40625 112.875 25.242188 112.894531 31.882813 C 112.894531 35.03125 109.996094 37.585938 106.40625 37.585938 C 102.839844 37.585938 99.941406 35.03125 99.941406 31.882813 C 99.941406 35.03125 97.042969 37.585938 93.453125 37.585938 C 89.863281 37.585938 86.984375 35.03125 86.984375 31.882813 Z M 86.984375 31.882813 "/>
<path style=" stroke:none;fill-rule:nonzero;fill:rgb(0%,0%,0%);fill-opacity:1;" d="M 92.417969 88.878906 C 95.621094 88.878906 97.3125 85.460938 98.195313 82.042969 C 99.078125 78.628906 99.152344 75.210938 99.152344 75.210938 L 100.785156 75.191406 C 100.785156 75.191406 101.09375 88.878906 107.503906 88.878906 Z M 92.417969 88.878906 "/>
<path style=" stroke:none;fill-rule:nonzero;fill:rgb(0%,0%,0%);fill-opacity:1;" d="M 86.984375 75.191406 C 87.003906 68.53125 97.003906 63.695313 99.941406 58.4375 C 102.878906 63.714844 112.875 68.550781 112.894531 75.191406 C 112.894531 78.339844 109.996094 80.890625 106.40625 80.890625 C 102.839844 80.890625 99.941406 78.339844 99.941406 75.191406 C 99.941406 78.339844 97.042969 80.890625 93.453125 80.890625 C 89.863281 80.890625 86.984375 78.339844 86.984375 75.191406 Z M 86.984375 75.191406 "/>
<path style=" stroke:none;fill-rule:nonzero;fill:rgb(0%,0%,0%);fill-opacity:1;" d="M 107.464844 102.550781 C 104.257813 102.550781 102.570313 105.964844 101.6875 109.382813 C 100.804688 112.800781 100.726563 116.214844 100.726563 116.214844 L 99.097656 116.234375 C 99.097656 116.234375 98.789063 102.550781 92.378906 102.550781 Z M 107.464844 102.550781 "/>
<path style=" stroke:none;fill-rule:nonzero;fill:rgb(0%,0%,0%);fill-opacity:1;" d="M 112.894531 116.234375 C 112.878906 122.894531 102.878906 127.730469 99.941406 132.988281 C 97.003906 127.710938 87.003906 122.875 86.984375 116.234375 C 86.984375 113.085938 89.882813 110.535156 93.472656 110.535156 C 97.042969 110.535156 99.941406 113.085938 99.941406 116.234375 C 99.941406 113.085938 102.839844 110.535156 106.429688 110.535156 C 110.015625 110.535156 112.894531 113.085938 112.894531 116.234375 Z M 112.894531 116.234375 "/>
<path style=" stroke:none;fill-rule:nonzero;fill:rgb(0%,0%,0%);fill-opacity:1;" d="M 107.464844 145.859375 C 104.257813 145.859375 102.570313 149.273438 101.6875 152.691406 C 100.804688 156.105469 100.726563 159.523438 100.726563 159.523438 L 99.097656 159.542969 C 99.097656 159.542969 98.789063 145.859375 92.378906 145.859375 Z M 107.464844 145.859375 "/>
<path style=" stroke:none;fill-rule:nonzero;fill:rgb(0%,0%,0%);fill-opacity:1;" d="M 112.894531 159.542969 C 112.878906 166.203125 102.878906 171.039063 99.941406 176.296875 C 97.003906 171.019531 87.003906 166.183594 86.984375 159.542969 C 86.984375 156.394531 89.882813 153.84375 93.472656 153.84375 C 97.042969 153.84375 99.941406 156.394531 99.941406 159.542969 C 99.941406 156.394531 102.839844 153.84375 106.429688 153.84375 C 110.015625 153.84375 112.894531 156.394531 112.894531 159.542969 Z M 112.894531 159.542969 "/>
</g>
</svg>
