<?xml version="1.0" encoding="UTF-8"?>
<svg xmlns="http://www.w3.org/2000/svg" xmlns:xlink="http://www.w3.org/1999/xlink" width="135.21pt" height="195.639pt" viewBox="0 0 135.21 195.639" version="1.1">
<g id="surface1">
<path style=" stroke:none;fill-rule:nonzero;fill:rgb(100%,100%,100%);fill-opacity:1;" d="M 1 189.097656 C 1 192.121094 3.472656 194.59375 6.492188 194.59375 L 128.726563 194.59375 C 131.738281 194.59375 134.210938 192.121094 134.210938 189.097656 L 134.210938 6.445313 C 134.210938 3.421875 131.738281 0.953125 128.726563 0.953125 L 6.492188 0.953125 C 3.472656 0.953125 1 3.421875 1 6.445313 Z M 1 189.097656 "/>
<path style="fill:none;stroke-width:1.999;stroke-linecap:butt;stroke-linejoin:miter;stroke:rgb(0%,0%,0%);stroke-opacity:1;stroke-miterlimit:10;" d="M 1 6.541344 C 1 3.517906 3.472656 1.04525 6.492188 1.04525 L 128.726563 1.04525 C 131.738281 1.04525 134.210938 3.517906 134.210938 6.541344 L 134.210938 189.193687 C 134.210938 192.217125 131.738281 194.685875 128.726563 194.685875 L 6.492188 194.685875 C 3.472656 194.685875 1 192.217125 1 189.193687 Z M 1 6.541344 " transform="matrix(1,0,0,-1,0,195.639)"/>
<path style=" stroke:none;fill-rule:nonzero;fill:rgb(0%,0%,0%);fill-opacity:1;" d="M 13.222656 15.746094 C 14.347656 16.09375 15.199219 16.867188 15.78125 18.074219 C 16.371094 19.28125 16.664063 20.863281 16.664063 22.816406 C 16.664063 25.253906 16.171875 27.121094 15.183594 28.425781 C 14.203125 29.726563 12.789063 30.378906 10.9375 30.378906 C 9.085938 30.378906 7.667969 29.726563 6.683594 28.425781 C 5.695313 27.121094 5.203125 25.253906 5.203125 22.816406 C 5.203125 20.863281 5.496094 19.28125 6.085938 18.074219 C 6.671875 16.867188 7.527344 16.09375 8.644531 15.746094 C 7.652344 15.320313 6.910156 14.613281 6.417969 13.617188 C 5.925781 12.613281 5.679688 11.339844 5.679688 9.800781 C 5.679688 7.550781 6.125 5.835938 7.023438 4.652344 C 7.921875 3.46875 9.226563 2.875 10.9375 2.875 C 12.644531 2.875 13.945313 3.46875 14.84375 4.652344 C 15.746094 5.835938 16.199219 7.550781 16.199219 9.800781 C 16.199219 11.339844 15.949219 12.613281 15.449219 13.617188 C 14.957031 14.613281 14.214844 15.320313 13.222656 15.746094 M 12.53125 9.871094 C 12.53125 8 12.410156 6.71875 12.171875 6.019531 C 11.929688 5.308594 11.519531 4.953125 10.9375 4.953125 C 10.351563 4.953125 9.9375 5.308594 9.695313 6.019531 C 9.464844 6.71875 9.347656 8 9.347656 9.871094 C 9.347656 11.730469 9.464844 13.007813 9.695313 13.707031 C 9.9375 14.394531 10.351563 14.734375 10.9375 14.734375 C 11.527344 14.734375 11.9375 14.394531 12.171875 13.707031 C 12.410156 13.007813 12.53125 11.730469 12.53125 9.871094 M 12.902344 22.511719 C 12.902344 20.347656 12.753906 18.855469 12.453125 18.039063 C 12.164063 17.222656 11.660156 16.8125 10.9375 16.8125 C 10.210938 16.8125 9.703125 17.222656 9.410156 18.039063 C 9.121094 18.855469 8.976563 20.347656 8.976563 22.511719 C 8.976563 24.703125 9.121094 26.21875 9.410156 27.058594 C 9.710938 27.886719 10.21875 28.300781 10.9375 28.300781 C 11.652344 28.300781 12.15625 27.886719 12.453125 27.058594 C 12.753906 26.21875 12.902344 24.703125 12.902344 22.511719 "/>
<path style=" stroke:none;fill-rule:nonzero;fill:rgb(0%,0%,0%);fill-opacity:1;" d="M 122.792969 178.996094 C 121.667969 178.652344 120.8125 177.878906 120.230469 176.671875 C 119.644531 175.464844 119.351563 173.882813 119.351563 171.929688 C 119.351563 169.492188 119.84375 167.621094 120.828125 166.320313 C 121.808594 165.019531 123.226563 164.367188 125.074219 164.367188 C 126.929688 164.367188 128.347656 165.019531 129.332031 166.320313 C 130.316406 167.621094 130.8125 169.492188 130.8125 171.929688 C 130.8125 173.882813 130.515625 175.464844 129.929688 176.671875 C 129.34375 177.878906 128.488281 178.652344 127.371094 178.996094 C 128.363281 179.425781 129.105469 180.132813 129.597656 181.128906 C 130.089844 182.132813 130.335938 183.40625 130.335938 184.945313 C 130.335938 187.195313 129.886719 188.910156 128.992188 190.09375 C 128.09375 191.277344 126.789063 191.871094 125.074219 191.871094 C 123.371094 191.871094 122.066406 191.277344 121.171875 190.09375 C 120.265625 188.910156 119.816406 187.195313 119.816406 184.945313 C 119.816406 183.40625 120.066406 182.132813 120.5625 181.128906 C 121.058594 180.132813 121.800781 179.425781 122.792969 178.996094 M 123.484375 184.875 C 123.484375 186.742188 123.605469 188.027344 123.84375 188.726563 C 124.085938 189.4375 124.496094 189.792969 125.074219 189.792969 C 125.664063 189.792969 126.078125 189.4375 126.316406 188.726563 C 126.550781 188.027344 126.667969 186.742188 126.667969 184.875 C 126.667969 183.015625 126.550781 181.738281 126.316406 181.039063 C 126.078125 180.351563 125.664063 180.011719 125.074219 180.011719 C 124.488281 180.011719 124.078125 180.351563 123.84375 181.039063 C 123.605469 181.738281 123.484375 183.015625 123.484375 184.875 M 123.113281 172.234375 C 123.113281 174.398438 123.261719 175.890625 123.558594 176.707031 C 123.851563 177.523438 124.355469 177.933594 125.074219 177.933594 C 125.804688 177.933594 126.3125 177.523438 126.601563 176.707031 C 126.894531 175.890625 127.039063 174.398438 127.039063 172.234375 C 127.039063 170.042969 126.894531 168.527344 126.601563 167.6875 C 126.304688 166.859375 125.796875 166.445313 125.074219 166.445313 C 124.363281 166.445313 123.855469 166.859375 123.558594 167.6875 C 123.261719 168.527344 123.113281 170.042969 123.113281 172.234375 "/>
<path style=" stroke:none;fill-rule:nonzero;fill:rgb(0%,0%,0%);fill-opacity:1;" d="M 9.238281 37.332031 C 9.238281 38.78125 10.445313 39.953125 11.941406 39.953125 C 13.4375 39.953125 14.644531 38.78125 14.644531 37.332031 C 14.644531 35.886719 13.4375 34.710938 11.941406 34.710938 C 10.445313 34.710938 9.238281 35.886719 9.238281 37.332031 Z M 9.238281 37.332031 "/>
<path style=" stroke:none;fill-rule:nonzero;fill:rgb(0%,0%,0%);fill-opacity:1;" d="M 5.75 42.300781 C 5.75 43.746094 6.957031 44.921875 8.453125 44.921875 C 9.949219 44.921875 11.15625 43.746094 11.15625 42.300781 C 11.15625 40.851563 9.949219 39.675781 8.453125 39.675781 C 6.957031 39.675781 5.75 40.851563 5.75 42.300781 Z M 5.75 42.300781 "/>
<path style=" stroke:none;fill-rule:nonzero;fill:rgb(0%,0%,0%);fill-opacity:1;" d="M 12.675781 42.316406 C 12.675781 42.84375 12.835938 43.339844 13.117188 43.753906 C 13.597656 44.464844 14.433594 44.9375 15.378906 44.9375 C 16.875 44.9375 18.082031 43.761719 18.082031 42.316406 C 18.082031 40.867188 16.875 39.691406 15.378906 39.691406 C 13.882813 39.691406 12.675781 40.867188 12.675781 42.316406 Z M 12.675781 42.316406 "/>
<path style=" stroke:none;fill-rule:nonzero;fill:rgb(0%,0%,0%);fill-opacity:1;" d="M 8.765625 47.410156 C 10.101563 47.410156 10.804688 46.320313 11.171875 45.234375 C 11.539063 44.144531 11.570313 43.058594 11.570313 43.058594 L 12.261719 43.058594 C 12.261719 43.058594 12.386719 47.402344 15.058594 47.410156 Z M 8.765625 47.410156 "/>
<path style=" stroke:none;fill-rule:nonzero;fill:rgb(0%,0%,0%);fill-opacity:1;" d="M 13.769531 39.261719 C 12.253906 40.777344 12.253906 43.058594 12.253906 43.058594 L 11.570313 43.066406 C 11.570313 43.066406 11.570313 40.738281 10.09375 39.261719 "/>
<path style=" stroke:none;fill-rule:nonzero;fill:rgb(0%,0%,0%);fill-opacity:1;" d="M 13.46875 44.136719 C 11.949219 42.617188 9.667969 42.617188 9.667969 42.617188 L 9.667969 41.9375 C 9.667969 41.9375 11.996094 41.9375 13.476563 40.460938 "/>
<path style=" stroke:none;fill-rule:nonzero;fill:rgb(0%,0%,0%);fill-opacity:1;" d="M 10.421875 44.144531 C 11.941406 42.628906 14.21875 42.628906 14.21875 42.628906 L 14.21875 41.945313 C 14.21875 41.945313 11.890625 41.945313 10.414063 40.46875 "/>
<path style=" stroke:none;fill-rule:nonzero;fill:rgb(0%,0%,0%);fill-opacity:1;" d="M 126.777344 157.414063 C 126.777344 155.964844 125.570313 154.789063 124.074219 154.789063 C 122.578125 154.789063 121.371094 155.964844 121.371094 157.414063 C 121.371094 158.859375 122.578125 160.035156 124.074219 160.035156 C 125.570313 160.035156 126.777344 158.859375 126.777344 157.414063 Z M 126.777344 157.414063 "/>
<path style=" stroke:none;fill-rule:nonzero;fill:rgb(0%,0%,0%);fill-opacity:1;" d="M 130.265625 152.445313 C 130.265625 151 129.058594 149.824219 127.5625 149.824219 C 126.066406 149.824219 124.859375 151 124.859375 152.445313 C 124.859375 153.894531 126.066406 155.070313 127.5625 155.070313 C 129.058594 155.070313 130.265625 153.894531 130.265625 152.445313 Z M 130.265625 152.445313 "/>
<path style=" stroke:none;fill-rule:nonzero;fill:rgb(0%,0%,0%);fill-opacity:1;" d="M 123.339844 152.429688 C 123.339844 151.902344 123.179688 151.40625 122.898438 150.992188 C 122.417969 150.28125 121.578125 149.808594 120.636719 149.808594 C 119.140625 149.808594 117.933594 150.984375 117.933594 152.429688 C 117.933594 153.878906 119.140625 155.054688 120.636719 155.054688 C 122.132813 155.054688 123.339844 153.878906 123.339844 152.429688 Z M 123.339844 152.429688 "/>
<path style=" stroke:none;fill-rule:nonzero;fill:rgb(0%,0%,0%);fill-opacity:1;" d="M 127.25 147.335938 C 125.914063 147.335938 125.210938 148.425781 124.84375 149.511719 C 124.472656 150.601563 124.441406 151.6875 124.441406 151.6875 L 123.753906 151.6875 C 123.753906 151.6875 123.628906 147.34375 120.957031 147.335938 Z M 127.25 147.335938 "/>
<path style=" stroke:none;fill-rule:nonzero;fill:rgb(0%,0%,0%);fill-opacity:1;" d="M 122.242188 155.484375 C 123.761719 153.96875 123.761719 151.6875 123.761719 151.6875 L 124.441406 151.679688 C 124.441406 151.679688 124.441406 154.007813 125.921875 155.484375 "/>
<path style=" stroke:none;fill-rule:nonzero;fill:rgb(0%,0%,0%);fill-opacity:1;" d="M 122.546875 150.609375 C 124.066406 152.128906 126.347656 152.128906 126.347656 152.128906 L 126.347656 152.808594 C 126.347656 152.808594 124.019531 152.808594 122.539063 154.285156 "/>
<path style=" stroke:none;fill-rule:nonzero;fill:rgb(0%,0%,0%);fill-opacity:1;" d="M 125.59375 150.601563 C 124.074219 152.117188 121.796875 152.117188 121.796875 152.117188 L 121.796875 152.800781 C 121.796875 152.800781 124.121094 152.800781 125.601563 154.277344 "/>
<path style=" stroke:none;fill-rule:nonzero;fill:rgb(0%,0%,0%);fill-opacity:1;" d="M 29.648438 21.40625 C 29.648438 24.878906 32.546875 27.699219 36.136719 27.699219 C 39.726563 27.699219 42.621094 24.878906 42.621094 21.40625 C 42.621094 17.929688 39.726563 15.109375 36.136719 15.109375 C 32.546875 15.109375 29.648438 17.929688 29.648438 21.40625 Z M 29.648438 21.40625 "/>
<path style=" stroke:none;fill-rule:nonzero;fill:rgb(0%,0%,0%);fill-opacity:1;" d="M 21.28125 33.324219 C 21.28125 36.796875 24.179688 39.617188 27.769531 39.617188 C 31.355469 39.617188 34.253906 36.796875 34.253906 33.324219 C 34.253906 29.851563 31.355469 27.027344 27.769531 27.027344 C 24.179688 27.027344 21.28125 29.851563 21.28125 33.324219 Z M 21.28125 33.324219 "/>
<path style=" stroke:none;fill-rule:nonzero;fill:rgb(0%,0%,0%);fill-opacity:1;" d="M 37.902344 33.363281 C 37.902344 34.628906 38.285156 35.820313 38.957031 36.816406 C 40.109375 38.523438 42.125 39.65625 44.390625 39.65625 C 47.976563 39.65625 50.875 36.835938 50.875 33.363281 C 50.875 29.886719 47.976563 27.066406 44.390625 27.066406 C 40.800781 27.066406 37.902344 29.886719 37.902344 33.363281 Z M 37.902344 33.363281 "/>
<path style=" stroke:none;fill-rule:nonzero;fill:rgb(0%,0%,0%);fill-opacity:1;" d="M 28.515625 45.589844 C 31.722656 45.589844 33.410156 42.976563 34.292969 40.367188 C 35.175781 37.757813 35.253906 35.148438 35.253906 35.148438 L 36.902344 35.148438 C 36.902344 35.148438 37.210938 45.570313 43.621094 45.589844 Z M 28.515625 45.589844 "/>
<path style=" stroke:none;fill-rule:nonzero;fill:rgb(0%,0%,0%);fill-opacity:1;" d="M 40.53125 26.03125 C 36.882813 29.675781 36.882813 35.148438 36.882813 35.148438 L 35.253906 35.164063 C 35.253906 35.164063 35.253906 29.582031 31.703125 26.03125 "/>
<path style=" stroke:none;fill-rule:nonzero;fill:rgb(0%,0%,0%);fill-opacity:1;" d="M 39.800781 37.738281 C 36.15625 34.089844 30.683594 34.089844 30.683594 34.089844 L 30.683594 32.460938 C 30.683594 32.460938 36.269531 32.460938 39.820313 28.910156 "/>
<path style=" stroke:none;fill-rule:nonzero;fill:rgb(0%,0%,0%);fill-opacity:1;" d="M 32.488281 37.757813 C 36.136719 34.109375 41.605469 34.109375 41.605469 34.109375 L 41.605469 32.480469 C 41.605469 32.480469 36.019531 32.480469 32.46875 28.929688 "/>
<path style=" stroke:none;fill-rule:nonzero;fill:rgb(0%,0%,0%);fill-opacity:1;" d="M 29.648438 64.714844 C 29.648438 68.1875 32.546875 71.007813 36.136719 71.007813 C 39.726563 71.007813 42.621094 68.1875 42.621094 64.714844 C 42.621094 61.238281 39.726563 58.417969 36.136719 58.417969 C 32.546875 58.417969 29.648438 61.238281 29.648438 64.714844 Z M 29.648438 64.714844 "/>
<path style=" stroke:none;fill-rule:nonzero;fill:rgb(0%,0%,0%);fill-opacity:1;" d="M 21.28125 76.632813 C 21.28125 80.105469 24.179688 82.929688 27.769531 82.929688 C 31.355469 82.929688 34.253906 80.105469 34.253906 76.632813 C 34.253906 73.160156 31.355469 70.335938 27.769531 70.335938 C 24.179688 70.335938 21.28125 73.160156 21.28125 76.632813 Z M 21.28125 76.632813 "/>
<path style=" stroke:none;fill-rule:nonzero;fill:rgb(0%,0%,0%);fill-opacity:1;" d="M 37.902344 76.671875 C 37.902344 77.9375 38.285156 79.128906 38.957031 80.125 C 40.109375 81.835938 42.125 82.964844 44.390625 82.964844 C 47.976563 82.964844 50.875 80.144531 50.875 76.671875 C 50.875 73.195313 47.976563 70.375 44.390625 70.375 C 40.800781 70.375 37.902344 73.195313 37.902344 76.671875 Z M 37.902344 76.671875 "/>
<path style=" stroke:none;fill-rule:nonzero;fill:rgb(0%,0%,0%);fill-opacity:1;" d="M 28.515625 88.898438 C 31.722656 88.898438 33.410156 86.285156 34.292969 83.675781 C 35.175781 81.066406 35.253906 78.457031 35.253906 78.457031 L 36.902344 78.457031 C 36.902344 78.457031 37.210938 88.878906 43.621094 88.898438 Z M 28.515625 88.898438 "/>
<path style=" stroke:none;fill-rule:nonzero;fill:rgb(0%,0%,0%);fill-opacity:1;" d="M 40.53125 69.339844 C 36.882813 72.984375 36.882813 78.457031 36.882813 78.457031 L 35.253906 78.476563 C 35.253906 78.476563 35.253906 72.890625 31.703125 69.339844 "/>
<path style=" stroke:none;fill-rule:nonzero;fill:rgb(0%,0%,0%);fill-opacity:1;" d="M 39.800781 81.046875 C 36.15625 77.398438 30.683594 77.398438 30.683594 77.398438 L 30.683594 75.769531 C 30.683594 75.769531 36.269531 75.769531 39.820313 72.21875 "/>
<path style=" stroke:none;fill-rule:nonzero;fill:rgb(0%,0%,0%);fill-opacity:1;" d="M 32.488281 81.066406 C 36.136719 77.417969 41.605469 77.417969 41.605469 77.417969 L 41.605469 75.789063 C 41.605469 75.789063 36.019531 75.789063 32.46875 72.238281 "/>
<path style=" stroke:none;fill-rule:nonzero;fill:rgb(0%,0%,0%);fill-opacity:1;" d="M 42.507813 126.714844 C 42.507813 123.238281 39.609375 120.417969 36.019531 120.417969 C 32.433594 120.417969 29.535156 123.238281 29.535156 126.714844 C 29.535156 130.1875 32.433594 133.007813 36.019531 133.007813 C 39.609375 133.007813 42.507813 130.1875 42.507813 126.714844 Z M 42.507813 126.714844 "/>
<path style=" stroke:none;fill-rule:nonzero;fill:rgb(0%,0%,0%);fill-opacity:1;" d="M 50.875 114.792969 C 50.875 111.320313 47.976563 108.5 44.390625 108.5 C 40.800781 108.5 37.902344 111.320313 37.902344 114.792969 C 37.902344 118.269531 40.800781 121.089844 44.390625 121.089844 C 47.976563 121.089844 50.875 118.269531 50.875 114.792969 Z M 50.875 114.792969 "/>
<path style=" stroke:none;fill-rule:nonzero;fill:rgb(0%,0%,0%);fill-opacity:1;" d="M 34.253906 114.757813 C 34.253906 113.488281 33.871094 112.300781 33.199219 111.300781 C 32.046875 109.59375 30.03125 108.460938 27.769531 108.460938 C 24.179688 108.460938 21.28125 111.28125 21.28125 114.757813 C 21.28125 118.230469 24.179688 121.050781 27.769531 121.050781 C 31.355469 121.050781 34.253906 118.230469 34.253906 114.757813 Z M 34.253906 114.757813 "/>
<path style=" stroke:none;fill-rule:nonzero;fill:rgb(0%,0%,0%);fill-opacity:1;" d="M 43.640625 102.53125 C 40.433594 102.53125 38.746094 105.140625 37.863281 107.75 C 36.980469 110.359375 36.902344 112.972656 36.902344 112.972656 L 35.253906 112.972656 C 35.253906 112.972656 34.945313 102.550781 28.535156 102.53125 Z M 43.640625 102.53125 "/>
<path style=" stroke:none;fill-rule:nonzero;fill:rgb(0%,0%,0%);fill-opacity:1;" d="M 31.625 122.085938 C 35.273438 118.441406 35.273438 112.972656 35.273438 112.972656 L 36.902344 112.953125 C 36.902344 112.953125 36.902344 118.535156 40.453125 122.085938 "/>
<path style=" stroke:none;fill-rule:nonzero;fill:rgb(0%,0%,0%);fill-opacity:1;" d="M 32.355469 110.378906 C 36.003906 114.027344 41.472656 114.027344 41.472656 114.027344 L 41.472656 115.65625 C 41.472656 115.65625 35.886719 115.65625 32.335938 119.210938 "/>
<path style=" stroke:none;fill-rule:nonzero;fill:rgb(0%,0%,0%);fill-opacity:1;" d="M 39.667969 110.359375 C 36.019531 114.007813 30.550781 114.007813 30.550781 114.007813 L 30.550781 115.640625 C 30.550781 115.640625 36.136719 115.640625 39.6875 119.1875 "/>
<path style=" stroke:none;fill-rule:nonzero;fill:rgb(0%,0%,0%);fill-opacity:1;" d="M 42.507813 170.023438 C 42.507813 166.546875 39.609375 163.726563 36.019531 163.726563 C 32.433594 163.726563 29.535156 166.546875 29.535156 170.023438 C 29.535156 173.496094 32.433594 176.316406 36.019531 176.316406 C 39.609375 176.316406 42.507813 173.496094 42.507813 170.023438 Z M 42.507813 170.023438 "/>
<path style=" stroke:none;fill-rule:nonzero;fill:rgb(0%,0%,0%);fill-opacity:1;" d="M 50.875 158.101563 C 50.875 154.628906 47.976563 151.808594 44.390625 151.808594 C 40.800781 151.808594 37.902344 154.628906 37.902344 158.101563 C 37.902344 161.578125 40.800781 164.398438 44.390625 164.398438 C 47.976563 164.398438 50.875 161.578125 50.875 158.101563 Z M 50.875 158.101563 "/>
<path style=" stroke:none;fill-rule:nonzero;fill:rgb(0%,0%,0%);fill-opacity:1;" d="M 34.253906 158.066406 C 34.253906 156.796875 33.871094 155.609375 33.199219 154.609375 C 32.046875 152.902344 30.03125 151.769531 27.769531 151.769531 C 24.179688 151.769531 21.28125 154.589844 21.28125 158.066406 C 21.28125 161.539063 24.179688 164.359375 27.769531 164.359375 C 31.355469 164.359375 34.253906 161.539063 34.253906 158.066406 Z M 34.253906 158.066406 "/>
<path style=" stroke:none;fill-rule:nonzero;fill:rgb(0%,0%,0%);fill-opacity:1;" d="M 43.640625 145.839844 C 40.433594 145.839844 38.746094 148.449219 37.863281 151.058594 C 36.980469 153.671875 36.902344 156.28125 36.902344 156.28125 L 35.253906 156.28125 C 35.253906 156.28125 34.945313 145.859375 28.535156 145.839844 Z M 43.640625 145.839844 "/>
<path style=" stroke:none;fill-rule:nonzero;fill:rgb(0%,0%,0%);fill-opacity:1;" d="M 31.625 165.394531 C 35.273438 161.75 35.273438 156.28125 35.273438 156.28125 L 36.902344 156.261719 C 36.902344 156.261719 36.902344 161.847656 40.453125 165.394531 "/>
<path style=" stroke:none;fill-rule:nonzero;fill:rgb(0%,0%,0%);fill-opacity:1;" d="M 32.355469 153.6875 C 36.003906 157.335938 41.472656 157.335938 41.472656 157.335938 L 41.472656 158.96875 C 41.472656 158.96875 35.886719 158.96875 32.335938 162.515625 "/>
<path style=" stroke:none;fill-rule:nonzero;fill:rgb(0%,0%,0%);fill-opacity:1;" d="M 39.667969 153.671875 C 36.019531 157.316406 30.550781 157.316406 30.550781 157.316406 L 30.550781 158.949219 C 30.550781 158.949219 36.136719 158.949219 39.6875 162.496094 "/>
<path style=" stroke:none;fill-rule:nonzero;fill:rgb(0%,0%,0%);fill-opacity:1;" d="M 93.511719 21.40625 C 93.511719 24.878906 96.410156 27.699219 99.996094 27.699219 C 103.585938 27.699219 106.484375 24.878906 106.484375 21.40625 C 106.484375 17.929688 103.585938 15.109375 99.996094 15.109375 C 96.410156 15.109375 93.511719 17.929688 93.511719 21.40625 Z M 93.511719 21.40625 "/>
<path style=" stroke:none;fill-rule:nonzero;fill:rgb(0%,0%,0%);fill-opacity:1;" d="M 85.144531 33.324219 C 85.144531 36.796875 88.039063 39.617188 91.628906 39.617188 C 95.21875 39.617188 98.117188 36.796875 98.117188 33.324219 C 98.117188 29.851563 95.21875 27.027344 91.628906 27.027344 C 88.039063 27.027344 85.144531 29.851563 85.144531 33.324219 Z M 85.144531 33.324219 "/>
<path style=" stroke:none;fill-rule:nonzero;fill:rgb(0%,0%,0%);fill-opacity:1;" d="M 101.765625 33.363281 C 101.765625 34.628906 102.148438 35.820313 102.820313 36.816406 C 103.972656 38.523438 105.984375 39.65625 108.25 39.65625 C 111.839844 39.65625 114.738281 36.835938 114.738281 33.363281 C 114.738281 29.886719 111.839844 27.066406 108.25 27.066406 C 104.660156 27.066406 101.765625 29.886719 101.765625 33.363281 Z M 101.765625 33.363281 "/>
<path style=" stroke:none;fill-rule:nonzero;fill:rgb(0%,0%,0%);fill-opacity:1;" d="M 92.378906 45.589844 C 95.585938 45.589844 97.273438 42.976563 98.15625 40.367188 C 99.039063 37.757813 99.113281 35.148438 99.113281 35.148438 L 100.765625 35.148438 C 100.765625 35.148438 101.074219 45.570313 107.484375 45.589844 Z M 92.378906 45.589844 "/>
<path style=" stroke:none;fill-rule:nonzero;fill:rgb(0%,0%,0%);fill-opacity:1;" d="M 104.394531 26.03125 C 100.746094 29.675781 100.746094 35.148438 100.746094 35.148438 L 99.113281 35.164063 C 99.113281 35.164063 99.113281 29.582031 95.5625 26.03125 "/>
<path style=" stroke:none;fill-rule:nonzero;fill:rgb(0%,0%,0%);fill-opacity:1;" d="M 103.664063 37.738281 C 100.015625 34.089844 94.546875 34.089844 94.546875 34.089844 L 94.546875 32.460938 C 94.546875 32.460938 100.132813 32.460938 103.683594 28.910156 "/>
<path style=" stroke:none;fill-rule:nonzero;fill:rgb(0%,0%,0%);fill-opacity:1;" d="M 96.351563 37.757813 C 99.996094 34.109375 105.46875 34.109375 105.46875 34.109375 L 105.46875 32.480469 C 105.46875 32.480469 99.882813 32.480469 96.332031 28.929688 "/>
<path style=" stroke:none;fill-rule:nonzero;fill:rgb(0%,0%,0%);fill-opacity:1;" d="M 93.511719 64.714844 C 93.511719 68.1875 96.410156 71.007813 99.996094 71.007813 C 103.585938 71.007813 106.484375 68.1875 106.484375 64.714844 C 106.484375 61.238281 103.585938 58.417969 99.996094 58.417969 C 96.410156 58.417969 93.511719 61.238281 93.511719 64.714844 Z M 93.511719 64.714844 "/>
<path style=" stroke:none;fill-rule:nonzero;fill:rgb(0%,0%,0%);fill-opacity:1;" d="M 85.144531 76.632813 C 85.144531 80.105469 88.039063 82.929688 91.628906 82.929688 C 95.21875 82.929688 98.117188 80.105469 98.117188 76.632813 C 98.117188 73.160156 95.21875 70.335938 91.628906 70.335938 C 88.039063 70.335938 85.144531 73.160156 85.144531 76.632813 Z M 85.144531 76.632813 "/>
<path style=" stroke:none;fill-rule:nonzero;fill:rgb(0%,0%,0%);fill-opacity:1;" d="M 101.765625 76.671875 C 101.765625 77.9375 102.148438 79.128906 102.820313 80.125 C 103.972656 81.835938 105.984375 82.964844 108.25 82.964844 C 111.839844 82.964844 114.738281 80.144531 114.738281 76.671875 C 114.738281 73.195313 111.839844 70.375 108.25 70.375 C 104.660156 70.375 101.765625 73.195313 101.765625 76.671875 Z M 101.765625 76.671875 "/>
<path style=" stroke:none;fill-rule:nonzero;fill:rgb(0%,0%,0%);fill-opacity:1;" d="M 92.378906 88.898438 C 95.585938 88.898438 97.273438 86.285156 98.15625 83.675781 C 99.039063 81.066406 99.113281 78.457031 99.113281 78.457031 L 100.765625 78.457031 C 100.765625 78.457031 101.074219 88.878906 107.484375 88.898438 Z M 92.378906 88.898438 "/>
<path style=" stroke:none;fill-rule:nonzero;fill:rgb(0%,0%,0%);fill-opacity:1;" d="M 104.394531 69.339844 C 100.746094 72.984375 100.746094 78.457031 100.746094 78.457031 L 99.113281 78.476563 C 99.113281 78.476563 99.113281 72.890625 95.5625 69.339844 "/>
<path style=" stroke:none;fill-rule:nonzero;fill:rgb(0%,0%,0%);fill-opacity:1;" d="M 103.664063 81.046875 C 100.015625 77.398438 94.546875 77.398438 94.546875 77.398438 L 94.546875 75.769531 C 94.546875 75.769531 100.132813 75.769531 103.683594 72.21875 "/>
<path style=" stroke:none;fill-rule:nonzero;fill:rgb(0%,0%,0%);fill-opacity:1;" d="M 96.351563 81.066406 C 99.996094 77.417969 105.46875 77.417969 105.46875 77.417969 L 105.46875 75.789063 C 105.46875 75.789063 99.882813 75.789063 96.332031 72.238281 "/>
<path style=" stroke:none;fill-rule:nonzero;fill:rgb(0%,0%,0%);fill-opacity:1;" d="M 106.371094 126.714844 C 106.371094 123.238281 103.472656 120.417969 99.882813 120.417969 C 96.292969 120.417969 93.394531 123.238281 93.394531 126.714844 C 93.394531 130.1875 96.292969 133.007813 99.882813 133.007813 C 103.472656 133.007813 106.371094 130.1875 106.371094 126.714844 Z M 106.371094 126.714844 "/>
<path style=" stroke:none;fill-rule:nonzero;fill:rgb(0%,0%,0%);fill-opacity:1;" d="M 114.738281 114.792969 C 114.738281 111.320313 111.839844 108.5 108.25 108.5 C 104.660156 108.5 101.765625 111.320313 101.765625 114.792969 C 101.765625 118.269531 104.660156 121.089844 108.25 121.089844 C 111.839844 121.089844 114.738281 118.269531 114.738281 114.792969 Z M 114.738281 114.792969 "/>
<path style=" stroke:none;fill-rule:nonzero;fill:rgb(0%,0%,0%);fill-opacity:1;" d="M 98.117188 114.757813 C 98.117188 113.488281 97.734375 112.300781 97.0625 111.300781 C 95.910156 109.59375 93.894531 108.460938 91.628906 108.460938 C 88.039063 108.460938 85.144531 111.28125 85.144531 114.757813 C 85.144531 118.230469 88.039063 121.050781 91.628906 121.050781 C 95.21875 121.050781 98.117188 118.230469 98.117188 114.757813 Z M 98.117188 114.757813 "/>
<path style=" stroke:none;fill-rule:nonzero;fill:rgb(0%,0%,0%);fill-opacity:1;" d="M 107.503906 102.53125 C 104.296875 102.53125 102.609375 105.140625 101.726563 107.75 C 100.84375 110.359375 100.765625 112.972656 100.765625 112.972656 L 99.113281 112.972656 C 99.113281 112.972656 98.808594 102.550781 92.398438 102.53125 Z M 107.503906 102.53125 "/>
<path style=" stroke:none;fill-rule:nonzero;fill:rgb(0%,0%,0%);fill-opacity:1;" d="M 95.488281 122.085938 C 99.136719 118.441406 99.136719 112.972656 99.136719 112.972656 L 100.765625 112.953125 C 100.765625 112.953125 100.765625 118.535156 104.316406 122.085938 "/>
<path style=" stroke:none;fill-rule:nonzero;fill:rgb(0%,0%,0%);fill-opacity:1;" d="M 96.21875 110.378906 C 99.863281 114.027344 105.335938 114.027344 105.335938 114.027344 L 105.335938 115.65625 C 105.335938 115.65625 99.75 115.65625 96.199219 119.210938 "/>
<path style=" stroke:none;fill-rule:nonzero;fill:rgb(0%,0%,0%);fill-opacity:1;" d="M 103.53125 110.359375 C 99.882813 114.007813 94.414063 114.007813 94.414063 114.007813 L 94.414063 115.640625 C 94.414063 115.640625 99.996094 115.640625 103.550781 119.1875 "/>
<path style=" stroke:none;fill-rule:nonzero;fill:rgb(0%,0%,0%);fill-opacity:1;" d="M 106.371094 170.023438 C 106.371094 166.546875 103.472656 163.726563 99.882813 163.726563 C 96.292969 163.726563 93.394531 166.546875 93.394531 170.023438 C 93.394531 173.496094 96.292969 176.316406 99.882813 176.316406 C 103.472656 176.316406 106.371094 173.496094 106.371094 170.023438 Z M 106.371094 170.023438 "/>
<path style=" stroke:none;fill-rule:nonzero;fill:rgb(0%,0%,0%);fill-opacity:1;" d="M 114.738281 158.101563 C 114.738281 154.628906 111.839844 151.808594 108.25 151.808594 C 104.660156 151.808594 101.765625 154.628906 101.765625 158.101563 C 101.765625 161.578125 104.660156 164.398438 108.25 164.398438 C 111.839844 164.398438 114.738281 161.578125 114.738281 158.101563 Z M 114.738281 158.101563 "/>
<path style=" stroke:none;fill-rule:nonzero;fill:rgb(0%,0%,0%);fill-opacity:1;" d="M 98.117188 158.066406 C 98.117188 156.796875 97.734375 155.609375 97.0625 154.609375 C 95.910156 152.902344 93.894531 151.769531 91.628906 151.769531 C 88.039063 151.769531 85.144531 154.589844 85.144531 158.066406 C 85.144531 161.539063 88.039063 164.359375 91.628906 164.359375 C 95.21875 164.359375 98.117188 161.539063 98.117188 158.066406 Z M 98.117188 158.066406 "/>
<path style=" stroke:none;fill-rule:nonzero;fill:rgb(0%,0%,0%);fill-opacity:1;" d="M 107.503906 145.839844 C 104.296875 145.839844 102.609375 148.449219 101.726563 151.058594 C 100.84375 153.671875 100.765625 156.28125 100.765625 156.28125 L 99.113281 156.28125 C 99.113281 156.28125 98.808594 145.859375 92.398438 145.839844 Z M 107.503906 145.839844 "/>
<path style=" stroke:none;fill-rule:nonzero;fill:rgb(0%,0%,0%);fill-opacity:1;" d="M 95.488281 165.394531 C 99.136719 161.75 99.136719 156.28125 99.136719 156.28125 L 100.765625 156.261719 C 100.765625 156.261719 100.765625 161.847656 104.316406 165.394531 "/>
<path style=" stroke:none;fill-rule:nonzero;fill:rgb(0%,0%,0%);fill-opacity:1;" d="M 96.21875 153.6875 C 99.863281 157.335938 105.335938 157.335938 105.335938 157.335938 L 105.335938 158.96875 C 105.335938 158.96875 99.75 158.96875 96.199219 162.515625 "/>
<path style=" stroke:none;fill-rule:nonzero;fill:rgb(0%,0%,0%);fill-opacity:1;" d="M 103.53125 153.671875 C 99.882813 157.316406 94.414063 157.316406 94.414063 157.316406 L 94.414063 158.949219 C 94.414063 158.949219 99.996094 158.949219 103.550781 162.496094 "/>
</g>
</svg>
