<?xml version="1.0" encoding="UTF-8"?>
<svg xmlns="http://www.w3.org/2000/svg" xmlns:xlink="http://www.w3.org/1999/xlink" width="135.21pt" height="195.639pt" viewBox="0 0 135.21 195.639" version="1.1">
<g id="surface1">
<path style=" stroke:none;fill-rule:nonzero;fill:rgb(100%,100%,100%);fill-opacity:1;" d="M 1 189.097656 C 1 192.121094 3.46875 194.589844 6.492188 194.589844 L 128.722656 194.589844 C 131.738281 194.589844 134.210938 192.121094 134.210938 189.097656 L 134.210938 6.445313 C 134.210938 3.421875 131.738281 0.949219 128.722656 0.949219 L 6.492188 0.949219 C 3.46875 0.949219 1 3.421875 1 6.445313 Z M 1 189.097656 "/>
<path style="fill:none;stroke-width:1.999;stroke-linecap:butt;stroke-linejoin:miter;stroke:rgb(0%,0%,0%);stroke-opacity:1;stroke-miterlimit:10;" d="M 1 6.541344 C 1 3.517906 3.46875 1.049156 6.492188 1.049156 L 128.722656 1.049156 C 131.738281 1.049156 134.210938 3.517906 134.210938 6.541344 L 134.210938 189.193687 C 134.210938 192.217125 131.738281 194.689781 128.722656 194.689781 L 6.492188 194.689781 C 3.46875 194.689781 1 192.217125 1 189.193687 Z M 1 6.541344 " transform="matrix(1,0,0,-1,0,195.639)"/>
<path style=" stroke:none;fill-rule:nonzero;fill:rgb(86.29303%,23.658752%,16.767883%);fill-opacity:1;" d="M 10.8125 4.953125 C 10.164063 4.953125 9.699219 5.472656 9.421875 6.515625 C 9.148438 7.542969 9.011719 9.339844 9.011719 11.894531 C 9.011719 14.449219 9.148438 16.25 9.421875 17.292969 C 9.699219 18.320313 10.164063 18.835938 10.8125 18.835938 C 11.464844 18.835938 11.929688 18.320313 12.207031 17.292969 C 12.484375 16.25 12.625 14.449219 12.625 11.894531 C 12.625 9.339844 12.484375 7.542969 12.207031 6.515625 C 11.929688 5.472656 11.464844 4.953125 10.8125 4.953125 M 12.929688 19.066406 C 12.511719 19.695313 12.046875 20.167969 11.535156 20.488281 C 11.027344 20.796875 10.480469 20.949219 9.886719 20.949219 C 8.445313 20.949219 7.308594 20.160156 6.484375 18.589844 C 5.660156 17.003906 5.25 14.816406 5.25 12.035156 C 5.25 9.101563 5.710938 6.839844 6.632813 5.253906 C 7.558594 3.667969 8.875 2.875 10.585938 2.875 C 12.519531 2.875 13.988281 3.96875 14.984375 6.160156 C 15.984375 8.347656 16.484375 11.558594 16.484375 15.78125 C 16.484375 20.601563 15.929688 24.238281 14.824219 26.703125 C 13.71875 29.152344 12.078125 30.378906 9.902344 30.378906 C 9.335938 30.378906 8.726563 30.289063 8.074219 30.109375 C 7.425781 29.933594 6.726563 29.667969 5.980469 29.3125 L 5.980469 24.625 L 7.128906 24.625 C 7.285156 25.832031 7.582031 26.75 8.019531 27.375 C 8.460938 27.992188 9.03125 28.300781 9.734375 28.300781 C 10.847656 28.300781 11.65625 27.578125 12.160156 26.132813 C 12.664063 24.679688 12.921875 22.320313 12.929688 19.066406 "/>
<path style=" stroke:none;fill-rule:nonzero;fill:rgb(86.29303%,23.658752%,16.767883%);fill-opacity:1;" d="M 125.191406 189.792969 C 125.839844 189.792969 126.304688 189.269531 126.585938 188.230469 C 126.855469 187.199219 126.992188 185.40625 126.992188 182.851563 C 126.992188 180.292969 126.855469 178.492188 126.585938 177.453125 C 126.304688 176.421875 125.839844 175.90625 125.191406 175.90625 C 124.539063 175.90625 124.074219 176.421875 123.796875 177.453125 C 123.519531 178.492188 123.378906 180.292969 123.378906 182.851563 C 123.378906 185.40625 123.519531 187.199219 123.796875 188.230469 C 124.074219 189.269531 124.539063 189.792969 125.191406 189.792969 M 123.078125 175.675781 C 123.492188 175.050781 123.957031 174.574219 124.46875 174.257813 C 124.976563 173.949219 125.523438 173.796875 126.117188 173.796875 C 127.558594 173.796875 128.695313 174.582031 129.523438 176.15625 C 130.34375 177.742188 130.753906 179.925781 130.753906 182.707031 C 130.753906 185.644531 130.292969 187.902344 129.371094 189.488281 C 128.449219 191.074219 127.132813 191.867188 125.417969 191.867188 C 123.484375 191.867188 122.019531 190.773438 121.019531 188.585938 C 120.019531 186.394531 119.523438 183.1875 119.523438 178.960938 C 119.523438 174.144531 120.074219 170.503906 121.179688 168.042969 C 122.285156 165.59375 123.925781 164.367188 126.101563 164.367188 C 126.667969 164.367188 127.277344 164.457031 127.929688 164.632813 C 128.582031 164.8125 129.277344 165.078125 130.023438 165.433594 L 130.023438 170.121094 L 128.878906 170.121094 C 128.71875 168.910156 128.421875 167.996094 127.988281 167.367188 C 127.542969 166.753906 126.972656 166.445313 126.269531 166.445313 C 125.160156 166.445313 124.351563 167.164063 123.84375 168.609375 C 123.339844 170.066406 123.082031 172.421875 123.078125 175.675781 "/>
<path style=" stroke:none;fill-rule:nonzero;fill:rgb(86.29303%,23.658752%,16.767883%);fill-opacity:1;" d="M 18.050781 37.914063 C 18.039063 41.683594 13.324219 44.425781 11.9375 47.40625 C 10.539063 44.433594 5.8125 41.714844 5.78125 37.945313 C 5.773438 36.171875 7.148438 34.722656 8.835938 34.722656 C 10.53125 34.722656 11.914063 36.15625 11.914063 37.929688 C 11.914063 36.148438 13.28125 34.707031 14.96875 34.707031 C 16.664063 34.699219 18.039063 36.140625 18.050781 37.914063 Z M 18.050781 37.914063 "/>
<path style=" stroke:none;fill-rule:nonzero;fill:rgb(86.29303%,23.658752%,16.767883%);fill-opacity:1;" d="M 117.957031 156.828125 C 117.964844 153.0625 122.683594 150.320313 124.066406 147.335938 C 125.464844 150.3125 130.191406 153.03125 130.222656 156.796875 C 130.230469 158.570313 128.855469 160.019531 127.167969 160.019531 C 125.472656 160.019531 124.089844 158.589844 124.089844 156.8125 C 124.089844 158.597656 122.722656 160.035156 121.035156 160.035156 C 119.339844 160.042969 117.964844 158.605469 117.957031 156.828125 Z M 117.957031 156.828125 "/>
<path style=" stroke:none;fill-rule:nonzero;fill:rgb(86.29303%,23.658752%,16.767883%);fill-opacity:1;" d="M 50.792969 22.804688 C 50.773438 31.84375 39.449219 38.429688 36.132813 45.585938 C 32.773438 38.445313 21.429688 31.921875 21.351563 22.882813 C 21.332031 18.621094 24.636719 15.148438 28.683594 15.148438 C 32.753906 15.148438 36.074219 18.582031 36.074219 22.84375 C 36.074219 18.5625 39.355469 15.109375 43.40625 15.109375 C 47.472656 15.089844 50.773438 18.542969 50.792969 22.804688 Z M 50.792969 22.804688 "/>
<path style=" stroke:none;fill-rule:nonzero;fill:rgb(86.29303%,23.658752%,16.767883%);fill-opacity:1;" d="M 50.792969 66.113281 C 50.773438 75.152344 39.449219 81.738281 36.132813 88.894531 C 32.773438 81.757813 21.429688 75.230469 21.351563 66.191406 C 21.332031 61.929688 24.636719 58.457031 28.683594 58.457031 C 32.753906 58.457031 36.074219 61.890625 36.074219 66.152344 C 36.074219 61.871094 39.355469 58.417969 43.40625 58.417969 C 47.472656 58.398438 50.773438 61.851563 50.792969 66.113281 Z M 50.792969 66.113281 "/>
<path style=" stroke:none;fill-rule:nonzero;fill:rgb(86.29303%,23.658752%,16.767883%);fill-opacity:1;" d="M 21.351563 125.3125 C 21.371094 116.273438 32.695313 109.6875 36.015625 102.53125 C 39.375 109.671875 50.71875 116.195313 50.796875 125.234375 C 50.8125 129.496094 47.511719 132.96875 43.464844 132.96875 C 39.394531 132.96875 36.074219 129.535156 36.074219 125.273438 C 36.074219 129.554688 32.792969 133.007813 28.742188 133.007813 C 24.671875 133.027344 21.371094 129.574219 21.351563 125.3125 Z M 21.351563 125.3125 "/>
<path style=" stroke:none;fill-rule:nonzero;fill:rgb(86.29303%,23.658752%,16.767883%);fill-opacity:1;" d="M 21.351563 168.621094 C 21.371094 159.582031 32.695313 152.996094 36.015625 145.839844 C 39.375 152.980469 50.71875 159.503906 50.796875 168.542969 C 50.8125 172.804688 47.511719 176.277344 43.464844 176.277344 C 39.394531 176.277344 36.074219 172.84375 36.074219 168.582031 C 36.074219 172.863281 32.792969 176.316406 28.742188 176.316406 C 24.671875 176.335938 21.371094 172.882813 21.351563 168.621094 Z M 21.351563 168.621094 "/>
<path style=" stroke:none;fill-rule:nonzero;fill:rgb(86.29303%,23.658752%,16.767883%);fill-opacity:1;" d="M 114.65625 22.804688 C 114.636719 31.84375 103.3125 38.429688 99.992188 45.585938 C 96.636719 38.445313 85.292969 31.921875 85.214844 22.882813 C 85.195313 18.621094 88.496094 15.148438 92.546875 15.148438 C 96.617188 15.148438 99.9375 18.582031 99.9375 22.84375 C 99.9375 18.5625 103.21875 15.109375 107.269531 15.109375 C 111.335938 15.089844 114.636719 18.542969 114.65625 22.804688 Z M 114.65625 22.804688 "/>
<path style=" stroke:none;fill-rule:nonzero;fill:rgb(86.29303%,23.658752%,16.767883%);fill-opacity:1;" d="M 114.65625 66.113281 C 114.636719 75.152344 103.3125 81.738281 99.992188 88.894531 C 96.636719 81.757813 85.292969 75.230469 85.214844 66.191406 C 85.195313 61.929688 88.496094 58.457031 92.546875 58.457031 C 96.617188 58.457031 99.9375 61.890625 99.9375 66.152344 C 99.9375 61.871094 103.21875 58.417969 107.269531 58.417969 C 111.335938 58.398438 114.636719 61.851563 114.65625 66.113281 Z M 114.65625 66.113281 "/>
<path style=" stroke:none;fill-rule:nonzero;fill:rgb(86.29303%,23.658752%,16.767883%);fill-opacity:1;" d="M 85.214844 125.3125 C 85.234375 116.273438 96.558594 109.6875 99.878906 102.53125 C 103.238281 109.671875 114.578125 116.195313 114.65625 125.234375 C 114.675781 129.496094 111.375 132.96875 107.324219 132.96875 C 103.257813 132.96875 99.9375 129.535156 99.9375 125.273438 C 99.9375 129.554688 96.652344 133.007813 92.605469 133.007813 C 88.535156 133.027344 85.234375 129.574219 85.214844 125.3125 Z M 85.214844 125.3125 "/>
<path style=" stroke:none;fill-rule:nonzero;fill:rgb(86.29303%,23.658752%,16.767883%);fill-opacity:1;" d="M 85.214844 168.621094 C 85.234375 159.582031 96.558594 152.996094 99.878906 145.839844 C 103.238281 152.980469 114.578125 159.503906 114.65625 168.542969 C 114.675781 172.804688 111.375 176.277344 107.324219 176.277344 C 103.257813 176.277344 99.9375 172.84375 99.9375 168.582031 C 99.9375 172.863281 96.652344 176.316406 92.605469 176.316406 C 88.535156 176.335938 85.234375 172.882813 85.214844 168.621094 Z M 85.214844 168.621094 "/>
<path style=" stroke:none;fill-rule:nonzero;fill:rgb(86.29303%,23.658752%,16.767883%);fill-opacity:1;" d="M 82.726563 44.460938 C 82.707031 53.5 71.382813 60.082031 68.0625 67.242188 C 64.703125 60.101563 53.359375 53.578125 53.285156 44.535156 C 53.265625 40.277344 56.566406 36.804688 60.613281 36.804688 C 64.683594 36.804688 68.003906 40.238281 68.003906 44.5 C 68.003906 40.21875 71.285156 36.765625 75.335938 36.765625 C 79.40625 36.746094 82.707031 40.199219 82.726563 44.460938 Z M 82.726563 44.460938 "/>
</g>
</svg>
