<?xml version="1.0" encoding="UTF-8"?>
<svg xmlns="http://www.w3.org/2000/svg" xmlns:xlink="http://www.w3.org/1999/xlink" width="135.21pt" height="195.639pt" viewBox="0 0 135.21 195.639" version="1.1">
<g id="surface1">
<path style=" stroke:none;fill-rule:nonzero;fill:rgb(100%,100%,100%);fill-opacity:1;" d="M 1 189.097656 C 1 192.121094 3.46875 194.589844 6.492188 194.589844 L 128.722656 194.589844 C 131.738281 194.589844 134.210938 192.121094 134.210938 189.097656 L 134.210938 6.445313 C 134.210938 3.421875 131.738281 0.949219 128.722656 0.949219 L 6.492188 0.949219 C 3.46875 0.949219 1 3.421875 1 6.445313 Z M 1 189.097656 "/>
<path style="fill:none;stroke-width:1.999;stroke-linecap:butt;stroke-linejoin:miter;stroke:rgb(0%,0%,0%);stroke-opacity:1;stroke-miterlimit:10;" d="M 1 6.541344 C 1 3.517906 3.46875 1.049156 6.492188 1.049156 L 128.722656 1.049156 C 131.738281 1.049156 134.210938 3.517906 134.210938 6.541344 L 134.210938 189.193687 C 134.210938 192.217125 131.738281 194.689781 128.722656 194.689781 L 6.492188 194.689781 C 3.46875 194.689781 1 192.217125 1 189.193687 Z M 1 6.541344 " transform="matrix(1,0,0,-1,0,195.639)"/>
<path style=" stroke:none;fill-rule:nonzero;fill:rgb(86.29303%,23.658752%,16.767883%);fill-opacity:1;" d="M 10.8125 4.953125 C 10.164063 4.953125 9.699219 5.472656 9.421875 6.515625 C 9.148438 7.546875 9.011719 9.339844 9.011719 11.894531 C 9.011719 14.453125 9.148438 16.25 9.421875 17.292969 C 9.699219 18.320313 10.164063 18.835938 10.8125 18.835938 C 11.464844 18.835938 11.929688 18.320313 12.207031 17.292969 C 12.484375 16.25 12.625 14.453125 12.625 11.894531 C 12.625 9.339844 12.484375 7.546875 12.207031 6.515625 C 11.929688 5.472656 11.464844 4.953125 10.8125 4.953125 M 12.929688 19.066406 C 12.511719 19.695313 12.046875 20.167969 11.535156 20.488281 C 11.027344 20.796875 10.480469 20.949219 9.886719 20.949219 C 8.445313 20.949219 7.308594 20.164063 6.484375 18.589844 C 5.660156 17.003906 5.25 14.820313 5.25 12.035156 C 5.25 9.101563 5.710938 6.839844 6.632813 5.253906 C 7.558594 3.667969 8.875 2.875 10.585938 2.875 C 12.519531 2.875 13.988281 3.972656 14.984375 6.160156 C 15.984375 8.351563 16.484375 11.558594 16.484375 15.78125 C 16.484375 20.601563 15.929688 24.238281 14.824219 26.703125 C 13.71875 29.152344 12.078125 30.378906 9.902344 30.378906 C 9.335938 30.378906 8.726563 30.289063 8.074219 30.109375 C 7.425781 29.933594 6.726563 29.667969 5.980469 29.3125 L 5.980469 24.625 L 7.128906 24.625 C 7.285156 25.832031 7.582031 26.75 8.019531 27.378906 C 8.460938 27.992188 9.03125 28.300781 9.734375 28.300781 C 10.847656 28.300781 11.65625 27.578125 12.160156 26.132813 C 12.664063 24.679688 12.921875 22.324219 12.929688 19.066406 "/>
<path style=" stroke:none;fill-rule:nonzero;fill:rgb(86.29303%,23.658752%,16.767883%);fill-opacity:1;" d="M 125.191406 189.792969 C 125.839844 189.792969 126.304688 189.269531 126.585938 188.230469 C 126.855469 187.199219 126.992188 185.40625 126.992188 182.851563 C 126.992188 180.292969 126.855469 178.492188 126.585938 177.453125 C 126.304688 176.421875 125.839844 175.90625 125.191406 175.90625 C 124.539063 175.90625 124.074219 176.421875 123.796875 177.453125 C 123.519531 178.492188 123.378906 180.292969 123.378906 182.851563 C 123.378906 185.40625 123.519531 187.199219 123.796875 188.230469 C 124.074219 189.269531 124.539063 189.792969 125.191406 189.792969 M 123.078125 175.675781 C 123.492188 175.050781 123.957031 174.574219 124.46875 174.257813 C 124.976563 173.949219 125.523438 173.796875 126.117188 173.796875 C 127.558594 173.796875 128.695313 174.582031 129.523438 176.15625 C 130.34375 177.742188 130.753906 179.925781 130.753906 182.707031 C 130.753906 185.644531 130.292969 187.902344 129.371094 189.488281 C 128.449219 191.074219 127.132813 191.867188 125.417969 191.867188 C 123.484375 191.867188 122.019531 190.773438 121.019531 188.585938 C 120.019531 186.394531 119.523438 183.1875 119.523438 178.960938 C 119.523438 174.144531 120.074219 170.503906 121.179688 168.042969 C 122.285156 165.59375 123.925781 164.367188 126.101563 164.367188 C 126.667969 164.367188 127.277344 164.457031 127.929688 164.632813 C 128.582031 164.8125 129.277344 165.078125 130.023438 165.433594 L 130.023438 170.121094 L 128.878906 170.121094 C 128.71875 168.910156 128.421875 167.996094 127.988281 167.367188 C 127.542969 166.753906 126.972656 166.445313 126.269531 166.445313 C 125.160156 166.445313 124.351563 167.164063 123.84375 168.609375 C 123.339844 170.066406 123.082031 172.421875 123.078125 175.675781 "/>
<path style=" stroke:none;fill-rule:nonzero;fill:rgb(86.29303%,23.658752%,16.767883%);fill-opacity:1;" d="M 11.914063 41.058594 C 13.964844 41.058594 16.011719 41.058594 18.058594 41.058594 C 17.359375 41.027344 16.761719 40.574219 16.199219 40.199219 C 14.9375 39.246094 13.753906 38.15625 12.820313 36.878906 C 12.386719 36.234375 11.925781 35.511719 11.914063 34.710938 M 18.058594 41.058594 C 17.167969 41.085938 16.410156 41.652344 15.734375 42.171875 C 14.539063 43.175781 13.503906 44.371094 12.632813 45.660156 C 12.308594 46.195313 11.933594 46.765625 11.914063 47.40625 C 11.914063 45.289063 11.914063 43.175781 11.914063 41.058594 M 11.914063 47.40625 C 11.886719 46.464844 11.308594 45.644531 10.765625 44.914063 C 9.796875 43.703125 8.648438 42.636719 7.382813 41.742188 C 6.894531 41.4375 6.371094 41.074219 5.773438 41.058594 C 7.820313 41.058594 9.867188 41.058594 11.914063 41.058594 M 5.773438 41.058594 C 6.660156 41.03125 7.417969 40.464844 8.097656 39.945313 C 9.292969 38.941406 10.324219 37.746094 11.199219 36.453125 C 11.519531 35.921875 11.898438 35.351563 11.914063 34.710938 C 11.914063 36.824219 11.914063 38.941406 11.914063 41.058594 "/>
<path style=" stroke:none;fill-rule:nonzero;fill:rgb(86.29303%,23.658752%,16.767883%);fill-opacity:1;" d="M 124.089844 153.6875 C 122.042969 153.6875 119.996094 153.6875 117.949219 153.6875 C 118.648438 153.71875 119.242188 154.171875 119.804688 154.542969 C 121.066406 155.496094 122.25 156.589844 123.183594 157.867188 C 123.621094 158.511719 124.078125 159.234375 124.089844 160.035156 M 117.949219 153.6875 C 118.835938 153.65625 119.59375 153.09375 120.269531 152.570313 C 121.464844 151.566406 122.5 150.375 123.375 149.082031 C 123.695313 148.546875 124.070313 147.980469 124.089844 147.335938 C 124.089844 149.453125 124.089844 151.570313 124.089844 153.6875 M 124.089844 147.335938 C 124.121094 148.28125 124.695313 149.101563 125.238281 149.832031 C 126.210938 151.039063 127.355469 152.105469 128.621094 153 C 129.113281 153.308594 129.632813 153.671875 130.230469 153.6875 C 128.183594 153.6875 126.136719 153.6875 124.089844 153.6875 M 130.230469 153.6875 C 129.34375 153.714844 128.585938 154.277344 127.910156 154.800781 C 126.714844 155.804688 125.679688 156.996094 124.804688 158.289063 C 124.484375 158.824219 124.109375 159.390625 124.089844 160.035156 C 124.089844 157.917969 124.089844 155.804688 124.089844 153.6875 "/>
<path style=" stroke:none;fill-rule:nonzero;fill:rgb(86.29303%,23.658752%,16.767883%);fill-opacity:1;" d="M 36.074219 30.347656 C 40.988281 30.347656 45.898438 30.347656 50.8125 30.347656 C 49.136719 30.273438 47.707031 29.1875 46.355469 28.289063 C 43.324219 26.003906 40.488281 23.382813 38.246094 20.3125 C 37.199219 18.769531 36.101563 17.035156 36.074219 15.109375 M 50.8125 30.347656 C 48.683594 30.414063 46.863281 31.769531 45.238281 33.023438 C 42.371094 35.429688 39.886719 38.296875 37.789063 41.398438 C 37.023438 42.683594 36.117188 44.042969 36.074219 45.589844 C 36.074219 40.507813 36.074219 35.429688 36.074219 30.347656 M 36.074219 45.589844 C 36 43.320313 34.617188 41.355469 33.3125 39.597656 C 30.988281 36.699219 28.230469 34.136719 25.199219 31.992188 C 24.019531 31.257813 22.769531 30.382813 21.332031 30.347656 C 26.246094 30.347656 31.160156 30.347656 36.074219 30.347656 M 21.332031 30.347656 C 23.464844 30.28125 25.28125 28.925781 26.90625 27.675781 C 29.777344 25.265625 32.261719 22.402344 34.355469 19.300781 C 35.125 18.015625 36.03125 16.652344 36.074219 15.109375 C 36.074219 20.191406 36.074219 25.269531 36.074219 30.347656 "/>
<path style=" stroke:none;fill-rule:nonzero;fill:rgb(86.29303%,23.658752%,16.767883%);fill-opacity:1;" d="M 36.074219 73.65625 C 40.988281 73.65625 45.898438 73.65625 50.8125 73.65625 C 49.136719 73.582031 47.707031 72.496094 46.355469 71.597656 C 43.324219 69.3125 40.488281 66.691406 38.246094 63.621094 C 37.199219 62.078125 36.101563 60.34375 36.074219 58.417969 M 50.8125 73.65625 C 48.683594 73.722656 46.863281 75.078125 45.238281 76.332031 C 42.371094 78.738281 39.886719 81.605469 37.789063 84.707031 C 37.023438 85.992188 36.117188 87.351563 36.074219 88.894531 C 36.074219 83.816406 36.074219 78.738281 36.074219 73.65625 M 36.074219 88.894531 C 36 86.628906 34.617188 84.660156 33.3125 82.90625 C 30.988281 80.011719 28.230469 77.445313 25.199219 75.300781 C 24.019531 74.566406 22.769531 73.691406 21.332031 73.65625 C 26.246094 73.65625 31.160156 73.65625 36.074219 73.65625 M 21.332031 73.65625 C 23.464844 73.589844 25.28125 72.234375 26.90625 70.984375 C 29.777344 68.574219 32.261719 65.710938 34.355469 62.609375 C 35.125 61.324219 36.03125 59.964844 36.074219 58.417969 C 36.074219 63.496094 36.074219 68.578125 36.074219 73.65625 "/>
<path style=" stroke:none;fill-rule:nonzero;fill:rgb(86.29303%,23.658752%,16.767883%);fill-opacity:1;" d="M 36.074219 117.769531 C 31.160156 117.769531 26.246094 117.769531 21.335938 117.769531 C 23.011719 117.84375 24.441406 118.929688 25.789063 119.828125 C 28.820313 122.113281 31.660156 124.734375 33.902344 127.804688 C 34.945313 129.347656 36.046875 131.082031 36.074219 133.007813 M 21.335938 117.769531 C 23.464844 117.703125 25.28125 116.347656 26.90625 115.09375 C 29.777344 112.6875 32.261719 109.820313 34.355469 106.71875 C 35.125 105.4375 36.03125 104.074219 36.074219 102.53125 C 36.074219 107.609375 36.074219 112.6875 36.074219 117.769531 M 36.074219 102.53125 C 36.148438 104.796875 37.527344 106.765625 38.835938 108.519531 C 41.160156 111.414063 43.914063 113.980469 46.949219 116.125 C 48.128906 116.859375 49.378906 117.734375 50.8125 117.769531 C 45.898438 117.769531 40.988281 117.769531 36.074219 117.769531 M 50.8125 117.769531 C 48.683594 117.835938 46.863281 119.191406 45.238281 120.441406 C 42.371094 122.851563 39.886719 125.71875 37.789063 128.816406 C 37.023438 130.101563 36.117188 131.464844 36.074219 133.007813 C 36.074219 127.929688 36.074219 122.847656 36.074219 117.769531 "/>
<path style=" stroke:none;fill-rule:nonzero;fill:rgb(86.29303%,23.658752%,16.767883%);fill-opacity:1;" d="M 36.074219 161.078125 C 31.160156 161.078125 26.246094 161.078125 21.335938 161.078125 C 23.011719 161.152344 24.441406 162.238281 25.789063 163.136719 C 28.820313 165.421875 31.660156 168.046875 33.902344 171.113281 C 34.945313 172.65625 36.046875 174.390625 36.074219 176.316406 M 21.335938 161.078125 C 23.464844 161.011719 25.28125 159.65625 26.90625 158.402344 C 29.777344 155.996094 32.261719 153.128906 34.355469 150.027344 C 35.125 148.742188 36.03125 147.382813 36.074219 145.839844 C 36.074219 150.917969 36.074219 155.996094 36.074219 161.078125 M 36.074219 145.839844 C 36.148438 148.105469 37.527344 150.074219 38.835938 151.828125 C 41.160156 154.726563 43.914063 157.289063 46.949219 159.433594 C 48.128906 160.167969 49.378906 161.042969 50.8125 161.078125 C 45.898438 161.078125 40.988281 161.078125 36.074219 161.078125 M 50.8125 161.078125 C 48.683594 161.144531 46.863281 162.5 45.238281 163.75 C 42.371094 166.160156 39.886719 169.023438 37.789063 172.128906 C 37.023438 173.410156 36.117188 174.773438 36.074219 176.316406 C 36.074219 171.238281 36.074219 166.15625 36.074219 161.078125 "/>
<path style=" stroke:none;fill-rule:nonzero;fill:rgb(86.29303%,23.658752%,16.767883%);fill-opacity:1;" d="M 99.9375 30.347656 C 104.851563 30.347656 109.761719 30.347656 114.675781 30.347656 C 112.996094 30.273438 111.570313 29.1875 110.21875 28.289063 C 107.1875 26.003906 104.351563 23.382813 102.109375 20.3125 C 101.0625 18.769531 99.964844 17.035156 99.9375 15.109375 M 114.675781 30.347656 C 112.546875 30.414063 110.726563 31.769531 109.101563 33.023438 C 106.234375 35.429688 103.75 38.296875 101.652344 41.398438 C 100.882813 42.683594 99.980469 44.042969 99.9375 45.589844 C 99.9375 40.507813 99.9375 35.429688 99.9375 30.347656 M 99.9375 45.589844 C 99.863281 43.320313 98.480469 41.355469 97.175781 39.597656 C 94.851563 36.699219 92.09375 34.136719 89.0625 31.992188 C 87.882813 31.257813 86.632813 30.382813 85.195313 30.347656 C 90.109375 30.347656 95.023438 30.347656 99.9375 30.347656 M 85.195313 30.347656 C 87.328125 30.28125 89.144531 28.925781 90.769531 27.675781 C 93.640625 25.265625 96.121094 22.402344 98.21875 19.300781 C 98.988281 18.015625 99.894531 16.652344 99.9375 15.109375 C 99.9375 20.191406 99.9375 25.269531 99.9375 30.347656 "/>
<path style=" stroke:none;fill-rule:nonzero;fill:rgb(86.29303%,23.658752%,16.767883%);fill-opacity:1;" d="M 99.9375 73.65625 C 104.851563 73.65625 109.761719 73.65625 114.675781 73.65625 C 112.996094 73.582031 111.570313 72.496094 110.21875 71.597656 C 107.1875 69.3125 104.351563 66.691406 102.109375 63.621094 C 101.0625 62.078125 99.964844 60.34375 99.9375 58.417969 M 114.675781 73.65625 C 112.546875 73.722656 110.726563 75.078125 109.101563 76.332031 C 106.234375 78.738281 103.75 81.605469 101.652344 84.707031 C 100.882813 85.992188 99.980469 87.351563 99.9375 88.894531 C 99.9375 83.816406 99.9375 78.738281 99.9375 73.65625 M 99.9375 88.894531 C 99.863281 86.628906 98.480469 84.660156 97.175781 82.90625 C 94.851563 80.011719 92.09375 77.445313 89.0625 75.300781 C 87.882813 74.566406 86.632813 73.691406 85.195313 73.65625 C 90.109375 73.65625 95.023438 73.65625 99.9375 73.65625 M 85.195313 73.65625 C 87.328125 73.589844 89.144531 72.234375 90.769531 70.984375 C 93.640625 68.574219 96.121094 65.710938 98.21875 62.609375 C 98.988281 61.324219 99.894531 59.964844 99.9375 58.417969 C 99.9375 63.496094 99.9375 68.578125 99.9375 73.65625 "/>
<path style=" stroke:none;fill-rule:nonzero;fill:rgb(86.29303%,23.658752%,16.767883%);fill-opacity:1;" d="M 99.9375 117.769531 C 95.023438 117.769531 90.109375 117.769531 85.195313 117.769531 C 86.875 117.84375 88.304688 118.929688 89.652344 119.828125 C 92.683594 122.113281 95.523438 124.734375 97.761719 127.804688 C 98.808594 129.347656 99.90625 131.082031 99.9375 133.007813 M 85.195313 117.769531 C 87.324219 117.703125 89.144531 116.347656 90.769531 115.09375 C 93.640625 112.6875 96.121094 109.820313 98.21875 106.71875 C 98.988281 105.4375 99.894531 104.074219 99.9375 102.53125 C 99.9375 107.609375 99.9375 112.6875 99.9375 117.769531 M 99.9375 102.53125 C 100.007813 104.796875 101.390625 106.765625 102.695313 108.519531 C 105.023438 111.414063 107.777344 113.980469 110.8125 116.125 C 111.988281 116.859375 113.242188 117.734375 114.675781 117.769531 C 109.761719 117.769531 104.847656 117.769531 99.9375 117.769531 M 114.675781 117.769531 C 112.546875 117.835938 110.726563 119.191406 109.101563 120.441406 C 106.234375 122.851563 103.75 125.71875 101.652344 128.816406 C 100.882813 130.101563 99.980469 131.464844 99.9375 133.007813 C 99.9375 127.929688 99.9375 122.847656 99.9375 117.769531 "/>
<path style=" stroke:none;fill-rule:nonzero;fill:rgb(86.29303%,23.658752%,16.767883%);fill-opacity:1;" d="M 99.9375 161.078125 C 95.023438 161.078125 90.109375 161.078125 85.195313 161.078125 C 86.875 161.152344 88.304688 162.238281 89.652344 163.136719 C 92.683594 165.421875 95.523438 168.046875 97.761719 171.113281 C 98.808594 172.65625 99.90625 174.390625 99.9375 176.316406 M 85.195313 161.078125 C 87.324219 161.011719 89.144531 159.65625 90.769531 158.402344 C 93.640625 155.996094 96.121094 153.128906 98.21875 150.027344 C 98.988281 148.742188 99.894531 147.382813 99.9375 145.839844 C 99.9375 150.917969 99.9375 155.996094 99.9375 161.078125 M 99.9375 145.839844 C 100.007813 148.105469 101.390625 150.074219 102.695313 151.828125 C 105.023438 154.726563 107.777344 157.289063 110.8125 159.433594 C 111.988281 160.167969 113.242188 161.042969 114.675781 161.078125 C 109.761719 161.078125 104.847656 161.078125 99.9375 161.078125 M 114.675781 161.078125 C 112.546875 161.144531 110.726563 162.5 109.101563 163.75 C 106.234375 166.160156 103.75 169.023438 101.652344 172.128906 C 100.882813 173.410156 99.980469 174.773438 99.9375 176.316406 C 99.9375 171.238281 99.9375 166.15625 99.9375 161.078125 "/>
<path style=" stroke:none;fill-rule:nonzero;fill:rgb(86.29303%,23.658752%,16.767883%);fill-opacity:1;" d="M 68.003906 52.003906 C 72.917969 52.003906 77.832031 52.003906 82.746094 52.003906 C 81.066406 51.929688 79.636719 50.84375 78.289063 49.945313 C 75.257813 47.65625 72.417969 45.035156 70.175781 41.96875 C 69.132813 40.425781 68.03125 38.691406 68.003906 36.765625 M 82.746094 52.003906 C 80.613281 52.070313 78.796875 53.425781 77.171875 54.675781 C 74.300781 57.085938 71.816406 59.949219 69.722656 63.050781 C 68.953125 64.335938 68.046875 65.695313 68.003906 67.242188 C 68.003906 62.160156 68.003906 57.082031 68.003906 52.003906 M 68.003906 67.242188 C 67.933594 64.972656 66.550781 63.007813 65.246094 61.253906 C 62.917969 58.355469 60.164063 55.789063 57.128906 53.648438 C 55.953125 52.910156 54.699219 52.039063 53.265625 52.003906 C 58.179688 52.003906 63.089844 52.003906 68.003906 52.003906 M 53.265625 52.003906 C 55.394531 51.9375 57.214844 50.582031 58.839844 49.332031 C 61.707031 46.921875 64.191406 44.054688 66.285156 40.953125 C 67.058594 39.667969 67.960938 38.308594 68.003906 36.765625 C 68.003906 41.84375 68.003906 46.921875 68.003906 52.003906 "/>
</g>
</svg>
