<?xml version="1.0" encoding="UTF-8"?>
<svg xmlns="http://www.w3.org/2000/svg" xmlns:xlink="http://www.w3.org/1999/xlink" width="135.21pt" height="195.639pt" viewBox="0 0 135.21 195.639" version="1.1">
<g id="surface1">
<path style=" stroke:none;fill-rule:nonzero;fill:rgb(100%,100%,100%);fill-opacity:1;" d="M 1 189.097656 C 1 192.121094 3.46875 194.589844 6.492188 194.589844 L 128.722656 194.589844 C 131.738281 194.589844 134.210938 192.121094 134.210938 189.097656 L 134.210938 6.445313 C 134.210938 3.421875 131.738281 0.949219 128.722656 0.949219 L 6.492188 0.949219 C 3.46875 0.949219 1 3.421875 1 6.445313 Z M 1 189.097656 "/>
<path style="fill:none;stroke-width:1.999;stroke-linecap:butt;stroke-linejoin:miter;stroke:rgb(0%,0%,0%);stroke-opacity:1;stroke-miterlimit:10;" d="M 1 6.541344 C 1 3.517906 3.46875 1.049156 6.492188 1.049156 L 128.722656 1.049156 C 131.738281 1.049156 134.210938 3.517906 134.210938 6.541344 L 134.210938 189.193687 C 134.210938 192.217125 131.738281 194.689781 128.722656 194.689781 L 6.492188 194.689781 C 3.46875 194.689781 1 192.217125 1 189.193687 Z M 1 6.541344 " transform="matrix(1,0,0,-1,0,195.639)"/>
<path style=" stroke:none;fill-rule:nonzero;fill:rgb(0%,0%,0%);fill-opacity:1;" d="M 10.8125 4.953125 C 10.164063 4.953125 9.699219 5.472656 9.421875 6.515625 C 9.148438 7.546875 9.011719 9.339844 9.011719 11.894531 C 9.011719 14.453125 9.148438 16.25 9.421875 17.292969 C 9.699219 18.324219 10.164063 18.835938 10.8125 18.835938 C 11.464844 18.835938 11.929688 18.324219 12.207031 17.292969 C 12.484375 16.25 12.625 14.453125 12.625 11.894531 C 12.625 9.339844 12.484375 7.546875 12.207031 6.515625 C 11.929688 5.472656 11.464844 4.953125 10.8125 4.953125 M 12.929688 19.066406 C 12.511719 19.695313 12.046875 20.167969 11.535156 20.488281 C 11.027344 20.796875 10.480469 20.949219 9.886719 20.949219 C 8.445313 20.949219 7.308594 20.164063 6.484375 18.589844 C 5.660156 17.003906 5.25 14.820313 5.25 12.035156 C 5.25 9.101563 5.710938 6.839844 6.632813 5.253906 C 7.558594 3.667969 8.875 2.875 10.585938 2.875 C 12.519531 2.875 13.988281 3.972656 14.984375 6.160156 C 15.984375 8.351563 16.484375 11.558594 16.484375 15.785156 C 16.484375 20.601563 15.929688 24.242188 14.824219 26.703125 C 13.71875 29.152344 12.078125 30.378906 9.902344 30.378906 C 9.335938 30.378906 8.726563 30.289063 8.074219 30.113281 C 7.425781 29.933594 6.726563 29.667969 5.980469 29.3125 L 5.980469 24.625 L 7.128906 24.625 C 7.285156 25.832031 7.582031 26.75 8.019531 27.378906 C 8.460938 27.992188 9.03125 28.300781 9.734375 28.300781 C 10.847656 28.300781 11.65625 27.578125 12.160156 26.136719 C 12.664063 24.679688 12.921875 22.324219 12.929688 19.066406 "/>
<path style=" stroke:none;fill-rule:nonzero;fill:rgb(0%,0%,0%);fill-opacity:1;" d="M 125.191406 189.792969 C 125.839844 189.792969 126.304688 189.269531 126.585938 188.230469 C 126.855469 187.199219 126.992188 185.40625 126.992188 182.851563 C 126.992188 180.292969 126.855469 178.492188 126.585938 177.453125 C 126.304688 176.421875 125.839844 175.90625 125.191406 175.90625 C 124.539063 175.90625 124.074219 176.421875 123.796875 177.453125 C 123.519531 178.492188 123.378906 180.292969 123.378906 182.851563 C 123.378906 185.40625 123.519531 187.199219 123.796875 188.230469 C 124.074219 189.269531 124.539063 189.792969 125.191406 189.792969 M 123.078125 175.675781 C 123.492188 175.050781 123.957031 174.574219 124.46875 174.257813 C 124.976563 173.949219 125.523438 173.796875 126.117188 173.796875 C 127.558594 173.796875 128.695313 174.582031 129.523438 176.15625 C 130.34375 177.742188 130.753906 179.925781 130.753906 182.707031 C 130.753906 185.644531 130.292969 187.902344 129.371094 189.488281 C 128.449219 191.074219 127.132813 191.867188 125.417969 191.867188 C 123.484375 191.867188 122.019531 190.773438 121.019531 188.585938 C 120.019531 186.394531 119.523438 183.1875 119.523438 178.960938 C 119.523438 174.144531 120.074219 170.503906 121.179688 168.042969 C 122.285156 165.59375 123.925781 164.367188 126.101563 164.367188 C 126.667969 164.367188 127.277344 164.457031 127.929688 164.632813 C 128.582031 164.8125 129.277344 165.078125 130.023438 165.433594 L 130.023438 170.121094 L 128.878906 170.121094 C 128.71875 168.914063 128.421875 167.996094 127.988281 167.367188 C 127.542969 166.753906 126.972656 166.445313 126.269531 166.445313 C 125.160156 166.445313 124.351563 167.167969 123.84375 168.609375 C 123.339844 170.066406 123.082031 172.421875 123.078125 175.675781 "/>
<path style=" stroke:none;fill-rule:nonzero;fill:rgb(0%,0%,0%);fill-opacity:1;" d="M 8.78125 47.402344 C 10.117188 47.402344 10.820313 45.976563 11.1875 44.554688 C 11.554688 43.128906 11.589844 41.707031 11.589844 41.707031 L 12.265625 41.699219 C 12.265625 41.699219 12.394531 47.402344 15.066406 47.402344 Z M 8.78125 47.402344 "/>
<path style=" stroke:none;fill-rule:nonzero;fill:rgb(0%,0%,0%);fill-opacity:1;" d="M 6.515625 41.699219 C 6.523438 38.925781 10.691406 36.90625 11.914063 34.71875 C 13.140625 36.914063 17.304688 38.933594 17.3125 41.699219 C 17.3125 43.011719 16.105469 44.074219 14.609375 44.074219 C 13.121094 44.074219 11.914063 43.011719 11.914063 41.699219 C 11.914063 43.011719 10.707031 44.074219 9.210938 44.074219 C 7.71875 44.074219 6.515625 43.011719 6.515625 41.699219 Z M 6.515625 41.699219 "/>
<path style=" stroke:none;fill-rule:nonzero;fill:rgb(0%,0%,0%);fill-opacity:1;" d="M 127.222656 147.34375 C 125.890625 147.34375 125.183594 148.769531 124.816406 150.191406 C 124.449219 151.613281 124.417969 153.039063 124.417969 153.039063 L 123.738281 153.046875 C 123.738281 153.046875 123.609375 147.34375 120.9375 147.34375 Z M 127.222656 147.34375 "/>
<path style=" stroke:none;fill-rule:nonzero;fill:rgb(0%,0%,0%);fill-opacity:1;" d="M 129.488281 153.046875 C 129.480469 155.820313 125.3125 157.835938 124.089844 160.027344 C 122.867188 157.828125 118.699219 155.8125 118.691406 153.046875 C 118.691406 151.734375 119.898438 150.671875 121.394531 150.671875 C 122.882813 150.671875 124.089844 151.734375 124.089844 153.046875 C 124.089844 151.734375 125.296875 150.671875 126.792969 150.671875 C 128.289063 150.671875 129.488281 151.734375 129.488281 153.046875 Z M 129.488281 153.046875 "/>
<path style=" stroke:none;fill-rule:nonzero;fill:rgb(0%,0%,0%);fill-opacity:1;" d="M 28.550781 45.566406 C 31.753906 45.566406 33.445313 42.152344 34.328125 38.734375 C 35.210938 35.320313 35.285156 31.902344 35.285156 31.902344 L 36.917969 31.882813 C 36.917969 31.882813 37.226563 45.566406 43.636719 45.566406 Z M 28.550781 45.566406 "/>
<path style=" stroke:none;fill-rule:nonzero;fill:rgb(0%,0%,0%);fill-opacity:1;" d="M 23.117188 31.882813 C 23.136719 25.222656 33.136719 20.386719 36.074219 15.128906 C 39.011719 20.40625 49.007813 25.242188 49.027344 31.882813 C 49.027344 35.03125 46.132813 37.585938 42.539063 37.585938 C 38.972656 37.585938 36.074219 35.03125 36.074219 31.882813 C 36.074219 35.03125 33.175781 37.585938 29.585938 37.585938 C 25.996094 37.585938 23.117188 35.03125 23.117188 31.882813 Z M 23.117188 31.882813 "/>
<path style=" stroke:none;fill-rule:nonzero;fill:rgb(0%,0%,0%);fill-opacity:1;" d="M 28.550781 88.878906 C 31.753906 88.878906 33.445313 85.460938 34.328125 82.042969 C 35.210938 78.628906 35.285156 75.210938 35.285156 75.210938 L 36.917969 75.191406 C 36.917969 75.191406 37.226563 88.878906 43.636719 88.878906 Z M 28.550781 88.878906 "/>
<path style=" stroke:none;fill-rule:nonzero;fill:rgb(0%,0%,0%);fill-opacity:1;" d="M 23.117188 75.191406 C 23.136719 68.53125 33.136719 63.695313 36.074219 58.4375 C 39.011719 63.714844 49.007813 68.550781 49.027344 75.191406 C 49.027344 78.339844 46.132813 80.890625 42.539063 80.890625 C 38.972656 80.890625 36.074219 78.339844 36.074219 75.191406 C 36.074219 78.339844 33.175781 80.890625 29.585938 80.890625 C 25.996094 80.890625 23.117188 78.339844 23.117188 75.191406 Z M 23.117188 75.191406 "/>
<path style=" stroke:none;fill-rule:nonzero;fill:rgb(0%,0%,0%);fill-opacity:1;" d="M 43.597656 102.550781 C 40.390625 102.550781 38.703125 105.964844 37.820313 109.382813 C 36.9375 112.800781 36.859375 116.214844 36.859375 116.214844 L 35.230469 116.234375 C 35.230469 116.234375 34.921875 102.550781 28.511719 102.550781 Z M 43.597656 102.550781 "/>
<path style=" stroke:none;fill-rule:nonzero;fill:rgb(0%,0%,0%);fill-opacity:1;" d="M 49.027344 116.234375 C 49.011719 122.894531 39.011719 127.730469 36.074219 132.988281 C 33.136719 127.710938 23.136719 122.875 23.117188 116.234375 C 23.117188 113.085938 26.015625 110.535156 29.605469 110.535156 C 33.175781 110.535156 36.074219 113.085938 36.074219 116.234375 C 36.074219 113.085938 38.972656 110.535156 42.5625 110.535156 C 46.148438 110.535156 49.027344 113.085938 49.027344 116.234375 Z M 49.027344 116.234375 "/>
<path style=" stroke:none;fill-rule:nonzero;fill:rgb(0%,0%,0%);fill-opacity:1;" d="M 43.597656 145.859375 C 40.390625 145.859375 38.703125 149.273438 37.820313 152.691406 C 36.9375 156.105469 36.859375 159.523438 36.859375 159.523438 L 35.230469 159.542969 C 35.230469 159.542969 34.921875 145.859375 28.511719 145.859375 Z M 43.597656 145.859375 "/>
<path style=" stroke:none;fill-rule:nonzero;fill:rgb(0%,0%,0%);fill-opacity:1;" d="M 49.027344 159.542969 C 49.011719 166.203125 39.011719 171.039063 36.074219 176.296875 C 33.136719 171.019531 23.136719 166.183594 23.117188 159.542969 C 23.117188 156.394531 26.015625 153.84375 29.605469 153.84375 C 33.175781 153.84375 36.074219 156.394531 36.074219 159.542969 C 36.074219 156.394531 38.972656 153.84375 42.5625 153.84375 C 46.148438 153.84375 49.027344 156.394531 49.027344 159.542969 Z M 49.027344 159.542969 "/>
<path style=" stroke:none;fill-rule:nonzero;fill:rgb(0%,0%,0%);fill-opacity:1;" d="M 92.414063 45.566406 C 95.617188 45.566406 97.308594 42.152344 98.191406 38.734375 C 99.074219 35.320313 99.148438 31.902344 99.148438 31.902344 L 100.78125 31.882813 C 100.78125 31.882813 101.089844 45.566406 107.496094 45.566406 Z M 92.414063 45.566406 "/>
<path style=" stroke:none;fill-rule:nonzero;fill:rgb(0%,0%,0%);fill-opacity:1;" d="M 86.980469 31.882813 C 87 25.222656 97 20.386719 99.9375 15.128906 C 102.871094 20.40625 112.871094 25.242188 112.890625 31.882813 C 112.890625 35.03125 109.992188 37.585938 106.402344 37.585938 C 102.835938 37.585938 99.9375 35.03125 99.9375 31.882813 C 99.9375 35.03125 97.039063 37.585938 93.449219 37.585938 C 89.859375 37.585938 86.980469 35.03125 86.980469 31.882813 Z M 86.980469 31.882813 "/>
<path style=" stroke:none;fill-rule:nonzero;fill:rgb(0%,0%,0%);fill-opacity:1;" d="M 92.414063 88.878906 C 95.617188 88.878906 97.308594 85.460938 98.191406 82.042969 C 99.074219 78.628906 99.148438 75.210938 99.148438 75.210938 L 100.78125 75.191406 C 100.78125 75.191406 101.089844 88.878906 107.496094 88.878906 Z M 92.414063 88.878906 "/>
<path style=" stroke:none;fill-rule:nonzero;fill:rgb(0%,0%,0%);fill-opacity:1;" d="M 86.980469 75.191406 C 87 68.53125 97 63.695313 99.9375 58.4375 C 102.871094 63.714844 112.871094 68.550781 112.890625 75.191406 C 112.890625 78.339844 109.992188 80.890625 106.402344 80.890625 C 102.835938 80.890625 99.9375 78.339844 99.9375 75.191406 C 99.9375 78.339844 97.039063 80.890625 93.449219 80.890625 C 89.859375 80.890625 86.980469 78.339844 86.980469 75.191406 Z M 86.980469 75.191406 "/>
<path style=" stroke:none;fill-rule:nonzero;fill:rgb(0%,0%,0%);fill-opacity:1;" d="M 107.460938 102.550781 C 104.253906 102.550781 102.566406 105.964844 101.683594 109.382813 C 100.800781 112.800781 100.722656 116.214844 100.722656 116.214844 L 99.09375 116.234375 C 99.09375 116.234375 98.785156 102.550781 92.375 102.550781 Z M 107.460938 102.550781 "/>
<path style=" stroke:none;fill-rule:nonzero;fill:rgb(0%,0%,0%);fill-opacity:1;" d="M 112.890625 116.234375 C 112.871094 122.894531 102.871094 127.730469 99.9375 132.988281 C 97 127.710938 87 122.875 86.980469 116.234375 C 86.980469 113.085938 89.878906 110.535156 93.46875 110.535156 C 97.039063 110.535156 99.9375 113.085938 99.9375 116.234375 C 99.9375 113.085938 102.835938 110.535156 106.421875 110.535156 C 110.011719 110.535156 112.890625 113.085938 112.890625 116.234375 Z M 112.890625 116.234375 "/>
<path style=" stroke:none;fill-rule:nonzero;fill:rgb(0%,0%,0%);fill-opacity:1;" d="M 107.460938 145.859375 C 104.253906 145.859375 102.566406 149.273438 101.683594 152.691406 C 100.800781 156.105469 100.722656 159.523438 100.722656 159.523438 L 99.09375 159.542969 C 99.09375 159.542969 98.785156 145.859375 92.375 145.859375 Z M 107.460938 145.859375 "/>
<path style=" stroke:none;fill-rule:nonzero;fill:rgb(0%,0%,0%);fill-opacity:1;" d="M 112.890625 159.542969 C 112.871094 166.203125 102.871094 171.039063 99.9375 176.296875 C 97 171.019531 87 166.183594 86.980469 159.542969 C 86.980469 156.394531 89.878906 153.84375 93.46875 153.84375 C 97.039063 153.84375 99.9375 156.394531 99.9375 159.542969 C 99.9375 156.394531 102.835938 153.84375 106.421875 153.84375 C 110.011719 153.84375 112.890625 156.394531 112.890625 159.542969 Z M 112.890625 159.542969 "/>
<path style=" stroke:none;fill-rule:nonzero;fill:rgb(0%,0%,0%);fill-opacity:1;" d="M 60.480469 67.222656 C 63.6875 67.222656 65.375 63.808594 66.257813 60.390625 C 67.140625 56.976563 67.21875 53.558594 67.21875 53.558594 L 68.847656 53.539063 C 68.847656 53.539063 69.15625 67.222656 75.566406 67.222656 Z M 60.480469 67.222656 "/>
<path style=" stroke:none;fill-rule:nonzero;fill:rgb(0%,0%,0%);fill-opacity:1;" d="M 55.050781 53.539063 C 55.070313 46.878906 65.066406 42.042969 68.003906 36.785156 C 70.941406 42.0625 80.941406 46.898438 80.960938 53.539063 C 80.960938 56.6875 78.0625 59.238281 74.472656 59.238281 C 70.902344 59.238281 68.003906 56.6875 68.003906 53.539063 C 68.003906 56.6875 65.105469 59.238281 61.519531 59.238281 C 57.929688 59.238281 55.050781 56.6875 55.050781 53.539063 Z M 55.050781 53.539063 "/>
</g>
</svg>
