<?xml version="1.0" encoding="UTF-8"?>
<svg xmlns="http://www.w3.org/2000/svg" xmlns:xlink="http://www.w3.org/1999/xlink" width="135.21pt" height="195.639pt" viewBox="0 0 135.21 195.639" version="1.1">
<g id="surface1">
<path style=" stroke:none;fill-rule:nonzero;fill:rgb(100%,100%,100%);fill-opacity:1;" d="M 1 189.097656 C 1 192.121094 3.472656 194.589844 6.492188 194.589844 L 128.722656 194.589844 C 131.738281 194.589844 134.210938 192.121094 134.210938 189.097656 L 134.210938 6.445313 C 134.210938 3.421875 131.738281 0.949219 128.722656 0.949219 L 6.492188 0.949219 C 3.472656 0.949219 1 3.421875 1 6.445313 Z M 1 189.097656 "/>
<path style="fill:none;stroke-width:1.999;stroke-linecap:butt;stroke-linejoin:miter;stroke:rgb(0%,0%,0%);stroke-opacity:1;stroke-miterlimit:10;" d="M 1 6.541344 C 1 3.517906 3.472656 1.049156 6.492188 1.049156 L 128.722656 1.049156 C 131.738281 1.049156 134.210938 3.517906 134.210938 6.541344 L 134.210938 189.193687 C 134.210938 192.217125 131.738281 194.689781 128.722656 194.689781 L 6.492188 194.689781 C 3.472656 194.689781 1 192.217125 1 189.193687 Z M 1 6.541344 " transform="matrix(1,0,0,-1,0,195.639)"/>
<path style=" stroke:none;fill-rule:nonzero;fill:rgb(86.29303%,23.658752%,16.767883%);fill-opacity:1;" d="M 5.71875 29.863281 L 5.71875 27.714844 L 7.238281 27.714844 L 7.238281 6.265625 L 5.550781 9.535156 L 5.550781 6.886719 L 7.582031 2.875 L 9.289063 2.875 L 9.289063 27.714844 L 10.8125 27.714844 L 10.8125 29.863281 L 5.71875 29.863281 "/>
<path style=" stroke:none;fill-rule:nonzero;fill:rgb(86.29303%,23.658752%,16.767883%);fill-opacity:1;" d="M 15.773438 28.300781 C 16.207031 28.300781 16.503906 27.65625 16.660156 26.363281 C 16.824219 25.074219 16.90625 21.832031 16.90625 16.636719 C 16.90625 11.476563 16.824219 8.238281 16.660156 6.925781 C 16.503906 5.609375 16.207031 4.953125 15.773438 4.953125 C 15.339844 4.953125 15.042969 5.597656 14.878906 6.886719 C 14.71875 8.179688 14.640625 11.425781 14.640625 16.636719 C 14.640625 21.832031 14.71875 25.074219 14.878906 26.363281 C 15.042969 27.65625 15.339844 28.300781 15.773438 28.300781 M 15.773438 30.378906 C 14.691406 30.378906 13.867188 29.199219 13.292969 26.84375 C 12.71875 24.476563 12.429688 21.074219 12.429688 16.636719 C 12.429688 12.195313 12.71875 8.792969 13.292969 6.425781 C 13.867188 4.058594 14.691406 2.875 15.773438 2.875 C 16.847656 2.875 17.675781 4.058594 18.246094 6.425781 C 18.820313 8.792969 19.109375 12.195313 19.109375 16.636719 C 19.109375 21.074219 18.820313 24.476563 18.246094 26.84375 C 17.675781 29.199219 16.847656 30.378906 15.773438 30.378906 "/>
<path style=" stroke:none;fill-rule:nonzero;fill:rgb(86.29303%,23.658752%,16.767883%);fill-opacity:1;" d="M 130.292969 164.882813 L 130.292969 167.03125 L 128.777344 167.03125 L 128.777344 188.476563 L 130.460938 185.210938 L 130.460938 187.855469 L 128.429688 191.867188 L 126.722656 191.867188 L 126.722656 167.03125 L 125.199219 167.03125 L 125.199219 164.882813 L 130.292969 164.882813 "/>
<path style=" stroke:none;fill-rule:nonzero;fill:rgb(86.29303%,23.658752%,16.767883%);fill-opacity:1;" d="M 120.238281 166.445313 C 119.808594 166.445313 119.511719 167.089844 119.351563 168.378906 C 119.1875 169.671875 119.109375 172.914063 119.109375 178.109375 C 119.109375 183.269531 119.1875 186.507813 119.351563 187.820313 C 119.511719 189.136719 119.808594 189.792969 120.238281 189.792969 C 120.671875 189.792969 120.972656 189.148438 121.132813 187.855469 C 121.292969 186.566406 121.371094 183.316406 121.371094 178.109375 C 121.371094 172.914063 121.292969 169.671875 121.132813 168.378906 C 120.972656 167.089844 120.671875 166.445313 120.238281 166.445313 M 120.238281 164.367188 C 121.320313 164.367188 122.148438 165.546875 122.722656 167.898438 C 123.296875 170.269531 123.582031 173.671875 123.582031 178.109375 C 123.582031 182.546875 123.296875 185.949219 122.722656 188.316406 C 122.148438 190.683594 121.320313 191.867188 120.238281 191.867188 C 119.164063 191.867188 118.339844 190.683594 117.765625 188.316406 C 117.191406 185.949219 116.902344 182.546875 116.902344 178.109375 C 116.902344 173.671875 117.191406 170.269531 117.765625 167.898438 C 118.339844 165.546875 119.164063 164.367188 120.238281 164.367188 "/>
<path style=" stroke:none;fill-rule:nonzero;fill:rgb(86.29303%,23.658752%,16.767883%);fill-opacity:1;" d="M 11.921875 41.058594 C 13.972656 41.058594 16.019531 41.058594 18.066406 41.058594 C 17.367188 41.027344 16.769531 40.574219 16.207031 40.199219 C 14.945313 39.246094 13.761719 38.15625 12.828125 36.878906 C 12.394531 36.234375 11.933594 35.511719 11.921875 34.710938 M 18.066406 41.058594 C 17.175781 41.085938 16.417969 41.652344 15.742188 42.171875 C 14.546875 43.175781 13.511719 44.371094 12.640625 45.660156 C 12.316406 46.195313 11.941406 46.765625 11.921875 47.40625 C 11.921875 45.289063 11.921875 43.175781 11.921875 41.058594 M 11.921875 47.40625 C 11.894531 46.464844 11.316406 45.644531 10.773438 44.914063 C 9.804688 43.703125 8.65625 42.636719 7.390625 41.742188 C 6.902344 41.4375 6.378906 41.074219 5.78125 41.058594 C 7.828125 41.058594 9.875 41.058594 11.921875 41.058594 M 5.78125 41.058594 C 6.667969 41.03125 7.425781 40.464844 8.105469 39.945313 C 9.300781 38.941406 10.335938 37.746094 11.207031 36.453125 C 11.527344 35.921875 11.90625 35.351563 11.921875 34.710938 C 11.921875 36.824219 11.921875 38.941406 11.921875 41.058594 "/>
<path style=" stroke:none;fill-rule:nonzero;fill:rgb(86.29303%,23.658752%,16.767883%);fill-opacity:1;" d="M 124.097656 153.6875 C 122.050781 153.6875 120.003906 153.6875 117.957031 153.6875 C 118.65625 153.71875 119.25 154.171875 119.8125 154.542969 C 121.074219 155.496094 122.257813 156.589844 123.191406 157.867188 C 123.628906 158.511719 124.085938 159.234375 124.097656 160.035156 M 117.957031 153.6875 C 118.84375 153.65625 119.601563 153.09375 120.277344 152.570313 C 121.472656 151.566406 122.507813 150.375 123.382813 149.082031 C 123.703125 148.546875 124.078125 147.980469 124.097656 147.335938 C 124.097656 149.453125 124.097656 151.570313 124.097656 153.6875 M 124.097656 147.335938 C 124.128906 148.28125 124.703125 149.101563 125.246094 149.832031 C 126.21875 151.039063 127.363281 152.105469 128.628906 153 C 129.121094 153.308594 129.640625 153.671875 130.238281 153.6875 C 128.191406 153.6875 126.144531 153.6875 124.097656 153.6875 M 130.238281 153.6875 C 129.351563 153.714844 128.59375 154.277344 127.917969 154.800781 C 126.722656 155.804688 125.6875 156.996094 124.8125 158.289063 C 124.492188 158.824219 124.117188 159.390625 124.097656 160.035156 C 124.097656 157.917969 124.097656 155.804688 124.097656 153.6875 "/>
<path style=" stroke:none;fill-rule:nonzero;fill:rgb(86.29303%,23.658752%,16.767883%);fill-opacity:1;" d="M 36.078125 30.347656 C 40.992188 30.347656 45.90625 30.347656 50.816406 30.347656 C 49.140625 30.273438 47.710938 29.1875 46.363281 28.289063 C 43.332031 26.003906 40.492188 23.382813 38.25 20.3125 C 37.203125 18.769531 36.105469 17.035156 36.078125 15.109375 M 50.816406 30.347656 C 48.6875 30.414063 46.867188 31.769531 45.246094 33.023438 C 42.375 35.429688 39.890625 38.296875 37.796875 41.398438 C 37.027344 42.683594 36.121094 44.042969 36.078125 45.589844 C 36.078125 40.507813 36.078125 35.429688 36.078125 30.347656 M 36.078125 45.589844 C 36.003906 43.320313 34.621094 41.355469 33.316406 39.597656 C 30.992188 36.699219 28.234375 34.136719 25.203125 31.992188 C 24.023438 31.257813 22.773438 30.382813 21.339844 30.347656 C 26.25 30.347656 31.164063 30.347656 36.078125 30.347656 M 21.339844 30.347656 C 23.46875 30.28125 25.289063 28.925781 26.910156 27.675781 C 29.78125 25.265625 32.265625 22.402344 34.359375 19.300781 C 35.128906 18.015625 36.035156 16.652344 36.078125 15.109375 C 36.078125 20.191406 36.078125 25.269531 36.078125 30.347656 "/>
<path style=" stroke:none;fill-rule:nonzero;fill:rgb(86.29303%,23.658752%,16.767883%);fill-opacity:1;" d="M 36.078125 73.65625 C 40.992188 73.65625 45.90625 73.65625 50.816406 73.65625 C 49.140625 73.582031 47.710938 72.496094 46.363281 71.597656 C 43.332031 69.3125 40.492188 66.691406 38.25 63.621094 C 37.203125 62.078125 36.105469 60.34375 36.078125 58.417969 M 50.816406 73.65625 C 48.6875 73.722656 46.867188 75.078125 45.246094 76.332031 C 42.375 78.738281 39.890625 81.605469 37.796875 84.707031 C 37.027344 85.992188 36.121094 87.351563 36.078125 88.894531 C 36.078125 83.816406 36.078125 78.738281 36.078125 73.65625 M 36.078125 88.894531 C 36.003906 86.628906 34.621094 84.660156 33.316406 82.90625 C 30.992188 80.011719 28.234375 77.445313 25.203125 75.300781 C 24.023438 74.566406 22.773438 73.691406 21.339844 73.65625 C 26.25 73.65625 31.164063 73.65625 36.078125 73.65625 M 21.339844 73.65625 C 23.46875 73.589844 25.289063 72.234375 26.910156 70.984375 C 29.78125 68.574219 32.265625 65.710938 34.359375 62.609375 C 35.128906 61.324219 36.035156 59.964844 36.078125 58.417969 C 36.078125 63.496094 36.078125 68.578125 36.078125 73.65625 "/>
<path style=" stroke:none;fill-rule:nonzero;fill:rgb(86.29303%,23.658752%,16.767883%);fill-opacity:1;" d="M 36.078125 117.769531 C 31.164063 117.769531 26.25 117.769531 21.339844 117.769531 C 23.015625 117.84375 24.445313 118.929688 25.796875 119.828125 C 28.824219 122.113281 31.664063 124.734375 33.90625 127.804688 C 34.949219 129.347656 36.050781 131.082031 36.078125 133.007813 M 21.339844 117.769531 C 23.46875 117.703125 25.289063 116.347656 26.910156 115.09375 C 29.78125 112.6875 32.265625 109.820313 34.359375 106.71875 C 35.128906 105.4375 36.035156 104.074219 36.078125 102.53125 C 36.078125 107.609375 36.078125 112.6875 36.078125 117.769531 M 36.078125 102.53125 C 36.152344 104.796875 37.53125 106.765625 38.839844 108.519531 C 41.164063 111.414063 43.921875 113.980469 46.953125 116.125 C 48.132813 116.859375 49.382813 117.734375 50.816406 117.769531 C 45.90625 117.769531 40.992188 117.769531 36.078125 117.769531 M 50.816406 117.769531 C 48.6875 117.835938 46.867188 119.191406 45.246094 120.441406 C 42.375 122.851563 39.890625 125.71875 37.796875 128.816406 C 37.027344 130.101563 36.121094 131.464844 36.078125 133.007813 C 36.078125 127.929688 36.078125 122.847656 36.078125 117.769531 "/>
<path style=" stroke:none;fill-rule:nonzero;fill:rgb(86.29303%,23.658752%,16.767883%);fill-opacity:1;" d="M 36.078125 161.078125 C 31.164063 161.078125 26.25 161.078125 21.339844 161.078125 C 23.015625 161.152344 24.445313 162.238281 25.796875 163.136719 C 28.824219 165.421875 31.664063 168.046875 33.90625 171.113281 C 34.949219 172.65625 36.050781 174.390625 36.078125 176.316406 M 21.339844 161.078125 C 23.46875 161.011719 25.289063 159.65625 26.910156 158.402344 C 29.78125 155.996094 32.265625 153.128906 34.359375 150.027344 C 35.128906 148.742188 36.035156 147.382813 36.078125 145.839844 C 36.078125 150.917969 36.078125 155.996094 36.078125 161.078125 M 36.078125 145.839844 C 36.152344 148.105469 37.53125 150.074219 38.839844 151.828125 C 41.164063 154.726563 43.921875 157.289063 46.953125 159.433594 C 48.132813 160.167969 49.382813 161.042969 50.816406 161.078125 C 45.90625 161.078125 40.992188 161.078125 36.078125 161.078125 M 50.816406 161.078125 C 48.6875 161.144531 46.867188 162.5 45.246094 163.75 C 42.375 166.160156 39.890625 169.023438 37.796875 172.128906 C 37.027344 173.410156 36.121094 174.773438 36.078125 176.316406 C 36.078125 171.238281 36.078125 166.15625 36.078125 161.078125 "/>
<path style=" stroke:none;fill-rule:nonzero;fill:rgb(86.29303%,23.658752%,16.767883%);fill-opacity:1;" d="M 99.941406 30.347656 C 104.851563 30.347656 109.765625 30.347656 114.679688 30.347656 C 113 30.273438 111.574219 29.1875 110.222656 28.289063 C 107.191406 26.003906 104.355469 23.382813 102.113281 20.3125 C 101.066406 18.769531 99.96875 17.035156 99.941406 15.109375 M 114.679688 30.347656 C 112.550781 30.414063 110.730469 31.769531 109.105469 33.023438 C 106.238281 35.429688 103.753906 38.296875 101.65625 41.398438 C 100.886719 42.683594 99.980469 44.042969 99.941406 45.589844 C 99.941406 40.507813 99.941406 35.429688 99.941406 30.347656 M 99.941406 45.589844 C 99.867188 43.320313 98.484375 41.355469 97.179688 39.597656 C 94.855469 36.699219 92.097656 34.136719 89.066406 31.992188 C 87.886719 31.257813 86.636719 30.382813 85.199219 30.347656 C 90.113281 30.347656 95.027344 30.347656 99.941406 30.347656 M 85.199219 30.347656 C 87.328125 30.28125 89.148438 28.925781 90.773438 27.675781 C 93.644531 25.265625 96.125 22.402344 98.222656 19.300781 C 98.992188 18.015625 99.898438 16.652344 99.941406 15.109375 C 99.941406 20.191406 99.941406 25.269531 99.941406 30.347656 "/>
<path style=" stroke:none;fill-rule:nonzero;fill:rgb(86.29303%,23.658752%,16.767883%);fill-opacity:1;" d="M 99.941406 73.65625 C 104.851563 73.65625 109.765625 73.65625 114.679688 73.65625 C 113 73.582031 111.574219 72.496094 110.222656 71.597656 C 107.191406 69.3125 104.355469 66.691406 102.113281 63.621094 C 101.066406 62.078125 99.96875 60.34375 99.941406 58.417969 M 114.679688 73.65625 C 112.550781 73.722656 110.730469 75.078125 109.105469 76.332031 C 106.238281 78.738281 103.753906 81.605469 101.65625 84.707031 C 100.886719 85.992188 99.980469 87.351563 99.941406 88.894531 C 99.941406 83.816406 99.941406 78.738281 99.941406 73.65625 M 99.941406 88.894531 C 99.867188 86.628906 98.484375 84.660156 97.179688 82.90625 C 94.855469 80.011719 92.097656 77.445313 89.066406 75.300781 C 87.886719 74.566406 86.636719 73.691406 85.199219 73.65625 C 90.113281 73.65625 95.027344 73.65625 99.941406 73.65625 M 85.199219 73.65625 C 87.328125 73.589844 89.148438 72.234375 90.773438 70.984375 C 93.644531 68.574219 96.125 65.710938 98.222656 62.609375 C 98.992188 61.324219 99.898438 59.964844 99.941406 58.417969 C 99.941406 63.496094 99.941406 68.578125 99.941406 73.65625 "/>
<path style=" stroke:none;fill-rule:nonzero;fill:rgb(86.29303%,23.658752%,16.767883%);fill-opacity:1;" d="M 99.941406 117.769531 C 95.027344 117.769531 90.113281 117.769531 85.199219 117.769531 C 86.878906 117.84375 88.308594 118.929688 89.65625 119.828125 C 92.6875 122.113281 95.527344 124.734375 97.769531 127.804688 C 98.8125 129.347656 99.914063 131.082031 99.941406 133.007813 M 85.199219 117.769531 C 87.332031 117.703125 89.148438 116.347656 90.773438 115.09375 C 93.644531 112.6875 96.128906 109.820313 98.222656 106.71875 C 98.992188 105.4375 99.898438 104.074219 99.941406 102.53125 C 99.941406 107.609375 99.941406 112.6875 99.941406 117.769531 M 99.941406 102.53125 C 100.011719 104.796875 101.394531 106.765625 102.699219 108.519531 C 105.027344 111.414063 107.78125 113.980469 110.816406 116.125 C 111.992188 116.859375 113.246094 117.734375 114.679688 117.769531 C 109.765625 117.769531 104.855469 117.769531 99.941406 117.769531 M 114.679688 117.769531 C 112.550781 117.835938 110.730469 119.191406 109.105469 120.441406 C 106.238281 122.851563 103.753906 125.71875 101.65625 128.816406 C 100.886719 130.101563 99.984375 131.464844 99.941406 133.007813 C 99.941406 127.929688 99.941406 122.847656 99.941406 117.769531 "/>
<path style=" stroke:none;fill-rule:nonzero;fill:rgb(86.29303%,23.658752%,16.767883%);fill-opacity:1;" d="M 99.941406 161.078125 C 95.027344 161.078125 90.113281 161.078125 85.199219 161.078125 C 86.878906 161.152344 88.308594 162.238281 89.65625 163.136719 C 92.6875 165.421875 95.527344 168.046875 97.769531 171.113281 C 98.8125 172.65625 99.914063 174.390625 99.941406 176.316406 M 85.199219 161.078125 C 87.332031 161.011719 89.148438 159.65625 90.773438 158.402344 C 93.644531 155.996094 96.128906 153.128906 98.222656 150.027344 C 98.992188 148.742188 99.898438 147.382813 99.941406 145.839844 C 99.941406 150.917969 99.941406 155.996094 99.941406 161.078125 M 99.941406 145.839844 C 100.011719 148.105469 101.394531 150.074219 102.699219 151.828125 C 105.027344 154.726563 107.78125 157.289063 110.816406 159.433594 C 111.992188 160.167969 113.246094 161.042969 114.679688 161.078125 C 109.765625 161.078125 104.855469 161.078125 99.941406 161.078125 M 114.679688 161.078125 C 112.550781 161.144531 110.730469 162.5 109.105469 163.75 C 106.238281 166.160156 103.753906 169.023438 101.65625 172.128906 C 100.886719 173.410156 99.984375 174.773438 99.941406 176.316406 C 99.941406 171.238281 99.941406 166.15625 99.941406 161.078125 "/>
<path style=" stroke:none;fill-rule:nonzero;fill:rgb(86.29303%,23.658752%,16.767883%);fill-opacity:1;" d="M 68.007813 52.003906 C 72.921875 52.003906 77.835938 52.003906 82.75 52.003906 C 81.070313 51.929688 79.640625 50.84375 78.292969 49.945313 C 75.261719 47.65625 72.421875 45.035156 70.179688 41.96875 C 69.136719 40.425781 68.035156 38.691406 68.007813 36.765625 M 82.75 52.003906 C 80.617188 52.070313 78.800781 53.425781 77.175781 54.675781 C 74.304688 57.085938 71.820313 59.949219 69.726563 63.050781 C 68.957031 64.335938 68.050781 65.695313 68.007813 67.242188 C 68.007813 62.160156 68.007813 57.082031 68.007813 52.003906 M 68.007813 67.242188 C 67.9375 64.972656 66.554688 63.007813 65.25 61.253906 C 62.921875 58.355469 60.167969 55.789063 57.132813 53.648438 C 55.957031 52.910156 54.703125 52.039063 53.269531 52.003906 C 58.183594 52.003906 63.09375 52.003906 68.007813 52.003906 M 53.269531 52.003906 C 55.398438 51.9375 57.21875 50.582031 58.84375 49.332031 C 61.710938 46.921875 64.195313 44.054688 66.289063 40.953125 C 67.0625 39.667969 67.964844 38.308594 68.007813 36.765625 C 68.007813 41.84375 68.007813 46.921875 68.007813 52.003906 "/>
<path style=" stroke:none;fill-rule:nonzero;fill:rgb(86.29303%,23.658752%,16.767883%);fill-opacity:1;" d="M 68.007813 139.421875 C 63.097656 139.421875 58.183594 139.421875 53.269531 139.421875 C 54.949219 139.496094 56.375 140.585938 57.726563 141.480469 C 60.757813 143.769531 63.59375 146.390625 65.835938 149.457031 C 66.882813 151 67.980469 152.734375 68.007813 154.664063 M 53.269531 139.421875 C 55.398438 139.355469 57.21875 138 58.84375 136.75 C 61.710938 134.339844 64.195313 131.476563 66.289063 128.375 C 67.0625 127.089844 67.96875 125.730469 68.007813 124.183594 C 68.007813 129.265625 68.007813 134.34375 68.007813 139.421875 M 68.007813 124.183594 C 68.082031 126.453125 69.464844 128.417969 70.769531 130.171875 C 73.09375 133.070313 75.851563 135.636719 78.882813 137.777344 C 80.0625 138.515625 81.3125 139.386719 82.75 139.421875 C 77.835938 139.421875 72.921875 139.421875 68.007813 139.421875 M 82.75 139.421875 C 80.617188 139.492188 78.800781 140.847656 77.175781 142.09375 C 74.304688 144.507813 71.824219 147.371094 69.726563 150.472656 C 68.957031 151.757813 68.050781 153.117188 68.007813 154.664063 C 68.007813 149.582031 68.007813 144.503906 68.007813 139.421875 "/>
</g>
</svg>
