<?xml version="1.0" encoding="UTF-8"?>
<svg xmlns="http://www.w3.org/2000/svg" xmlns:xlink="http://www.w3.org/1999/xlink" width="135.21pt" height="195.639pt" viewBox="0 0 135.21 195.639" version="1.1">
<g id="surface1">
<path style=" stroke:none;fill-rule:nonzero;fill:rgb(100%,100%,100%);fill-opacity:1;" d="M 1 189.097656 C 1 192.121094 3.472656 194.589844 6.492188 194.589844 L 128.722656 194.589844 C 131.738281 194.589844 134.210938 192.121094 134.210938 189.097656 L 134.210938 6.445313 C 134.210938 3.421875 131.738281 0.949219 128.722656 0.949219 L 6.492188 0.949219 C 3.472656 0.949219 1 3.421875 1 6.445313 Z M 1 189.097656 "/>
<path style="fill:none;stroke-width:1.999;stroke-linecap:butt;stroke-linejoin:miter;stroke:rgb(0%,0%,0%);stroke-opacity:1;stroke-miterlimit:10;" d="M 1 6.541344 C 1 3.517906 3.472656 1.049156 6.492188 1.049156 L 128.722656 1.049156 C 131.738281 1.049156 134.210938 3.517906 134.210938 6.541344 L 134.210938 189.193687 C 134.210938 192.217125 131.738281 194.689781 128.722656 194.689781 L 6.492188 194.689781 C 3.472656 194.689781 1 192.217125 1 189.193687 Z M 1 6.541344 " transform="matrix(1,0,0,-1,0,195.639)"/>
<path style=" stroke:none;fill-rule:nonzero;fill:rgb(0%,0%,0%);fill-opacity:1;" d="M 5.71875 29.863281 L 5.71875 27.714844 L 7.238281 27.714844 L 7.238281 6.265625 L 5.550781 9.535156 L 5.550781 6.890625 L 7.582031 2.875 L 9.289063 2.875 L 9.289063 27.714844 L 10.8125 27.714844 L 10.8125 29.863281 L 5.71875 29.863281 "/>
<path style=" stroke:none;fill-rule:nonzero;fill:rgb(0%,0%,0%);fill-opacity:1;" d="M 15.773438 28.300781 C 16.207031 28.300781 16.503906 27.65625 16.660156 26.363281 C 16.824219 25.074219 16.90625 21.832031 16.90625 16.636719 C 16.90625 11.476563 16.824219 8.238281 16.660156 6.925781 C 16.503906 5.609375 16.207031 4.953125 15.773438 4.953125 C 15.339844 4.953125 15.042969 5.597656 14.878906 6.890625 C 14.71875 8.179688 14.640625 11.429688 14.640625 16.636719 C 14.640625 21.832031 14.71875 25.074219 14.878906 26.363281 C 15.042969 27.65625 15.339844 28.300781 15.773438 28.300781 M 15.773438 30.378906 C 14.691406 30.378906 13.867188 29.199219 13.292969 26.84375 C 12.71875 24.476563 12.429688 21.074219 12.429688 16.636719 C 12.429688 12.195313 12.71875 8.792969 13.292969 6.425781 C 13.867188 4.058594 14.691406 2.875 15.773438 2.875 C 16.847656 2.875 17.675781 4.058594 18.246094 6.425781 C 18.820313 8.792969 19.109375 12.195313 19.109375 16.636719 C 19.109375 21.074219 18.820313 24.476563 18.246094 26.84375 C 17.675781 29.199219 16.847656 30.378906 15.773438 30.378906 "/>
<path style=" stroke:none;fill-rule:nonzero;fill:rgb(0%,0%,0%);fill-opacity:1;" d="M 130.292969 164.882813 L 130.292969 167.03125 L 128.777344 167.03125 L 128.777344 188.476563 L 130.460938 185.210938 L 130.460938 187.855469 L 128.429688 191.867188 L 126.722656 191.867188 L 126.722656 167.03125 L 125.199219 167.03125 L 125.199219 164.882813 L 130.292969 164.882813 "/>
<path style=" stroke:none;fill-rule:nonzero;fill:rgb(0%,0%,0%);fill-opacity:1;" d="M 120.238281 166.445313 C 119.808594 166.445313 119.511719 167.089844 119.351563 168.378906 C 119.1875 169.671875 119.109375 172.914063 119.109375 178.109375 C 119.109375 183.269531 119.1875 186.507813 119.351563 187.820313 C 119.511719 189.136719 119.808594 189.792969 120.238281 189.792969 C 120.671875 189.792969 120.972656 189.148438 121.132813 187.855469 C 121.292969 186.566406 121.371094 183.316406 121.371094 178.109375 C 121.371094 172.914063 121.292969 169.671875 121.132813 168.378906 C 120.972656 167.089844 120.671875 166.445313 120.238281 166.445313 M 120.238281 164.367188 C 121.320313 164.367188 122.148438 165.546875 122.722656 167.902344 C 123.296875 170.269531 123.582031 173.671875 123.582031 178.109375 C 123.582031 182.546875 123.296875 185.949219 122.722656 188.316406 C 122.148438 190.6875 121.320313 191.867188 120.238281 191.867188 C 119.164063 191.867188 118.339844 190.6875 117.765625 188.316406 C 117.191406 185.949219 116.902344 182.546875 116.902344 178.109375 C 116.902344 173.671875 117.191406 170.269531 117.765625 167.902344 C 118.339844 165.546875 119.164063 164.367188 120.238281 164.367188 "/>
<path style=" stroke:none;fill-rule:nonzero;fill:rgb(0%,0%,0%);fill-opacity:1;" d="M 8.789063 47.402344 C 10.125 47.402344 10.828125 45.976563 11.195313 44.554688 C 11.5625 43.128906 11.59375 41.707031 11.59375 41.707031 L 12.273438 41.699219 C 12.273438 41.699219 12.402344 47.402344 15.074219 47.402344 Z M 8.789063 47.402344 "/>
<path style=" stroke:none;fill-rule:nonzero;fill:rgb(0%,0%,0%);fill-opacity:1;" d="M 6.523438 41.699219 C 6.53125 38.925781 10.699219 36.90625 11.921875 34.71875 C 13.148438 36.914063 17.3125 38.933594 17.320313 41.699219 C 17.320313 43.011719 16.113281 44.074219 14.617188 44.074219 C 13.132813 44.074219 11.921875 43.011719 11.921875 41.699219 C 11.921875 43.011719 10.714844 44.074219 9.21875 44.074219 C 7.726563 44.074219 6.523438 43.011719 6.523438 41.699219 Z M 6.523438 41.699219 "/>
<path style=" stroke:none;fill-rule:nonzero;fill:rgb(0%,0%,0%);fill-opacity:1;" d="M 127.230469 147.34375 C 125.898438 147.34375 125.191406 148.769531 124.824219 150.191406 C 124.457031 151.613281 124.425781 153.039063 124.425781 153.039063 L 123.746094 153.046875 C 123.746094 153.046875 123.617188 147.34375 120.945313 147.34375 Z M 127.230469 147.34375 "/>
<path style=" stroke:none;fill-rule:nonzero;fill:rgb(0%,0%,0%);fill-opacity:1;" d="M 129.496094 153.046875 C 129.488281 155.820313 125.320313 157.835938 124.097656 160.027344 C 122.875 157.828125 118.707031 155.8125 118.699219 153.046875 C 118.699219 151.734375 119.90625 150.671875 121.402344 150.671875 C 122.890625 150.671875 124.097656 151.734375 124.097656 153.046875 C 124.097656 151.734375 125.304688 150.671875 126.800781 150.671875 C 128.296875 150.671875 129.496094 151.734375 129.496094 153.046875 Z M 129.496094 153.046875 "/>
<path style=" stroke:none;fill-rule:nonzero;fill:rgb(0%,0%,0%);fill-opacity:1;" d="M 28.554688 45.566406 C 31.761719 45.566406 33.449219 42.152344 34.332031 38.734375 C 35.214844 35.320313 35.289063 31.902344 35.289063 31.902344 L 36.921875 31.882813 C 36.921875 31.882813 37.230469 45.566406 43.640625 45.566406 Z M 28.554688 45.566406 "/>
<path style=" stroke:none;fill-rule:nonzero;fill:rgb(0%,0%,0%);fill-opacity:1;" d="M 23.121094 31.882813 C 23.140625 25.222656 33.140625 20.386719 36.078125 15.128906 C 39.015625 20.40625 49.015625 25.242188 49.03125 31.882813 C 49.03125 35.03125 46.136719 37.585938 42.546875 37.585938 C 38.976563 37.585938 36.078125 35.03125 36.078125 31.882813 C 36.078125 35.03125 33.179688 37.585938 29.589844 37.585938 C 26.003906 37.585938 23.121094 35.03125 23.121094 31.882813 Z M 23.121094 31.882813 "/>
<path style=" stroke:none;fill-rule:nonzero;fill:rgb(0%,0%,0%);fill-opacity:1;" d="M 28.554688 88.878906 C 31.761719 88.878906 33.449219 85.460938 34.332031 82.042969 C 35.214844 78.628906 35.289063 75.210938 35.289063 75.210938 L 36.921875 75.191406 C 36.921875 75.191406 37.230469 88.878906 43.640625 88.878906 Z M 28.554688 88.878906 "/>
<path style=" stroke:none;fill-rule:nonzero;fill:rgb(0%,0%,0%);fill-opacity:1;" d="M 23.121094 75.191406 C 23.140625 68.53125 33.140625 63.695313 36.078125 58.4375 C 39.015625 63.714844 49.015625 68.550781 49.03125 75.191406 C 49.03125 78.339844 46.136719 80.890625 42.546875 80.890625 C 38.976563 80.890625 36.078125 78.339844 36.078125 75.191406 C 36.078125 78.339844 33.179688 80.890625 29.589844 80.890625 C 26.003906 80.890625 23.121094 78.339844 23.121094 75.191406 Z M 23.121094 75.191406 "/>
<path style=" stroke:none;fill-rule:nonzero;fill:rgb(0%,0%,0%);fill-opacity:1;" d="M 43.601563 102.550781 C 40.394531 102.550781 38.707031 105.964844 37.824219 109.382813 C 36.941406 112.800781 36.863281 116.214844 36.863281 116.214844 L 35.234375 116.234375 C 35.234375 116.234375 34.925781 102.550781 28.515625 102.550781 Z M 43.601563 102.550781 "/>
<path style=" stroke:none;fill-rule:nonzero;fill:rgb(0%,0%,0%);fill-opacity:1;" d="M 49.03125 116.234375 C 49.015625 122.894531 39.015625 127.730469 36.078125 132.988281 C 33.140625 127.710938 23.140625 122.875 23.121094 116.234375 C 23.121094 113.085938 26.019531 110.535156 29.609375 110.535156 C 33.179688 110.535156 36.078125 113.085938 36.078125 116.234375 C 36.078125 113.085938 38.976563 110.535156 42.566406 110.535156 C 46.152344 110.535156 49.03125 113.085938 49.03125 116.234375 Z M 49.03125 116.234375 "/>
<path style=" stroke:none;fill-rule:nonzero;fill:rgb(0%,0%,0%);fill-opacity:1;" d="M 43.601563 145.859375 C 40.394531 145.859375 38.707031 149.273438 37.824219 152.691406 C 36.941406 156.105469 36.863281 159.523438 36.863281 159.523438 L 35.234375 159.542969 C 35.234375 159.542969 34.925781 145.859375 28.515625 145.859375 Z M 43.601563 145.859375 "/>
<path style=" stroke:none;fill-rule:nonzero;fill:rgb(0%,0%,0%);fill-opacity:1;" d="M 49.03125 159.542969 C 49.015625 166.203125 39.015625 171.039063 36.078125 176.296875 C 33.140625 171.019531 23.140625 166.183594 23.121094 159.542969 C 23.121094 156.394531 26.019531 153.84375 29.609375 153.84375 C 33.179688 153.84375 36.078125 156.394531 36.078125 159.542969 C 36.078125 156.394531 38.976563 153.84375 42.566406 153.84375 C 46.152344 153.84375 49.03125 156.394531 49.03125 159.542969 Z M 49.03125 159.542969 "/>
<path style=" stroke:none;fill-rule:nonzero;fill:rgb(0%,0%,0%);fill-opacity:1;" d="M 92.414063 45.566406 C 95.621094 45.566406 97.3125 42.152344 98.195313 38.734375 C 99.074219 35.320313 99.152344 31.902344 99.152344 31.902344 L 100.785156 31.882813 C 100.785156 31.882813 101.09375 45.566406 107.503906 45.566406 Z M 92.414063 45.566406 "/>
<path style=" stroke:none;fill-rule:nonzero;fill:rgb(0%,0%,0%);fill-opacity:1;" d="M 86.984375 31.882813 C 87.003906 25.222656 97.003906 20.386719 99.941406 15.128906 C 102.878906 20.40625 112.875 25.242188 112.894531 31.882813 C 112.894531 35.03125 109.996094 37.585938 106.40625 37.585938 C 102.839844 37.585938 99.941406 35.03125 99.941406 31.882813 C 99.941406 35.03125 97.042969 37.585938 93.453125 37.585938 C 89.863281 37.585938 86.984375 35.03125 86.984375 31.882813 Z M 86.984375 31.882813 "/>
<path style=" stroke:none;fill-rule:nonzero;fill:rgb(0%,0%,0%);fill-opacity:1;" d="M 92.414063 88.878906 C 95.621094 88.878906 97.3125 85.460938 98.195313 82.042969 C 99.074219 78.628906 99.152344 75.210938 99.152344 75.210938 L 100.785156 75.191406 C 100.785156 75.191406 101.09375 88.878906 107.503906 88.878906 Z M 92.414063 88.878906 "/>
<path style=" stroke:none;fill-rule:nonzero;fill:rgb(0%,0%,0%);fill-opacity:1;" d="M 86.984375 75.191406 C 87.003906 68.53125 97.003906 63.695313 99.941406 58.4375 C 102.878906 63.714844 112.875 68.550781 112.894531 75.191406 C 112.894531 78.339844 109.996094 80.890625 106.40625 80.890625 C 102.839844 80.890625 99.941406 78.339844 99.941406 75.191406 C 99.941406 78.339844 97.042969 80.890625 93.453125 80.890625 C 89.863281 80.890625 86.984375 78.339844 86.984375 75.191406 Z M 86.984375 75.191406 "/>
<path style=" stroke:none;fill-rule:nonzero;fill:rgb(0%,0%,0%);fill-opacity:1;" d="M 107.464844 102.550781 C 104.257813 102.550781 102.570313 105.964844 101.6875 109.382813 C 100.804688 112.800781 100.726563 116.214844 100.726563 116.214844 L 99.097656 116.234375 C 99.097656 116.234375 98.789063 102.550781 92.378906 102.550781 Z M 107.464844 102.550781 "/>
<path style=" stroke:none;fill-rule:nonzero;fill:rgb(0%,0%,0%);fill-opacity:1;" d="M 112.894531 116.234375 C 112.875 122.894531 102.878906 127.730469 99.941406 132.988281 C 97.003906 127.710938 87.003906 122.875 86.984375 116.234375 C 86.984375 113.085938 89.882813 110.535156 93.472656 110.535156 C 97.042969 110.535156 99.941406 113.085938 99.941406 116.234375 C 99.941406 113.085938 102.839844 110.535156 106.425781 110.535156 C 110.015625 110.535156 112.894531 113.085938 112.894531 116.234375 Z M 112.894531 116.234375 "/>
<path style=" stroke:none;fill-rule:nonzero;fill:rgb(0%,0%,0%);fill-opacity:1;" d="M 107.464844 145.859375 C 104.257813 145.859375 102.570313 149.273438 101.6875 152.691406 C 100.804688 156.105469 100.726563 159.523438 100.726563 159.523438 L 99.097656 159.542969 C 99.097656 159.542969 98.789063 145.859375 92.378906 145.859375 Z M 107.464844 145.859375 "/>
<path style=" stroke:none;fill-rule:nonzero;fill:rgb(0%,0%,0%);fill-opacity:1;" d="M 112.894531 159.542969 C 112.875 166.203125 102.878906 171.039063 99.941406 176.296875 C 97.003906 171.019531 87.003906 166.183594 86.984375 159.542969 C 86.984375 156.394531 89.882813 153.84375 93.472656 153.84375 C 97.042969 153.84375 99.941406 156.394531 99.941406 159.542969 C 99.941406 156.394531 102.839844 153.84375 106.425781 153.84375 C 110.015625 153.84375 112.894531 156.394531 112.894531 159.542969 Z M 112.894531 159.542969 "/>
<path style=" stroke:none;fill-rule:nonzero;fill:rgb(0%,0%,0%);fill-opacity:1;" d="M 60.484375 67.222656 C 63.691406 67.222656 65.378906 63.808594 66.261719 60.390625 C 67.144531 56.976563 67.222656 53.558594 67.222656 53.558594 L 68.851563 53.539063 C 68.851563 53.539063 69.160156 67.222656 75.570313 67.222656 Z M 60.484375 67.222656 "/>
<path style=" stroke:none;fill-rule:nonzero;fill:rgb(0%,0%,0%);fill-opacity:1;" d="M 55.054688 53.539063 C 55.074219 46.878906 65.070313 42.042969 68.007813 36.785156 C 70.945313 42.0625 80.945313 46.898438 80.964844 53.539063 C 80.964844 56.6875 78.066406 59.238281 74.476563 59.238281 C 70.90625 59.238281 68.007813 56.6875 68.007813 53.539063 C 68.007813 56.6875 65.109375 59.238281 61.523438 59.238281 C 57.933594 59.238281 55.054688 56.6875 55.054688 53.539063 Z M 55.054688 53.539063 "/>
<path style=" stroke:none;fill-rule:nonzero;fill:rgb(0%,0%,0%);fill-opacity:1;" d="M 75.53125 124.203125 C 72.328125 124.203125 70.636719 127.621094 69.757813 131.035156 C 68.871094 134.453125 68.796875 137.867188 68.796875 137.867188 L 67.164063 137.886719 C 67.164063 137.886719 66.855469 124.203125 60.445313 124.203125 Z M 75.53125 124.203125 "/>
<path style=" stroke:none;fill-rule:nonzero;fill:rgb(0%,0%,0%);fill-opacity:1;" d="M 80.964844 137.886719 C 80.945313 144.546875 70.945313 149.382813 68.007813 154.644531 C 65.074219 149.363281 55.074219 144.527344 55.054688 137.886719 C 55.054688 134.738281 57.953125 132.1875 61.539063 132.1875 C 65.109375 132.1875 68.007813 134.738281 68.007813 137.886719 C 68.007813 134.738281 70.90625 132.1875 74.496094 132.1875 C 78.085938 132.1875 80.964844 134.738281 80.964844 137.886719 Z M 80.964844 137.886719 "/>
</g>
</svg>
