<?xml version="1.0" encoding="UTF-8"?>
<svg xmlns="http://www.w3.org/2000/svg" xmlns:xlink="http://www.w3.org/1999/xlink" width="135.21pt" height="195.639pt" viewBox="0 0 135.21 195.639" version="1.1">
<g id="surface1">
<path style=" stroke:none;fill-rule:nonzero;fill:rgb(100%,100%,100%);fill-opacity:1;" d="M 1 189.097656 C 1 192.121094 3.472656 194.59375 6.492188 194.59375 L 128.722656 194.59375 C 131.738281 194.59375 134.210938 192.121094 134.210938 189.097656 L 134.210938 6.445313 C 134.210938 3.421875 131.738281 0.953125 128.722656 0.953125 L 6.492188 0.953125 C 3.472656 0.953125 1 3.421875 1 6.445313 Z M 1 189.097656 "/>
<path style="fill:none;stroke-width:1.999;stroke-linecap:butt;stroke-linejoin:miter;stroke:rgb(0%,0%,0%);stroke-opacity:1;stroke-miterlimit:10;" d="M 1 6.541344 C 1 3.517906 3.472656 1.04525 6.492188 1.04525 L 128.722656 1.04525 C 131.738281 1.04525 134.210938 3.517906 134.210938 6.541344 L 134.210938 189.193687 C 134.210938 192.217125 131.738281 194.685875 128.722656 194.685875 L 6.492188 194.685875 C 3.472656 194.685875 1 192.217125 1 189.193687 Z M 1 6.541344 " transform="matrix(1,0,0,-1,0,195.639)"/>
<path style=" stroke:none;fill-rule:nonzero;fill:rgb(0%,0%,0%);fill-opacity:1;" d="M 5.71875 29.863281 L 5.71875 27.714844 L 7.238281 27.714844 L 7.238281 6.265625 L 5.550781 9.535156 L 5.550781 6.890625 L 7.582031 2.875 L 9.289063 2.875 L 9.289063 27.714844 L 10.8125 27.714844 L 10.8125 29.863281 L 5.71875 29.863281 "/>
<path style=" stroke:none;fill-rule:nonzero;fill:rgb(0%,0%,0%);fill-opacity:1;" d="M 15.773438 28.300781 C 16.207031 28.300781 16.503906 27.65625 16.660156 26.367188 C 16.824219 25.074219 16.90625 21.832031 16.90625 16.636719 C 16.90625 11.476563 16.824219 8.238281 16.660156 6.925781 C 16.503906 5.609375 16.207031 4.953125 15.773438 4.953125 C 15.339844 4.953125 15.042969 5.597656 14.878906 6.890625 C 14.71875 8.179688 14.640625 11.429688 14.640625 16.636719 C 14.640625 21.832031 14.71875 25.074219 14.878906 26.367188 C 15.042969 27.65625 15.339844 28.300781 15.773438 28.300781 M 15.773438 30.378906 C 14.691406 30.378906 13.867188 29.199219 13.292969 26.84375 C 12.71875 24.476563 12.429688 21.074219 12.429688 16.636719 C 12.429688 12.199219 12.71875 8.796875 13.292969 6.425781 C 13.867188 4.058594 14.691406 2.875 15.773438 2.875 C 16.847656 2.875 17.675781 4.058594 18.246094 6.425781 C 18.820313 8.796875 19.109375 12.199219 19.109375 16.636719 C 19.109375 21.074219 18.820313 24.476563 18.246094 26.84375 C 17.675781 29.199219 16.847656 30.378906 15.773438 30.378906 "/>
<path style=" stroke:none;fill-rule:nonzero;fill:rgb(0%,0%,0%);fill-opacity:1;" d="M 130.292969 164.882813 L 130.292969 167.03125 L 128.777344 167.03125 L 128.777344 188.476563 L 130.460938 185.210938 L 130.460938 187.855469 L 128.429688 191.871094 L 126.722656 191.871094 L 126.722656 167.03125 L 125.199219 167.03125 L 125.199219 164.882813 L 130.292969 164.882813 "/>
<path style=" stroke:none;fill-rule:nonzero;fill:rgb(0%,0%,0%);fill-opacity:1;" d="M 120.238281 166.445313 C 119.808594 166.445313 119.511719 167.089844 119.351563 168.378906 C 119.1875 169.671875 119.109375 172.914063 119.109375 178.109375 C 119.109375 183.269531 119.1875 186.507813 119.351563 187.820313 C 119.511719 189.136719 119.808594 189.792969 120.238281 189.792969 C 120.671875 189.792969 120.972656 189.148438 121.132813 187.855469 C 121.292969 186.566406 121.371094 183.316406 121.371094 178.109375 C 121.371094 172.914063 121.292969 169.671875 121.132813 168.378906 C 120.972656 167.089844 120.671875 166.445313 120.238281 166.445313 M 120.238281 164.367188 C 121.320313 164.367188 122.148438 165.546875 122.722656 167.902344 C 123.296875 170.269531 123.582031 173.671875 123.582031 178.109375 C 123.582031 182.546875 123.296875 185.949219 122.722656 188.320313 C 122.148438 190.6875 121.320313 191.871094 120.238281 191.871094 C 119.164063 191.871094 118.339844 190.6875 117.765625 188.320313 C 117.191406 185.949219 116.902344 182.546875 116.902344 178.109375 C 116.902344 173.671875 117.191406 170.269531 117.765625 167.902344 C 118.339844 165.546875 119.164063 164.367188 120.238281 164.367188 "/>
<path style=" stroke:none;fill-rule:nonzero;fill:rgb(0%,0%,0%);fill-opacity:1;" d="M 9.242188 37.332031 C 9.242188 38.78125 10.453125 39.953125 11.945313 39.953125 C 13.441406 39.953125 14.648438 38.78125 14.648438 37.332031 C 14.648438 35.886719 13.441406 34.710938 11.945313 34.710938 C 10.453125 34.710938 9.242188 35.886719 9.242188 37.332031 Z M 9.242188 37.332031 "/>
<path style=" stroke:none;fill-rule:nonzero;fill:rgb(0%,0%,0%);fill-opacity:1;" d="M 5.757813 42.300781 C 5.757813 43.746094 6.964844 44.921875 8.460938 44.921875 C 9.957031 44.921875 11.164063 43.746094 11.164063 42.300781 C 11.164063 40.851563 9.957031 39.675781 8.460938 39.675781 C 6.964844 39.675781 5.757813 40.851563 5.757813 42.300781 Z M 5.757813 42.300781 "/>
<path style=" stroke:none;fill-rule:nonzero;fill:rgb(0%,0%,0%);fill-opacity:1;" d="M 12.683594 42.316406 C 12.683594 42.84375 12.84375 43.339844 13.121094 43.753906 C 13.601563 44.464844 14.441406 44.9375 15.386719 44.9375 C 16.882813 44.9375 18.089844 43.761719 18.089844 42.316406 C 18.089844 40.867188 16.882813 39.691406 15.386719 39.691406 C 13.890625 39.691406 12.683594 40.867188 12.683594 42.316406 Z M 12.683594 42.316406 "/>
<path style=" stroke:none;fill-rule:nonzero;fill:rgb(0%,0%,0%);fill-opacity:1;" d="M 8.773438 47.410156 C 10.109375 47.410156 10.8125 46.320313 11.179688 45.234375 C 11.546875 44.144531 11.578125 43.058594 11.578125 43.058594 L 12.265625 43.058594 C 12.265625 43.058594 12.394531 47.402344 15.066406 47.410156 Z M 8.773438 47.410156 "/>
<path style=" stroke:none;fill-rule:nonzero;fill:rgb(0%,0%,0%);fill-opacity:1;" d="M 13.777344 39.261719 C 12.257813 40.777344 12.257813 43.058594 12.257813 43.058594 L 11.578125 43.066406 C 11.578125 43.066406 11.578125 40.738281 10.101563 39.261719 "/>
<path style=" stroke:none;fill-rule:nonzero;fill:rgb(0%,0%,0%);fill-opacity:1;" d="M 13.476563 44.136719 C 11.953125 42.617188 9.675781 42.617188 9.675781 42.617188 L 9.675781 41.9375 C 9.675781 41.9375 12.003906 41.9375 13.484375 40.460938 "/>
<path style=" stroke:none;fill-rule:nonzero;fill:rgb(0%,0%,0%);fill-opacity:1;" d="M 10.429688 44.144531 C 11.945313 42.628906 14.226563 42.628906 14.226563 42.628906 L 14.226563 41.945313 C 14.226563 41.945313 11.898438 41.945313 10.421875 40.46875 "/>
<path style=" stroke:none;fill-rule:nonzero;fill:rgb(0%,0%,0%);fill-opacity:1;" d="M 126.777344 157.414063 C 126.777344 155.964844 125.570313 154.789063 124.074219 154.789063 C 122.578125 154.789063 121.371094 155.964844 121.371094 157.414063 C 121.371094 158.859375 122.578125 160.035156 124.074219 160.035156 C 125.570313 160.035156 126.777344 158.859375 126.777344 157.414063 Z M 126.777344 157.414063 "/>
<path style=" stroke:none;fill-rule:nonzero;fill:rgb(0%,0%,0%);fill-opacity:1;" d="M 130.261719 152.445313 C 130.261719 151 129.054688 149.824219 127.558594 149.824219 C 126.066406 149.824219 124.855469 151 124.855469 152.445313 C 124.855469 153.894531 126.066406 155.070313 127.558594 155.070313 C 129.054688 155.070313 130.261719 153.894531 130.261719 152.445313 Z M 130.261719 152.445313 "/>
<path style=" stroke:none;fill-rule:nonzero;fill:rgb(0%,0%,0%);fill-opacity:1;" d="M 123.339844 152.429688 C 123.339844 151.902344 123.179688 151.40625 122.898438 150.992188 C 122.417969 150.28125 121.578125 149.808594 120.636719 149.808594 C 119.140625 149.808594 117.933594 150.984375 117.933594 152.429688 C 117.933594 153.878906 119.140625 155.054688 120.636719 155.054688 C 122.128906 155.054688 123.339844 153.878906 123.339844 152.429688 Z M 123.339844 152.429688 "/>
<path style=" stroke:none;fill-rule:nonzero;fill:rgb(0%,0%,0%);fill-opacity:1;" d="M 127.246094 147.335938 C 125.914063 147.335938 125.210938 148.425781 124.839844 149.511719 C 124.472656 150.601563 124.441406 151.6875 124.441406 151.6875 L 123.753906 151.6875 C 123.753906 151.6875 123.625 147.34375 120.953125 147.335938 Z M 127.246094 147.335938 "/>
<path style=" stroke:none;fill-rule:nonzero;fill:rgb(0%,0%,0%);fill-opacity:1;" d="M 122.242188 155.484375 C 123.761719 153.96875 123.761719 151.6875 123.761719 151.6875 L 124.441406 151.679688 C 124.441406 151.679688 124.441406 154.007813 125.921875 155.484375 "/>
<path style=" stroke:none;fill-rule:nonzero;fill:rgb(0%,0%,0%);fill-opacity:1;" d="M 122.546875 150.609375 C 124.066406 152.128906 126.34375 152.128906 126.34375 152.128906 L 126.34375 152.808594 C 126.34375 152.808594 124.019531 152.808594 122.539063 154.285156 "/>
<path style=" stroke:none;fill-rule:nonzero;fill:rgb(0%,0%,0%);fill-opacity:1;" d="M 125.59375 150.601563 C 124.074219 152.117188 121.792969 152.117188 121.792969 152.117188 L 121.792969 152.800781 C 121.792969 152.800781 124.121094 152.800781 125.601563 154.277344 "/>
<path style=" stroke:none;fill-rule:nonzero;fill:rgb(0%,0%,0%);fill-opacity:1;" d="M 29.648438 21.40625 C 29.648438 24.878906 32.546875 27.699219 36.136719 27.699219 C 39.726563 27.699219 42.621094 24.878906 42.621094 21.40625 C 42.621094 17.929688 39.726563 15.109375 36.136719 15.109375 C 32.546875 15.109375 29.648438 17.929688 29.648438 21.40625 Z M 29.648438 21.40625 "/>
<path style=" stroke:none;fill-rule:nonzero;fill:rgb(0%,0%,0%);fill-opacity:1;" d="M 21.28125 33.324219 C 21.28125 36.796875 24.179688 39.617188 27.769531 39.617188 C 31.355469 39.617188 34.253906 36.796875 34.253906 33.324219 C 34.253906 29.851563 31.355469 27.027344 27.769531 27.027344 C 24.179688 27.027344 21.28125 29.851563 21.28125 33.324219 Z M 21.28125 33.324219 "/>
<path style=" stroke:none;fill-rule:nonzero;fill:rgb(0%,0%,0%);fill-opacity:1;" d="M 37.902344 33.363281 C 37.902344 34.628906 38.285156 35.820313 38.957031 36.816406 C 40.109375 38.523438 42.125 39.65625 44.390625 39.65625 C 47.976563 39.65625 50.875 36.835938 50.875 33.363281 C 50.875 29.886719 47.976563 27.066406 44.390625 27.066406 C 40.800781 27.066406 37.902344 29.886719 37.902344 33.363281 Z M 37.902344 33.363281 "/>
<path style=" stroke:none;fill-rule:nonzero;fill:rgb(0%,0%,0%);fill-opacity:1;" d="M 28.515625 45.589844 C 31.722656 45.589844 33.410156 42.976563 34.292969 40.367188 C 35.175781 37.757813 35.253906 35.148438 35.253906 35.148438 L 36.902344 35.148438 C 36.902344 35.148438 37.210938 45.570313 43.621094 45.589844 Z M 28.515625 45.589844 "/>
<path style=" stroke:none;fill-rule:nonzero;fill:rgb(0%,0%,0%);fill-opacity:1;" d="M 40.53125 26.03125 C 36.882813 29.675781 36.882813 35.148438 36.882813 35.148438 L 35.253906 35.164063 C 35.253906 35.164063 35.253906 29.582031 31.703125 26.03125 "/>
<path style=" stroke:none;fill-rule:nonzero;fill:rgb(0%,0%,0%);fill-opacity:1;" d="M 39.800781 37.738281 C 36.15625 34.089844 30.683594 34.089844 30.683594 34.089844 L 30.683594 32.460938 C 30.683594 32.460938 36.269531 32.460938 39.820313 28.910156 "/>
<path style=" stroke:none;fill-rule:nonzero;fill:rgb(0%,0%,0%);fill-opacity:1;" d="M 32.488281 37.757813 C 36.136719 34.109375 41.605469 34.109375 41.605469 34.109375 L 41.605469 32.480469 C 41.605469 32.480469 36.019531 32.480469 32.46875 28.929688 "/>
<path style=" stroke:none;fill-rule:nonzero;fill:rgb(0%,0%,0%);fill-opacity:1;" d="M 29.648438 64.714844 C 29.648438 68.1875 32.546875 71.007813 36.136719 71.007813 C 39.726563 71.007813 42.621094 68.1875 42.621094 64.714844 C 42.621094 61.238281 39.726563 58.417969 36.136719 58.417969 C 32.546875 58.417969 29.648438 61.238281 29.648438 64.714844 Z M 29.648438 64.714844 "/>
<path style=" stroke:none;fill-rule:nonzero;fill:rgb(0%,0%,0%);fill-opacity:1;" d="M 21.28125 76.632813 C 21.28125 80.105469 24.179688 82.929688 27.769531 82.929688 C 31.355469 82.929688 34.253906 80.105469 34.253906 76.632813 C 34.253906 73.160156 31.355469 70.335938 27.769531 70.335938 C 24.179688 70.335938 21.28125 73.160156 21.28125 76.632813 Z M 21.28125 76.632813 "/>
<path style=" stroke:none;fill-rule:nonzero;fill:rgb(0%,0%,0%);fill-opacity:1;" d="M 37.902344 76.671875 C 37.902344 77.9375 38.285156 79.128906 38.957031 80.125 C 40.109375 81.835938 42.125 82.964844 44.390625 82.964844 C 47.976563 82.964844 50.875 80.144531 50.875 76.671875 C 50.875 73.195313 47.976563 70.375 44.390625 70.375 C 40.800781 70.375 37.902344 73.195313 37.902344 76.671875 Z M 37.902344 76.671875 "/>
<path style=" stroke:none;fill-rule:nonzero;fill:rgb(0%,0%,0%);fill-opacity:1;" d="M 28.515625 88.898438 C 31.722656 88.898438 33.410156 86.285156 34.292969 83.675781 C 35.175781 81.066406 35.253906 78.457031 35.253906 78.457031 L 36.902344 78.457031 C 36.902344 78.457031 37.210938 88.878906 43.621094 88.898438 Z M 28.515625 88.898438 "/>
<path style=" stroke:none;fill-rule:nonzero;fill:rgb(0%,0%,0%);fill-opacity:1;" d="M 40.53125 69.339844 C 36.882813 72.984375 36.882813 78.457031 36.882813 78.457031 L 35.253906 78.476563 C 35.253906 78.476563 35.253906 72.890625 31.703125 69.339844 "/>
<path style=" stroke:none;fill-rule:nonzero;fill:rgb(0%,0%,0%);fill-opacity:1;" d="M 39.800781 81.046875 C 36.15625 77.398438 30.683594 77.398438 30.683594 77.398438 L 30.683594 75.769531 C 30.683594 75.769531 36.269531 75.769531 39.820313 72.21875 "/>
<path style=" stroke:none;fill-rule:nonzero;fill:rgb(0%,0%,0%);fill-opacity:1;" d="M 32.488281 81.066406 C 36.136719 77.417969 41.605469 77.417969 41.605469 77.417969 L 41.605469 75.789063 C 41.605469 75.789063 36.019531 75.789063 32.46875 72.238281 "/>
<path style=" stroke:none;fill-rule:nonzero;fill:rgb(0%,0%,0%);fill-opacity:1;" d="M 42.507813 126.714844 C 42.507813 123.238281 39.609375 120.417969 36.019531 120.417969 C 32.429688 120.417969 29.53125 123.238281 29.53125 126.714844 C 29.53125 130.1875 32.429688 133.007813 36.019531 133.007813 C 39.609375 133.007813 42.507813 130.1875 42.507813 126.714844 Z M 42.507813 126.714844 "/>
<path style=" stroke:none;fill-rule:nonzero;fill:rgb(0%,0%,0%);fill-opacity:1;" d="M 50.875 114.792969 C 50.875 111.320313 47.976563 108.5 44.390625 108.5 C 40.800781 108.5 37.902344 111.320313 37.902344 114.792969 C 37.902344 118.269531 40.800781 121.089844 44.390625 121.089844 C 47.976563 121.089844 50.875 118.269531 50.875 114.792969 Z M 50.875 114.792969 "/>
<path style=" stroke:none;fill-rule:nonzero;fill:rgb(0%,0%,0%);fill-opacity:1;" d="M 34.253906 114.757813 C 34.253906 113.488281 33.871094 112.300781 33.199219 111.300781 C 32.046875 109.59375 30.03125 108.460938 27.769531 108.460938 C 24.179688 108.460938 21.28125 111.28125 21.28125 114.757813 C 21.28125 118.230469 24.179688 121.050781 27.769531 121.050781 C 31.355469 121.050781 34.253906 118.230469 34.253906 114.757813 Z M 34.253906 114.757813 "/>
<path style=" stroke:none;fill-rule:nonzero;fill:rgb(0%,0%,0%);fill-opacity:1;" d="M 43.640625 102.53125 C 40.433594 102.53125 38.746094 105.140625 37.863281 107.75 C 36.980469 110.359375 36.902344 112.972656 36.902344 112.972656 L 35.253906 112.972656 C 35.253906 112.972656 34.945313 102.550781 28.535156 102.53125 Z M 43.640625 102.53125 "/>
<path style=" stroke:none;fill-rule:nonzero;fill:rgb(0%,0%,0%);fill-opacity:1;" d="M 31.625 122.085938 C 35.273438 118.441406 35.273438 112.972656 35.273438 112.972656 L 36.902344 112.953125 C 36.902344 112.953125 36.902344 118.535156 40.453125 122.085938 "/>
<path style=" stroke:none;fill-rule:nonzero;fill:rgb(0%,0%,0%);fill-opacity:1;" d="M 32.355469 110.378906 C 36 114.027344 41.472656 114.027344 41.472656 114.027344 L 41.472656 115.65625 C 41.472656 115.65625 35.886719 115.65625 32.335938 119.210938 "/>
<path style=" stroke:none;fill-rule:nonzero;fill:rgb(0%,0%,0%);fill-opacity:1;" d="M 39.667969 110.359375 C 36.019531 114.007813 30.550781 114.007813 30.550781 114.007813 L 30.550781 115.640625 C 30.550781 115.640625 36.136719 115.640625 39.6875 119.1875 "/>
<path style=" stroke:none;fill-rule:nonzero;fill:rgb(0%,0%,0%);fill-opacity:1;" d="M 42.507813 170.023438 C 42.507813 166.546875 39.609375 163.726563 36.019531 163.726563 C 32.429688 163.726563 29.53125 166.546875 29.53125 170.023438 C 29.53125 173.496094 32.429688 176.316406 36.019531 176.316406 C 39.609375 176.316406 42.507813 173.496094 42.507813 170.023438 Z M 42.507813 170.023438 "/>
<path style=" stroke:none;fill-rule:nonzero;fill:rgb(0%,0%,0%);fill-opacity:1;" d="M 50.875 158.101563 C 50.875 154.628906 47.976563 151.808594 44.390625 151.808594 C 40.800781 151.808594 37.902344 154.628906 37.902344 158.101563 C 37.902344 161.578125 40.800781 164.398438 44.390625 164.398438 C 47.976563 164.398438 50.875 161.578125 50.875 158.101563 Z M 50.875 158.101563 "/>
<path style=" stroke:none;fill-rule:nonzero;fill:rgb(0%,0%,0%);fill-opacity:1;" d="M 34.253906 158.066406 C 34.253906 156.796875 33.871094 155.609375 33.199219 154.609375 C 32.046875 152.902344 30.03125 151.769531 27.769531 151.769531 C 24.179688 151.769531 21.28125 154.589844 21.28125 158.066406 C 21.28125 161.539063 24.179688 164.359375 27.769531 164.359375 C 31.355469 164.359375 34.253906 161.539063 34.253906 158.066406 Z M 34.253906 158.066406 "/>
<path style=" stroke:none;fill-rule:nonzero;fill:rgb(0%,0%,0%);fill-opacity:1;" d="M 43.640625 145.839844 C 40.433594 145.839844 38.746094 148.449219 37.863281 151.058594 C 36.980469 153.671875 36.902344 156.28125 36.902344 156.28125 L 35.253906 156.28125 C 35.253906 156.28125 34.945313 145.859375 28.535156 145.839844 Z M 43.640625 145.839844 "/>
<path style=" stroke:none;fill-rule:nonzero;fill:rgb(0%,0%,0%);fill-opacity:1;" d="M 31.625 165.394531 C 35.273438 161.75 35.273438 156.28125 35.273438 156.28125 L 36.902344 156.261719 C 36.902344 156.261719 36.902344 161.847656 40.453125 165.394531 "/>
<path style=" stroke:none;fill-rule:nonzero;fill:rgb(0%,0%,0%);fill-opacity:1;" d="M 32.355469 153.6875 C 36 157.335938 41.472656 157.335938 41.472656 157.335938 L 41.472656 158.96875 C 41.472656 158.96875 35.886719 158.96875 32.335938 162.515625 "/>
<path style=" stroke:none;fill-rule:nonzero;fill:rgb(0%,0%,0%);fill-opacity:1;" d="M 39.667969 153.671875 C 36.019531 157.316406 30.550781 157.316406 30.550781 157.316406 L 30.550781 158.949219 C 30.550781 158.949219 36.136719 158.949219 39.6875 162.496094 "/>
<path style=" stroke:none;fill-rule:nonzero;fill:rgb(0%,0%,0%);fill-opacity:1;" d="M 93.511719 21.40625 C 93.511719 24.878906 96.410156 27.699219 99.996094 27.699219 C 103.585938 27.699219 106.484375 24.878906 106.484375 21.40625 C 106.484375 17.929688 103.585938 15.109375 99.996094 15.109375 C 96.410156 15.109375 93.511719 17.929688 93.511719 21.40625 Z M 93.511719 21.40625 "/>
<path style=" stroke:none;fill-rule:nonzero;fill:rgb(0%,0%,0%);fill-opacity:1;" d="M 85.140625 33.324219 C 85.140625 36.796875 88.039063 39.617188 91.628906 39.617188 C 95.21875 39.617188 98.117188 36.796875 98.117188 33.324219 C 98.117188 29.851563 95.21875 27.027344 91.628906 27.027344 C 88.039063 27.027344 85.140625 29.851563 85.140625 33.324219 Z M 85.140625 33.324219 "/>
<path style=" stroke:none;fill-rule:nonzero;fill:rgb(0%,0%,0%);fill-opacity:1;" d="M 101.761719 33.363281 C 101.761719 34.628906 102.148438 35.820313 102.820313 36.816406 C 103.972656 38.523438 105.984375 39.65625 108.25 39.65625 C 111.839844 39.65625 114.738281 36.835938 114.738281 33.363281 C 114.738281 29.886719 111.839844 27.066406 108.25 27.066406 C 104.660156 27.066406 101.761719 29.886719 101.761719 33.363281 Z M 101.761719 33.363281 "/>
<path style=" stroke:none;fill-rule:nonzero;fill:rgb(0%,0%,0%);fill-opacity:1;" d="M 92.378906 45.589844 C 95.582031 45.589844 97.273438 42.976563 98.15625 40.367188 C 99.039063 37.757813 99.113281 35.148438 99.113281 35.148438 L 100.765625 35.148438 C 100.765625 35.148438 101.070313 45.570313 107.484375 45.589844 Z M 92.378906 45.589844 "/>
<path style=" stroke:none;fill-rule:nonzero;fill:rgb(0%,0%,0%);fill-opacity:1;" d="M 104.394531 26.03125 C 100.746094 29.675781 100.746094 35.148438 100.746094 35.148438 L 99.113281 35.164063 C 99.113281 35.164063 99.113281 29.582031 95.5625 26.03125 "/>
<path style=" stroke:none;fill-rule:nonzero;fill:rgb(0%,0%,0%);fill-opacity:1;" d="M 103.664063 37.738281 C 100.015625 34.089844 94.546875 34.089844 94.546875 34.089844 L 94.546875 32.460938 C 94.546875 32.460938 100.132813 32.460938 103.683594 28.910156 "/>
<path style=" stroke:none;fill-rule:nonzero;fill:rgb(0%,0%,0%);fill-opacity:1;" d="M 96.351563 37.757813 C 99.996094 34.109375 105.46875 34.109375 105.46875 34.109375 L 105.46875 32.480469 C 105.46875 32.480469 99.882813 32.480469 96.332031 28.929688 "/>
<path style=" stroke:none;fill-rule:nonzero;fill:rgb(0%,0%,0%);fill-opacity:1;" d="M 93.511719 64.714844 C 93.511719 68.1875 96.410156 71.007813 99.996094 71.007813 C 103.585938 71.007813 106.484375 68.1875 106.484375 64.714844 C 106.484375 61.238281 103.585938 58.417969 99.996094 58.417969 C 96.410156 58.417969 93.511719 61.238281 93.511719 64.714844 Z M 93.511719 64.714844 "/>
<path style=" stroke:none;fill-rule:nonzero;fill:rgb(0%,0%,0%);fill-opacity:1;" d="M 85.140625 76.632813 C 85.140625 80.105469 88.039063 82.929688 91.628906 82.929688 C 95.21875 82.929688 98.117188 80.105469 98.117188 76.632813 C 98.117188 73.160156 95.21875 70.335938 91.628906 70.335938 C 88.039063 70.335938 85.140625 73.160156 85.140625 76.632813 Z M 85.140625 76.632813 "/>
<path style=" stroke:none;fill-rule:nonzero;fill:rgb(0%,0%,0%);fill-opacity:1;" d="M 101.761719 76.671875 C 101.761719 77.9375 102.148438 79.128906 102.820313 80.125 C 103.972656 81.835938 105.984375 82.964844 108.25 82.964844 C 111.839844 82.964844 114.738281 80.144531 114.738281 76.671875 C 114.738281 73.195313 111.839844 70.375 108.25 70.375 C 104.660156 70.375 101.761719 73.195313 101.761719 76.671875 Z M 101.761719 76.671875 "/>
<path style=" stroke:none;fill-rule:nonzero;fill:rgb(0%,0%,0%);fill-opacity:1;" d="M 92.378906 88.898438 C 95.582031 88.898438 97.273438 86.285156 98.15625 83.675781 C 99.039063 81.066406 99.113281 78.457031 99.113281 78.457031 L 100.765625 78.457031 C 100.765625 78.457031 101.070313 88.878906 107.484375 88.898438 Z M 92.378906 88.898438 "/>
<path style=" stroke:none;fill-rule:nonzero;fill:rgb(0%,0%,0%);fill-opacity:1;" d="M 104.394531 69.339844 C 100.746094 72.984375 100.746094 78.457031 100.746094 78.457031 L 99.113281 78.476563 C 99.113281 78.476563 99.113281 72.890625 95.5625 69.339844 "/>
<path style=" stroke:none;fill-rule:nonzero;fill:rgb(0%,0%,0%);fill-opacity:1;" d="M 103.664063 81.046875 C 100.015625 77.398438 94.546875 77.398438 94.546875 77.398438 L 94.546875 75.769531 C 94.546875 75.769531 100.132813 75.769531 103.683594 72.21875 "/>
<path style=" stroke:none;fill-rule:nonzero;fill:rgb(0%,0%,0%);fill-opacity:1;" d="M 96.351563 81.066406 C 99.996094 77.417969 105.46875 77.417969 105.46875 77.417969 L 105.46875 75.789063 C 105.46875 75.789063 99.882813 75.789063 96.332031 72.238281 "/>
<path style=" stroke:none;fill-rule:nonzero;fill:rgb(0%,0%,0%);fill-opacity:1;" d="M 106.371094 126.714844 C 106.371094 123.238281 103.472656 120.417969 99.882813 120.417969 C 96.292969 120.417969 93.394531 123.238281 93.394531 126.714844 C 93.394531 130.1875 96.292969 133.007813 99.882813 133.007813 C 103.472656 133.007813 106.371094 130.1875 106.371094 126.714844 Z M 106.371094 126.714844 "/>
<path style=" stroke:none;fill-rule:nonzero;fill:rgb(0%,0%,0%);fill-opacity:1;" d="M 114.738281 114.792969 C 114.738281 111.320313 111.839844 108.5 108.25 108.5 C 104.660156 108.5 101.765625 111.320313 101.765625 114.792969 C 101.765625 118.269531 104.660156 121.089844 108.25 121.089844 C 111.839844 121.089844 114.738281 118.269531 114.738281 114.792969 Z M 114.738281 114.792969 "/>
<path style=" stroke:none;fill-rule:nonzero;fill:rgb(0%,0%,0%);fill-opacity:1;" d="M 98.117188 114.757813 C 98.117188 113.488281 97.734375 112.300781 97.0625 111.300781 C 95.910156 109.59375 93.894531 108.460938 91.628906 108.460938 C 88.039063 108.460938 85.144531 111.28125 85.144531 114.757813 C 85.144531 118.230469 88.039063 121.050781 91.628906 121.050781 C 95.21875 121.050781 98.117188 118.230469 98.117188 114.757813 Z M 98.117188 114.757813 "/>
<path style=" stroke:none;fill-rule:nonzero;fill:rgb(0%,0%,0%);fill-opacity:1;" d="M 107.503906 102.53125 C 104.296875 102.53125 102.609375 105.140625 101.726563 107.75 C 100.84375 110.359375 100.765625 112.972656 100.765625 112.972656 L 99.113281 112.972656 C 99.113281 112.972656 98.808594 102.550781 92.398438 102.53125 Z M 107.503906 102.53125 "/>
<path style=" stroke:none;fill-rule:nonzero;fill:rgb(0%,0%,0%);fill-opacity:1;" d="M 95.488281 122.085938 C 99.132813 118.441406 99.132813 112.972656 99.132813 112.972656 L 100.765625 112.953125 C 100.765625 112.953125 100.765625 118.535156 104.316406 122.085938 "/>
<path style=" stroke:none;fill-rule:nonzero;fill:rgb(0%,0%,0%);fill-opacity:1;" d="M 96.21875 110.378906 C 99.863281 114.027344 105.335938 114.027344 105.335938 114.027344 L 105.335938 115.65625 C 105.335938 115.65625 99.746094 115.65625 96.199219 119.210938 "/>
<path style=" stroke:none;fill-rule:nonzero;fill:rgb(0%,0%,0%);fill-opacity:1;" d="M 103.527344 110.359375 C 99.882813 114.007813 94.414063 114.007813 94.414063 114.007813 L 94.414063 115.640625 C 94.414063 115.640625 99.996094 115.640625 103.550781 119.1875 "/>
<path style=" stroke:none;fill-rule:nonzero;fill:rgb(0%,0%,0%);fill-opacity:1;" d="M 106.371094 170.023438 C 106.371094 166.546875 103.472656 163.726563 99.882813 163.726563 C 96.292969 163.726563 93.394531 166.546875 93.394531 170.023438 C 93.394531 173.496094 96.292969 176.316406 99.882813 176.316406 C 103.472656 176.316406 106.371094 173.496094 106.371094 170.023438 Z M 106.371094 170.023438 "/>
<path style=" stroke:none;fill-rule:nonzero;fill:rgb(0%,0%,0%);fill-opacity:1;" d="M 114.738281 158.101563 C 114.738281 154.628906 111.839844 151.808594 108.25 151.808594 C 104.660156 151.808594 101.765625 154.628906 101.765625 158.101563 C 101.765625 161.578125 104.660156 164.398438 108.25 164.398438 C 111.839844 164.398438 114.738281 161.578125 114.738281 158.101563 Z M 114.738281 158.101563 "/>
<path style=" stroke:none;fill-rule:nonzero;fill:rgb(0%,0%,0%);fill-opacity:1;" d="M 98.117188 158.066406 C 98.117188 156.796875 97.734375 155.609375 97.0625 154.609375 C 95.910156 152.902344 93.894531 151.769531 91.628906 151.769531 C 88.039063 151.769531 85.144531 154.589844 85.144531 158.066406 C 85.144531 161.539063 88.039063 164.359375 91.628906 164.359375 C 95.21875 164.359375 98.117188 161.539063 98.117188 158.066406 Z M 98.117188 158.066406 "/>
<path style=" stroke:none;fill-rule:nonzero;fill:rgb(0%,0%,0%);fill-opacity:1;" d="M 107.503906 145.839844 C 104.296875 145.839844 102.609375 148.449219 101.726563 151.058594 C 100.84375 153.671875 100.765625 156.28125 100.765625 156.28125 L 99.113281 156.28125 C 99.113281 156.28125 98.808594 145.859375 92.398438 145.839844 Z M 107.503906 145.839844 "/>
<path style=" stroke:none;fill-rule:nonzero;fill:rgb(0%,0%,0%);fill-opacity:1;" d="M 95.488281 165.394531 C 99.132813 161.75 99.132813 156.28125 99.132813 156.28125 L 100.765625 156.261719 C 100.765625 156.261719 100.765625 161.847656 104.316406 165.394531 "/>
<path style=" stroke:none;fill-rule:nonzero;fill:rgb(0%,0%,0%);fill-opacity:1;" d="M 96.21875 153.6875 C 99.863281 157.335938 105.335938 157.335938 105.335938 157.335938 L 105.335938 158.96875 C 105.335938 158.96875 99.746094 158.96875 96.199219 162.515625 "/>
<path style=" stroke:none;fill-rule:nonzero;fill:rgb(0%,0%,0%);fill-opacity:1;" d="M 103.527344 153.671875 C 99.882813 157.316406 94.414063 157.316406 94.414063 157.316406 L 94.414063 158.949219 C 94.414063 158.949219 99.996094 158.949219 103.550781 162.496094 "/>
<path style=" stroke:none;fill-rule:nonzero;fill:rgb(0%,0%,0%);fill-opacity:1;" d="M 61.578125 43.058594 C 61.578125 46.53125 64.476563 49.355469 68.066406 49.355469 C 71.65625 49.355469 74.554688 46.53125 74.554688 43.058594 C 74.554688 39.585938 71.65625 36.765625 68.066406 36.765625 C 64.476563 36.765625 61.578125 39.585938 61.578125 43.058594 Z M 61.578125 43.058594 "/>
<path style=" stroke:none;fill-rule:nonzero;fill:rgb(0%,0%,0%);fill-opacity:1;" d="M 53.210938 54.976563 C 53.210938 58.453125 56.109375 61.273438 59.699219 61.273438 C 63.285156 61.273438 66.1875 58.453125 66.1875 54.976563 C 66.1875 51.503906 63.285156 48.683594 59.699219 48.683594 C 56.109375 48.683594 53.210938 51.503906 53.210938 54.976563 Z M 53.210938 54.976563 "/>
<path style=" stroke:none;fill-rule:nonzero;fill:rgb(0%,0%,0%);fill-opacity:1;" d="M 69.832031 55.015625 C 69.832031 56.28125 70.214844 57.472656 70.886719 58.472656 C 72.039063 60.179688 74.054688 61.3125 76.320313 61.3125 C 79.90625 61.3125 82.808594 58.488281 82.808594 55.015625 C 82.808594 51.542969 79.90625 48.722656 76.320313 48.722656 C 72.730469 48.722656 69.832031 51.542969 69.832031 55.015625 Z M 69.832031 55.015625 "/>
<path style=" stroke:none;fill-rule:nonzero;fill:rgb(0%,0%,0%);fill-opacity:1;" d="M 60.445313 67.242188 C 63.652344 67.242188 65.339844 64.632813 66.222656 62.023438 C 67.105469 59.410156 67.183594 56.800781 67.183594 56.800781 L 68.835938 56.800781 C 68.835938 56.800781 69.140625 67.222656 75.550781 67.242188 Z M 60.445313 67.242188 "/>
<path style=" stroke:none;fill-rule:nonzero;fill:rgb(0%,0%,0%);fill-opacity:1;" d="M 72.460938 47.683594 C 68.816406 51.332031 68.816406 56.800781 68.816406 56.800781 L 67.183594 56.820313 C 67.183594 56.820313 67.183594 51.234375 63.632813 47.683594 "/>
<path style=" stroke:none;fill-rule:nonzero;fill:rgb(0%,0%,0%);fill-opacity:1;" d="M 71.730469 59.394531 C 68.085938 55.746094 62.617188 55.746094 62.617188 55.746094 L 62.617188 54.113281 C 62.617188 54.113281 68.199219 54.113281 71.75 50.5625 "/>
<path style=" stroke:none;fill-rule:nonzero;fill:rgb(0%,0%,0%);fill-opacity:1;" d="M 64.421875 59.410156 C 68.066406 55.765625 73.535156 55.765625 73.535156 55.765625 L 73.535156 54.132813 C 73.535156 54.132813 67.949219 54.132813 64.402344 50.582031 "/>
<path style=" stroke:none;fill-rule:nonzero;fill:rgb(0%,0%,0%);fill-opacity:1;" d="M 74.4375 148.367188 C 74.4375 144.894531 71.539063 142.070313 67.949219 142.070313 C 64.363281 142.070313 61.464844 144.894531 61.464844 148.367188 C 61.464844 151.839844 64.363281 154.664063 67.949219 154.664063 C 71.539063 154.664063 74.4375 151.839844 74.4375 148.367188 Z M 74.4375 148.367188 "/>
<path style=" stroke:none;fill-rule:nonzero;fill:rgb(0%,0%,0%);fill-opacity:1;" d="M 82.808594 136.449219 C 82.808594 132.976563 79.910156 130.152344 76.320313 130.152344 C 72.730469 130.152344 69.832031 132.976563 69.832031 136.449219 C 69.832031 139.921875 72.730469 142.742188 76.320313 142.742188 C 79.910156 142.742188 82.808594 139.921875 82.808594 136.449219 Z M 82.808594 136.449219 "/>
<path style=" stroke:none;fill-rule:nonzero;fill:rgb(0%,0%,0%);fill-opacity:1;" d="M 66.1875 136.410156 C 66.1875 135.144531 65.800781 133.953125 65.128906 132.957031 C 63.980469 131.246094 61.964844 130.113281 59.699219 130.113281 C 56.109375 130.113281 53.210938 132.9375 53.210938 136.410156 C 53.210938 139.882813 56.109375 142.707031 59.699219 142.707031 C 63.289063 142.707031 66.1875 139.882813 66.1875 136.410156 Z M 66.1875 136.410156 "/>
<path style=" stroke:none;fill-rule:nonzero;fill:rgb(0%,0%,0%);fill-opacity:1;" d="M 75.570313 124.183594 C 72.367188 124.183594 70.675781 126.796875 69.792969 129.40625 C 68.910156 132.015625 68.835938 134.625 68.835938 134.625 L 67.183594 134.625 C 67.183594 134.625 66.878906 124.203125 60.464844 124.183594 Z M 75.570313 124.183594 "/>
<path style=" stroke:none;fill-rule:nonzero;fill:rgb(0%,0%,0%);fill-opacity:1;" d="M 63.554688 143.742188 C 67.203125 140.09375 67.203125 134.625 67.203125 134.625 L 68.835938 134.605469 C 68.835938 134.605469 68.835938 140.191406 72.386719 143.742188 "/>
<path style=" stroke:none;fill-rule:nonzero;fill:rgb(0%,0%,0%);fill-opacity:1;" d="M 64.285156 132.035156 C 67.933594 135.679688 73.402344 135.679688 73.402344 135.679688 L 73.402344 137.3125 C 73.402344 137.3125 67.816406 137.3125 64.265625 140.863281 "/>
<path style=" stroke:none;fill-rule:nonzero;fill:rgb(0%,0%,0%);fill-opacity:1;" d="M 71.597656 132.015625 C 67.949219 135.660156 62.480469 135.660156 62.480469 135.660156 L 62.480469 137.292969 C 62.480469 137.292969 68.066406 137.292969 71.617188 140.84375 "/>
</g>
</svg>
